<svg width="150" height="150" viewBox="0 0 150 150" fill="none" xmlns="http://www.w3.org/2000/svg">
<g clip-path="url(#clip0_2_1984)">
<rect width="150" height="150" rx="75" fill="#FF7171"/>
<path d="M100.668 95.3052L111.444 95.2857C113.006 95.2827 114.552 94.972 115.994 94.3714C117.436 93.7708 118.746 92.8921 119.848 91.7854C120.95 90.6787 121.824 89.3658 122.419 87.9215C123.014 86.4772 123.318 84.9299 123.315 83.3679C123.309 80.214 122.05 77.1916 119.816 74.9655C117.582 72.7393 114.555 71.4917 111.401 71.4968L100.625 71.5163" fill="#FFE8D9"/>
<path d="M100.668 95.3052L111.444 95.2857C113.006 95.2827 114.552 94.972 115.994 94.3714C117.436 93.7708 118.746 92.8921 119.848 91.7854C120.95 90.6787 121.824 89.3658 122.419 87.9215C123.014 86.4772 123.318 84.9299 123.315 83.3679V83.3679C123.309 80.214 122.05 77.1916 119.816 74.9655C117.582 72.7393 114.555 71.4917 111.401 71.4968L100.625 71.5163" stroke="#323854" stroke-width="2.49343" stroke-linecap="round" stroke-linejoin="round"/>
<path d="M112.419 144.925C116.494 144.894 119.774 141.477 119.767 137.277L119.615 57.0196C119.572 34.4229 108.515 16.8326 77.538 16.891C49.2843 16.9456 35.5549 34.5671 35.5978 57.1794L35.7458 137.234C35.7458 139.301 36.5667 141.283 38.028 142.744C39.4893 144.205 41.4712 145.026 43.5378 145.026C59.6672 145.03 96.6361 145.038 112.419 144.925Z" fill="#FFD371"/>
<path d="M82.3924 17.0272C80.834 16.9298 79.2055 16.8752 77.5224 16.8791C49.2687 16.9336 35.5393 34.5552 35.5821 57.1675L35.7458 137.234C35.7443 139.078 36.3969 140.863 37.5875 142.271C38.7781 143.679 40.4295 144.619 42.2482 144.924L42.0923 61.9401C42.0456 37.1889 55.2257 17.8219 82.3924 17.0272Z" fill="#FFDD99"/>
<path d="M119.617 57.0078C119.578 36.0396 110.06 19.4037 83.9609 17.144C84.0269 17.2632 84.0604 17.3975 84.0583 17.5336C84.0232 29.8333 82.2623 42.2069 77.7507 53.7001C75.5222 59.3843 72.8846 64.9634 69.1795 69.8333C65.8835 74.1501 61.9837 77.9643 58.7461 82.3278V145.026C76.7105 145.026 100.562 145.026 112.433 144.917C116.508 144.886 119.788 141.469 119.781 137.269L119.617 57.0078Z" fill="#F4BA5D"/>
<path d="M112.419 144.925C116.494 144.894 119.774 141.477 119.767 137.277L119.615 57.0197C119.572 34.4229 108.515 16.8326 77.538 16.891C49.2843 16.9456 35.5549 34.5671 35.5978 57.1794L35.7458 137.234C35.7458 139.301 36.5667 141.283 38.028 142.744C39.4893 144.205 41.4712 145.026 43.5378 145.026C59.6672 145.03 96.6361 145.038 112.419 144.925Z" stroke="#323854" stroke-width="2.49343" stroke-linecap="round" stroke-linejoin="round"/>
<path d="M35.8125 137.133C36.9813 159.34 55.3587 172.5 77.858 172.458C100.357 172.415 118.696 159.211 119.767 136.973C112.836 129.921 96.6366 124.993 77.7683 125.028C58.9001 125.063 42.7162 130.069 35.8125 137.133Z" fill="white"/>
<path d="M77.8463 166.917C57.0924 166.956 39.8448 155.763 36.3891 136.587C36.1904 136.774 35.9995 136.977 35.8125 137.148C36.9813 159.355 55.3587 172.516 77.858 172.473C100.357 172.43 118.696 159.227 119.767 136.988C119.584 136.801 119.377 136.599 119.19 136.431C115.805 155.619 98.6002 166.878 77.8463 166.917Z" fill="#EFEFEF"/>
<path d="M35.8125 137.133C36.9813 159.34 55.3587 172.5 77.858 172.458C100.357 172.415 118.696 159.211 119.767 136.973C112.836 129.921 96.6366 124.993 77.7683 125.028C58.9001 125.063 42.7162 130.069 35.8125 137.133Z" stroke="#323854" stroke-width="2.49343" stroke-linecap="round" stroke-linejoin="round"/>
<path d="M77.8254 147.422C89.8796 147.398 100.516 140.343 106.96 129.559C99.0507 126.722 88.8783 125.028 77.7825 125.047C66.6868 125.067 56.5183 126.804 48.6211 129.668C55.0923 140.424 65.7478 147.441 77.8254 147.422Z" fill="#FFE8D9" stroke="#323854" stroke-width="2.49343" stroke-linecap="round" stroke-linejoin="round"/>
<path d="M70.3046 126.847L70.2617 105.63L85.2028 105.598L85.2418 126.816" fill="#FFE8D9"/>
<path d="M85.2262 124.576L85.1911 105.602L70.2539 105.63L70.2851 122.92C73.0084 125.795 79.016 125.581 85.2262 124.576Z" fill="#EABB9B"/>
<path d="M85.2418 126.816L85.2028 105.598L70.2617 105.63L70.3046 126.847" stroke="#323854" stroke-width="2.49343" stroke-linecap="round" stroke-linejoin="round"/>
<path d="M46.0938 124.47V130.642L46.1522 160.789C49.7174 164.238 53.913 166.97 58.5103 168.834L58.4323 126.94L58.409 114.727" fill="#FFD371"/>
<path d="M58.4403 126.941L58.5182 168.834C53.921 166.97 49.7254 164.239 46.1602 160.789C47.329 159.09 51.8834 162.889 54.1469 156.679C57.2949 148.041 58.1442 128.873 58.4403 126.941Z" fill="#F4BA5D"/>
<path d="M46.0938 124.47V130.642L46.1522 160.789C49.7174 164.238 53.913 166.97 58.5103 168.834L58.4323 126.94L58.409 114.727" stroke="#323854" stroke-width="2.49343" stroke-linecap="round" stroke-linejoin="round"/>
<path d="M50.6873 95.3987L38.7889 95.4221C35.635 95.4273 32.6081 94.1796 30.374 91.9535C28.1398 89.7273 26.8812 86.705 26.875 83.551C26.8698 80.3971 28.1175 77.3703 30.3437 75.1361C32.5698 72.9019 35.5922 71.6433 38.7461 71.6371L52.9236 71.6099" fill="#FFE8D9"/>
<path d="M28.8969 80.4809C28.8945 78.7775 29.26 77.0938 29.9682 75.5447C28.4182 77.2497 27.3975 79.3687 27.0305 81.6436C26.6635 83.9184 26.9661 86.2509 27.9014 88.3569C28.8367 90.4628 30.3643 92.2512 32.2981 93.5043C34.2319 94.7574 36.4884 95.4209 38.7927 95.4142L50.691 95.3908L50.9793 92.3286H40.8147C37.6641 92.3348 34.6398 91.0908 32.4054 88.8696C30.1711 86.6484 28.9092 83.6314 28.8969 80.4809Z" fill="#EABB9B"/>
<path d="M50.6873 95.3987L38.7889 95.4221C35.635 95.4273 32.6081 94.1796 30.374 91.9535C28.1398 89.7273 26.8812 86.705 26.875 83.551C26.8698 80.3971 28.1175 77.3703 30.3437 75.1361C32.5698 72.9019 35.5922 71.6433 38.7461 71.6371L52.9236 71.6099" stroke="#323854" stroke-width="2.49343" stroke-linecap="round" stroke-linejoin="round"/>
<path d="M32.1562 79.3394H32.242C34.1818 79.3363 36.0435 80.1036 37.4177 81.4727C38.7919 82.8418 39.5662 84.7006 39.5703 86.6404V87.2638" fill="#FFE8D9"/>
<path d="M32.1562 79.3394H32.242C34.1818 79.3363 36.0435 80.1036 37.4177 81.4727C38.7919 82.8418 39.5662 84.7006 39.5703 86.6404V87.2638" stroke="#323854" stroke-width="2.49343" stroke-linecap="round" stroke-linejoin="round"/>
<path d="M67.4056 42.5184C58.741 42.5184 51.1789 48.2689 49.0439 56.4621C48.2911 59.3562 47.914 62.3351 47.9218 65.3255L43.4492 70.3903L43.4765 85.3703C43.5116 104.948 60.0305 121.237 80.0987 121.451C100.483 121.669 114.438 105.598 114.383 85.7677L114.344 65.2008C114.341 62.0292 113.905 58.8728 113.047 55.8193C110.822 47.8637 103.256 42.46 94.7983 42.46L67.4056 42.5184Z" fill="#FFE8D9"/>
<path d="M113.063 55.8232C110.823 47.8637 103.257 42.46 94.7987 42.46L67.4061 42.5106C66.884 42.5106 66.3658 42.534 65.8477 42.5768C67.7956 60.6698 85.5302 75.1862 106.818 75.3888C109.346 75.4141 111.871 75.229 114.368 74.8356V65.2008C114.362 62.0301 113.923 58.8751 113.063 55.8232Z" fill="#EABB9B"/>
<path d="M81.5403 116.437C61.2539 116.219 44.4622 100.199 43.5155 80.594L43.4727 80.6797V85.3549C43.5077 104.932 60.0267 121.221 80.0949 121.436C95.6009 121.603 107.367 112.342 112.112 99.1739C106.12 109.662 95.2269 116.585 81.5403 116.437Z" fill="#EABB9B"/>
<path d="M48.0933 61.8037C47.9816 62.9309 47.9245 64.0725 47.9219 65.2283L48.0972 64.8815L48.0933 61.8037Z" fill="#EABB9B"/>
<path d="M67.4056 42.5184C58.741 42.5184 51.1789 48.2689 49.0439 56.4621C48.2911 59.3562 47.914 62.3351 47.9218 65.3255L43.4492 70.3903L43.4765 85.3703C43.5116 104.948 60.0305 121.237 80.0987 121.451C100.483 121.669 114.438 105.598 114.383 85.7677L114.344 65.2008C114.341 62.0292 113.905 58.8728 113.047 55.8193C110.822 47.8637 103.256 42.46 94.7983 42.46L67.4056 42.5184Z" stroke="#323854" stroke-width="2.49343" stroke-linecap="round" stroke-linejoin="round"/>
<path d="M67.5305 84.1398C68.9851 84.137 70.1619 82.9556 70.1591 81.501C70.1563 80.0465 68.9749 78.8696 67.5204 78.8724C66.0659 78.8752 64.889 80.0566 64.8918 81.5111C64.8946 82.9657 66.076 84.1425 67.5305 84.1398Z" fill="#444A54"/>
<path d="M104.409 84.0689C105.864 84.0661 107.041 82.8847 107.038 81.4302C107.035 79.9757 105.854 78.7988 104.399 78.8016C102.945 78.8044 101.768 79.9858 101.771 81.4403C101.773 82.8949 102.955 84.0717 104.409 84.0689Z" fill="#444A54"/>
<path d="M59.1641 73.8188C62.3666 71.5903 66.8586 70.4449 72.9052 70.8384" stroke="#323854" stroke-width="2.49343" stroke-linecap="round" stroke-linejoin="round"/>
<path d="M110.94 73.7215C107.73 71.5047 103.234 70.3749 97.1914 70.7917" stroke="#323854" stroke-width="2.49343" stroke-linecap="round" stroke-linejoin="round"/>
<path d="M72.9453 93.743C73.7382 96.4133 75.3735 98.7554 77.6072 100.42C79.8409 102.084 82.553 102.981 85.3384 102.977H85.8994C88.6849 102.97 91.3935 102.063 93.6209 100.39C95.8482 98.7178 97.4748 96.3695 98.2575 93.6963L72.9453 93.743Z" fill="#444A54" stroke="#323854" stroke-width="2.49343" stroke-miterlimit="10" stroke-linecap="round"/>
<path d="M67.0733 29.6035L67.6266 39.7331C67.7558 43.9782 67.0322 48.2062 65.4987 52.1668C63.9653 56.1274 61.653 59.7403 58.6987 62.7915C55.7444 65.8428 52.2081 68.2705 48.2991 69.9311C44.39 71.5917 40.1877 72.4514 35.9405 72.4593H35.6094V66.5141" fill="#FFD371"/>
<path d="M67.6266 39.7331L67.0733 29.6035L63.7267 35.4475C65.3474 65.0881 35.6094 72.4593 35.6094 72.4593H35.9405C40.1877 72.4514 44.39 71.5917 48.2991 69.9311C52.2081 68.2705 55.7444 65.8428 58.6987 62.7915C61.653 59.7403 63.9653 56.1274 65.4987 52.1668C67.0322 48.2062 67.7558 43.9782 67.6266 39.7331Z" fill="#F4BA5D"/>
<path d="M67.0733 29.6035L67.6266 39.7331C67.7558 43.9782 67.0322 48.2062 65.4987 52.1668C63.9653 56.1274 61.653 59.7403 58.6987 62.7915C55.7444 65.8428 52.2081 68.2706 48.2991 69.9311C44.3901 71.5917 40.1877 72.4514 35.9405 72.4593H35.6094V63.0077" stroke="#323854" stroke-width="2.49343" stroke-linecap="round" stroke-linejoin="round"/>
<path d="M119.644 71.4189L119.617 57.0038C119.574 34.4071 108.517 16.8167 77.5403 16.8751C66.9432 16.8946 64.2939 24.6126 65.1549 34.2473C67.025 55.5467 85.3089 71.6488 106.686 71.5046L119.644 71.4189Z" fill="#FFD371"/>
<path d="M75.6076 20.1984C83.5671 21.0361 91.0279 23.21 98.1498 27.2774C117.758 38.4784 119.613 57.0077 119.613 57.0077C119.57 34.411 108.513 16.8206 77.5361 16.8791C73.7454 16.8791 70.9753 17.8842 69.0195 19.6062C71.1974 19.7816 73.4064 19.9686 75.6076 20.1984Z" fill="#FFDD99"/>
<path d="M74.924 49.9988C70.541 46.0288 67.2255 41.3926 65.3516 36.1252C68.0826 56.4857 85.9224 71.6527 106.653 71.5086L119.623 71.419L119.599 58.2934C104.218 62.5556 87.2197 61.1608 74.924 49.9988Z" fill="#F4BA5D"/>
<path d="M119.644 71.4189L119.617 57.0038C119.574 34.4071 108.517 16.8167 77.5403 16.8751C66.9432 16.8946 64.2939 24.6126 65.1549 34.2473C67.025 55.5467 85.3089 71.6488 106.686 71.5046L119.644 71.4189Z" stroke="#323854" stroke-width="2.49343" stroke-linecap="round" stroke-linejoin="round"/>
<path d="M85.613 96.6143C84.1133 96.6172 82.6384 96.9964 81.3233 97.7173C80.0082 98.4381 78.8951 99.4775 78.0859 100.74C80.2245 102.2 82.7549 102.978 85.3442 102.973H85.9052C88.4947 102.969 91.0223 102.181 93.1556 100.713C92.3418 99.4531 91.2248 98.4177 89.907 97.7016C88.5892 96.9855 87.1128 96.6116 85.613 96.6143Z" fill="#FF6161"/>
<path d="M85.613 96.6143C84.1133 96.6172 82.6384 96.9964 81.3233 97.7173C80.0082 98.4381 78.8951 99.4775 78.0859 100.74C80.2245 102.2 82.7549 102.978 85.3442 102.973H85.9052C88.4947 102.969 91.0223 102.181 93.1556 100.713C92.3418 99.4531 91.2248 98.4177 89.907 97.7016C88.5892 96.9855 87.1128 96.6116 85.613 96.6143Z" stroke="#323854" stroke-width="2.49343" stroke-linecap="round" stroke-linejoin="round"/>
<path d="M111.934 57.822C97.9978 59.2089 82.2814 52.4689 74.9219 43.1536C76.3049 44.8172 99.899 57.1713 111.934 57.822Z" fill="#F4BA5D"/>
<path d="M58.0488 85.4132C56.7514 87.3923 66.8147 94.8921 68.1004 91.9584C69.3861 89.0247 59.3461 83.434 58.0488 85.4132Z" fill="#FFF2EB"/>
</g>
<defs>
<clipPath id="clip0_2_1984">
<rect width="150" height="150" rx="75" fill="white"/>
</clipPath>
</defs>
</svg>
