<svg width="150" height="150" viewBox="0 0 150 150" fill="none" xmlns="http://www.w3.org/2000/svg">
<g clip-path="url(#clip0_6_10770)">
<rect width="150" height="150" rx="75" fill="#B18FFA"/>
<path d="M62.7584 57.689C62.7498 57.3168 62.3017 57.2777 62.082 57.4443C61.9115 57.5392 61.8363 57.8028 61.8825 58.0432C61.6511 59.4583 61.4688 60.8017 61.2373 62.2168C57.5842 57.6176 50.9445 56.1435 45.7264 59.4453C40.8495 62.5575 39.2791 68.4655 41.2556 73.5095C38.0646 71.3146 33.5985 71.9803 29.9272 73.1798C24.6631 74.9326 19.5809 77.9593 16.7474 82.8622C14.2464 87.2032 13.8063 92.7708 16.6993 97.0166C19.2455 100.768 23.9079 102.433 28.1862 101.117C28.7262 105.563 33.4118 107.348 37.4847 107.256C42.5636 107.158 47.9578 105.755 52.4039 103.348C60.2613 99.0436 65.827 89.6932 62.0674 80.9394C67.1175 80.0375 70.9194 75.2612 71.0154 70.1955C71.0537 64.8292 67.3889 60.1699 62.7584 57.689Z" fill="#D24A43"/>
<path d="M127.432 104.244C130.761 118.823 132.419 133.96 134.851 148.677C137.403 164.235 139.943 179.734 142.495 195.293L142.985 197.851C134.683 199.76 125.934 201.893 117.62 203.743C93.7496 209.117 70.2449 215.898 46.4387 221.567C35.1657 194.8 24.7596 167.468 16.1689 139.67C11.8927 125.86 11.3826 111.46 21.7258 100.103C26.7293 94.6475 33.0228 91.4483 39.8329 89.4988C41.2816 89.0524 42.7893 88.5928 44.2635 88.2648C46.2558 87.7595 48.3197 87.3002 50.3502 86.9724C52.7807 86.4936 55.2958 86.12 57.6929 85.7727L73.9752 83.3281L80.1974 82.3777C80.623 82.345 81.0357 82.2531 81.4485 82.1613C87.3631 81.2173 93.3239 80.2011 99.2786 80.3026C105.41 80.3647 111.979 81.8803 116.833 85.7621C122.645 90.361 125.79 96.9181 127.432 104.244Z" fill="#FECA55"/>
<path d="M20.0368 130.851C19.7689 160.141 29.9281 189.918 54.9128 188.679C79.8975 187.44 20.0368 130.851 20.0368 130.851Z" fill="black"/>
<path d="M120.053 126.502C116.904 118.667 113.755 110.832 110.661 102.984C110.458 102.52 109.819 102.856 109.966 103.333C112.698 110.178 115.429 117.023 118.229 123.917C120.656 130.065 125.626 138.572 121.384 145.019C121.115 145.463 121.722 145.899 121.991 145.456C125.908 139.465 122.345 132.234 120.053 126.502Z" fill="black"/>
<path d="M75.3053 81.1325L79.612 120.594C79.612 120.594 57.4253 99.0901 45.8521 86.2315C47.8286 85.7222 49.8763 85.2593 51.8909 84.9286C54.3023 84.4458 56.7976 84.0688 59.1759 83.7183L75.3053 81.1325Z" fill="#FFA79B"/>
<path d="M78.4812 76.6235C77.8341 77.3328 72.9041 110.863 72.9041 110.863L51.6009 90.9848L60.3406 70.2624L78.4812 76.6235Z" fill="#FFA79B"/>
<path d="M76.4129 92.5435C77.629 84.6487 78.8616 77.1276 79.1588 76.8071L68.2976 72.9039C67.4406 79.8976 71.4108 87.095 76.4129 92.5435Z" fill="black"/>
<path d="M65.7753 36.7544C71.3355 31.3327 85.1371 33.9434 92.3435 39.7209C95.4699 42.2506 98.4419 40.5851 97.8522 43.8906C96.3885 52.0586 91.2226 79.2878 86.5427 82.7691C77.1116 89.6857 65.9647 82.1841 62.6777 72.537C59.3445 62.9624 57.8776 44.5071 65.7753 36.7544Z" fill="#FFA79B"/>
<path d="M100.861 37.4208C97.6673 34.64 90.7271 34.9828 87.3187 36.167C79.8941 33.111 70.5235 32.4461 66.0808 36.437C60.591 41.4276 59.3991 51.0831 60.1513 59.7956C63.468 59.3541 65.1115 57.0252 68.3571 55.0903C78.5159 54.1452 85.3761 47.6058 86.9255 43.9691C88.9033 46.0955 96.9409 46.7332 99.7359 44.4688C103.48 41.044 101.873 38.2983 100.861 37.4208Z" fill="#D24A43"/>
<path d="M54.3711 54.985C56.6619 51.2471 63.5138 50.3338 67.3553 54.9941C66.5105 59.7109 65.7964 64.4605 65.1413 69.1969C62.4402 69.8634 57.29 68.9073 54.8695 65.9757C52.0528 62.6366 51.8951 59.0125 54.3711 54.985Z" fill="#FFA79B"/>
<path d="M61.6252 58.3875C62.3784 59.728 63.1438 61.1288 63.897 62.4692C64.1672 62.9116 63.4578 63.2665 63.1876 62.8241C63.1057 62.7169 63.0935 62.6566 63.0116 62.5493C62.9993 62.489 62.9993 62.489 62.9871 62.4287C62.3158 61.1955 61.6445 59.9622 60.9036 58.6821C60.703 58.2867 61.4124 57.9318 61.6252 58.3875Z" fill="#952C28"/>
<path d="M81.1765 55.9524C80.8174 56.5891 80.5301 57.2716 80.171 57.9083C79.8246 58.604 80.8981 58.984 81.2572 58.3473C81.6163 57.7107 81.9036 57.0281 82.2627 56.3915C82.6091 55.6958 81.5229 55.2567 81.1765 55.9524Z" fill="black"/>
<path d="M93.0906 57.8116C92.7315 58.4482 92.4442 59.1308 92.0851 59.7674C91.7387 60.4631 92.8122 60.8431 93.1713 60.2065C93.5304 59.5698 93.8177 58.8873 94.1768 58.2506C94.5232 57.5549 93.437 57.1159 93.0906 57.8116Z" fill="black"/>
<path d="M89.5773 64.7055C89.1404 64.4332 88.7123 65.0699 89.1492 65.3423C90.0957 65.9324 89.3949 67.0517 88.5775 67.3454C87.7602 67.639 86.8292 67.4101 85.971 67.2265C85.439 67.0956 85.2294 67.8686 85.6886 67.954C87.0787 68.2685 88.7698 68.5195 89.8444 67.3821C90.621 66.6112 90.5966 65.341 89.5773 64.7055Z" fill="#952C28"/>
<path d="M83.9944 53.0007C83.1605 52.9329 82.3139 52.8071 81.48 52.7392C80.4526 52.6513 80.3458 54.1892 81.3731 54.2772C82.2071 54.345 83.0536 54.4708 83.8875 54.5386C84.9149 54.6266 85.0218 53.0887 83.9944 53.0007Z" fill="#952C28"/>
<path d="M95.0749 53.6718C94.6054 53.5283 94.0762 53.3976 93.6068 53.2541C92.6081 52.9798 92.1223 54.4919 93.121 54.7662C93.5904 54.9097 94.1197 55.0404 94.5891 55.1839C95.5153 55.4126 96.0735 53.946 95.0749 53.6718Z" fill="#952C28"/>
<path d="M81.8437 75.7526C80.8999 75.6546 80.1232 74.8962 79.9211 73.9456C79.8201 73.4704 79.0568 73.6429 79.1578 74.1182C79.4357 75.4251 80.4977 76.3681 81.8192 76.5053C82.2681 76.5906 82.2926 75.8379 81.8437 75.7526Z" fill="#952C28"/>
<path d="M150.715 149.883C151.584 148.593 172.693 106.884 173.317 106.378C173.941 105.873 206.822 105.702 206.822 105.702L182.926 151.565L150.715 149.883Z" fill="#2252B2"/>
<path d="M118.332 165.508C113.736 159.609 109.689 153.401 105.525 147.219C93.698 153.329 84.6286 158.267 84.6286 158.267C84.6286 158.267 64.9542 134.083 39.8111 107.059C39.8111 107.059 17.7416 136.815 17.9862 137.945C18.2308 139.074 66.8132 225.844 84.4818 224.298C96.2957 223.239 114.391 202.092 131.56 181.773C127.081 176.408 122.602 171.044 118.332 165.508Z" fill="#FECA55"/>
<path d="M153.847 129.67C151.114 130.562 147.121 129.691 143.468 131.211C140.365 134.954 120.993 143.776 110.033 149.199C112.49 161.79 123.02 185.033 135.8 182.793C149.291 167.346 162.092 152.724 170.779 148.588C172.024 148.014 153.847 129.67 153.847 129.67Z" fill="#FFA79B"/>
<path d="M188.087 132.332C189.217 130.629 187.866 128.771 186.59 128.67C186.974 127.001 185.662 124.462 184.194 125.197C184.194 125.197 184.694 123.197 182.534 121.936C179.78 121.105 173.563 126.194 168.841 129.808C165.706 130.096 153.757 132.224 153.667 133.527C152.498 133.343 151.2 133.43 149.954 133.752C143.093 134.206 140.535 141.954 143.344 147.298C145.063 150.546 148.307 152.742 151.841 153.41C151.212 154.825 153.858 160.57 155.601 159.656C174.99 149.739 179.032 155.559 188.599 136.932C190.61 133.822 189.457 132.29 188.087 132.332Z" fill="#FFA79B"/>
<path d="M105.872 149.606C98.4656 152.525 91.0094 155.514 83.6024 158.433C83.3694 158.536 83.0751 158.65 82.842 158.752C77.9613 160.668 73.1419 162.573 68.2732 164.546C67.8072 164.752 67.4059 164.044 67.8719 163.838C72.6914 161.934 77.5108 160.029 82.3302 158.125C82.5633 158.022 82.8576 157.908 83.0906 157.805C90.5468 154.817 98.015 151.887 105.544 148.945C106.011 148.739 106.351 149.458 105.872 149.606Z" fill="white"/>
<path d="M83.5443 157.572C83.3274 157.685 83.0532 157.811 82.8364 157.924C82.6715 157.709 82.5066 157.494 82.3417 157.279C73.9763 146.255 65.5984 135.17 57.2331 124.145C56.9158 123.776 57.5161 123.197 57.776 123.579C66.2239 134.711 74.6018 145.796 83.0496 156.928C83.2145 157.143 83.3794 157.357 83.5443 157.572Z" fill="white"/>
<path d="M153.607 125.142C149.922 125.383 146.771 127.206 144.734 130.075C144.445 130.494 145.105 130.906 145.394 130.488C147.334 127.758 150.268 126.098 153.771 125.893C154.282 125.913 154.106 125.104 153.607 125.142Z" fill="#952C28"/>
</g>
<defs>
<clipPath id="clip0_6_10770">
<rect width="150" height="150" rx="75" fill="white"/>
</clipPath>
</defs>
</svg>
