<svg width="150" height="150" viewBox="0 0 150 150" fill="none" xmlns="http://www.w3.org/2000/svg">
<g clip-path="url(#clip0_2_3346)">
<rect width="150" height="150" rx="75" fill="#6CFFB0"/>
<path d="M60.0239 45.6479C60.0239 45.6479 22.1792 67.9624 35.5851 73.9895C50.8137 80.8387 76.8097 71.3631 76.8097 71.3631L60.0239 45.6479Z" fill="#D6261D"/>
<path d="M81.4315 183.107C81.4315 183.107 187.04 231.949 204.669 235.275C222.304 238.624 233.11 243.168 238.194 234.435C243.86 233.734 244.275 231.96 246.215 227.359C251.076 226.608 249.238 218.904 240.966 217.384C232.715 215.859 206.894 205.828 206.894 205.828C206.894 205.828 232.539 202.508 232.754 197.644C232.997 192.798 198.473 190.521 198.473 190.521L98.0137 141.828L81.4315 183.107Z" fill="#F8934F"/>
<path d="M114.611 147.537C113.474 148.137 112.268 148.926 111.005 149.948C99.0435 159.67 100.018 178.189 104.227 191.763C111.307 195.075 119.535 198.92 128.222 202.906C128.161 201.762 128.178 200.645 128.361 199.532C128.811 196.725 130.783 194.446 131.179 191.702C132.071 185.511 126.669 178.235 125.437 172.189C124.069 165.431 127.509 160.284 127.746 154.103L114.611 147.537Z" fill="#F77C2D"/>
<path d="M126.438 147.516L125.687 149.921L111.43 195.66L106.167 219.933L104.655 244.132L-32.5804 279.841C-32.5804 279.841 -28.6012 150.937 41.2832 109.541C42.1313 109.748 42.9854 109.977 43.8395 110.206C56.4864 113.568 70.0222 118.908 82.4004 124.501L82.4572 124.534C106.681 135.527 126.438 147.516 126.438 147.516Z" fill="#0064C8"/>
<path d="M48.1172 110.964C48.1172 110.964 69.5484 134.355 77.7045 132.406C85.8607 130.457 85.2132 123.624 85.2132 123.624L48.1172 110.964Z" fill="#0055A8"/>
<path d="M129.237 148.573L128.494 150.991C125.38 149.521 120.011 146.761 116.995 146.651C111.962 146.502 110.098 147.401 106.373 143.274C104.271 140.94 102.356 137.959 99.4052 136.566C95.6647 134.808 91.9688 133.039 88.6119 129.937C86.3567 127.835 85.8139 127.501 85.4035 125.507L85.46 125.54C109.58 136.55 129.237 148.573 129.237 148.573Z" fill="#0F70D1"/>
<path d="M42.2618 108.248C41.0296 112.4 37.5704 116.742 34.9533 119.055C27.7605 125.434 20.0201 130.181 14.6597 138.566C8.70849 147.951 9.09354 160.774 4.66178 170.976C2.66896 175.572 -0.38554 179.469 -2.32225 184.098C-5.81896 192.535 -5.69332 201.848 -5.5056 210.856C-5.21381 225.218 -0.826501 236.485 -7.51963 249.721C-11.6218 257.84 -11.521 265.886 -11.1796 274.036L-32.7781 279.841C-32.7781 279.841 -29.1308 149.543 39.7322 107.559C40.5754 107.789 41.4186 108.018 42.2618 108.248Z" fill="#0F70D1"/>
<path d="M89.4531 133.284C89.4531 133.284 101.633 146.423 103.049 183.33" stroke="#1A1B16" stroke-width="1.89034" stroke-miterlimit="10" stroke-linecap="round" stroke-linejoin="round"/>
<path d="M47.2176 52.821C47.2176 52.821 47.0454 70.8536 57.0006 83.3998C59.9003 87.043 66.0762 74.4855 66.0762 74.4855L69.1379 49.7532L47.2176 52.821Z" fill="#1A1B16"/>
<path d="M103.069 55.8827C103.031 57.9982 102.991 60.0185 102.905 61.9553C102.908 62.146 102.888 62.3426 102.869 62.5393L102.864 62.6123C101.196 99.5187 90.3827 103.371 90.3827 103.371C90.3827 103.371 90.0024 105.004 89.432 107.454C88.1279 113.09 85.9156 123.061 85.3278 127.524C79.2785 130.269 65.3692 121.745 55.5725 114.799C55.1886 114.519 54.8107 114.261 54.4268 113.981C48.8957 110.008 45.6544 108.388 45.6544 108.388L51.692 77.56L51.8225 76.8791L51.8854 76.5752C50.2668 75.5014 47.4607 72.9993 46.8774 70.787C45.7521 66.519 47.8015 62.262 51.0222 61.5431C53.4128 61.0225 58.8075 62.7596 59.098 68.1125C59.4891 75.1131 63.9489 73.0336 64.1242 64.111C64.1764 61.7764 64.3243 55.3731 64.39 54.4464C65.6465 54.7798 100.805 57.0632 103.069 55.8827Z" fill="#F8934F"/>
<path d="M103.598 59.054L103.463 62.9842L103.459 63.0575C101.806 100.11 91.0571 103.984 91.0571 103.984C91.0571 103.984 90.6795 105.624 90.1132 108.085L82.2455 105.289C83.1835 105.612 84.9849 104.884 85.859 104.599C88.3261 103.786 90.5964 102.402 92.3645 100.457C97.4323 94.8056 99.034 85.5991 100.629 78.365C101.968 72.2341 102.889 66.0481 103.559 59.8098C103.544 59.5734 103.596 59.3189 103.598 59.054Z" fill="#F9AF79"/>
<path d="M104.978 55.7143C104.951 56.6314 104.919 57.5266 104.886 58.4218C102.555 59.2703 99.7837 59.5493 97.8118 59.6332C95.1426 59.747 92.5802 58.8775 89.906 59.3428C87.7403 59.7074 85.6274 60.7364 83.3462 60.4754C80.9163 60.204 78.9866 58.4097 76.4376 58.6109C73.8143 58.807 71.4567 60.3859 68.8048 60.5656C68.1361 60.6119 66.4777 60.2224 65.1732 59.6065C65.2388 58.0028 65.287 56.3333 65.3534 55.1963C65.8898 54.7386 66.4493 54.3687 67.0717 54.0535C74.3495 54.7305 102.905 56.7101 104.978 55.7143Z" fill="#F77C2D"/>
<path d="M52.7656 91.5849C52.9265 93.7004 53.5697 95.416 54.3793 97.3284C55.0536 98.8898 56.4335 101.397 56.2788 103.187C56.1323 104.732 54.9788 106.264 54.5085 107.728C53.8589 109.776 54.1116 111.793 54.4963 113.871C54.5193 113.962 54.5422 114.053 54.549 114.172C54.1737 113.888 53.8042 113.625 53.4289 113.341C48.0211 109.299 44.8509 107.649 44.8509 107.649L50.8145 76.3726C51.5309 76.345 52.2599 76.4595 52.7786 76.8503C53.9602 76.3546 54.4926 81.7896 54.2969 82.8628C53.7386 85.7348 52.5455 88.5877 52.7656 91.5849Z" fill="#F77C2D"/>
<path d="M55.5496 70.1526C55.5496 70.1526 52.7787 71.3467 51.5536 69.0366C50.3284 66.7264 52.0835 64.7233 52.0835 64.7233C52.764 65.2456 53.3789 65.787 53.9299 66.4433C54.818 67.4819 55.4631 68.7597 55.5496 70.1526Z" fill="#F77C2D"/>
<path d="M52.0858 64.6969C52.0858 64.6969 50.3397 66.7083 51.5557 69.0308C52.7717 71.3532 55.5269 70.1555 55.5269 70.1555C55.4479 68.7781 54.8018 67.4712 53.9198 66.4268C53.0379 65.3825 51.936 64.5719 50.8241 63.8127" stroke="#BF3028" stroke-width="1.89034" stroke-miterlimit="10" stroke-linecap="round" stroke-linejoin="round"/>
<path d="M50.4531 74.7483C50.4531 74.7483 52.254 76.4332 54.9812 76.2502" stroke="#BF3028" stroke-width="1.89034" stroke-miterlimit="10" stroke-linecap="round" stroke-linejoin="round"/>
<path d="M65.3398 100.451C65.3398 100.451 79.4782 108.922 90.0237 103.82C89.1893 107.563 88.2589 111.306 88.2589 111.306C88.2589 111.306 73.4044 112.628 65.3398 100.451Z" fill="#BF3028"/>
<path d="M85.881 81.6C85.194 79.812 88.9955 76.2351 90.4441 78.4267C91.8704 80.6244 86.7114 83.8191 85.881 81.6Z" fill="#F77C2D"/>
<path d="M79.2275 72.1815C79.2111 73.1692 78.8636 73.8926 78.1303 73.888C77.3971 73.8834 76.822 73.066 76.8384 72.0783C76.8548 71.0906 77.4593 70.2692 78.1925 70.2738C78.9258 70.2785 79.244 71.1938 79.2275 72.1815Z" fill="#1A1B16"/>
<path d="M96.6363 72.7985C96.6298 73.735 96.2979 74.4295 95.5861 74.4186C94.8744 74.4077 94.339 73.651 94.3455 72.7145C94.3521 71.778 94.947 71.0078 95.6368 71.025C96.3266 71.0423 96.6648 71.8557 96.6363 72.7985Z" fill="#1A1B16"/>
<path d="M73.2244 66.2998C73.2244 66.2998 77.4494 64.7084 81.4951 65.7127" stroke="#1A1B16" stroke-width="1.89034" stroke-miterlimit="10" stroke-linecap="round" stroke-linejoin="round"/>
<path d="M93.3125 66.4995C93.3125 66.4995 96.6692 65.7354 100.082 66.5772" stroke="#1A1B16" stroke-width="1.89034" stroke-miterlimit="10" stroke-linecap="round" stroke-linejoin="round"/>
<path d="M84.3049 91.2558C84.3478 90.5174 83.5229 89.8365 82.4623 89.735C81.4018 89.6335 80.5073 90.1497 80.4644 90.8881C80.4215 91.6265 81.2464 92.3074 82.307 92.4089C83.3675 92.5105 84.262 91.9942 84.3049 91.2558Z" fill="#F77C2D"/>
<path d="M79.1133 85.1873C82.0341 87.4237 85.5377 88.2525 89.2057 87.3876" stroke="#BF3028" stroke-width="1.89034" stroke-miterlimit="10" stroke-linecap="round" stroke-linejoin="round"/>
<path d="M87.5863 67.9055L90.4967 78.7458C90.6996 79.4675 90.4855 80.2624 89.9785 80.8012L87.5111 82.2065" stroke="#BF3028" stroke-width="1.89034" stroke-miterlimit="10" stroke-linecap="round" stroke-linejoin="round"/>
<path d="M82.3829 25.0028C82.3829 25.0028 81.8811 20.8114 83.4955 20.5598C85.1099 20.3082 85.2207 25.413 85.2207 25.413L82.3829 25.0028Z" fill="#BF3028"/>
<path d="M105.125 55.4164C86.9771 58.0324 62.0107 55.9324 52.4287 54.9371C49.9126 54.6849 48.47 54.5015 48.47 54.5015C48.47 54.5015 45.3979 23.5453 81.5826 24.5465C85.1588 24.6579 88.1942 25.2924 90.774 26.3327C107.153 32.9494 105.125 55.4164 105.125 55.4164Z" fill="#F52A21"/>
<path d="M84.1589 56.0916C84.5333 55.9872 84.7483 55.5953 84.6391 55.2162C84.53 54.8371 84.1381 54.6144 83.7637 54.7187C83.3894 54.8231 83.1744 55.215 83.2835 55.5941C83.3927 55.9732 83.7846 56.196 84.1589 56.0916Z" fill="#FF8A74"/>
<path d="M89.0222 56.1844C89.3966 56.08 89.6116 55.688 89.5024 55.3089C89.3933 54.9298 89.0014 54.7071 88.627 54.8115C88.2527 54.9159 88.0377 55.3078 88.1468 55.6869C88.256 56.066 88.6479 56.2887 89.0222 56.1844Z" fill="#FF8A74"/>
<path d="M93.8855 56.2766C94.2599 56.1723 94.4748 55.7803 94.3657 55.4012C94.2566 55.0221 93.8646 54.7994 93.4903 54.9038C93.116 55.0082 92.901 55.4001 93.0101 55.7792C93.1192 56.1583 93.5112 56.381 93.8855 56.2766Z" fill="#FF8A74"/>
<path d="M91.5197 26.0856C91.4868 26.141 91.4478 26.1744 91.3861 26.2136C89.2961 28.3423 86.0425 28.5579 83.1793 28.4394C78.2309 28.2161 74.8835 29.6539 71.8226 33.4157C70.5604 34.9582 69.1989 37.1838 67.1763 37.9091C65.8805 38.3793 64.4051 38.1197 63.0767 38.3866C60.5556 38.8861 57.5082 40.0127 56.5097 42.4986C55.9044 43.9682 56.1464 45.7865 55.9125 47.3733C55.5544 49.814 54.4546 52.8896 52.1396 54.3001C49.5969 54.0296 48.1398 53.8358 48.1398 53.8358C48.1398 53.8358 45.5813 22.9523 82.1952 24.2249C85.8363 24.3573 88.904 25.0348 91.5197 26.0856Z" fill="#F65852"/>
<path d="M77.7157 52.4825C83.9064 53.2699 93.032 53.5117 99.1919 52.5171C99.1919 52.5171 100.402 40.8185 89.6354 40.7843C77.0243 40.7207 77.7157 52.4825 77.7157 52.4825Z" fill="#1A1B16"/>
</g>
<defs>
<clipPath id="clip0_2_3346">
<rect width="150" height="150" rx="75" fill="white"/>
</clipPath>
</defs>
</svg>
