<svg width="150" height="150" viewBox="0 0 150 150" fill="none" xmlns="http://www.w3.org/2000/svg">
<g clip-path="url(#clip0_2_2292)">
<rect width="150" height="150" rx="75" fill="#DB90DD"/>
<path d="M22.3453 142.045C3.85405 143.512 -4.00345 144.941 -14.4678 147.091C-12.7647 148.625 4.11592 160.5 12.2153 172.279C15.9172 177.662 -7.65718 193.473 -9.01281 192.698C-32.0534 179.516 -49.0359 163.724 -54.8047 155.26C-59.7197 148.048 -60.2378 137.558 -55.3597 131.598C-46.7472 121.076 -25.0716 114.285 1.70092 110.81C18.5059 108.63 46.2634 105.679 63.2622 104.696C77.1134 103.895 90.5303 110.243 98.3091 121.733C101.703 126.746 104.262 133.036 104.813 140.833C105.183 146.086 105.322 152.367 105.058 159.713C104.319 180.271 99.7441 200.443 91.6347 219.325C78.6347 224.6 42.9397 232.328 3.30279 212.009C13.6872 196.941 18.0991 179.372 19.1772 161.2C19.5566 154.801 18.6415 148.513 17.2872 142.496" fill="url(#paint0_linear_2_2292)"/>
<path d="M17.2891 142.496C18.6434 148.513 19.5584 154.801 19.1791 161.2C18.1016 179.372 13.6891 196.942 3.30469 212.009C3.30469 212.009 24.8597 224.891 54.266 225.229C83.6728 225.567 91.6366 219.324 91.6366 219.324C99.7459 200.443 104.321 180.271 105.06 159.713C105.323 152.367 105.173 146.087 104.815 140.833" stroke="#871C20" stroke-miterlimit="10" stroke-linecap="round" stroke-linejoin="round"/>
<path d="M-9.01285 192.698C-32.0535 179.516 -49.0359 163.724 -54.8047 155.26C-59.7197 148.048 -60.2378 137.558 -55.3597 131.598C-46.7472 121.076 -25.0716 114.285 1.70092 110.81C23.8409 107.937 58.2366 108.811 68.7466 109.527" stroke="#871C20" stroke-miterlimit="10" stroke-linecap="round" stroke-linejoin="round"/>
<path d="M22.3483 142.045C3.85703 143.512 -4.00047 144.941 -14.4648 147.091C-12.7617 148.625 4.1189 160.5 12.2183 172.279" stroke="#871C20" stroke-miterlimit="10" stroke-linecap="round" stroke-linejoin="round"/>
<path d="M59.4472 157.113C59.9253 140.345 55.2453 129.908 55.2453 129.908C55.2453 129.908 36.309 110.263 28.0684 108.818C16.5197 106.793 11.6459 109.812 11.6459 109.812C19.4203 112.445 25.5478 123.51 28.3503 134.979C33.5297 156.175 24.2853 159.112 18.4265 159.015C16.3934 158.982 15.0265 156.894 15.9028 154.282C13.9565 156.415 14.0878 159.401 14.1297 160.268C14.8434 174.958 4.47527 195.112 -0.615356 203.814C-3.40848 208.59 -5.58472 212.085 -5.45972 215.139C-5.33472 218.193 -2.90971 220.805 3.49841 223.813C12.6128 228.093 33.6103 232.082 38.6634 230.054C42.2178 228.628 58.3215 196.583 59.4472 157.113Z" fill="url(#paint1_linear_2_2292)"/>
<path d="M59.4472 157.113C59.9253 140.345 55.2453 129.908 55.2453 129.908C55.2453 129.908 36.309 110.263 28.0684 108.818C16.5197 106.793 11.6459 109.812 11.6459 109.812C19.4203 112.445 25.5478 123.51 28.3503 134.979C33.5297 156.175 24.2853 159.112 18.4265 159.015C16.3934 158.982 15.0265 156.894 15.9028 154.282C13.9565 156.415 14.0878 159.401 14.1297 160.268C14.8434 174.958 4.47527 195.112 -0.615356 203.814C-3.40848 208.59 -5.58472 212.085 -5.45972 215.139C-5.33472 218.193 -2.90971 220.805 3.49841 223.813C12.6128 228.093 33.6103 232.082 38.6634 230.054C42.2178 228.628 58.3215 196.583 59.4472 157.113Z" stroke="#871C20" stroke-miterlimit="10" stroke-linecap="round" stroke-linejoin="round"/>
<path d="M11.105 175.24C10.7587 172.909 12.5525 170.408 14.8837 170.062C19.38 169.395 24.5981 167.237 26.9518 163.691C30.8925 157.755 31.4043 148.027 28.3937 136.298C24.1937 119.933 18.27 112.751 12.7593 110.129C10.6125 109.108 9.03748 108.818 9.50998 107.543C10.0894 105.98 12.3143 104.628 15.8043 104.628C28.1681 104.628 31.7725 115.128 36.6612 134.177C40.3331 148.482 39.4344 160.32 34.0625 168.411C30.3681 173.977 24.8125 177.775 17.8831 178.482C13.3068 178.949 11.42 177.359 11.105 175.24Z" fill="#FFD67B" stroke="#871C20" stroke-miterlimit="10"/>
<path d="M106.158 219.415C100.51 218.149 91.0825 217.46 84.9613 218.646C82.8794 217.02 84.0175 214.729 84.0175 214.729C100.476 171.803 87.4219 131.295 87.4219 131.295C86.3169 121.612 91.3056 113.959 94.6006 111.081C97.1944 108.819 96.0137 108.316 99.93 118.17C105.999 133.443 108.219 152.561 108.83 160.645C110.083 177.128 111.341 214.161 106.158 219.415Z" fill="url(#paint2_linear_2_2292)" stroke="#871C20" stroke-miterlimit="10"/>
<path d="M166.055 182.255C157.296 192.326 137.631 202.301 107.454 203.349C105.727 203.414 103.965 203.444 102.168 203.444C96.2366 203.444 92.6041 203.219 89.5816 202.773C87.0966 202.409 85.0229 201.898 82.4291 201.24C74.8954 199.331 82.2516 171.081 90.0147 171.405C91.5041 171.466 93.0322 171.531 94.5866 171.583C99.5529 171.765 104.8 171.886 110.004 171.773C120.309 171.548 130.453 170.418 137.939 167.028C133.86 165.028 118.934 159.772 108.17 153.871C107.14 145.173 105.196 133.246 101.578 122.001C100.817 119.633 100.05 118.005 99.6085 116.81C102.644 117.329 107.125 118.866 113.645 121.693C118.308 123.715 123.3 125.711 128.556 128.088C143.831 135.003 164.803 148.827 169.345 154.014C176.242 161.885 175.615 171.263 166.055 182.255Z" fill="url(#paint3_linear_2_2292)"/>
<path d="M99.6054 116.811C107.064 118.521 123.298 125.711 128.554 128.089C143.829 135.001 164.802 148.826 169.346 154.015C176.239 161.885 175.614 171.262 166.054 182.255C156.794 192.903 135.343 203.443 102.165 203.443C91.3585 203.443 88.1772 202.696 82.4285 201.241C74.8954 199.333 82.2529 171.082 90.0147 171.407C105.688 172.063 125.492 172.66 137.937 167.028C133.861 165.031 118.932 159.771 108.17 153.871" stroke="#871C20" stroke-miterlimit="10" stroke-linecap="round" stroke-linejoin="round"/>
<path d="M108.123 154.978C107.202 145.018 105.771 140.911 102.766 129.202C98.5657 112.837 89.5688 104.386 82.7407 104.386C82.6575 104.386 76.5532 103.926 76.4813 101.571C76.4101 99.2147 80.8663 98.826 83.2219 98.7541C95.5688 98.3922 104.909 109.625 109.193 128.818C111.328 138.382 113.475 151.09 109.644 161.231C109.108 162.65 108.404 158.02 108.123 154.978Z" fill="#FFD67B" stroke="#871C20" stroke-miterlimit="10"/>
<path d="M101.551 109.905C102.069 101.366 89.9401 95.609 59.1045 96.8715C27.0663 98.1828 17.6882 101.618 24.3832 114.407C26.8082 119.039 37.7713 131.537 43.962 135.57C46.8107 137.744 51.0538 139.249 54.2788 138.382C59.5182 136.974 61.9232 134.07 60.0632 122.54C59.5613 119.428 57.2538 115.756 53.822 113.424C52.5463 112.557 52.927 109.292 65.0051 108.188C72.3945 107.513 81.3482 108.188 84.3095 111.319L84.312 111.323C82.047 113.742 80.3457 116.915 79.9913 119.633C79.0513 126.834 80.8113 132.314 85.7857 133.205C89.5426 133.877 94.0526 129.44 96.0245 126.411V126.412C98.0088 123.727 101.126 116.914 101.551 109.905Z" fill="#9090DD"/>
<path d="M96.9251 125.029C96.6064 125.567 96.3064 126.029 96.0251 126.411C94.0501 129.442 89.5439 133.873 85.7876 133.204C80.8126 132.311 79.0501 126.836 79.9876 119.636C80.3439 116.917 82.0439 113.742 84.3126 111.323L84.3064 111.317C83.8501 110.829 83.2439 110.404 82.5251 110.036L87.5001 108.773C87.5001 108.773 82.1608 117.531 83.3058 123.788C85.4264 135.371 96.5145 125.439 96.9251 125.029Z" fill="url(#paint4_linear_2_2292)"/>
<path d="M54.2797 138.38C51.0547 139.248 46.8109 137.742 43.9609 135.573C37.7672 131.536 26.8047 119.042 24.3797 114.405C19.4859 105.061 23.1797 100.711 38.0172 98.5359C36.9484 98.8046 27.4422 101.202 28.5047 107.748C29.6165 114.598 37.4053 125.5 46.324 130.693C54.8365 135.651 60.6484 131.53 60.6484 127.78C61.0047 135.03 58.6109 137.217 54.2797 138.38Z" fill="url(#paint5_linear_2_2292)"/>
<path d="M84.3057 111.318C81.347 108.189 72.3945 107.511 65.0026 108.189C53.357 109.256 52.5889 112.328 53.6939 113.32C53.4814 113.156 53.0138 112.816 52.347 112.451C50.132 111.236 50.2939 108.031 52.6264 107.06C55.6045 105.821 60.1145 104.688 66.8845 104.33C75.4889 103.877 80.6307 105.013 83.6176 106.255C85.6951 107.118 86.0607 109.911 84.3057 111.318Z" fill="#7575C6" stroke="#7575C6" stroke-miterlimit="10"/>
<path d="M98.8838 121.031C99.342 119.963 99.9288 118.171 99.9288 118.171C100.747 115.631 101.376 112.784 101.551 109.904C102.069 101.365 89.9401 95.6083 59.1044 96.8708C27.0663 98.182 17.6882 101.618 24.3832 114.406C24.3832 114.406 31.7882 125.867 38.6638 131.242" stroke="#871C20" stroke-miterlimit="10" stroke-linecap="round" stroke-linejoin="round"/>
<path d="M54.2802 138.382C59.5196 136.974 61.9246 134.07 60.0646 122.54C59.5627 119.428 57.2552 115.756 53.8233 113.424C52.5477 112.557 52.9283 109.292 65.0065 108.188C72.3958 107.513 81.3496 108.188 84.3109 111.319L84.3133 111.323C82.0483 113.742 80.3471 116.915 79.9927 119.633C79.0527 126.834 80.8127 132.314 85.7871 133.205C88.1352 133.625 91.1952 131.768 93.1533 129.839" stroke="#871C20" stroke-miterlimit="10" stroke-linecap="round" stroke-linejoin="round"/>
<path d="M43.7461 111.378C52.3917 109.495 59.1586 116.933 60.063 122.54" stroke="#871C20" stroke-miterlimit="10" stroke-linecap="round" stroke-linejoin="round"/>
<path d="M88.7397 108.188C84.1853 109.966 80.7359 115.406 79.9922 119.633" stroke="#871C20" stroke-miterlimit="10" stroke-linecap="round" stroke-linejoin="round"/>
<path d="M81.0719 129.642C77.8844 130.817 74.0469 131.592 69.8844 131.798C66.5656 131.961 63.4156 131.736 60.6094 131.205C60.8781 128.986 60.5469 126.198 60.5469 126.198C61.4281 126.48 62.3531 126.717 63.3156 126.911C63.3844 126.923 63.4531 126.936 63.5281 126.948C63.8219 127.005 64.1219 127.055 64.4281 127.098C64.7219 127.148 65.0219 127.186 65.3219 127.217C65.4219 127.236 65.5219 127.248 65.6219 127.248C65.8719 127.28 66.1219 127.305 66.3781 127.323C66.4406 127.33 66.5094 127.336 66.5719 127.342C66.8594 127.361 67.1469 127.38 67.4344 127.392C67.4969 127.392 67.5594 127.398 67.6281 127.398C67.9719 127.411 68.3156 127.417 68.6656 127.417C68.9281 127.417 69.1906 127.411 69.4531 127.405C69.7156 127.398 69.9719 127.392 70.2344 127.373C70.4219 127.367 70.6094 127.355 70.8031 127.336C71.0031 127.323 71.2094 127.305 71.4094 127.286C71.7094 127.261 72.0031 127.223 72.2969 127.186C72.5469 127.155 72.7969 127.123 73.0406 127.08C73.5969 126.998 74.1406 126.892 74.6781 126.773C74.8344 126.736 74.9844 126.705 75.1406 126.667C75.2844 126.63 75.4281 126.598 75.5719 126.555C75.8844 126.48 76.1906 126.392 76.4969 126.298C76.7531 126.223 77.0031 126.142 77.2469 126.055C77.7594 125.886 78.2531 125.692 78.7344 125.492C78.9469 125.405 79.1594 125.311 79.3656 125.211C79.5156 125.142 79.6719 125.067 79.8219 124.992C79.8219 124.992 80.0031 127.517 81.0719 129.642Z" fill="#CFDCE2" stroke="#871C20" stroke-miterlimit="10"/>
<path d="M79.9891 119.636C79.7391 121.561 79.6829 123.367 79.8204 124.992C79.6704 125.067 79.5141 125.142 79.3641 125.211C79.1579 125.311 78.9454 125.405 78.7329 125.492C78.2516 125.692 77.7579 125.886 77.2454 126.055C77.0016 126.142 76.7516 126.223 76.4954 126.298C76.1891 126.392 75.8829 126.48 75.5704 126.555C75.4266 126.598 75.2829 126.63 75.1391 126.667C74.9829 126.705 74.8329 126.736 74.6766 126.773C74.1391 126.892 73.5954 126.998 73.0391 127.08C72.7954 127.123 72.5454 127.155 72.2954 127.186C72.0016 127.223 71.7079 127.261 71.4079 127.286C71.2079 127.305 71.0016 127.323 70.8016 127.336C70.6079 127.355 70.4204 127.367 70.2329 127.373C69.9704 127.392 69.7141 127.398 69.4516 127.405C69.1891 127.411 68.9266 127.417 68.6641 127.417C68.3141 127.417 67.9704 127.411 67.6266 127.398C67.5579 127.398 67.4954 127.392 67.4329 127.392C67.1454 127.38 66.8579 127.361 66.5704 127.342C66.5079 127.336 66.4391 127.33 66.3766 127.323C66.1204 127.305 65.8704 127.28 65.6204 127.248C65.5204 127.248 65.4204 127.236 65.3204 127.217C65.0204 127.186 64.7204 127.148 64.4266 127.098C64.1204 127.055 63.8204 127.005 63.5266 126.948C63.4516 126.936 63.3829 126.923 63.3141 126.911C62.3516 126.717 61.4266 126.48 60.5454 126.198C60.4391 125.086 60.2829 123.873 60.0641 122.542C59.5641 119.43 57.2579 115.755 53.8204 113.423C52.9204 112.811 52.8454 111.011 57.0891 109.617C57.0641 109.48 57.0454 109.336 57.0266 109.192C57.0079 109.048 56.9829 108.898 56.9579 108.742C56.9579 108.723 56.9516 108.705 56.9516 108.686C56.9016 108.398 56.8579 108.105 56.8079 107.805L56.7891 107.673C56.0579 103.161 54.9516 97.0797 54.9516 97.0797L75.2829 90.5984L78.5204 100.761C78.9891 102.242 79.6516 104.83 80.1016 107.911C80.1329 108.13 80.1641 108.355 80.1954 108.58C80.2204 108.767 80.2454 108.955 80.2704 109.148C82.0141 109.673 83.4266 110.386 84.3079 111.317L84.3141 111.323C82.0454 113.742 80.3454 116.917 79.9891 119.636Z" fill="url(#paint6_linear_2_2292)"/>
<path d="M57.3937 111.909C57.1519 109.18 54.9531 97.079 54.9531 97.079L75.2825 90.5984L78.5231 100.763C79.1525 102.737 80.1231 106.693 80.4706 111.162" stroke="#871C20" stroke-miterlimit="10" stroke-linecap="round" stroke-linejoin="round"/>
<path d="M56.7032 61.4539C73.017 55.4039 91.6357 48.732 91.6357 48.732C90.6782 43.9433 86.6782 38.1408 79.6982 34.1702C71.2933 29.3883 60.8282 28.7877 52.0364 33.3377C36.877 41.1833 33.1589 57.8589 34.6764 70.4802C34.9201 72.5045 37.0401 73.7964 38.6695 73.8308H38.6745C38.6557 73.0864 38.6651 72.3464 38.7076 71.607C38.7076 71.5264 38.7264 71.4458 38.7501 71.3652C38.802 71.1995 38.897 71.057 39.0064 70.9245C40.4383 69.3783 42.5107 68.5964 44.3788 67.7052C45.9532 67.0177 47.5557 66.4014 49.1726 65.8177C52.2026 64.7033 55.2895 63.7883 58.3901 62.9014C57.4789 62.6233 56.9795 62.0164 56.7032 61.4539Z" fill="url(#paint7_linear_2_2292)" stroke="#871C20" stroke-miterlimit="10"/>
<path d="M124.231 28.1735C123.359 27.3679 122.216 26.7748 120.684 26.6848C113.221 26.2485 105.169 30.4354 99.4988 33.6123C91.8126 37.9179 84.4963 42.8254 77.5732 48.2592C71.2007 52.9392 64.5338 57.036 57.127 59.971C56.9182 60.0517 56.6626 60.151 56.3638 60.2554C56.082 60.3542 56.2907 58.4367 56.3301 58.3004C57.3094 54.8986 60.8088 52.9235 64.4238 50.3242C73.087 44.0929 92.5919 28.6767 106.747 24.8329C112.926 23.1548 119.786 22.8585 124.231 28.1735Z" fill="url(#paint8_linear_2_2292)"/>
<path d="M123.365 39.8809C117.044 48.2266 98.2766 59.4641 95.991 60.4553C95.3366 59.0659 94.5778 57.724 93.7197 56.4534H93.7147C89.6322 51.6072 70.9453 59.4834 65.241 60.939C62.9603 61.6172 60.6747 62.2528 58.3891 62.9022C57.2053 62.5409 56.7122 61.6234 56.5072 60.9709C56.386 60.5834 56.5941 60.1697 56.971 60.0178C57.936 59.629 59.756 58.8759 60.6235 58.4778C66.6572 55.7122 72.2191 52.1916 77.5735 48.2597C84.496 42.8259 91.8128 37.9184 99.4991 33.6128C105.17 30.4359 113.222 26.2491 120.685 26.6853C123.781 26.8659 125.303 29.1178 126.161 31.0147C127.32 34.1672 125.21 37.4484 123.365 39.8809Z" fill="url(#paint9_linear_2_2292)" stroke="#4E9365" stroke-miterlimit="10"/>
<path d="M96.975 62.817C96.9375 62.8357 96.9125 62.8482 96.8813 62.8607C96.225 61.4732 95.4688 60.1295 94.6125 58.8607H94.6062C90.525 54.0107 71.8375 61.892 66.1312 63.3482C63.85 64.0232 61.5625 64.6607 59.2812 65.3107C57.975 64.9107 57.5062 63.8295 57.3438 63.1857C58.55 62.8357 59.7625 62.4982 60.975 62.1732C62.4062 61.7857 63.825 61.3732 65.2375 60.9357C68.075 60.0607 70.9 59.167 73.7188 58.242C75.125 57.792 76.5438 57.3482 77.9688 56.9295C78.4937 56.7732 79.025 56.617 79.5625 56.4732C80.625 56.1795 81.7 55.9232 82.7813 55.692C83.3188 55.5732 83.8625 55.467 84.4125 55.3732C85.7875 55.1295 87.175 54.9482 88.5812 54.917C89.5562 54.8982 90.5437 54.942 91.5 55.1607C92.0437 55.292 92.5812 55.467 93.0437 55.792C93.3062 55.967 93.5375 56.192 93.7125 56.4545H93.7188C94.575 57.7232 95.3375 59.067 95.9875 60.4545C96.3563 61.2232 96.6812 62.0107 96.975 62.817Z" fill="#4E9365" stroke="#871C20" stroke-miterlimit="10" stroke-linecap="round" stroke-linejoin="round"/>
<path d="M58.3906 62.9015C60.6762 62.2521 62.9619 61.6165 65.2425 60.9384C70.9469 59.4827 89.6337 51.6065 93.7162 56.4527H93.7212C94.5794 57.7234 95.3381 59.0653 95.9925 60.4546C98.2781 59.464 117.046 48.2259 123.366 39.8809C125.211 37.4484 127.321 34.1671 126.164 31.014C125.628 29.8296 124.025 27.9809 124.234 28.1734C119.788 22.8578 112.928 23.1546 106.749 24.8321C94.3688 28.194 77.8956 40.4096 68.1637 47.5884" stroke="#871C20" stroke-miterlimit="10" stroke-linecap="round" stroke-linejoin="round"/>
<path d="M98.7013 70.3884C98.4688 67.9041 97.9239 65.4528 97.0795 63.1009C96.757 62.2003 96.397 61.3178 95.9889 60.4553C95.3345 59.0659 94.5757 57.7241 93.7176 56.4534H93.7126C93.537 56.1922 93.3045 55.9697 93.0438 55.7897C92.5788 55.4672 92.0432 55.2916 91.4982 55.1634C90.5407 54.9453 89.5545 54.8978 88.5776 54.9166C87.1738 54.9497 85.7845 55.1303 84.4095 55.3716C83.8645 55.4666 83.3188 55.5709 82.7782 55.6891C81.697 55.9216 80.6257 56.1822 79.5588 56.4766C79.0232 56.6191 78.492 56.7703 77.9657 56.9272C76.5432 57.3491 75.1257 57.7903 73.717 58.2453C70.9001 59.1653 68.0745 60.0616 65.2389 60.9384C63.8257 61.3747 62.4032 61.7872 60.9714 62.1716C58.9801 62.7072 57.0026 63.2716 55.0301 63.8784C54.4989 64.0397 53.9726 64.2053 53.4414 64.3759C52.0095 64.8309 50.587 65.3097 49.1689 65.8172C47.552 66.4003 45.9495 67.0166 44.3751 67.7047C43.2751 68.1884 42.1939 68.7053 41.1457 69.2978C40.6239 69.5966 40.112 69.9141 39.6476 70.2934C39.4107 70.4828 39.1876 70.6872 39.0026 70.9241C38.8938 71.0566 38.7989 71.1991 38.7464 71.3647C38.7226 71.4453 38.7039 71.5259 38.7039 71.6066C38.6614 72.3466 38.652 73.0859 38.6707 73.8303C38.682 74.3903 38.7145 74.9503 38.7576 75.5103L38.757 75.5109C38.6213 75.5834 38.4895 75.6622 38.3595 75.7428C38.3145 75.7709 38.2688 75.7984 38.2245 75.8272C38.0995 75.9078 37.977 75.9916 37.8576 76.0791C37.8201 76.1066 37.7839 76.1359 37.747 76.1641C37.3764 76.4472 37.0351 76.7634 36.7251 77.1084C36.6751 77.1641 36.6257 77.2191 36.5776 77.2759C36.4963 77.3722 36.4176 77.4697 36.3413 77.5697C36.2876 77.6403 36.2363 77.7128 36.1851 77.7859C36.1176 77.8816 36.0489 77.9759 35.9857 78.0747C35.8845 78.2328 35.7889 78.3953 35.6995 78.5616C35.6551 78.6441 35.6164 78.7297 35.5751 78.8141C35.5208 78.9247 35.4676 79.0359 35.4189 79.1491C35.382 79.2353 35.347 79.3222 35.3139 79.4097C35.2657 79.5341 35.222 79.6609 35.1807 79.7884C35.1557 79.8653 35.1295 79.9409 35.107 80.0191C35.0489 80.2209 34.9976 80.4259 34.9563 80.6341C34.9476 80.6778 34.9432 80.7228 34.9351 80.7666C34.9038 80.9416 34.8782 81.1178 34.8601 81.2959C34.8526 81.3691 34.8476 81.4422 34.842 81.5159C34.8301 81.6753 34.8239 81.8366 34.822 81.9984C34.8214 82.0678 34.8195 82.1366 34.8207 82.2066C34.8251 82.4341 34.8363 82.6628 34.862 82.8941C34.862 82.8966 34.8626 82.8984 34.8632 82.9003C35.3195 86.9822 38.8482 90.1872 42.9551 90.1216C43.2126 90.1172 43.5213 90.0947 43.8545 90.0566C45.2545 92.1166 46.892 94.0134 48.7526 95.6666C52.1195 98.6541 56.1589 100.878 60.4976 102.106C64.8364 103.339 69.4688 103.576 73.8688 102.817C76.3201 102.395 78.7288 101.66 81.0095 100.645C83.2901 99.6309 85.4432 98.3316 87.4014 96.7859C89.3551 95.2397 91.1239 93.4478 92.6364 91.4659C94.1539 89.4841 95.4245 87.3172 96.4057 85.0222C97.387 82.7272 98.0845 80.3134 98.4732 77.8478C98.8582 75.3816 98.9338 72.8684 98.7013 70.3884Z" fill="url(#paint10_linear_2_2292)"/>
<path d="M96.975 62.817C96.9375 62.8357 96.9125 62.8482 96.8813 62.8607C96.225 61.4732 95.4688 60.1295 94.6125 58.8607H94.6062C90.525 54.0107 71.8375 61.892 66.1312 63.3482C64.2575 63.9026 62.3794 64.432 60.5037 64.9632C59.1475 65.3476 57.7019 64.5701 57.3487 63.2051L57.3438 63.1857C58.55 62.8357 59.7625 62.4982 60.975 62.1732C62.4062 61.7857 63.825 61.3732 65.2375 60.9357C68.075 60.0607 70.9 59.167 73.7188 58.242C75.125 57.792 76.5438 57.3482 77.9688 56.9295C78.4937 56.7732 79.025 56.617 79.5625 56.4732C80.625 56.1795 81.7 55.9232 82.7813 55.692C83.3188 55.5732 83.8625 55.467 84.4125 55.3732C85.7875 55.1295 87.175 54.9482 88.5812 54.917C89.5562 54.8982 90.5437 54.942 91.5 55.1607C92.0437 55.292 92.5812 55.467 93.0437 55.792C93.3062 55.967 93.5375 56.192 93.7125 56.4545H93.7188C94.575 57.7232 95.3375 59.067 95.9875 60.4545C96.3563 61.2232 96.6812 62.0107 96.975 62.817Z" fill="#F8C3AF"/>
<path d="M98.7013 70.3884C98.4688 67.9041 97.9239 65.4528 97.0795 63.1009C96.757 62.2003 96.397 61.3178 95.9889 60.4553C95.3345 59.0659 94.5757 57.7241 93.7176 56.4534H93.7126C93.537 56.1922 93.3045 55.9697 93.0438 55.7897C92.5788 55.4672 92.0432 55.2916 91.4982 55.1634C90.5407 54.9453 89.5545 54.8978 88.5776 54.9166C87.1738 54.9497 85.7845 55.1303 84.4095 55.3716C83.8645 55.4666 83.3188 55.5709 82.7782 55.6891C81.697 55.9216 80.6257 56.1822 79.5588 56.4766C79.0232 56.6191 78.492 56.7703 77.9657 56.9272C76.5432 57.3491 75.1257 57.7903 73.717 58.2453C70.9001 59.1653 68.0745 60.0616 65.2389 60.9384C63.8257 61.3747 62.4032 61.7872 60.9714 62.1716C58.9801 62.7072 57.0026 63.2716 55.0301 63.8784C54.4989 64.0397 53.9726 64.2053 53.4414 64.3759C52.0095 64.8309 50.587 65.3097 49.1689 65.8172C47.552 66.4003 45.9495 67.0166 44.3751 67.7047C43.2751 68.1884 42.1939 68.7053 41.1457 69.2978C40.6239 69.5966 40.112 69.9141 39.6476 70.2934C39.4107 70.4828 39.1876 70.6872 39.0026 70.9241C38.8938 71.0566 38.7989 71.1991 38.7464 71.3647C38.7226 71.4453 38.7039 71.5259 38.7039 71.6066C38.6614 72.3466 38.652 73.0859 38.6707 73.8303C38.682 74.3903 38.7145 74.9503 38.7576 75.5103L38.757 75.5109C38.6213 75.5834 38.4895 75.6622 38.3595 75.7428C38.3145 75.7709 38.2688 75.7984 38.2245 75.8272C38.0995 75.9078 37.977 75.9916 37.8576 76.0791C37.8201 76.1066 37.7839 76.1359 37.747 76.1641C37.3764 76.4472 37.0351 76.7634 36.7251 77.1084C36.6751 77.1641 36.6257 77.2191 36.5776 77.2759C36.4963 77.3722 36.4176 77.4697 36.3413 77.5697C36.2876 77.6403 36.2363 77.7128 36.1851 77.7859C36.1176 77.8816 36.0489 77.9759 35.9857 78.0747C35.8845 78.2328 35.7889 78.3953 35.6995 78.5616C35.6551 78.6441 35.6164 78.7297 35.5751 78.8141C35.5208 78.9247 35.4676 79.0359 35.4189 79.1491C35.382 79.2353 35.347 79.3222 35.3139 79.4097C35.2657 79.5341 35.222 79.6609 35.1807 79.7884C35.1557 79.8653 35.1295 79.9409 35.107 80.0191C35.0489 80.2209 34.9976 80.4259 34.9563 80.6341C34.9476 80.6778 34.9432 80.7228 34.9351 80.7666C34.9038 80.9416 34.8782 81.1178 34.8601 81.2959C34.8526 81.3691 34.8476 81.4422 34.842 81.5159C34.8301 81.6753 34.8239 81.8366 34.822 81.9984C34.8214 82.0678 34.8195 82.1366 34.8207 82.2066C34.8251 82.4341 34.8363 82.6628 34.862 82.8941C34.862 82.8966 34.8626 82.8984 34.8632 82.9003C35.3195 86.9822 38.8482 90.1872 42.9551 90.1216C43.2126 90.1172 43.5213 90.0947 43.8545 90.0566C45.2545 92.1166 46.892 94.0134 48.7526 95.6666C52.1195 98.6541 56.1589 100.878 60.4976 102.106C64.8364 103.339 69.4688 103.576 73.8688 102.817C76.3201 102.395 78.7288 101.66 81.0095 100.645C83.2901 99.6309 85.4432 98.3316 87.4014 96.7859C89.3551 95.2397 91.1239 93.4478 92.6364 91.4659C94.1539 89.4841 95.4245 87.3172 96.4057 85.0222C97.387 82.7272 98.0845 80.3134 98.4732 77.8478C98.8582 75.3816 98.9338 72.8684 98.7013 70.3884Z" stroke="#871C20" stroke-miterlimit="10" stroke-linecap="round" stroke-linejoin="round"/>
<path d="M77.3047 67.7639C77.3047 67.7639 78.8015 70.5689 77.8422 72.6745" stroke="#871C20" stroke-width="4" stroke-miterlimit="10" stroke-linecap="round" stroke-linejoin="round"/>
<path d="M89.7969 65.3083C89.7969 65.3083 91.2938 68.1133 90.3344 70.219" stroke="#871C20" stroke-width="4" stroke-miterlimit="10" stroke-linecap="round" stroke-linejoin="round"/>
<path d="M87.7617 71.404C88.2205 70.3533 89.4017 69.4571 90.9123 69.1459C92.2942 68.8615 93.6161 69.1365 94.4717 69.7858" fill="#FCDFCA"/>
<path d="M87.7617 71.404C88.2205 70.3533 89.4017 69.4571 90.9123 69.1459C92.2942 68.8615 93.6161 69.1365 94.4717 69.7858" stroke="#871C20" stroke-miterlimit="10" stroke-linecap="round" stroke-linejoin="round"/>
<path d="M86.9016 87.2241C83.8141 87.8222 80.4935 87.1897 78.0922 85.3903C76.2747 84.0291 75.9022 81.5378 77.4491 79.8828C79.0747 78.1428 81.8522 78.1534 83.4647 79.6859C83.8791 80.0797 84.9078 80.4535 86.1591 80.3585C86.1822 80.3566 86.2047 80.3547 86.2272 80.3528C87.3635 80.251 88.2678 79.5447 88.7778 78.5847C89.4303 77.3566 90.796 76.8134 92.0828 77.3053C93.5247 77.8578 94.3716 79.5472 94.036 81.126C93.4178 84.0328 90.7003 86.4884 86.9016 87.2241Z" fill="white" stroke="#871C20" stroke-miterlimit="10" stroke-linecap="round" stroke-linejoin="round"/>
<path d="M85.3828 71.3008L88.9053 69.5608C90.2172 68.9296 91.7916 69.4815 92.4228 70.7927C93.0541 72.1046 92.5022 73.679 91.1909 74.3102L87.6685 76.0502" fill="url(#paint11_linear_2_2292)"/>
<path d="M85.3828 71.3008L88.9053 69.5608C90.2172 68.9296 91.7916 69.4815 92.4228 70.7927C93.0541 72.1046 92.5022 73.679 91.1909 74.3102L87.6685 76.0502" stroke="#871C20" stroke-miterlimit="10" stroke-linecap="round" stroke-linejoin="round"/>
<path d="M87.2773 80.0583C87.2773 80.0583 89.6073 83.2134 89.0342 86.5896" stroke="#871C20" stroke-miterlimit="10" stroke-linecap="round" stroke-linejoin="round"/>
<path d="M83.7089 79.866C83.7089 79.866 83.967 85.4266 81.0039 86.8791" stroke="#871C20" stroke-miterlimit="10" stroke-linecap="round" stroke-linejoin="round"/>
<path d="M88.7812 78.5847C88.7812 78.5847 92.255 78.6141 93.4575 82.741" stroke="#871C20" stroke-miterlimit="10" stroke-linecap="round" stroke-linejoin="round"/>
<path d="M59.7154 62.5171C57.1279 66.7733 55.6154 71.7483 55.5592 77.0858H55.5529C55.5529 78.8546 54.1279 80.2796 52.3654 80.2796C51.3154 80.2796 50.3904 79.7796 49.8092 78.9921L49.8029 78.9983H49.7967C49.1467 78.1546 48.3654 77.3921 47.4592 76.7483C45.9217 75.2483 43.7467 74.4234 41.4404 74.6796C41.3654 74.6859 41.2842 74.6983 41.2092 74.7108C40.3529 74.7046 39.5217 74.8233 38.7342 75.0546L38.7279 75.0483C38.7029 74.6421 38.6779 74.2358 38.6779 73.8296C38.6592 73.0858 38.6654 72.3483 38.7092 71.6046C38.7092 71.5296 38.7279 71.4483 38.7529 71.3671C38.8029 71.1983 38.8967 71.0546 39.0092 70.9233C39.1904 70.6858 39.4154 70.4858 39.6529 70.2921C40.1154 69.9171 40.6279 69.5983 41.1529 69.2983C42.1967 68.7046 43.2779 68.1859 44.3779 67.7046C45.9529 67.0171 47.5592 66.3983 49.1717 65.8171C50.5904 65.3108 52.0154 64.8296 53.4467 64.3733C53.9779 64.2046 54.5029 64.0421 55.0342 63.8796C56.5904 63.3983 58.1467 62.9483 59.7154 62.5171Z" fill="#871C20" stroke="#871C20" stroke-miterlimit="10" stroke-linecap="round" stroke-linejoin="round"/>
<path d="M74.6836 74.8783C75.1423 73.8277 76.3236 72.9315 77.8342 72.6202C79.2161 72.3358 80.538 72.6108 81.3936 73.2602" fill="#FCDFCA"/>
<path d="M74.6836 74.8783C75.1423 73.8277 76.3236 72.9315 77.8342 72.6202C79.2161 72.3358 80.538 72.6108 81.3936 73.2602" stroke="#871C20" stroke-miterlimit="10" stroke-linecap="round" stroke-linejoin="round"/>
<path d="M34.622 82.6578C35.1063 86.6934 39.3264 90.6141 43.482 90.1134C48.2526 89.5391 50.6451 85.4409 50.0332 81.8428C49.352 77.8353 45.427 73.9484 41.2707 74.4472C37.1138 74.9453 34.1376 78.6215 34.622 82.6578Z" fill="#F9C8B5"/>
<path d="M48.8201 78.6897C48.2776 77.6734 47.0751 76.4222 47.0751 76.4222C45.6295 74.9659 43.5813 74.169 41.2707 74.4465C37.1145 74.9453 34.1376 78.6215 34.622 82.6578C35.1063 86.6934 39.1063 90.4384 43.2826 90.134C43.8551 90.0922 44.8326 89.9178 45.5182 89.6103" stroke="#871C20" stroke-miterlimit="10" stroke-linecap="round" stroke-linejoin="round"/>
<path d="M36.6151 83.261C36.2301 80.5391 38.0007 78.1297 40.5695 77.8785C42.6663 77.6735 44.4869 78.4866 45.2838 80.4653C45.7676 81.666 45.6745 83.0328 44.9801 84.1253C44.5101 84.8653 43.6888 86.0972 42.3482 86.3747" stroke="#871C20" stroke-miterlimit="10" stroke-linecap="round" stroke-linejoin="round"/>
<path d="M44.0128 85.3996C44.0128 85.3996 44.7547 84.7164 45.0003 84.3496C45.7209 83.2739 45.8372 81.8645 45.3541 80.6633C45.0122 79.8152 44.4591 79.1289 43.8053 78.5864C43.8053 78.5871 41.8797 81.5771 44.0128 85.3996Z" fill="#871C20" stroke="#871C20" stroke-miterlimit="10" stroke-linecap="round" stroke-linejoin="round"/>
<path d="M80.2704 109.148C82.0141 109.673 83.4266 110.386 84.3079 111.317L84.3141 111.323C82.0454 113.742 80.3454 116.917 79.9891 119.636C79.7391 121.561 79.6829 123.367 79.8204 124.992C79.6704 125.067 79.5141 125.142 79.3641 125.211C79.1579 125.311 78.9454 125.405 78.7329 125.492C78.2516 125.692 77.7579 125.886 77.2454 126.055C77.0016 126.142 76.7516 126.223 76.4954 126.298C76.1891 126.392 75.8829 126.48 75.5704 126.555C75.4266 126.598 75.2829 126.63 75.1391 126.667C74.9829 126.705 74.8329 126.736 74.6766 126.773C74.1391 126.892 73.5954 126.998 73.0391 127.08C72.7954 127.123 72.5454 127.155 72.2954 127.186C72.0016 127.223 71.7079 127.261 71.4079 127.286C71.2079 127.305 71.0016 127.323 70.8016 127.336C70.6079 127.355 70.4204 127.367 70.2329 127.373C69.9704 127.392 69.7141 127.398 69.4516 127.405C69.1891 127.411 68.9266 127.417 68.6641 127.417C68.3141 127.417 67.9704 127.411 67.6266 127.398C67.5579 127.398 67.4954 127.392 67.4329 127.392C67.1454 127.38 66.8579 127.361 66.5704 127.342C66.5079 127.336 66.4391 127.33 66.3766 127.323C66.1204 127.305 65.8704 127.28 65.6204 127.248C65.5204 127.248 65.4204 127.236 65.3204 127.217C65.0204 127.186 64.7204 127.148 64.4266 127.098C64.1204 127.055 63.8204 127.005 63.5266 126.948C63.4516 126.936 63.3829 126.923 63.3141 126.911C62.3516 126.723 61.4266 126.486 60.5454 126.198C60.4391 125.086 60.2829 123.873 60.0641 122.542C59.5641 119.43 57.2579 115.755 53.8204 113.423C52.9204 112.811 52.8454 111.011 57.0891 109.617" stroke="#871C20" stroke-miterlimit="10" stroke-linecap="round" stroke-linejoin="round"/>
</g>
<defs>
<linearGradient id="paint0_linear_2_2292" x1="-4.36188" y1="235.518" x2="56.4763" y2="71.1097" gradientUnits="userSpaceOnUse">
<stop stop-color="#D6E0E5"/>
<stop offset="0.2803" stop-color="#E5EBEE"/>
<stop offset="0.6503" stop-color="white"/>
</linearGradient>
<linearGradient id="paint1_linear_2_2292" x1="-7.2064" y1="173.904" x2="51.3085" y2="166.181" gradientUnits="userSpaceOnUse">
<stop offset="0.0907" stop-color="#7575C6"/>
<stop offset="0.4681" stop-color="#8282D1"/>
<stop offset="1" stop-color="#9090DD"/>
</linearGradient>
<linearGradient id="paint2_linear_2_2292" x1="78.9092" y1="167.513" x2="104.92" y2="164.08" gradientUnits="userSpaceOnUse">
<stop offset="0.0907" stop-color="#7575C6"/>
<stop offset="0.4681" stop-color="#8282D1"/>
<stop offset="1" stop-color="#9090DD"/>
</linearGradient>
<linearGradient id="paint3_linear_2_2292" x1="75.0684" y1="211.017" x2="144.574" y2="137.056" gradientUnits="userSpaceOnUse">
<stop stop-color="#D6E0E5"/>
<stop offset="0.5008" stop-color="#F1F5F6"/>
<stop offset="0.72" stop-color="white"/>
</linearGradient>
<linearGradient id="paint4_linear_2_2292" x1="78.9209" y1="126.697" x2="91.0998" y2="117.586" gradientUnits="userSpaceOnUse">
<stop offset="0.0907" stop-color="#7575C6"/>
<stop offset="0.4681" stop-color="#8282D1"/>
<stop offset="1" stop-color="#9090DD"/>
</linearGradient>
<linearGradient id="paint5_linear_2_2292" x1="32.9961" y1="126.03" x2="47.5877" y2="115.114" gradientUnits="userSpaceOnUse">
<stop offset="0.0907" stop-color="#7575C6"/>
<stop offset="0.4681" stop-color="#8282D1"/>
<stop offset="1" stop-color="#9090DD"/>
</linearGradient>
<linearGradient id="paint6_linear_2_2292" x1="51.5252" y1="122.439" x2="78.1779" y2="103.277" gradientUnits="userSpaceOnUse">
<stop stop-color="#F2A290"/>
<stop offset="0.6505" stop-color="#FACFBB"/>
<stop offset="0.9994" stop-color="#FDE2CD"/>
</linearGradient>
<linearGradient id="paint7_linear_2_2292" x1="-1.84515" y1="82.8599" x2="104.362" y2="22.5501" gradientUnits="userSpaceOnUse">
<stop offset="0.2737" stop-color="#55A366"/>
<stop offset="0.2876" stop-color="#58A567"/>
<stop offset="0.4432" stop-color="#7CB571"/>
<stop offset="0.5708" stop-color="#91BF78"/>
<stop offset="0.6535" stop-color="#99C37A"/>
<stop offset="0.6808" stop-color="#A5C97D"/>
<stop offset="0.7767" stop-color="#CCDB86"/>
<stop offset="0.8651" stop-color="#E8E78D"/>
<stop offset="0.9423" stop-color="#F9EF91"/>
<stop offset="1" stop-color="#FFF292"/>
</linearGradient>
<linearGradient id="paint8_linear_2_2292" x1="15.8769" y1="82.1755" x2="145.686" y2="8.46376" gradientUnits="userSpaceOnUse">
<stop offset="0.0082" stop-color="#55A366"/>
<stop offset="0.1564" stop-color="#6EAF6D"/>
<stop offset="0.3396" stop-color="#86BA74"/>
<stop offset="0.51" stop-color="#94C179"/>
<stop offset="0.6535" stop-color="#99C37A"/>
<stop offset="0.6808" stop-color="#A5C97D"/>
<stop offset="0.7767" stop-color="#CCDB86"/>
<stop offset="0.8651" stop-color="#E8E78D"/>
<stop offset="0.9423" stop-color="#F9EF91"/>
<stop offset="1" stop-color="#FFF292"/>
</linearGradient>
<linearGradient id="paint9_linear_2_2292" x1="74.8496" y1="62.33" x2="126.236" y2="23.7162" gradientUnits="userSpaceOnUse">
<stop stop-color="#4E9365"/>
<stop offset="0.2221" stop-color="#599A68"/>
<stop offset="0.6104" stop-color="#76AC70"/>
<stop offset="1" stop-color="#99C37A"/>
</linearGradient>
<linearGradient id="paint10_linear_2_2292" x1="32.9492" y1="122.141" x2="93.7472" y2="46.4206" gradientUnits="userSpaceOnUse">
<stop offset="0.1298" stop-color="#F2A290"/>
<stop offset="0.3466" stop-color="#F8C3B0"/>
<stop offset="0.5378" stop-color="#FCDAC5"/>
<stop offset="0.6594" stop-color="#FDE2CD"/>
</linearGradient>
<linearGradient id="paint11_linear_2_2292" x1="92.4299" y1="70.8345" x2="85.9601" y2="73.9124" gradientUnits="userSpaceOnUse">
<stop stop-color="#F2A290"/>
<stop offset="0.0057" stop-color="#F2A391"/>
<stop offset="0.2514" stop-color="#F7BEAB"/>
<stop offset="0.4991" stop-color="#FAD2BE"/>
<stop offset="0.748" stop-color="#FCDEC9"/>
<stop offset="1" stop-color="#FDE2CD"/>
</linearGradient>
<clipPath id="clip0_2_2292">
<rect width="150" height="150" rx="75" fill="white"/>
</clipPath>
</defs>
</svg>
