<svg width="150" height="150" viewBox="0 0 150 150" fill="none" xmlns="http://www.w3.org/2000/svg">
<g clip-path="url(#clip0_2_3449)">
<rect width="150" height="150" rx="75" fill="#7AC7FF"/>
<path d="M55.4057 36.3684C56.0102 35.8798 55.7336 34.559 54.7879 33.4184C53.8422 32.2778 52.5856 31.7493 51.9812 32.238C51.3767 32.7267 51.6533 34.0474 52.599 35.188C53.5447 36.3286 54.8013 36.8571 55.4057 36.3684Z" fill="#D6261D"/>
<path d="M88.7224 41.7516L61.8946 68.6006C61.8946 68.6006 53.7029 71.8695 48.3242 67.2788C46.5899 65.7705 45.2455 63.8663 44.4054 61.7284C41.5426 54.6156 43.3074 44.0548 54.9874 34.6392C60.1224 30.5003 64.6695 28.6145 68.6277 28.1709C82.0538 26.6663 88.7224 41.7516 88.7224 41.7516Z" fill="#F52A21"/>
<path d="M68.3331 28.1851C66.0988 32.2211 61.3682 31.7641 58.4159 34.6482C57.2102 35.8265 56.6086 37.5657 55.2822 38.6016C54.3526 39.3277 53.1755 39.6247 52.1434 40.2009C50.9997 40.8479 50.0751 41.8286 49.4899 43.0155C48.9867 44.0376 48.7611 45.172 48.5376 46.2905C47.9005 49.4844 47.2619 52.6806 46.8565 55.9133C46.685 57.2859 46.5418 58.7062 45.8855 59.9186C45.4759 60.6761 44.886 61.3132 44.2838 61.9399C41.4446 54.7888 43.199 44.1684 54.7937 34.6953C59.8911 30.5311 64.4046 28.6328 68.3331 28.1851Z" fill="#F65852"/>
<path d="M201.73 101.376L171.346 158.654C166.552 167.689 154.887 170.631 146.27 164.977L117.476 146.078L106.029 194.203L59.2132 188.07L56.2236 189.367C52.8196 190.546 49.1496 190.767 45.6229 190.007C42.0962 189.247 38.8513 187.535 36.2502 185.062L0.866043 180.426L12.0287 139.724L9.10025 132.198L5.80352 123.723C2.31772 111.43 12.2232 96.6016 25.1286 95.9621L46.1003 94.9245L58.7667 94.2968L100.588 93.5496C110.886 93.3672 120.86 97.1251 128.424 104.036L152.289 125.845L167.584 85.8229C168.022 86.6028 168.948 87.3663 170.51 87.9914C171.64 88.439 172.732 88.9774 173.773 89.6012C179.337 92.9611 180.146 97.217 183.364 98.7988C188.79 101.465 191.712 99.4251 194.876 100.53C195.156 100.628 195.427 100.746 195.689 100.883C198.769 102.495 200.549 103.107 201.73 101.376Z" fill="#0064C8"/>
<path d="M17.083 184.512C17.3936 183.012 17.8092 181.524 17.6577 180.01C17.2735 176.166 13.434 173.463 12.6921 169.667C12.1832 167.066 13.2199 164.42 13.2339 161.767C13.2463 158.74 11.9308 155.891 10.893 153.048C10.4562 151.881 10.0903 150.689 9.79728 149.477L11.8318 141.934C11.9668 141.849 12.1132 141.77 12.2582 141.693L32.4913 182.456C33.4224 184.153 34.6002 185.699 35.9856 187.045L17.083 184.512Z" fill="#0055A8"/>
<path d="M45.1014 95.53C42.8026 96.9361 40.2355 97.8453 37.5645 98.1994C34.1828 98.6428 30.4718 98.2341 27.6306 100.131C25.6503 101.457 24.459 103.706 22.5654 105.155C20.7339 106.556 18.3742 107.107 16.4963 108.447C13.2652 110.75 12.0094 114.948 11.5324 118.895C11.0553 122.842 11.1259 126.936 9.66001 130.628C9.31219 131.5 8.86037 132.326 8.3144 133.088L5.04616 124.54C1.59302 112.144 11.4437 97.1977 24.2632 96.5605L45.1014 95.53Z" fill="#0F70D1"/>
<path d="M58.0167 95.0879C58.0167 95.0879 49.704 101.961 55.7973 105.793C61.8905 109.624 73.1778 104.596 77.317 99.8748C77.317 99.8748 87.7839 107.277 94.148 103.533C99.2444 100.533 88.6844 96.261 88.6844 96.261" stroke="#173F80" stroke-width="0.99749" stroke-linecap="round" stroke-linejoin="round"/>
<path d="M73.1673 134.568C73.1673 134.568 79.3977 115.043 77.414 100.156" stroke="#173F80" stroke-width="0.99749" stroke-linecap="round" stroke-linejoin="round"/>
<path d="M79.6502 122.64C80.0327 122.691 80.3837 122.422 80.4342 122.04C80.4847 121.658 80.2156 121.307 79.8331 121.256C79.4507 121.205 79.0997 121.474 79.0492 121.856C78.9987 122.238 79.2678 122.589 79.6502 122.64Z" fill="#1A1B16"/>
<path d="M78.2635 130.261C78.646 130.312 78.997 130.043 79.0475 129.661C79.098 129.279 78.8289 128.928 78.4464 128.877C78.064 128.826 77.713 129.095 77.6625 129.477C77.612 129.859 77.8811 130.21 78.2635 130.261Z" fill="#1A1B16"/>
<path d="M61.2441 87.9011C61.2441 87.9011 58.0986 92.0884 55.2515 90.2094C52.4044 88.3305 56.2124 82.8616 56.2124 82.8616C56.2124 82.8616 53.2865 88.0754 50.0577 85.3974C46.8289 82.7193 55.5681 76.4366 55.6434 72.0763C55.7188 67.716 49.607 51.2117 54.0364 43.6868C58.1827 36.6434 64.2367 37.5834 64.2367 37.5834C64.2367 37.5834 67.9653 27.9913 77.7194 31.9221C82.3784 26.5678 93.1283 24.7756 95.024 34.876C100.879 32.6737 107.754 47.1909 92.8874 52.1598C78.0206 57.1287 61.2441 87.9011 61.2441 87.9011Z" fill="#FACC73"/>
<path d="M87.6681 27.6288C86.907 28.3198 86.1929 29.0614 85.5307 29.8486C83.7327 31.9459 82.0402 34.2491 79.6327 35.5936C77.9362 36.5357 75.9945 36.9376 74.0646 36.746C73.1379 36.6529 72.1969 36.4234 71.2864 36.6226C68.8769 37.1525 68.0461 40.1937 66.1176 41.7381C64.1492 43.3133 61.2451 43.1581 59.1765 44.6003C56.7404 46.3033 56.1867 49.6306 55.8404 52.5949C55.6693 54.0661 55.4817 62.2125 54.0476 64.9811C52.57 58.1952 50.6518 48.824 53.6953 43.6689C57.8496 36.6306 63.911 37.5676 63.911 37.5676C63.911 37.5676 67.6481 27.9833 77.4133 31.9069C79.8687 29.0959 84.0155 27.2599 87.6681 27.6288Z" fill="#F9BD64"/>
<path d="M62.9071 40.6076C62.9071 40.6076 63.0692 39.5587 63.7008 37.5728" stroke="#BF3028" stroke-width="0.99749" stroke-linecap="round" stroke-linejoin="round"/>
<path d="M77.3256 31.6393C76.7654 32.3674 76.2553 33.1339 75.7988 33.9335" stroke="#BF3028" stroke-width="0.99749" stroke-linecap="round" stroke-linejoin="round"/>
<path d="M94.9632 34.3154C94.9632 34.3154 94.5483 36.1397 93.6122 37.2663" stroke="#BF3028" stroke-width="0.99749" stroke-linecap="round" stroke-linejoin="round"/>
<path d="M60.2243 63.1148L59.7578 58.1555" stroke="#BF3028" stroke-width="0.99749" stroke-linecap="round" stroke-linejoin="round"/>
<path d="M87.9598 88.9782L88.0019 90.5454L88.1438 95.9027C86.3898 97.284 83.4203 99.4348 76.8894 99.5545C66.6788 99.742 57.8047 94.6359 57.8047 94.6359L57.4091 75.2496C55.4301 74.7085 53.6765 73.1048 52.8994 70.8512C51.8529 67.8342 52.8914 64.6552 55.2313 63.197L55.242 63.191C55.4288 63.0917 58.0216 61.8055 60.6368 63.0285C61.0851 68.0092 61.8725 73.7515 62.3389 76.9717C62.4328 77.6126 62.7547 78.1984 63.2451 78.6211C63.7355 79.0438 64.3615 79.275 65.0078 79.2721C65.654 79.2692 66.277 79.0325 66.762 78.6054C67.247 78.1783 67.5614 77.5897 67.6472 76.948C67.6714 76.7612 67.6763 76.5723 67.6617 76.3843C67.6617 76.3843 66.593 62.2873 66.1915 56.8466C73.7578 57.4972 84.1619 55.0269 89.5766 53.4958C91.5834 52.928 92.9047 52.4871 93.1447 52.38C93.2369 52.9717 93.3387 53.6318 93.447 54.3462C93.4438 54.3707 96.23 74.2537 95.5336 79.5497C94.5487 87.0014 87.9598 88.9782 87.9598 88.9782Z" fill="#F8934F"/>
<path d="M86.2265 54.1321C80.8825 58.232 70.298 60.0824 66.1683 60.6692C66.0466 59.1017 65.9384 57.6954 65.8552 56.6285C72.1786 57.1499 80.4587 55.5582 86.2265 54.1321Z" fill="#F77C2D"/>
<path d="M88.1187 88.8086L88.161 90.3871L78.3181 90.2064C78.7629 90.1766 91.1036 88.2556 93.1693 80.3151C95.2656 72.261 92.0352 57.0517 91.0733 52.6574C93.0541 52.0834 92.9789 52.0494 93.215 51.9462C93.3063 52.5421 93.4071 53.2069 93.5144 53.9264C93.5112 53.9511 93.5214 53.9762 93.5246 53.9992C94.601 61.2215 96.2712 73.9677 95.5861 79.303C94.622 86.8107 88.1187 88.8086 88.1187 88.8086Z" fill="#F9AF79"/>
<path d="M64.5838 97.9789C60.4973 96.6071 57.8338 95.0327 57.8338 95.0327L57.4416 75.5358C57.3657 75.5143 57.291 75.4929 57.2156 75.4677C58.089 75.4458 59.1765 75.698 59.4927 76.3322C59.9015 77.1539 59.3077 78.4627 59.7996 79.4682C60.0289 79.9381 60.351 80.3568 60.5554 80.8383C61.5376 83.1468 59.554 85.968 60.5909 88.2526C61.1074 89.3915 62.2462 90.0732 63.1401 90.9368C64.4167 92.1686 65.2547 93.9199 65.2003 95.7067C65.1713 96.5028 64.9602 97.2808 64.5838 97.9789Z" fill="#F77C2D"/>
<path d="M59.9525 70.8404C59.9525 70.8404 57.709 71.9152 56.5628 70.0891C55.4166 68.263 56.78 66.564 56.78 66.564C57.3693 66.9469 57.9172 67.3901 58.415 67.8864C59.2072 68.6963 59.8172 69.7205 59.9525 70.8404Z" fill="#F77C2D"/>
<path d="M56.7724 66.5677C56.7724 66.5677 55.4048 68.2639 56.5553 70.0906C57.7057 71.9173 59.9469 70.8426 59.9469 70.8426C59.8117 69.7222 59.2001 68.6985 58.4109 67.8895C57.6218 67.0805 56.658 66.4643 55.6836 65.8914" stroke="#BF3028" stroke-width="0.99749" stroke-linecap="round" stroke-linejoin="round"/>
<path d="M75.3159 90.0487C75.3159 90.0487 81.6487 91.4414 88.3622 89.0325L88.4014 93.2951C88.4014 93.2951 82.0539 94.9882 75.3159 90.0487Z" fill="#BF3028"/>
<path d="M57.1875 75.5325C57.1875 75.5325 57.943 75.9245 60.5808 75.9318" stroke="#BF3028" stroke-width="0.99749" stroke-linecap="round" stroke-linejoin="round"/>
<path d="M78.747 66.8416C78.8181 67.488 78.6495 67.9813 78.1687 68.0351C77.6879 68.0889 77.2351 67.6081 77.1687 66.9636C77.1023 66.3191 77.4277 65.7521 77.9093 65.6922C78.391 65.6322 78.6745 66.1963 78.747 66.8416Z" fill="#1A1B16"/>
<path d="M87.2672 70.3026C88.4618 70.9591 85.8542 74.1703 84.522 73.2295C83.1899 72.2887 86.0896 69.6583 87.2672 70.3026Z" fill="#F77C2D"/>
<path d="M92.1487 65.2151C92.2156 65.8185 92.0572 66.2807 91.6077 66.3313C91.1582 66.3818 90.7397 65.9318 90.6722 65.3333C90.6047 64.7347 90.9149 64.1994 91.3632 64.1487C91.8115 64.098 92.0802 64.6151 92.1487 65.2151Z" fill="#1A1B16"/>
<path d="M86.2031 62.5605C86.6597 63.8776 87.7054 68.0081 87.8314 69.6153C87.9224 70.8249 86.7753 72.2755 85.9879 73.0295" stroke="#BF3028" stroke-width="0.99749" stroke-linecap="round" stroke-linejoin="round"/>
<path d="M75.1403 63.7973L79.6248 63.3082" stroke="#1A1B16" stroke-width="0.99749" stroke-linecap="round" stroke-linejoin="round"/>
<path d="M89.3001 61.9746L92.6456 61.6094" stroke="#1A1B16" stroke-width="0.99749" stroke-linecap="round" stroke-linejoin="round"/>
<path d="M82.7324 78.9463L88.6054 77.6825" stroke="#BF3028" stroke-width="0.99749" stroke-linecap="round" stroke-linejoin="round"/>
<path d="M86.4565 81.8466C87.1754 81.6908 87.6957 81.2603 87.6185 80.885C87.5413 80.5096 86.8958 80.3316 86.1768 80.4873C85.4579 80.643 84.9376 81.0736 85.0148 81.4489C85.092 81.8243 85.7375 82.0023 86.4565 81.8466Z" fill="#F77C2D"/>
</g>
<defs>
<clipPath id="clip0_2_3449">
<rect width="150" height="150" rx="75" fill="white"/>
</clipPath>
</defs>
</svg>
