<svg width="150" height="150" viewBox="0 0 150 150" fill="none" xmlns="http://www.w3.org/2000/svg">
<g clip-path="url(#clip0_2_2232)">
<rect width="150" height="150" rx="75" fill="#FDA656"/>
<path d="M133.749 127.671V219.51C133.749 220.964 133.487 222.446 132.95 223.797C132.618 224.624 132.183 225.414 131.655 226.116C131.328 226.56 130.963 226.971 130.561 227.35C129.532 228.332 128.289 229.052 126.961 229.463C125.634 229.874 124.222 229.973 122.861 229.8L30.0454 218.089C28.5775 217.902 27.1282 217.392 25.8193 216.635C24.5056 215.878 23.3322 214.877 22.3458 213.69C21.3594 212.507 20.56 211.142 20.013 209.669C19.4614 208.197 19.1622 206.607 19.1622 205.032L18.7461 124.581C22.5655 121.912 26.5579 119.878 30.7326 118.331C37.2635 115.914 44.2338 114.684 51.6623 114.058C59.3619 113.408 67.5477 113.408 76.243 113.408C85.0506 113.408 93.8909 114.17 102.161 115.685C109.407 117.003 116.214 118.901 122.174 121.369C126.541 123.169 130.449 125.268 133.749 127.671Z" fill="#9090DD"/>
<path d="M44.3594 133.431C45.2186 132.185 46.3551 130.609 47.0666 129.894C38.5723 126.739 33.5093 122.625 33.7337 118.558C33.7571 118.1 33.8506 117.651 34.0049 117.211C40.5357 114.794 47.5061 113.565 54.9345 112.938L56.2669 115.355C56.0097 116.258 55.8929 117.249 55.8929 118.315C55.8929 129.039 67.8887 146.724 68.2066 147.196C57.5314 145.913 48.3999 139.42 44.8119 136.545C43.8662 135.788 43.6712 134.428 44.3594 133.431Z" fill="#6060B4"/>
<path d="M122.997 124.417C122.674 129.574 113.858 133.463 101.044 135.38C101.304 135.862 102.372 137.418 103.326 138.786C104.165 139.989 103.649 141.657 102.279 142.178C96.1494 144.513 80.53 149.737 66.3556 148.46C65.8881 148.418 65.4159 148.372 64.9531 148.316C80.0344 138.9 95.6206 122.79 102.161 115.685C109.407 117.003 116.214 118.901 122.174 121.369C122.773 122.36 123.058 123.379 122.997 124.417Z" fill="#6060B4"/>
<path d="M96.5477 121.915C95.9914 129.207 85.5715 134.358 73.2746 133.42C60.9772 132.481 51.4595 125.81 52.0153 118.517C52.5717 111.225 62.9916 106.074 75.289 107.012C87.5859 107.951 97.1041 114.623 96.5477 121.915Z" fill="url(#paint0_linear_2_2232)"/>
<path d="M94.8387 124.91C91.3849 130.453 81.1931 133.461 69.7989 131.81C57.1345 129.97 47.5233 123.039 47.4471 115.963C46.9324 116.827 46.5879 117.755 46.4243 118.735C45.6211 123.606 49.5326 128.633 56.0602 132.149C57.8479 135.89 61.0871 141.027 66.0608 143.127C66.0608 143.127 76.3695 140.253 83.2365 135.936C89.549 134.451 94.0243 131.149 94.7555 126.718C94.8532 126.118 94.8812 125.511 94.8387 124.91Z" fill="white" stroke="#871C20" stroke-width="0.747988" stroke-miterlimit="10" stroke-linecap="round" stroke-linejoin="round"/>
<path d="M42.866 133.304C42.866 133.304 45.2876 129.588 46.461 128.414C38.5885 125.488 33.8902 121.673 34.1005 117.9C34.3343 113.59 40.9259 109.934 51.1734 107.999L53.1555 111.594L54.9928 114.927C54.7543 115.769 54.6421 116.685 54.6421 117.676C54.6421 125.343 61.2572 136.848 64.4174 141.911C65.3617 143.416 65.9929 144.351 66.063 144.454C53.2677 142.916 42.866 133.304 42.866 133.304Z" fill="#9090DD" stroke="#871C20" stroke-width="0.747988" stroke-miterlimit="10" stroke-linecap="round" stroke-linejoin="round"/>
<path d="M49.863 128.315L50.6895 127.488L49.5938 127.082" stroke="#871C20" stroke-width="0.747988" stroke-linecap="round" stroke-linejoin="round"/>
<path d="M47.4657 126.292L47.2736 126.221C39.1065 123.183 36.3296 119.91 36.4324 118.031C36.5432 115.998 42.4046 111.732 50.3249 110.799" stroke="#871C20" stroke-width="0.747988" stroke-linecap="round" stroke-linejoin="round" stroke-dasharray="3.63 3.63"/>
<path d="M51.457 110.689C51.8418 110.66 52.2312 110.64 52.6243 110.628L53.1886 111.651" stroke="#871C20" stroke-width="0.747988" stroke-linecap="round" stroke-linejoin="round"/>
<path d="M54.3633 113.79L54.9902 114.927C54.7518 115.768 54.6396 116.685 54.6396 117.676C54.6396 124.44 59.7895 134.193 63.1722 139.872" stroke="#871C20" stroke-width="0.747988" stroke-linecap="round" stroke-linejoin="round" stroke-dasharray="3.91 3.91"/>
<path d="M63.8046 140.917C64.0201 141.27 64.2253 141.602 64.4179 141.91C64.043 141.826 63.6648 141.732 63.2852 141.629" stroke="#871C20" stroke-width="0.747988" stroke-linecap="round" stroke-linejoin="round"/>
<path d="M60.7836 140.845C55.8655 139.106 50.9494 136.281 47.9883 134.304" stroke="#871C20" stroke-width="0.747988" stroke-linecap="round" stroke-linejoin="round" stroke-dasharray="4.19 4.19"/>
<path d="M46.9155 133.563C46.5503 133.303 46.2367 133.067 45.9805 132.865C46.203 132.544 46.4316 132.22 46.6551 131.91" stroke="#871C20" stroke-width="0.747988" stroke-linecap="round" stroke-linejoin="round"/>
<path d="M47.625 130.625C47.8139 130.392 47.9808 130.199 48.1159 130.064L49.2963 128.884" stroke="#871C20" stroke-width="0.747988" stroke-linecap="round" stroke-linejoin="round" stroke-dasharray="2.58 2.58"/>
<path d="M119.887 122.295C119.593 127.073 111.416 130.682 99.5373 132.458C99.9955 133.309 103.165 137.764 103.165 137.764C103.165 137.764 84.1755 146.1 67.3738 144.585C66.9391 144.547 66.5043 144.501 66.0742 144.454C67.2196 143.739 68.3696 142.981 69.515 142.191C83.4603 132.58 97.1531 117.994 101.837 112.814C102.931 111.603 103.534 110.907 103.534 110.907C113.642 113.815 120.154 117.886 119.887 122.295Z" fill="#9090DD" stroke="#871C20" stroke-width="0.747988" stroke-miterlimit="10" stroke-linecap="round" stroke-linejoin="round"/>
<path d="M97.0619 130.465L95.9062 130.64L96.4602 131.669" stroke="#871C20" stroke-width="0.747988" stroke-linecap="round" stroke-linejoin="round"/>
<path d="M97.207 133.056L97.4815 133.566C97.6353 133.855 97.9952 134.412 98.4394 135.072" stroke="#871C20" stroke-width="0.747988" stroke-linecap="round" stroke-linejoin="round" stroke-dasharray="2.52 2.52"/>
<path d="M98.8799 135.723C99.0964 136.039 99.3217 136.364 99.5452 136.685C99.224 136.805 98.8547 136.933 98.4414 137.066" stroke="#871C20" stroke-width="0.747988" stroke-linecap="round" stroke-linejoin="round"/>
<path d="M96.3611 137.684C90.5216 139.299 80.2442 141.347 71.7695 142.038" stroke="#871C20" stroke-width="0.747988" stroke-linecap="round" stroke-linejoin="round" stroke-dasharray="3.48 3.48"/>
<path d="M70.6811 142.121C70.2879 142.148 69.899 142.172 69.5156 142.192C69.8349 141.972 70.1547 141.749 70.4735 141.523" stroke="#871C20" stroke-width="0.747988" stroke-linecap="round" stroke-linejoin="round"/>
<path d="M72.4453 140.098C83.9919 131.571 94.9368 120.297 100.225 114.576" stroke="#871C20" stroke-width="0.747988" stroke-linecap="round" stroke-linejoin="round" stroke-dasharray="3.9 3.9"/>
<path d="M101.055 113.677C101.339 113.366 101.601 113.078 101.84 112.814C102.221 112.905 102.598 113.002 102.972 113.103" stroke="#871C20" stroke-width="0.747988" stroke-linecap="round" stroke-linejoin="round"/>
<path d="M105.26 113.801C112.481 116.242 117.669 120.317 117.555 122.155C117.391 124.787 111.651 128.284 99.1918 130.144L98.2461 130.287" stroke="#871C20" stroke-width="0.747988" stroke-linecap="round" stroke-linejoin="round" stroke-dasharray="3.83 3.83"/>
<path d="M34.5862 74.6507C34.0444 79.7843 37.5781 85.7695 42.211 86.2562C47.5287 86.8149 51.2023 82.3718 51.4907 77.7469C51.8119 72.5966 48.5885 66.7304 43.9557 66.2415C39.3233 65.7525 35.128 69.5177 34.5862 74.6507Z" fill="#FDE0CB"/>
<path d="M41.9879 86.2287C37.4041 85.6102 34.0429 79.7843 34.5847 74.6507C35.1265 69.5172 39.3218 65.7525 43.9546 66.2415C46.5305 66.5135 48.5375 68.0474 49.7184 70.2381C49.7184 70.2381 50.6898 72.1099 51.0086 73.5147" stroke="#871C20" stroke-width="0.747988" stroke-miterlimit="10" stroke-linecap="round" stroke-linejoin="round"/>
<path d="M39.6484 70.8064C40.4502 70.3754 41.352 70.1875 42.286 70.3095C44.6109 70.6143 46.3673 72.107 46.7076 74.7736" stroke="#871C20" stroke-width="0.747988" stroke-miterlimit="10" stroke-linecap="round" stroke-linejoin="round"/>
<path d="M115.752 91.0836C115.542 112.851 95.9693 124.257 73.157 122.129C51.5453 120.113 35.9806 106.647 37.8609 86.9734C39.663 68.1176 58.9588 50.2846 79.6528 52.1377C100.828 54.0339 115.971 68.4387 115.752 91.0836Z" fill="url(#paint1_linear_2_2232)"/>
<path d="M115.752 91.0836C115.542 112.851 95.9693 124.257 73.157 122.129C51.5453 120.113 35.9806 106.647 37.8609 86.9734C39.663 68.1176 58.9588 50.2846 79.6528 52.1377C100.828 54.0339 115.971 68.4387 115.752 91.0836Z" stroke="#871C20" stroke-width="0.747988" stroke-miterlimit="10" stroke-linecap="round" stroke-linejoin="round"/>
<path d="M58.6973 74.7905C57.2579 76.7423 57.0854 79.1606 58.2336 81.2966" stroke="#871C20" stroke-width="7.47988" stroke-miterlimit="10" stroke-linecap="round" stroke-linejoin="round"/>
<path d="M79.1893 76.2512C77.7499 78.203 77.5779 80.6214 78.7256 82.7573" stroke="#871C20" stroke-width="7.47988" stroke-miterlimit="10" stroke-linecap="round" stroke-linejoin="round"/>
<path d="M76.2601 93.7823C74.9296 94.5186 72.6642 95.1749 71.4076 95.1146C64.9103 94.8032 64.3349 91.082 64.3349 91.082C62.5575 93.7313 59.2247 94.498 57.3454 94.0955C55.7358 93.7509 54.4282 93.0389 53.4231 92.3938C52.8247 92.0104 52.6938 91.2017 53.1239 90.6314C55.6858 87.2374 60.2485 85.1196 65.3068 85.4282C70.3931 85.7414 74.68 88.4154 76.8024 92.1273C77.1437 92.7257 76.8637 93.448 76.2601 93.7823Z" fill="#871C20" stroke="#871C20" stroke-width="0.747988" stroke-miterlimit="10" stroke-linecap="round" stroke-linejoin="round"/>
<path d="M53.0817 95.4144C54.8848 94.4088 56.2831 92.8002 56.9067 90.7629C58.2774 86.2862 55.3916 81.4331 50.4609 79.9236" fill="#FCDBC6"/>
<path d="M53.0817 95.4144C54.8848 94.4088 56.2831 92.8002 56.9067 90.7629C58.2774 86.2862 55.3916 81.4331 50.4609 79.9236" stroke="#871C20" stroke-width="0.747988" stroke-miterlimit="10" stroke-linecap="round" stroke-linejoin="round"/>
<path d="M67.4854 84.9689L60.2243 87.3662C58.092 88.0436 55.8139 86.8641 55.1365 84.7319C54.4591 82.5996 55.6386 80.3215 57.7709 79.6441L65.0319 77.2468" fill="#FCDAC5"/>
<path d="M67.4854 84.9689L60.2243 87.3662C58.092 88.0436 55.8139 86.8641 55.1365 84.7319C54.4591 82.5996 55.6386 80.3215 57.7709 79.6441L65.0319 77.2468" stroke="#871C20" stroke-width="0.747988" stroke-miterlimit="10" stroke-linecap="round" stroke-linejoin="round"/>
<path d="M112.639 93.7321C117.609 93.7321 121.637 90.002 121.637 85.4005C121.637 80.7991 117.609 77.0688 112.639 77.0688C107.669 77.0688 103.641 80.7991 103.641 85.4005C103.641 90.002 107.669 93.7321 112.639 93.7321Z" fill="white" stroke="#871C20" stroke-width="0.747988" stroke-miterlimit="10" stroke-linecap="round" stroke-linejoin="round"/>
<path d="M115.142 70.0682C114.358 62.8678 63.0456 41.8438 58.0023 52.3572C58.0421 52.2745 55.9023 57.8115 55.9023 57.8115C58.2188 56.1579 65.3335 51.3703 68.9005 52.2983C72.9284 53.3464 77.6043 60.37 79.6827 60.9647C83.9187 62.1647 88.107 63.513 92.2382 65.0052L97.6504 74.7969C97.6504 74.7969 105.514 77.8056 111.066 77.1539C111.066 77.1539 112.755 77.1133 113.116 76.2769C113.332 75.6262 114.877 71.0649 115.071 70.4908L115.062 70.4898C115.115 70.3566 115.154 70.2117 115.142 70.0682Z" fill="#7272C4" stroke="#871C20" stroke-width="0.747988" stroke-miterlimit="10" stroke-linecap="round" stroke-linejoin="round"/>
<path d="M123.672 61.0866C122.306 49.9579 111.445 41.4897 101.811 35.8696C91.6327 29.9319 78.5377 25.3426 66.3722 27.105C59.1536 28.1508 54.8765 33.6499 56.2523 40.8759C56.1864 40.53 57.4431 48.1178 58.0036 52.3575C70.3024 45.1698 104.248 59.9936 114.498 72.1872C122.418 69.7534 124.012 65.6385 123.672 61.0866Z" fill="#FDBF56" stroke="#871C20" stroke-width="0.747988" stroke-miterlimit="10"/>
<path d="M78.181 39.0703C80.0738 42.3483 79.4086 46.2762 76.6952 47.8428C73.9819 49.4093 70.2481 48.0218 68.3552 44.7433C66.4623 41.4652 67.1275 37.5374 69.8409 35.9708C72.5542 34.4042 76.2885 35.7922 78.181 39.0703Z" fill="#9090DD" stroke="#871C20" stroke-width="0.747988" stroke-miterlimit="10" stroke-linecap="round" stroke-linejoin="round"/>
<path d="M72.223 52.9196C72.7587 54.4208 70.7845 56.4974 67.8131 57.5576C64.8417 58.6184 61.9984 58.2612 61.4627 56.7606C60.927 55.2599 62.9012 53.1833 65.8725 52.1226C68.8439 51.0618 71.6872 51.419 72.223 52.9196Z" fill="#871C20" stroke="#871C20" stroke-width="0.747988" stroke-miterlimit="10" stroke-linecap="round" stroke-linejoin="round"/>
<path d="M74.9754 58.0744C76.3941 56.2832 76.5316 54.0291 75.2824 53.0397C74.0332 52.0502 71.8704 52.7002 70.4517 54.4914C69.0329 56.2826 68.8955 58.5367 70.1447 59.5261C71.3938 60.5156 73.5566 59.8656 74.9754 58.0744Z" fill="#871C20" stroke="#871C20" stroke-width="0.747988" stroke-miterlimit="10" stroke-linecap="round" stroke-linejoin="round"/>
<path d="M122.909 86.1194C122.155 91.4741 116.436 96.573 110.923 95.7942C104.594 94.9003 101.523 89.3853 102.435 84.6165C103.45 79.3053 108.776 74.2419 114.29 75.0184C119.804 75.7949 123.663 80.7648 122.909 86.1194Z" fill="#F9CAB6"/>
<path d="M111.187 95.8271C116.679 96.4587 122.155 91.4739 122.909 86.1192C123.663 80.7645 119.804 75.7946 114.289 75.0181C111.223 74.5866 108.478 75.5908 106.515 77.4879C106.515 77.4879 104.882 79.1194 104.133 80.4565" stroke="#871C20" stroke-width="0.747988" stroke-miterlimit="10" stroke-linecap="round" stroke-linejoin="round"/>
<path d="M120.247 86.8682C120.832 83.2591 118.543 80.0059 115.134 79.602C112.35 79.2724 109.908 80.3037 108.793 82.9146C108.117 84.4985 108.204 86.3184 109.097 87.7906C109.703 88.7873 110.761 90.4483 112.537 90.8536" stroke="#871C20" stroke-width="0.747988" stroke-miterlimit="10" stroke-linecap="round" stroke-linejoin="round"/>
<path d="M110.344 89.5119C110.344 89.5119 109.375 88.583 109.058 88.0889C108.129 86.6387 108.013 84.7608 108.689 83.1769C109.166 82.0577 109.92 81.1606 110.804 80.457C110.804 80.457 113.285 84.4854 110.344 89.5119Z" fill="#871C20" stroke="#871C20" stroke-width="0.747988" stroke-miterlimit="10" stroke-linecap="round" stroke-linejoin="round"/>
<path d="M76.456 97.3382C75.026 95.6978 74.1602 93.553 74.1602 91.2062C74.1602 86.0497 78.3405 81.8694 83.4969 81.8694C85.3388 81.8694 87.0559 82.4028 88.5028 83.3233" fill="#FAD0BC"/>
<path d="M76.456 97.3382C75.026 95.6978 74.1602 93.553 74.1602 91.2062C74.1602 86.0497 78.3405 81.8694 83.4969 81.8694C85.3388 81.8694 87.0559 82.4028 88.5028 83.3233" stroke="#871C20" stroke-width="0.747988" stroke-miterlimit="10" stroke-linecap="round" stroke-linejoin="round"/>
<path d="M68.0224 53.1106C59.7286 55.5898 56.977 57.8814 54.4081 59.6191C35.0226 54.8399 33.8679 44.5368 37.2245 41.1241C41.8994 36.3716 47.7477 39.4968 52.7639 41.9932C58.752 44.9763 63.6046 48.9687 68.0224 53.1106Z" fill="url(#paint2_linear_2_2232)" stroke="#871C20" stroke-width="0.747988" stroke-miterlimit="10"/>
<path d="M89.1377 57.8394C93.9533 62.6602 96.4301 68.869 97.6517 74.7972C93.2722 72.7534 86.1476 70.8086 79.959 64.5681C71.7199 56.2602 52.8734 35.677 37.2227 41.1242C49.2297 30.0119 82.4806 51.1753 89.1377 57.8394Z" fill="url(#paint3_linear_2_2232)"/>
<path d="M37.2227 41.1246C49.3405 29.9286 82.4801 51.1752 89.1377 57.8393C93.9533 62.6601 96.4301 68.8689 97.6517 74.7971C93.2722 72.7533 86.1476 70.8085 79.959 64.5679C75.1583 59.7266 66.7551 50.7175 57.4819 45.1198" stroke="#871C20" stroke-width="0.747988" stroke-miterlimit="10" stroke-linecap="round" stroke-linejoin="round"/>
<path d="M82.6953 88.7872C81.0469 89.9293 79.0367 89.8825 78.206 88.6834C77.3752 87.4842 78.0381 85.5862 79.6865 84.4441C81.3349 83.3021 83.3451 83.3488 84.1759 84.5479C85.0066 85.7471 84.3437 87.6451 82.6953 88.7872Z" fill="#F6B7A4"/>
<path d="M53.1607 85.6568C52.509 86.4796 51.0565 86.4151 49.9163 85.5119C48.7765 84.6087 48.381 83.21 49.0327 82.3867C49.6844 81.5639 51.1369 81.6285 52.2771 82.5317C53.4169 83.4349 53.8124 84.8341 53.1607 85.6568Z" fill="#F6B7A4"/>
<path d="M55.9961 70.6039C57.4617 67.3226 62.1632 67.4511 63.447 70.8082" stroke="#871C20" stroke-width="0.747988" stroke-miterlimit="10" stroke-linecap="round" stroke-linejoin="round"/>
<path d="M75.0469 71.5656C76.5125 68.2843 81.214 68.4129 82.4978 71.7694" stroke="#871C20" stroke-width="0.747988" stroke-miterlimit="10" stroke-linecap="round" stroke-linejoin="round"/>
</g>
<defs>
<linearGradient id="paint0_linear_2_2232" x1="86.9622" y1="127.616" x2="19.1477" y2="98.901" gradientUnits="userSpaceOnUse">
<stop stop-color="#F2A290"/>
<stop offset="0.1701" stop-color="#F6B9A6"/>
<stop offset="0.3921" stop-color="#FACFBB"/>
<stop offset="0.6021" stop-color="#FCDDC8"/>
<stop offset="0.7858" stop-color="#FDE2CD"/>
</linearGradient>
<linearGradient id="paint1_linear_2_2232" x1="101.57" y1="134.527" x2="45.5823" y2="31.216" gradientUnits="userSpaceOnUse">
<stop stop-color="#F2A290"/>
<stop offset="0.1701" stop-color="#F6B9A6"/>
<stop offset="0.3921" stop-color="#FACFBB"/>
<stop offset="0.6021" stop-color="#FCDDC8"/>
<stop offset="0.7858" stop-color="#FDE2CD"/>
</linearGradient>
<linearGradient id="paint2_linear_2_2232" x1="63.9677" y1="59.5721" x2="37.4792" y2="40.9347" gradientUnits="userSpaceOnUse">
<stop offset="0.0564" stop-color="#6060B4"/>
<stop offset="0.2223" stop-color="#7777C8"/>
<stop offset="0.3981" stop-color="#8A8AD7"/>
<stop offset="0.5241" stop-color="#9090DD"/>
<stop offset="1" stop-color="#9090DD"/>
</linearGradient>
<linearGradient id="paint3_linear_2_2232" x1="98.9921" y1="74.3874" x2="42.3" y2="34.4988" gradientUnits="userSpaceOnUse">
<stop offset="0.0564" stop-color="#6060B4"/>
<stop offset="0.2283" stop-color="#7777C8"/>
<stop offset="0.4106" stop-color="#8A8AD7"/>
<stop offset="0.5411" stop-color="#9090DD"/>
<stop offset="1" stop-color="#9090DD"/>
</linearGradient>
<clipPath id="clip0_2_2232">
<rect width="150" height="150" rx="75" fill="white"/>
</clipPath>
</defs>
</svg>
