<svg width="150" height="150" viewBox="0 0 150 150" fill="none" xmlns="http://www.w3.org/2000/svg">
<g clip-path="url(#clip0_2_2116)">
<rect width="150" height="150" rx="75" fill="#849BD6"/>
<path d="M129.703 111.835C134.475 107.987 135.576 101.637 134.964 95.0281C133.608 80.3819 115.136 63.6731 75.2937 63.7237C29.0875 63.7825 15.6231 78.3606 15.6231 93.0694C15.6231 96.0275 16.0819 98.7813 17.9488 101.515C6.01439 109.41 -2.13687 121.36 -5.625 133.241L149.834 150.254C148.617 135.286 141.437 122.074 129.703 111.835Z" fill="url(#paint0_linear_2_2116)" stroke="#871C20" stroke-miterlimit="10" stroke-linecap="round" stroke-linejoin="round"/>
<path d="M123.074 89.4574C123.452 78.8531 104.558 69.7181 81.0544 69.0606C57.5506 68.4031 44.125 101.846 44.125 101.846C44.125 101.846 57.3287 110.779 60.9131 122.324C65.4769 113.266 85.5156 106.781 88.45 105.569C88.45 105.569 122.481 106.075 123.074 89.4574Z" fill="#871C20" stroke="#871C20" stroke-miterlimit="10" stroke-linecap="round" stroke-linejoin="round"/>
<path d="M124.567 107.749C139.337 118.442 148.448 133.209 149.834 150.255L-5.625 133.241C-1.68375 119.819 6.98937 108.387 19.4062 100.597" stroke="#871C20" stroke-miterlimit="10" stroke-linecap="round" stroke-linejoin="round"/>
<path d="M118.316 80.0337C119.191 80.3787 120.102 80.9205 120.991 81.6268" stroke="#65BA64"/>
<path d="M123.274 83.8774C125.753 86.8699 127.53 91.1349 126.885 95.6874C125.991 102.001 119.174 104.79 110.286 106.737C99.9464 109.003 95.9758 109.992 83.1883 113.45C72.6845 116.291 66.4864 121.371 63.2695 124.864" stroke="#65BA64" stroke-dasharray="10.28 5.14"/>
<path d="M62.2141 126.072C60.9534 127.606 60.4078 128.616 60.4078 128.616C60.4078 128.616 59.9509 127.552 59.0547 125.801" stroke="#65BA64"/>
<path d="M57.7603 123.375C56.6422 121.365 55.1766 118.925 53.3753 116.325C50.2697 111.844 43.3678 103.922 37.2266 99.5598" stroke="#65BA64" stroke-dasharray="8.81 4.41"/>
<path d="M36.0847 98.7863C35.1422 98.1781 34.2253 97.6675 33.3516 97.2812" stroke="#65BA64"/>
<path d="M84.2312 107.161C77.2669 109.834 64.4462 115.31 60.9125 122.326C57.3275 110.777 44.125 101.845 44.125 101.845C44.125 101.845 44.5163 100.866 45.2838 99.2437C49.5644 95.7768 55.3594 93.6499 61.7462 93.6499C72.1419 93.6499 80.9756 99.2906 84.2312 107.161Z" fill="#FFD3C0" stroke="#871C20"/>
<path d="M47.5727 98.3499C44.7552 98.8231 35.3302 99.8631 29.4696 95.0281C21.6752 88.5981 28.9658 84.5018 28.7208 73.3831C28.7646 75.3749 30.8908 76.0074 31.934 76.9493C38.4215 82.8062 38.4177 93.7706 47.5727 98.3499Z" fill="#FFD67B" stroke="#871C20" stroke-miterlimit="10" stroke-linecap="round" stroke-linejoin="round"/>
<path d="M37.1178 58.203L37.1184 58.213C33.5822 64.108 31.6591 70.9868 31.9434 77.8381C26.7159 75.9862 23.8672 69.5718 24.4859 64.3243C25.2072 58.0843 31.7547 54.3218 37.1178 58.203Z" fill="#FFD3C0" stroke="#871C20" stroke-miterlimit="10" stroke-linecap="round" stroke-linejoin="round"/>
<path d="M29.4688 61.4499C31.2256 60.5093 33.5169 61.1636 34.9613 62.3886" stroke="#871C20" stroke-miterlimit="10" stroke-linecap="round" stroke-linejoin="round"/>
<path d="M115.732 102.001C114.188 105.951 110.451 107.501 106.413 106.964C102.832 106.82 97.1008 104.201 94.0195 106.045C107.945 97.7137 110.813 82.6137 107.357 68.9262C109.063 69.0887 111.013 68.1324 111.363 65.5637C111.882 61.7574 111.732 58.0012 110.995 54.3887C118.07 69.2199 121.701 86.3512 115.732 102.001Z" fill="#FFD67B" stroke="#871C20" stroke-miterlimit="10" stroke-linecap="round" stroke-linejoin="round"/>
<path d="M108.73 83.1642C108.048 98.6336 96.0508 109.472 75.8658 110.73C51.1345 112.271 29.2058 100.656 32.1252 72.8023C34.4183 51.9273 55.9683 34.7661 76.9089 40.2673C97.5252 44.8961 110.077 62.2173 108.73 83.1623C108.73 83.163 108.73 83.1636 108.73 83.1642Z" fill="#FFD3C0" stroke="#871C20"/>
<path d="M111.363 65.5639C111.013 68.1326 109.063 69.0889 107.356 68.9264C107.15 68.1139 106.925 67.3076 106.675 66.5076C106 66.4576 105.319 66.5014 104.656 66.6326C103.138 66.9264 101.706 67.6576 100.537 68.6701C100.506 68.7264 100.475 68.7764 100.419 68.8201L100.387 68.8014C100.119 69.0514 99.8563 69.3139 99.65 69.6139V69.6014C99.4875 68.5389 98.55 67.9701 97.6188 67.6326C96.8938 67.3139 96.1812 66.9701 95.4687 66.6201C92.6062 65.2014 89.8563 63.5576 87.2438 61.7264C79.2188 56.0389 72.2938 48.6764 67.375 40.1451C60.15 49.1826 49.5938 56.3576 37.7938 57.1201L37.1187 58.2014C35.375 56.9014 34.125 56.8139 33.0625 56.6514C33.0625 53.1076 36.2875 44.9076 40.8438 40.3014H40.85C40.875 40.2701 40.9063 40.2451 40.9375 40.2139C42.7 38.4639 44.6375 36.9701 46.7063 35.7139C46.7188 35.7076 46.7313 35.7014 46.7438 35.6951C54.7813 30.8326 64.8 29.5201 74.0938 30.5826C82.4 31.5014 90.3875 34.4951 97.6188 38.6014C101.025 40.5826 104.638 42.6076 106.606 46.1639C108.163 48.8014 109.644 51.5514 110.994 54.3889C111.731 58.0014 111.881 61.7576 111.363 65.5639Z" fill="#FFD67B" stroke="#871C20" stroke-miterlimit="10" stroke-linecap="round" stroke-linejoin="round"/>
<path d="M69.7109 39.103C69.7109 39.103 78.6266 56.0687 97.4947 64.6724" stroke="#EDA53E" stroke-linecap="round" stroke-linejoin="round"/>
<path d="M82.6562 50.7324C86.8375 55.0855 92.465 59.7762 99.5994 63.3062" stroke="#EDA53E" stroke-linecap="round" stroke-linejoin="round"/>
<path d="M67.375 40.1419C67.375 40.1419 69.6044 28.87 80.5081 31.7031" stroke="#871C20" stroke-miterlimit="10"/>
<path d="M40.8488 40.3043C47.3388 33.3231 58.9744 30.1368 69.9732 30.89C90.0719 32.2668 103.842 46.68 104.642 66.5193C104.765 69.5662 110.718 70.2537 111.358 65.5662C114.124 45.3025 97.9869 26.3993 74.5319 23.9975C63.585 22.8762 45.7325 25.1068 40.8438 40.3006L40.8488 40.3043Z" fill="#F4736C" stroke="#871C20" stroke-miterlimit="10" stroke-linecap="round" stroke-linejoin="round"/>
<path d="M115.032 75.4788C113.625 82.4738 105.42 87.5956 99.1689 82.7638C92.8621 77.9375 94.8558 68.6988 101.175 64.8532C108.3 60.3213 116.626 67.8031 115.032 75.4788Z" fill="#FFD3C0"/>
<path d="M103.473 84.5924C110.898 85.6649 117.293 76.9024 114.583 70.0587C113.094 65.7393 108.363 62.6493 103.785 63.6006C100.95 64.1349 98.7641 66.3337 97.2734 68.6812" stroke="#871C20"/>
<path d="M112.467 76.0937C113.661 70.6931 108.357 66.2118 103.467 69.2324C101.291 70.7999 100.552 73.9818 101.753 76.3656C102.452 77.7443 103.397 79.2268 104.957 79.7018" stroke="#871C20"/>
<path d="M102.923 78.2425C100.097 75.6463 100.709 71.2294 103.729 69.0569C105.141 71.9844 104.623 75.5388 102.923 78.2425Z" fill="#871C20" stroke="#871C20" stroke-miterlimit="10" stroke-linecap="round" stroke-linejoin="round"/>
<path d="M52.5667 72.4506C52.4011 72.4412 52.2367 72.4138 52.078 72.37C51.9186 72.3263 51.7648 72.2663 51.6192 72.1931C51.4736 72.12 51.3361 72.0331 51.2086 71.9356C51.0811 71.8381 50.9636 71.7294 50.8573 71.6125C50.7511 71.4957 50.6561 71.3706 50.573 71.24C50.4623 71.065 50.373 70.88 50.2861 70.6944C50.1773 70.4619 50.0723 70.2288 49.978 69.9919C49.8648 69.7075 49.7667 69.4175 49.6817 69.1244C49.5967 68.8313 49.5248 68.535 49.4673 68.2369C49.4098 67.9382 49.3673 67.6375 49.3392 67.3356C49.3111 67.0338 49.2986 66.7306 49.3011 66.4275C49.3036 66.1244 49.3217 65.8213 49.3555 65.52C49.3892 65.2188 49.4386 64.9187 49.5042 64.6219C49.5699 64.325 49.6511 64.0312 49.7479 63.7412C49.8448 63.4512 49.9567 63.1656 50.0867 62.8875C50.2161 62.6094 50.3636 62.3381 50.518 62.0694C50.6467 61.8456 50.7804 61.6238 50.9442 61.4207C51.0754 61.2582 51.2261 61.1075 51.3992 60.9825C51.5292 60.8887 51.6723 60.8094 51.8236 60.7469C51.9748 60.6844 52.1355 60.6388 52.2998 60.6119C52.4642 60.585 52.633 60.5769 52.8005 60.5875C52.968 60.5981 53.1342 60.6269 53.2955 60.6725C53.4567 60.7181 53.6117 60.7806 53.7586 60.8569C53.9055 60.9331 54.0436 61.0231 54.1717 61.1238C54.2998 61.2244 54.418 61.3356 54.5242 61.455C54.6311 61.5744 54.7261 61.7025 54.8092 61.8363C54.8923 61.97 54.9636 62.1094 55.0223 62.2531C55.0811 62.3969 55.1274 62.5444 55.1617 62.6938C55.1955 62.8431 55.2167 62.995 55.2248 63.1469C55.2329 63.2988 55.2286 63.4513 55.2105 63.6019C55.1924 63.7525 55.1598 63.9013 55.1148 64.0469C55.0692 64.1925 55.0105 64.3344 54.9355 64.4681C54.8355 64.6463 54.7079 64.8107 54.5998 64.985C54.4648 65.2032 54.3605 65.4375 54.278 65.6775C54.1792 65.9656 54.1111 66.2619 54.0817 66.5619C54.0523 66.8612 54.0611 67.1644 54.0992 67.4656C54.138 67.7663 54.2061 68.065 54.3167 68.3494C54.4086 68.5863 54.5305 68.8131 54.6311 69.0481C54.7117 69.2356 54.7786 69.4281 54.8211 69.625C54.8529 69.7725 54.8717 69.9225 54.8773 70.0719C54.883 70.2219 54.8755 70.3719 54.8548 70.52C54.8342 70.6681 54.7998 70.8144 54.7523 70.9575C54.7042 71.1 54.6429 71.2388 54.5673 71.3706C54.4917 71.5025 54.4023 71.6281 54.2986 71.7431C54.1954 71.8588 54.0786 71.9638 53.9498 72.0556C53.8211 72.1475 53.6805 72.2263 53.5311 72.2881C53.3817 72.3506 53.2236 72.3963 53.0617 72.4238C52.8986 72.4513 52.7323 72.46 52.5667 72.4506Z" fill="#871C20" stroke="#871C20" stroke-miterlimit="10" stroke-linecap="round" stroke-linejoin="round"/>
<path d="M73.0426 75.1232C72.8814 75.1144 72.7214 75.0876 72.567 75.0451C72.4126 75.0026 72.2632 74.9438 72.1226 74.8726C71.982 74.8007 71.8489 74.7157 71.7264 74.6201C71.6039 74.5245 71.4908 74.4182 71.3895 74.3032C71.2876 74.1882 71.197 74.0657 71.1189 73.9363C71.0139 73.7645 70.9301 73.582 70.8495 73.3988C70.7482 73.1701 70.6507 72.9401 70.5632 72.7064C70.4589 72.4257 70.3689 72.1401 70.2926 71.8507C70.2157 71.5613 70.152 71.2695 70.1026 70.9751C70.0532 70.6807 70.0183 70.3838 69.9976 70.0857C69.977 69.7876 69.9714 69.4882 69.9814 69.1895C69.9908 68.8901 70.0157 68.5913 70.0557 68.2938C70.0957 67.9963 70.1514 67.7001 70.2232 67.4076C70.2945 67.1145 70.382 66.8245 70.4839 66.5388C70.5857 66.2532 70.7026 65.9713 70.8364 65.697C70.9701 65.4226 71.1208 65.1551 71.2789 64.8907C71.4101 64.6701 71.547 64.4514 71.7126 64.2514C71.8451 64.0914 71.9964 63.9438 72.1695 63.8207C72.2989 63.7288 72.4407 63.6507 72.5901 63.5895C72.7395 63.5282 72.8976 63.4832 73.0582 63.457C73.2189 63.4307 73.3839 63.4226 73.547 63.4326C73.7101 63.4426 73.872 63.4707 74.0282 63.5151C74.1845 63.5595 74.3351 63.6207 74.477 63.6951C74.6189 63.7695 74.752 63.8576 74.8758 63.9564C74.9989 64.0551 75.112 64.1645 75.2139 64.282C75.3158 64.3995 75.4064 64.5251 75.4851 64.6564C75.5639 64.7882 75.6308 64.9257 75.6851 65.067C75.7395 65.2082 75.782 65.3539 75.812 65.5014C75.842 65.6489 75.8595 65.7982 75.8645 65.9489C75.8695 66.0989 75.8614 66.2495 75.8401 66.3976C75.8189 66.5463 75.7839 66.6932 75.7364 66.8363C75.6883 66.9801 75.6276 67.1201 75.5507 67.252C75.4489 67.4276 75.3195 67.5895 75.2095 67.762C75.072 67.977 74.9645 68.2082 74.8776 68.4451C74.7739 68.7295 74.7001 69.0219 74.6645 69.3176C74.6283 69.6132 74.6301 69.9126 74.6608 70.2094C74.6914 70.5063 74.752 70.8007 74.8539 71.0813C74.9389 71.3151 75.0533 71.5388 75.1464 71.7701C75.2208 71.9551 75.282 72.1451 75.3189 72.3395C75.3464 72.4851 75.3614 72.6326 75.3626 72.7807C75.3645 72.9288 75.3533 73.0763 75.3295 73.2232C75.3051 73.3695 75.2683 73.5138 75.2176 73.6545C75.167 73.7951 75.1026 73.9313 75.0251 74.0613C74.9476 74.1913 74.8564 74.3144 74.752 74.4282C74.6476 74.5413 74.5308 74.6451 74.402 74.7357C74.2739 74.8257 74.1339 74.9032 73.9864 74.9639C73.8389 75.0251 73.6833 75.0701 73.5245 75.097C73.3664 75.1238 73.2039 75.1326 73.0426 75.1232Z" fill="#871C20" stroke="#871C20" stroke-miterlimit="10" stroke-linecap="round" stroke-linejoin="round"/>
<path d="M52.4287 73.4545C52.1675 71.1438 50.7268 69.1551 48.5518 68.4657C47.0443 67.9882 45.4662 68.2232 44.125 68.9914" fill="#FFD3C0"/>
<path d="M52.4287 73.4545C52.1675 71.1438 50.7268 69.1551 48.5518 68.4657C47.0443 67.9882 45.4662 68.2232 44.125 68.9914" stroke="#871C20"/>
<path d="M44.1414 71.7389C43.8433 72.9583 44.8677 74.2564 46.4295 74.6383C47.9914 75.0208 49.5002 74.3421 49.7983 73.1233C50.0964 71.9046 49.072 70.6058 47.5102 70.2239C45.9477 69.8414 44.4396 70.5195 44.1414 71.7389Z" fill="#FCB7AD"/>
<path d="M58.6168 77.1669C57.8443 76.8619 57.0661 76.5656 56.2936 76.2544C55.7517 76.0363 55.2124 75.8113 54.6649 75.6025C54.3518 75.4832 54.0361 75.3694 53.7286 75.2369C53.498 75.1375 53.2717 75.0275 53.0611 74.8969C52.8505 74.7663 52.6549 74.615 52.4749 74.45C52.2942 74.2857 52.1292 74.1075 51.9805 73.9194C51.8317 73.7313 51.6986 73.5319 51.583 73.3257C51.4667 73.1194 51.3668 72.905 51.2843 72.6863C51.2011 72.4669 51.1349 72.2431 51.0855 72.0156C51.0361 71.7881 51.0042 71.5581 50.9892 71.3275C50.9749 71.0963 50.978 70.8644 50.9999 70.6344C51.0218 70.4038 51.0617 70.175 51.1205 69.9506C51.1792 69.7256 51.2568 69.505 51.3543 69.2919C51.4511 69.0782 51.568 68.8719 51.7043 68.6769C51.8405 68.4819 51.9961 68.2981 52.1705 68.1294C52.3449 67.9606 52.5374 67.8082 52.7455 67.6744C52.9536 67.5413 53.178 67.4275 53.413 67.3369C53.648 67.2469 53.8949 67.1794 54.1467 67.1381C54.3986 67.0963 54.6561 67.0807 54.913 67.09C55.2549 67.1025 55.5955 67.1613 55.9205 67.2588C56.3267 67.3807 56.7092 67.5638 57.0942 67.7357C57.7105 68.0107 58.3349 68.2581 58.9592 68.505C59.7392 68.8131 60.5205 69.1213 61.3074 69.4107" fill="#FFD3C0"/>
<path d="M58.6168 77.1669C57.8443 76.8619 57.0661 76.5656 56.2936 76.2544C55.7517 76.0363 55.2124 75.8113 54.6649 75.6025C54.3518 75.4832 54.0361 75.3694 53.7286 75.2369C53.498 75.1375 53.2717 75.0275 53.0611 74.8969C52.8505 74.7663 52.6549 74.615 52.4749 74.45C52.2942 74.2857 52.1292 74.1075 51.9805 73.9194C51.8317 73.7313 51.6986 73.5319 51.583 73.3257C51.4667 73.1194 51.3668 72.905 51.2843 72.6863C51.2011 72.4669 51.1349 72.2431 51.0855 72.0156C51.0361 71.7881 51.0042 71.5581 50.9892 71.3275C50.9749 71.0963 50.978 70.8644 50.9999 70.6344C51.0218 70.4038 51.0617 70.175 51.1205 69.9506C51.1792 69.7256 51.2568 69.505 51.3543 69.2919C51.4511 69.0782 51.568 68.8719 51.7043 68.6769C51.8405 68.4819 51.9961 68.2981 52.1705 68.1294C52.3449 67.9606 52.5374 67.8082 52.7455 67.6744C52.9536 67.5413 53.178 67.4275 53.413 67.3369C53.648 67.2469 53.8949 67.1794 54.1467 67.1381C54.3986 67.0963 54.6561 67.0807 54.913 67.09C55.2549 67.1025 55.5955 67.1613 55.9205 67.2588C56.3267 67.3807 56.7092 67.5638 57.0942 67.7357C57.7105 68.0107 58.3349 68.2581 58.9592 68.505C59.7392 68.8131 60.5205 69.1213 61.3074 69.4107" stroke="#871C20" stroke-miterlimit="10" stroke-linecap="round" stroke-linejoin="round"/>
<path d="M49.5039 58.3845C49.7995 57.6651 50.3145 56.9852 51.0233 56.5558C51.7314 56.1264 52.6326 55.9489 53.4876 56.0539C54.3433 56.1589 55.1533 56.5464 55.7839 57.0933C56.4158 57.6408 56.8676 58.3483 57.1395 59.0864" stroke="#871C20" stroke-miterlimit="10" stroke-linecap="round" stroke-linejoin="round"/>
<path d="M70.8008 60.7588C71.1439 60.0469 71.727 59.3751 72.5114 58.9507C73.2952 58.5263 74.2789 58.3501 75.2071 58.4507C76.1358 58.5513 77.0077 58.9301 77.6814 59.4676C78.3564 60.0063 78.8327 60.7045 79.1089 61.4338" stroke="#871C20" stroke-miterlimit="10" stroke-linecap="round" stroke-linejoin="round"/>
<path d="M70.5197 82.8481C70.4322 83.2394 70.2879 83.6262 70.0972 83.9919C69.9066 84.3575 69.6697 84.7025 69.3916 85.0325C69.1185 85.3569 68.8047 85.6556 68.4591 85.9287C68.1141 86.2019 67.7328 86.4438 67.331 86.655C67.2278 86.7119 67.1197 86.7631 67.0116 86.8094C66.7022 86.9537 66.3835 87.0775 66.0585 87.1856C65.6153 87.33 65.1572 87.4381 64.6935 87.515C64.2247 87.5925 63.751 87.6388 63.2766 87.6544C62.8028 87.67 62.3235 87.6594 61.8497 87.6238C61.3703 87.5875 60.9016 87.5256 60.4329 87.4381C59.9641 87.3506 59.506 87.2319 59.0572 87.0881C58.6191 86.9494 58.2022 86.7844 57.7953 86.5831C57.7847 86.5781 57.7697 86.5731 57.7591 86.5675C57.3416 86.3669 56.9453 86.135 56.5691 85.8825C56.1985 85.625 55.8479 85.3419 55.5285 85.0375C55.2091 84.7338 54.9154 84.4094 54.6579 84.0638C54.4004 83.7238 54.1735 83.3631 53.9828 82.9875C53.7922 82.6112 53.6379 82.225 53.5347 81.8231C53.4316 81.4262 53.3697 81.0244 53.3754 80.6125C53.3804 80.2725 53.4266 79.9325 53.566 79.6131C53.6741 79.3606 53.8491 79.1187 54.081 78.9331C54.251 78.7937 54.4622 78.6806 54.6785 78.5981C54.8997 78.5156 55.1366 78.4587 55.3791 78.4331C55.8579 78.3762 56.3528 78.4331 56.8366 78.5156C57.5578 78.6394 58.2479 78.825 58.9435 78.9894C59.876 79.2106 60.8185 79.4069 61.7766 79.525C62.7297 79.6437 63.7029 79.69 64.656 79.6744C65.4491 79.6694 66.2322 79.6175 67.036 79.6075C67.6797 79.5969 68.3391 79.6125 68.9266 79.8137C69.2922 79.9425 69.6322 80.1431 69.9004 80.3906C69.9516 80.4369 70.0035 80.4888 70.0547 80.545C70.1991 80.7044 70.3172 80.88 70.3997 81.0656C70.5129 81.3181 70.5697 81.5806 70.5904 81.8488C70.6172 82.1838 70.5916 82.5188 70.5197 82.8481Z" fill="#871C20"/>
<path d="M68.7433 85.6908C68.1845 86.087 66.3833 87.077 66.0583 87.1851C65.6152 87.3295 65.1571 87.4377 64.6933 87.5145C64.2246 87.592 63.7508 87.6383 63.2764 87.6539C62.8027 87.6695 62.3233 87.6589 61.8495 87.6232C61.3702 87.587 60.9014 87.5251 60.4327 87.4376C59.9639 87.3501 59.5058 87.2314 59.0571 87.0876C58.6189 86.9489 56.4139 85.9395 55.7852 85.2708C56.6245 84.112 58.127 82.8801 62.4445 82.8801C66.4945 82.8801 67.9758 84.4495 68.7433 85.6908Z" fill="url(#paint1_radial_2_2116)"/>
<path d="M67.1059 82.8126C65.8334 83.477 63.464 83.7863 61.5528 83.647C59.6472 83.5388 57.1434 82.5739 56.294 81.7707C55.0553 80.5995 56.2166 78.4907 56.2166 78.4907H56.6134C56.6909 78.5063 56.7678 78.5164 56.8403 78.532C57.5616 78.6714 58.2465 78.877 58.9472 79.0626C59.874 79.3151 60.8172 79.5363 61.7753 79.6707C62.7334 79.7995 63.7015 79.8457 64.6547 79.8301C65.4478 79.8145 66.2309 79.7583 67.0397 79.7426C67.2559 79.7376 67.4722 79.7376 67.6884 79.7526C67.9197 80.6026 68.2028 82.2407 67.1059 82.8126Z" fill="url(#paint2_linear_2_2116)" stroke="#871C20" stroke-miterlimit="10"/>
<path d="M70.5197 82.8481C70.4322 83.2394 70.2879 83.6262 70.0972 83.9919C69.9066 84.3575 69.6697 84.7025 69.3916 85.0325C69.1185 85.3569 68.8047 85.6556 68.4591 85.9287C68.1141 86.2019 67.7328 86.4438 67.331 86.655C67.2278 86.7119 67.1197 86.7631 67.0116 86.8094C66.7022 86.9537 66.3835 87.0775 66.0585 87.1856C65.6153 87.33 65.1572 87.4381 64.6935 87.515C64.2247 87.5925 63.751 87.6388 63.2766 87.6544C62.8028 87.67 62.3235 87.6594 61.8497 87.6238C61.3703 87.5875 60.9016 87.5256 60.4329 87.4381C59.9641 87.3506 59.506 87.2319 59.0572 87.0881C58.6191 86.9494 58.2022 86.7844 57.7953 86.5831C57.7847 86.5781 57.7697 86.5731 57.7591 86.5675C57.3416 86.3669 56.9453 86.135 56.5691 85.8825C56.1985 85.625 55.8479 85.3419 55.5285 85.0375C55.2091 84.7338 54.9154 84.4094 54.6579 84.0638C54.4004 83.7238 54.1735 83.3631 53.9828 82.9875C53.7922 82.6112 53.6379 82.225 53.5347 81.8231C53.4316 81.4262 53.3697 81.0244 53.3754 80.6125C53.3804 80.2725 53.4266 79.9325 53.566 79.6131C53.6741 79.3606 53.8491 79.1187 54.081 78.9331C54.251 78.7937 54.4622 78.6806 54.6785 78.5981C54.8997 78.5156 55.1366 78.4587 55.3791 78.4331C55.8579 78.3762 56.3528 78.4331 56.8366 78.5156C57.5578 78.6394 58.2479 78.825 58.9435 78.9894C59.876 79.2106 60.8185 79.4069 61.7766 79.525C62.7297 79.6437 63.7029 79.69 64.656 79.6744C65.4491 79.6694 66.2322 79.6175 67.036 79.6075C67.6797 79.5969 68.3391 79.6125 68.9266 79.8137C69.2922 79.9425 69.6322 80.1431 69.9004 80.3906C69.9516 80.4369 70.0035 80.4888 70.0547 80.545C70.1991 80.7044 70.3172 80.88 70.3997 81.0656C70.5129 81.3181 70.5697 81.5806 70.5904 81.8488C70.6172 82.1838 70.5916 82.5188 70.5197 82.8481Z" stroke="#871C20" stroke-miterlimit="10" stroke-linecap="round" stroke-linejoin="round"/>
<path d="M82.6612 73.4314C81.5687 72.1601 79.9737 71.2695 78.1249 71.0551C75.2874 70.7264 72.6668 72.0864 71.3849 74.2995C70.9749 75.0076 69.8181 76.3026 70.6024 76.6595C70.8906 76.7908 82.6612 73.4314 82.6612 73.4314Z" fill="#FFD3C0"/>
<path d="M71.2578 74.5003C72.7316 72.2466 75.2847 70.7272 78.1222 71.0559C79.9709 71.2697 81.5659 72.1609 82.6584 73.4322" stroke="#871C20"/>
<path d="M81.0075 75.9989C81.1864 74.4538 79.9699 73.0437 78.2904 72.8492C76.6108 72.6548 75.1043 73.7497 74.9254 75.2948C74.7466 76.8399 75.9631 78.2501 77.6426 78.4446C79.3221 78.639 80.8287 77.544 81.0075 75.9989Z" fill="#FCB7AD"/>
<rect width="111.875" height="26.875" transform="translate(26.875 136.875)" fill="#B4DF8D"/>
</g>
<defs>
<linearGradient id="paint0_linear_2_2116" x1="71.5862" y1="156.128" x2="74.8524" y2="65.4905" gradientUnits="userSpaceOnUse">
<stop offset="0.0178" stop-color="#C1EA98"/>
<stop offset="0.248" stop-color="#AFDA88"/>
<stop offset="0.4194" stop-color="#A7D381"/>
<stop offset="0.5936" stop-color="#93CB78"/>
<stop offset="0.9493" stop-color="#5FB861"/>
<stop offset="1" stop-color="#57B55E"/>
</linearGradient>
<radialGradient id="paint1_radial_2_2116" cx="0" cy="0" r="1" gradientUnits="userSpaceOnUse" gradientTransform="translate(62.2649 85.2588) scale(7.00401 2.39817)">
<stop stop-color="#ED7F9A"/>
<stop offset="0.353" stop-color="#E77592"/>
<stop offset="0.9496" stop-color="#D85B7E"/>
<stop offset="1" stop-color="#D6587C"/>
</radialGradient>
<linearGradient id="paint2_linear_2_2116" x1="62.3342" y1="76.6275" x2="61.4555" y2="83.5921" gradientUnits="userSpaceOnUse">
<stop offset="0.4773" stop-color="#D2CFFF"/>
<stop offset="0.5675" stop-color="#E2E0FF"/>
<stop offset="0.6956" stop-color="#F2F1FF"/>
<stop offset="0.834" stop-color="#FCFCFF"/>
<stop offset="1" stop-color="white"/>
</linearGradient>
<clipPath id="clip0_2_2116">
<rect width="150" height="150" rx="75" fill="white"/>
</clipPath>
</defs>
</svg>
