<svg width="150" height="150" viewBox="0 0 150 150" fill="none" xmlns="http://www.w3.org/2000/svg">
<g clip-path="url(#clip0_6_10768)">
<rect width="150" height="150" rx="75" fill="#438DD2"/>
<path d="M91.1989 52.5984C91.308 52.3256 90.9806 52.0528 90.7079 52.1619C90.4896 52.1619 90.326 52.3801 90.326 52.5984C89.6168 53.6895 88.9075 54.8351 88.1983 55.9262C86.8344 50.5798 81.7063 46.8155 76.0871 47.6884C70.7407 48.5067 67.1401 53.0348 66.9218 58.1084C65.067 55.0533 60.9753 53.8531 57.4293 53.5258C52.2465 53.0348 46.791 53.744 42.5357 56.8537C38.7714 59.636 36.2619 64.2732 37.1348 69.0194C37.844 73.1656 41.2264 76.4389 45.3726 76.8754C44.1724 80.8579 47.4457 84.2403 50.9372 85.7133C55.3016 87.5682 60.3752 88.3865 65.1215 87.9501C73.4685 87.2409 84.6522 87.0226 84.7068 78.0756C89.344 79.1667 91.4716 70.8198 93.4902 66.4554C95.5633 61.8182 94.2539 56.4172 91.1989 52.5984Z" fill="#642421"/>
<path d="M129.772 131.103C126.772 136.995 123.771 142.887 120.825 148.834C120.607 149.27 121.262 149.652 121.48 149.215C124.48 143.323 127.481 137.432 130.427 131.485C130.645 131.049 129.99 130.667 129.772 131.103Z" fill="white"/>
<path d="M143.244 166.073L109.365 165.637L92.835 165.419L29.6602 164.6L46.1358 98.8613L61.4658 93.0784L79.2507 86.3682C89.1252 87.5138 96.7629 88.6595 102.764 89.9688C128.023 95.2606 124.04 102.462 128.896 119.483C134.242 138.141 141.334 160.399 142.862 165.2C143.135 165.746 143.244 166.073 143.244 166.073Z" fill="#D24A43"/>
<path d="M114.44 157.071C114.385 157.344 114.331 157.562 114.276 157.835C114.058 157.781 113.84 157.726 113.622 157.671C113.676 157.453 113.731 157.18 113.84 156.908C114.931 152.216 113.84 146.488 113.403 142.123C112.64 134.158 111.821 126.193 111.057 118.228C111.003 117.737 111.767 117.737 111.821 118.228L114.44 145.069C114.767 148.834 115.313 153.252 114.44 157.071Z" fill="white"/>
<path d="M135.171 163.673C132.498 163.236 129.825 162.909 127.097 162.636C107.839 158.653 75.4331 152.543 52.9564 151.016L71.7233 104.971L79.3065 86.3134C71.7779 85.8224 65.1767 85.4951 59.2848 85.386C11.058 84.4585 12.9129 96.788 4.075 135.959C-11.3641 204.48 -6.50869 204.862 64.2493 197.333C116.677 191.768 120.768 190.023 130.479 187.95C130.752 178.348 131.625 172.347 135.171 163.673Z" fill="#D24A43"/>
<path d="M50.5546 151.453C50.2819 151.453 50.0636 151.453 49.7909 151.453C49.7909 151.18 49.7363 150.962 49.7363 150.689C49.0816 142.124 48.427 133.613 47.7723 125.048C47.7178 124.557 48.4815 124.557 48.5361 125.048C49.1908 133.559 49.8454 142.124 50.5001 150.634C50.5546 150.907 50.5546 151.18 50.5546 151.453Z" fill="white"/>
<path d="M128.406 161.654C123.714 160.236 118.968 158.926 114.222 157.781C114.003 157.726 113.785 157.672 113.567 157.617C92.9451 152.762 71.7232 150.634 50.5558 151.398C50.283 151.398 50.0648 151.398 49.792 151.398C48.4282 151.452 47.1188 151.507 45.755 151.561C45.264 151.616 45.264 150.852 45.755 150.798C47.0643 150.743 48.4282 150.689 49.7375 150.634C50.0103 150.634 50.2285 150.634 50.5012 150.579C71.7777 149.816 93.0542 151.943 113.731 156.799C113.949 156.853 114.167 156.908 114.385 156.962C119.132 158.108 123.878 159.417 128.57 160.836C129.061 161.109 128.897 161.818 128.406 161.654Z" fill="white"/>
<path d="M93.7088 72.8389C92.9996 73.439 85.5255 104.481 85.5255 104.481L62.2305 87.0778L76.9058 65.2012L93.7088 72.8389Z" fill="#FFA79B"/>
<path d="M90.8705 82.8768C92.2889 77.4213 93.4346 73.0569 93.7074 72.8387L85.7969 69.238C86.1242 74.2571 87.9245 78.9488 90.8705 82.8768Z" fill="black"/>
<path d="M62.669 42.9969C63.8692 35.7411 76.035 29.9037 84.8183 30.1764C88.6372 30.2856 90.0011 27.3941 91.4195 30.231C94.911 37.2686 106.368 60.8364 104.676 66.1282C101.349 76.7119 88.4735 77.312 80.5085 71.9111C72.4889 66.5101 60.9232 53.3624 62.669 42.9969Z" fill="#FFA79B"/>
<path d="M89.1803 24.3937C85.1432 24.0664 80.1786 28.1035 78.3238 30.9403C70.9588 32.6861 63.5939 37.4324 62.6665 42.997C61.5208 49.9255 66.3217 58.1088 71.9954 64.3826C74.2322 62.2004 74.0685 59.4726 75.3232 56.1448C82.3063 49.7618 83.6156 40.8694 82.6336 37.2142C85.3614 37.7597 91.7443 33.7772 92.5081 30.5039C93.2173 25.7576 90.3805 24.5028 89.1803 24.3937Z" fill="#642421"/>
<path d="M65.3966 63.5097C65.0147 59.3635 69.761 54.7808 75.3801 56.1993C77.3987 60.2909 79.5263 64.2734 81.7631 68.256C80.0719 70.2745 75.5984 72.4567 71.9977 71.6384C67.9061 70.6564 65.7784 67.9832 65.3966 63.5097Z" fill="#FFA79B"/>
<path d="M72.76 61.9823C74.1239 62.5825 75.4877 63.128 76.8516 63.7281C77.2881 63.9463 76.9607 64.5464 76.5243 64.3828C76.4152 64.3282 76.3606 64.3282 76.2515 64.2737C76.197 64.2737 76.197 64.2191 76.1424 64.2191C74.8876 63.6736 73.6874 63.1826 72.4327 62.637C71.9962 62.4733 72.3236 61.8187 72.76 61.9823Z" fill="#952C28"/>
<path d="M85.2541 48.8887C85.3632 49.598 85.4723 50.2526 85.5815 50.9618C85.6906 51.6711 86.7817 51.3437 86.6726 50.6345C86.5634 49.9253 86.4543 49.2706 86.3452 48.5614C86.1816 47.8522 85.145 48.1795 85.2541 48.8887Z" fill="black"/>
<path d="M94.8006 43.2698C94.9097 43.9791 95.0188 44.6337 95.1279 45.3429C95.2371 46.0522 96.3282 45.7248 96.219 45.0156C96.1099 44.3064 96.0008 43.6517 95.8917 42.9425C95.7826 42.2333 94.6915 42.5606 94.8006 43.2698Z" fill="black"/>
<path d="M96.438 50.1981C95.947 50.2526 96.0015 50.9619 96.4925 50.9619C97.5291 50.9073 97.6382 52.1621 97.2018 52.8167C96.7653 53.526 95.947 53.8533 95.1832 54.1806C94.7468 54.3988 94.965 55.1081 95.4014 54.8898C96.6016 54.3443 98.0746 53.6351 98.1837 52.1621C98.3474 51.071 97.5291 50.1435 96.438 50.1981Z" fill="#952C28"/>
<path d="M85.58 45.1793C84.8708 45.5612 84.2161 45.9976 83.5069 46.3795C82.6886 46.8705 83.5069 48.1253 84.3253 47.6343C85.0345 47.2524 85.6891 46.8159 86.3984 46.4341C87.2167 45.9431 86.3984 44.7429 85.58 45.1793Z" fill="#642421"/>
<path d="M93.8723 39.2329C93.4359 39.3965 92.9449 39.5602 92.5085 39.7239C91.581 40.0512 92.072 41.4696 92.9995 41.1423C93.4359 40.9786 93.9269 40.815 94.3634 40.6513C95.2362 40.2694 94.7452 38.851 93.8723 39.2329Z" fill="#642421"/>
<path d="M97.3105 62.6915C96.4922 63.1279 95.5102 63.0188 94.801 62.4187C94.4191 62.0913 93.9281 62.6915 94.31 62.9642C95.292 63.7826 96.6014 63.8917 97.747 63.2916C98.1834 63.1279 97.747 62.4732 97.3105 62.6915Z" fill="#952C28"/>
<path d="M102.82 89.9146C98.5103 106.881 86.399 109.173 79.3069 107.918C76.961 107.481 74.3424 106.554 71.7237 104.972C67.7958 102.571 63.9769 98.7525 61.5219 93.0242C60.5399 90.7874 59.7762 88.2233 59.2852 85.3865C65.1771 85.4956 71.7783 85.8229 79.3069 86.3139C89.1268 87.5141 96.8191 88.6598 102.82 89.9146Z" fill="#FFA79B"/>
</g>
<defs>
<clipPath id="clip0_6_10768">
<rect width="150" height="150" rx="75" fill="white"/>
</clipPath>
</defs>
</svg>
