<svg width="150" height="150" viewBox="0 0 150 150" fill="none" xmlns="http://www.w3.org/2000/svg">
<g clip-path="url(#clip0_2_3571)">
<rect width="150" height="150" rx="75" fill="#FF7070"/>
<path d="M245.646 203.275L221.509 215.591L194.731 230.255L188.149 233.862C179.271 238.73 168.075 236.453 161.86 228.517L151.929 215.843L132.824 191.444C132.824 191.444 136.191 225.643 129.428 260.812C93.013 272.037 63.5226 270.959 34.2309 265.24C27.6509 263.965 21.1097 262.415 14.4704 260.745C1.35427 245.905 5.43406 159.399 5.43406 159.399L-5.04375 164.087L-8.07544 165.449L-54.4397 186.313L-37.398 236.189L-88.0907 251.938L-108.335 181.347L-108.95 179.227C-112.381 167.268 -106.533 154.631 -95.1198 149.323L-80.8646 142.637L-13.4108 111.004C1.20916 104.156 17.6033 101.813 33.6235 104.289L34.7457 104.445L112.049 116.408L127.577 118.792C140.362 120.043 151.815 127.077 158.528 137.833L188.058 185.112C188.058 185.112 213.031 170.184 233.301 157.339C230.663 194.91 245.646 203.275 245.646 203.275Z" fill="#5FAEF2"/>
<path d="M33.9144 267.388C27.4336 266.083 20.9916 264.498 14.4531 262.79C1.55768 247.699 5.73808 159.856 5.73808 159.856L-4.5942 164.599C-1.86159 155.295 3.12252 144.259 11.2684 154.342C13.6891 157.358 14.3775 161.435 14.5438 165.311C14.8208 172.277 13.7002 179.232 13.6182 186.232C13.5439 193.203 14.6485 200.545 18.8121 206.11C21.2613 209.39 24.6859 211.96 26.5428 215.569C29.8942 222.081 27.512 230.124 29.2457 237.244C30.7675 243.439 35.3595 248.568 36.5147 254.828C37.3213 259.194 36.2434 263.712 33.9144 267.388Z" fill="#4598E0"/>
<path d="M232.988 164.975C229.515 166.065 225.9 166.834 222.562 168.277C215.317 171.368 209.794 177.281 203.79 182.309C197.778 187.366 190.459 191.87 182.572 191.205C180.013 191.002 177.314 190.095 175.824 188C173.8 185.103 174.802 181.096 173.492 177.807C172.174 174.42 168.64 172.38 166.7 169.281C162.618 162.745 164.239 152.218 162.22 144.807C161.632 142.591 160.984 140.233 160.608 137.816L188.056 182.072C188.056 182.072 212.996 167.124 233.248 154.23C233.011 158.144 232.927 161.716 232.988 164.975Z" fill="#71B6F2"/>
<path d="M-54.5948 188.073L-37.899 238.76L-56.372 244.632C-59.3425 242.535 -62.1409 240.387 -63.3561 237.009C-65.3663 231.361 -61.7708 225.438 -60.9698 219.494C-59.9816 212.052 -63.4783 204.857 -65.0612 197.517C-66.6441 190.177 -65.332 180.823 -58.5166 177.899C-54.8018 176.292 -50.4272 177.112 -46.6242 175.786C-42.5741 174.363 -39.6779 170.705 -35.8194 168.781C-29.2262 165.477 -20.7637 167.623 -14.5628 163.605C-11.3312 161.517 -9.24295 158.035 -6.38968 155.43C-4.49005 153.703 -0.381766 151.168 2.29363 152.543C5.33416 154.11 4.36968 157.048 4.19587 160.256C4.19452 160.513 4.15568 160.793 4.15433 161.051L-54.5948 188.073Z" fill="#4598E0"/>
<path d="M59.2133 70.2324C59.2133 70.2324 30.0993 66.1797 19.0367 88.12C13.7431 89.6103 7.86061 94.6289 6.13065 105.572C3.57889 121.569 109.427 124.845 109.427 124.845C109.427 124.845 124.011 85.1548 59.2133 70.2324Z" fill="#5FAEF2"/>
<path d="M52.8887 75.1353C52.8887 75.1353 35.9411 75.2216 35.9907 87.7786C36.0153 96.4329 44.1294 103.031 53.1315 107.318C65.1721 113.096 93.3601 115.134 95.9638 112.683C100.638 108.344 102.419 99.953 93.2222 92.5445C73.0194 76.3548 52.8887 75.1353 52.8887 75.1353Z" fill="#1A1B16"/>
<path d="M129.402 141.749C129.402 141.749 132.87 157.866 132.611 190.089" stroke="#1A1B16" stroke-width="2.51285" stroke-miterlimit="10" stroke-linecap="round" stroke-linejoin="round"/>
<path d="M96.2107 112.547C95.2093 104.365 94.3086 97.0502 94.3086 97.0502L96.2107 112.547Z" fill="#0F70D1"/>
<path d="M77.645 123.224C77.7806 127.693 74.6401 131.771 70.6787 133.916C66.7251 136.032 62.0699 136.501 57.5759 136.468C53.0743 136.466 48.5521 136.044 44.0857 136.529C36.1653 137.439 28.6747 141.425 23.4924 147.438" stroke="white" stroke-width="2.01028" stroke-miterlimit="10" stroke-linecap="round" stroke-linejoin="round"/>
<path d="M18.9148 153.171C18.6091 152.867 18.6119 152.354 18.9436 152.054L21.4471 149.62C21.7488 149.313 22.2587 149.317 22.5568 149.651C22.8625 149.956 22.8597 150.469 22.528 150.768L20.0245 153.203C19.6929 153.502 19.2206 153.476 18.9148 153.171Z" fill="white"/>
<path d="M84.7598 125.093C84.5938 135.12 77.0529 143.312 69.3203 149.486C61.5877 155.659 52.7924 161.263 48.2287 170.106" stroke="white" stroke-width="2.01028" stroke-miterlimit="10" stroke-linecap="round" stroke-linejoin="round"/>
<path d="M6.84648 103.227C6.84648 103.227 16.6314 101.44 20.3483 103.358C22.9699 108.91 33.0861 118.062 42.7277 120.237C52.3693 122.412 56.4908 126.916 56.4908 126.916" stroke="#1A1B16" stroke-width="2.51285" stroke-miterlimit="10" stroke-linecap="round" stroke-linejoin="round"/>
<path d="M18.691 88.6837L22.8117 88.1299" stroke="#1A1B16" stroke-width="2.51285" stroke-miterlimit="10" stroke-linecap="round" stroke-linejoin="round"/>
<path d="M111.47 113.804C111.47 113.804 110.866 117.575 100.645 124.246" stroke="#1A1B16" stroke-width="2.51285" stroke-miterlimit="10" stroke-linecap="round" stroke-linejoin="round"/>
<path d="M46.5556 67.605C46.5556 67.605 33.7343 26.4986 61.9269 28.7549C70.5239 18.6257 87.2131 17.1767 94.9482 22.7385C100.044 26.3977 99.8642 32.1663 98.9918 36.1547C98.9918 36.1547 109.229 35.9827 107.212 43.4395C105.113 51.1919 91.9833 60.2647 58.3616 56.2603C61.6159 66.8524 64.0149 76.6051 46.5556 67.605Z" fill="#1A1B16"/>
<path d="M99.476 31.6097C99.476 31.6097 99.6094 35.983 94.0735 41.3784" stroke="#0064C8" stroke-width="2.01028" stroke-miterlimit="10" stroke-linecap="round" stroke-linejoin="round"/>
<path d="M62.4437 27.4872C61.2502 28.721 60.0119 30.2336 59.0251 31.9511" stroke="#0064C8" stroke-width="2.01028" stroke-miterlimit="10" stroke-linecap="round" stroke-linejoin="round"/>
<path d="M54.3945 49.814L57.6713 52.6855" stroke="#0064C8" stroke-width="2.01028" stroke-miterlimit="10" stroke-linecap="round" stroke-linejoin="round"/>
<path d="M95.4737 112.686C92.2746 115.801 84.3896 116.327 77.4885 115.762C61.3556 114.477 53.0488 107.139 53.0488 107.139L50.7057 78.6188C50.4654 78.5567 50.225 78.4946 49.9847 78.4325C45.8706 77.1129 44.0753 72.739 44.9425 68.3481C45.1132 67.4307 45.6304 66.4107 46.23 65.4439C48.6971 61.4343 54.6915 61.413 56.6077 65.6899C57.4694 67.5791 58.1264 69.768 59.1206 69.5121C60.2881 69.2049 60.1279 66.9521 59.8376 65.0824C59.3506 62.1042 58.2759 52.6605 58.2759 52.6605C58.2759 52.6605 73.3499 62.9656 96.8137 53.9981C96.8437 54.0058 96.8514 53.9758 96.8815 53.9835C97.8868 61.0697 99.3316 71.5705 100.297 80.313C101.77 93.8336 93.6352 97.3399 93.6352 97.3399L94.0229 100.581L95.4737 112.686Z" fill="#F8934F"/>
<path d="M55.1407 72.4194C55.1407 72.4194 53.0869 74.5058 51.0643 72.9758C49.0417 71.4457 49.855 69.0448 49.855 69.0448C50.6719 69.2519 51.4508 69.4811 52.199 69.8297C53.4157 70.3607 54.5098 71.2421 55.1407 72.4194Z" fill="#F77C2D"/>
<path d="M93.7637 96.9629L94.1139 100.245L84.8291 99.2343C84.8291 99.2343 100.996 96.287 98.6732 77.4709C96.8979 63.0001 96.9895 55.7503 97.1455 53.1636C97.1744 53.1718 97.182 53.1415 97.2109 53.1497C98.1283 60.3286 99.4444 70.9662 100.312 79.8198C101.633 93.512 93.7637 96.9629 93.7637 96.9629Z" fill="#F9AF79"/>
<path d="M68.406 114.837C58.2475 112.031 53.0754 107.396 53.0754 107.396L50.9374 79.1745C52.3199 78.8908 54.3994 79.4398 54.8034 80.4139C55.1157 81.1392 54.358 82.8733 54.466 83.7647C54.6037 85.0154 55.0616 86.2597 55.912 87.231C56.5149 87.9417 57.2845 88.5075 57.8497 89.2396C60.6839 92.8703 57.7411 98.7789 60.4462 102.533C61.3937 103.85 62.9246 104.661 64.1759 105.68C66.8695 107.836 68.4635 111.344 68.406 114.837Z" fill="#F77C2D"/>
<path d="M49.877 69.0477C49.877 69.0477 49.0396 71.3908 51.0456 72.9185C53.0517 74.4462 55.1258 72.4282 55.1258 72.4282C54.5374 71.2732 53.4528 70.3941 52.25 69.8278C51.0472 69.2615 49.7422 68.9497 48.4132 68.7254" stroke="#BF3028" stroke-width="2.01028" stroke-miterlimit="10" stroke-linecap="round" stroke-linejoin="round"/>
<path d="M50.6076 79.1026C50.6076 79.1026 52.2891 79.6129 54.4547 79.1562" stroke="#BF3028" stroke-width="2.01028" stroke-miterlimit="10" stroke-linecap="round" stroke-linejoin="round"/>
<path d="M81.689 99.3158C81.689 99.3158 88.387 100.381 94.1812 97.3066C94.5084 99.8898 95.0285 104.366 95.0285 104.366C95.0285 104.366 83.8535 101.1 81.689 99.3158Z" fill="#BF3028"/>
<path d="M91.8315 55.1272C87.3012 57.3841 82.3518 58.7515 77.2877 59.0524C70.8072 59.4466 64.2117 58.1449 58.3924 55.334C58.2477 55.267 58.0725 55.1926 57.8973 55.1182C57.6834 53.5553 57.5459 52.4516 57.5459 52.4516C57.5459 52.4516 70.8459 61.1869 91.8315 55.1272Z" fill="#F77C2D"/>
<path d="M88.1785 76.2474C88.1785 76.2474 85.462 77.489 84.849 75.4897C84.242 73.5867 86.6995 72.116 88.4319 72.7187C90.1643 73.3213 90.3772 74.0743 90.3772 74.0743L88.1785 76.2474Z" fill="#F77C2D"/>
<path d="M87.5636 76.3671L88.8025 75.5939C89.6708 75.0368 90.0477 73.9514 89.7108 72.9513L87.0273 64.6636" stroke="#BF3028" stroke-width="2.01028" stroke-miterlimit="10" stroke-linecap="round" stroke-linejoin="round"/>
<path d="M83.1202 89.5779C82.7934 90.3014 81.6096 90.4868 80.4712 90.03C79.3329 89.5733 78.6327 88.5783 78.9292 87.8468C79.256 87.1234 80.2562 87.7305 81.4247 88.1952C82.5933 88.6599 83.4469 88.8544 83.1202 89.5779Z" fill="#F77C2D"/>
<path d="M88.8657 82.757C88.7455 80.4659 86.2569 80.3719 84.6361 80.2879C84.0331 80.2538 83.3918 80.2409 82.9421 80.1218C82.4324 79.9869 81.7844 79.6584 81.1963 79.3458C79.8487 78.6438 78.1662 77.7591 76.8454 78.8842C76.0426 79.5502 75.7679 80.513 76.1095 81.5762C76.7444 83.5328 79.5181 85.6792 82.0017 86.2427C82.2416 86.3062 82.4898 86.3405 82.708 86.3669C84.8768 86.5646 86.754 86.0889 87.8916 85.0408C88.5878 84.4092 88.9192 83.587 88.8657 82.757Z" fill="#1A1B16"/>
<path d="M82.903 85.0642C82.4973 85.0187 82.0784 84.9069 81.6678 84.7659C80.7055 84.4147 80.0765 83.4611 80.1043 82.4629L80.1439 81.3107C80.1661 80.7824 80.7485 80.4351 81.2537 80.6957C81.7589 80.9562 82.2939 81.2248 82.8109 81.3314C84.435 81.7336 87.2857 81.1119 87.3735 82.8323C87.4334 84.1996 85.6612 85.3292 82.903 85.0642Z" fill="white"/>
<path d="M78.3585 69.0897C78.4749 70.0802 78.2462 70.8136 77.5154 70.9265C76.7845 71.0393 76.091 70.3009 75.9451 69.3021C75.7991 68.3033 76.3123 67.4586 77.0352 67.3754C77.7957 67.2709 78.2422 68.0992 78.3585 69.0897Z" fill="#1A1B16"/>
<path d="M94.5696 66.3171C94.6882 67.1806 94.4755 67.8547 93.8198 67.9249C93.1641 67.9952 92.5652 67.3792 92.4545 66.4861C92.3359 65.6226 92.766 64.8502 93.4217 64.78C94.0478 64.7014 94.451 65.4537 94.5696 66.3171Z" fill="#1A1B16"/>
<path d="M72.8045 63.0153C74.7178 62.1793 76.8689 61.9015 78.9613 62.1979" stroke="#1A1B16" stroke-width="2.01028" stroke-miterlimit="10" stroke-linecap="round" stroke-linejoin="round"/>
<path d="M90.7616 59.1454C92.3999 58.6073 94.1646 58.4421 95.911 58.7055" stroke="#1A1B16" stroke-width="2.01028" stroke-miterlimit="10" stroke-linecap="round" stroke-linejoin="round"/>
</g>
<defs>
<clipPath id="clip0_2_3571">
<rect width="150" height="150" rx="75" fill="white"/>
</clipPath>
</defs>
</svg>
