<svg width="150" height="150" viewBox="0 0 150 150" fill="none" xmlns="http://www.w3.org/2000/svg">
<g clip-path="url(#clip0_6_10772)">
<rect width="150" height="150" rx="75" fill="#91D767"/>
<path d="M119.306 105.775L79.3948 114.33L75.5596 103.583L70.5866 89.8444L62.0312 66.0749L91.1531 56.9717C92.0802 59.9218 119.306 105.775 119.306 105.775Z" fill="#FFA79B"/>
<path d="M75.5183 103.626L75.729 104.174C81.0392 99.6219 84.4951 93.2581 86.0544 86.0514C88.1195 76.4846 85.8858 68.14 83.5679 59.3318L62.0742 66.0749L70.6295 89.8444L75.5183 103.626Z" fill="black"/>
<path d="M97.3488 61.2285C96.6745 67.2973 92.5022 80.5306 91.9965 81.6264C86.3491 94.2697 70.0392 103.499 57.733 93.469C57.6487 93.3847 57.5645 93.3426 57.4802 93.2583C57.3537 93.174 57.2694 93.0476 57.143 92.9211C57.0587 92.8368 56.9744 92.7104 56.848 92.584C56.8059 92.5418 56.8059 92.4997 56.7637 92.4575C56.5951 92.2468 56.4687 92.0361 56.3001 91.8254C56.0894 91.5303 55.9208 91.1932 55.7101 90.8139C55.6258 90.6875 55.5837 90.561 55.4994 90.4346C55.4151 90.266 55.2886 90.0553 55.2044 89.8446C55.1201 89.7181 55.0779 89.5496 54.9936 89.381C54.8672 89.086 54.7408 88.7488 54.5722 88.4117C54.4458 88.0745 54.3193 87.7373 54.1929 87.358C53.7293 86.1359 53.3078 84.7872 52.9285 83.3543C52.9285 83.3122 52.9285 83.3122 52.9285 83.27C52.8864 83.0593 52.8021 82.8486 52.76 82.6379C52.7178 82.4271 52.6335 82.2164 52.5914 82.0057C52.2121 80.4885 51.8328 78.8449 51.4535 77.1591C50.8635 74.4197 50.3578 71.5539 49.8942 68.688C49.8942 68.6459 49.8942 68.6037 49.852 68.5195C48.5877 60.5542 47.7026 52.5889 47.1969 47.6158C47.1548 47.3629 47.1548 47.1101 47.1126 46.8993C47.1126 46.8151 47.1126 46.7308 47.0705 46.6465C45.5533 31.8538 81.1654 21.992 91.4065 33.076C97.4331 39.5662 98.571 50.6081 97.3488 61.2285Z" fill="#FFA79B"/>
<path d="M91.5331 33.161C85.4643 26.6286 70.5873 27.3872 59.714 32.1495C57.7754 32.1495 55.8789 32.3181 53.9824 32.6131C51.8751 32.9503 49.2201 33.2874 47.7871 35.0575C47.155 35.8582 46.86 36.8275 46.9442 37.7547C46.7335 37.8812 46.5228 38.0076 46.2699 38.134C43.6148 39.6934 41.5919 43.4442 44.4998 45.8886C47.155 48.0801 51.9173 46.8158 54.8252 46.015C54.9938 45.9729 55.2046 45.8886 55.3731 45.8465C60.4726 46.4365 65.6142 45.5093 70.1658 43.2335C72.5681 43.5707 74.886 43.4864 77.204 43.0228C77.4147 43.1071 77.6254 43.2335 77.8361 43.3599C78.8476 43.9921 79.5641 44.9193 80.1541 45.9308C80.3648 46.0993 85.7593 58.2791 81.7977 61.0606C71.7252 68.2252 58.6182 70.206 49.9786 68.7731C50.4422 71.6389 50.948 74.5468 51.538 77.2441C51.8751 78.9299 52.2544 80.5314 52.6759 82.0907C52.718 82.3014 52.8023 82.5122 52.8445 82.7229C52.8866 82.9336 52.9709 83.1443 53.013 83.355C53.013 83.3972 53.013 83.3972 53.013 83.4393C53.4345 84.8723 53.8559 86.2209 54.2774 87.4431C54.4038 87.7802 54.5302 88.1595 54.6567 88.4967C54.7831 88.8338 54.9095 89.171 55.0781 89.466C55.1624 89.6346 55.2046 89.761 55.2889 89.9296C55.3731 90.1403 55.4996 90.351 55.5839 90.5196C55.6682 90.646 55.7103 90.7725 55.7946 90.8989C56.0053 91.2361 56.1739 91.5732 56.3846 91.9104C56.511 92.1211 56.6796 92.3318 56.8482 92.5426C56.8903 92.5847 56.8903 92.6268 56.9325 92.669C57.0168 92.7954 57.1011 92.8797 57.2275 93.0061C57.3539 93.1326 57.4382 93.259 57.5646 93.3433C57.6489 93.4276 57.7332 93.4697 57.8175 93.554C70.1237 103.584 87.0236 95.1977 92.3338 82.3857C93.6403 79.1828 92.3338 71.5124 91.6595 68.6045C91.2381 66.7501 95.2839 63.9686 97.3912 61.2713C98.5712 50.6088 97.4333 39.5669 91.5331 33.161Z" fill="#697CCC"/>
<path d="M63.9286 65.1054C62.8328 65.5269 61.6528 65.9904 60.4306 65.9062C59.0398 65.8219 57.3962 64.684 58.0705 63.1246C58.3233 62.4924 57.3962 61.9867 57.1433 62.6189C56.5111 64.0939 57.1433 65.7376 58.5762 66.4962C60.3884 67.4655 62.4535 66.7912 64.2657 66.1169C64.8979 65.9062 64.6029 64.8947 63.9286 65.1054Z" fill="#D24A43"/>
<path d="M71.0915 55.4123C71.3022 56.3816 71.4708 57.351 71.6815 58.3203C71.8922 59.3318 73.3673 58.826 73.1987 57.8567C72.988 56.8874 72.8194 55.9181 72.6087 54.9487C72.398 53.9373 70.9229 54.443 71.0915 55.4123Z" fill="black"/>
<path d="M51.2427 57.5199C51.4534 58.4892 51.622 59.4585 51.8327 60.4279C52.0434 61.4393 53.5185 60.9336 53.3499 59.9643C53.1392 58.9949 52.9706 58.0256 52.7599 57.0563C52.5492 56.087 51.032 56.5506 51.2427 57.5199Z" fill="black"/>
<path d="M52.6343 49.3018C51.5385 49.6389 50.4428 50.0182 49.347 50.3554C48.7991 50.524 48.5884 51.2826 48.7991 51.7883C49.052 52.3783 49.642 52.5047 50.2321 52.3362C51.3278 51.999 52.4236 51.6197 53.5193 51.2826C54.0672 51.114 54.2779 50.3554 54.0672 49.8496C53.8143 49.2596 53.1822 49.091 52.6343 49.3018Z" fill="#697CCC"/>
<path d="M69.8288 46.8991C68.7752 47.152 67.7637 47.447 66.7101 47.6999C65.3615 48.037 66.0358 50.06 67.3423 49.7228C68.3959 49.47 69.4074 49.1749 70.461 48.9221C71.8096 48.6271 71.1353 46.562 69.8288 46.8991Z" fill="#697CCC"/>
<path d="M78.3852 79.3928C77.5845 81.5843 75.8144 83.2279 73.5386 83.8179C72.8643 83.9865 73.0329 85.0401 73.7072 84.8715C76.3202 84.1551 78.4274 82.3429 79.3546 79.7721C79.6074 79.1399 78.596 78.7606 78.3852 79.3928Z" fill="#FFA79B"/>
<path d="M104.178 51.156C101.354 46.6465 93.1783 45.6351 88.7109 51.3246C89.8067 57.0141 90.776 62.7036 91.6189 68.4352C94.864 69.1938 100.975 67.9717 103.841 64.4315C107.128 60.3435 107.212 56.0026 104.178 51.156Z" fill="#FFA79B"/>
<path d="M96.5896 54.8226C95.536 56.6348 94.5245 58.4891 93.4709 60.3013C93.1338 60.8914 94.0609 61.355 94.4402 60.7649C94.5245 60.6385 94.6088 60.5121 94.651 60.3856C94.6931 60.3435 94.6931 60.3013 94.6931 60.2592C95.6203 58.6156 96.5896 56.9298 97.5168 55.2862C97.8961 54.6961 96.9268 54.2325 96.5896 54.8226Z" fill="#D24A43"/>
<path d="M147.501 105.311V162.122H9.26682C9.14039 155.674 9.3511 142.82 11.6269 124.108C14.7034 99.2846 32.952 102.235 70.5449 103.963C74.9701 104.173 79.6481 104.342 84.6211 104.468C94.6936 104.721 108.728 104.932 121.961 105.058C131.486 105.185 140.589 105.269 147.501 105.311Z" fill="#EBF4FF"/>
<path d="M87.1092 127.185C83.0212 128.575 78.9331 129.966 74.8451 131.399C75.1823 123.139 75.5194 114.878 75.8566 106.618C75.8987 106.028 74.9294 106.028 74.9294 106.618C74.5923 115.089 74.2551 123.602 73.918 132.073C73.918 132.368 74.213 132.621 74.508 132.537L87.4042 128.112C87.9099 127.901 87.6571 126.974 87.1092 127.185Z" fill="white"/>
<path d="M115.976 110.116C110.371 119.008 104.766 127.901 99.1608 136.751C96.4635 133.885 93.8084 131.02 91.1112 128.196C90.6897 127.774 90.0575 128.407 90.4368 128.87C93.2605 131.862 96.0842 134.855 98.9079 137.889C99.1186 138.1 99.4979 138.058 99.6244 137.805C105.356 128.744 111.045 119.683 116.777 110.622C117.114 110.074 116.314 109.568 115.976 110.116Z" fill="white"/>
<path d="M90.1824 131.526C90.1824 130.936 89.2131 130.936 89.2552 131.526L90.056 160.858C90.056 161.448 91.0253 161.448 90.9832 160.858L90.1824 131.526Z" fill="white"/>
<path d="M30.8008 128.491V134.728C30.8008 135.318 31.728 135.318 31.728 134.728V128.491C31.7701 127.901 30.8008 127.901 30.8008 128.491Z" fill="white"/>
<path d="M84.619 104.469C81.6689 104.384 78.466 104.258 75.7266 104.174L89.7607 127.479L118.84 105.059C106.745 104.848 93.9751 104.679 84.619 104.469Z" fill="#FFA79B"/>
<path d="M53.3478 168.949C52.2942 167.601 51.1984 166.294 50.1027 164.946C47.574 160.226 45.0875 155.505 42.4745 150.785C39.5665 145.517 35.0571 139.153 25.701 139.322C25.3217 139.322 24.9424 139.364 24.5631 139.364C24.521 147.624 26.7125 155.927 30.084 163.429C31.0112 165.536 32.0648 167.601 33.1606 169.624V169.582C33.3713 167.179 33.582 164.777 33.7506 162.375C35.5628 163.724 36.9957 165.704 39.0186 166.716C40.1144 169.455 42.5588 171.015 45.0032 172.742C47.2368 174.344 52.7578 177.083 54.7386 173.627C55.7922 171.942 54.4435 170.298 53.3478 168.949Z" fill="#FFA79B"/>
<path d="M37.545 143.958C34.7634 141.261 31.0126 139.238 25.7445 139.364C20.2657 139.49 14.492 140.713 10.1932 144.379C5.85234 146.402 3.53438 150.617 2.77578 155.295C1.76431 161.448 1.84861 168.149 2.60721 174.344C3.11295 178.432 5.93662 182.899 10.2354 181.93C10.4039 182.941 10.6568 183.911 11.0361 184.796C11.9633 186.777 14.3234 187.999 16.2199 187.535C16.8942 190.19 18.9171 192.592 21.7829 191.834C21.7829 192.045 21.6144 198.029 23.6373 199.673C25.1545 200.895 27.936 200.558 29.1582 198.198C31.139 194.32 32.3612 179.233 33.0355 171.267C32.8669 170.382 35.1006 147.919 37.545 143.958Z" fill="#FFA79B"/>
</g>
<defs>
<clipPath id="clip0_6_10772">
<rect width="150" height="150" rx="75" fill="white"/>
</clipPath>
</defs>
</svg>
