<svg width="150" height="150" viewBox="0 0 150 150" fill="none" xmlns="http://www.w3.org/2000/svg">
<g clip-path="url(#clip0_2_3398)">
<rect width="150" height="150" rx="75" fill="#FF9797"/>
<path d="M82.5261 37.4477C90.8398 36.655 103.301 46.2776 102.785 66.2786C102.195 89.2475 120.427 80.2148 120.427 97.9115C108.26 109.083 30.4498 119.295 18.4492 106.87C18.6336 90.0217 29.0304 88.8419 36.9755 81.2655C44.9206 73.6891 35.0399 29.8344 82.5261 37.4477Z" fill="#0064C8"/>
<path d="M77.3086 30C77.3086 30 82.3042 33.908 82.507 37.4842C84.0186 34.5163 87.3736 30.7558 87.3736 30.7558" stroke="#0064C8" stroke-width="1.53917" stroke-miterlimit="10" stroke-linecap="round" stroke-linejoin="round"/>
<path d="M82.5824 37.7605C82.8405 39.2721 83.8544 46.1849 82.1953 51.1621" stroke="#0055A8" stroke-width="1.53917" stroke-miterlimit="10" stroke-linecap="round" stroke-linejoin="round"/>
<path d="M60.2007 58.7018C60.5141 58.1487 60.975 57.6879 61.5833 57.5588C60.3851 57.7432 54.1912 58.8677 53.2326 61.8724C52.4584 63.1075 52.44 64.8034 51.8132 66.1676C50.5228 69.0433 46.7807 70.2046 45.5088 73.0803C44.2184 75.9929 45.9696 79.3848 45.5272 82.537C44.882 87.0718 39.9417 90.0581 39.2412 94.5929C39.0015 96.1045 39.278 97.653 39.1674 99.1646C39.0384 100.805 38.4669 102.427 37.5084 103.773C36.6235 105.027 35.4438 106.022 34.264 107.017C32.439 108.566 30.614 110.096 28.7891 111.644H29.6002C38.172 111.663 46.6332 111.644 55.2051 111.626C56.4402 111.626 57.749 111.589 58.7444 110.907C58.8735 110.815 59.0025 110.723 59.1131 110.612C56.1637 110.041 53.9884 109.561 53.9884 109.561L54.1175 81.7812C53.9885 81.7997 53.841 81.7996 53.7119 81.7996C50.3754 81.7996 47.6656 78.6659 47.6656 74.7763C47.6656 72.7301 48.4214 70.8867 49.6196 69.6147C51.8685 67.1999 55.8871 68.011 57.1407 71.0526C57.1591 71.0895 57.1775 71.1448 57.196 71.1816C57.4356 71.7899 58.3205 71.7346 58.4679 71.0895C58.9472 68.9327 59.0394 66.61 59.1684 64.5085C59.2237 63.513 59.279 62.5545 59.3896 61.6881C59.5187 60.6742 59.703 59.7709 60.0348 59.0336C60.0717 58.9598 60.1086 58.8861 60.1454 58.8124C60.1639 58.7755 60.1823 58.7386 60.2007 58.7018Z" fill="#0055A8"/>
<path d="M61.6211 57.5588C61.6764 57.5403 61.7317 57.5403 61.8054 57.5403C61.787 57.5219 61.7317 57.5403 61.6211 57.5588Z" fill="#0055A8"/>
<path d="M98.73 63.5133C99.1172 66.3522 98.2876 69.4122 99.4674 72.0114C100.186 73.6152 101.606 74.8134 102.251 76.454C103.431 79.4404 101.809 83.1456 103.449 85.9107C104.776 88.1597 107.707 88.8233 109.514 90.6852C110.823 92.0493 111.431 93.9849 111.376 95.8836C111.321 97.7823 110.638 99.6073 109.625 101.211C106.491 106.225 100.573 108.751 94.8036 109.764C93.0708 110.059 91.2274 110.244 89.642 109.488C86.9507 108.216 86.0105 104.843 85.8446 101.838C85.4944 95.6071 87.1166 89.4501 89.218 83.5696C90.5637 79.7906 92.1491 76.0301 92.5915 72.0299C92.868 69.5597 92.7205 67.0711 92.9786 64.6009C93.1629 62.9419 93.6975 59.2735 95.3382 58.3149C97.0525 57.3932 98.5457 62.1123 98.73 63.5133Z" fill="#0055A8"/>
<path d="M168.059 131.794L160.464 171.408L158.75 172.588L150.068 178.524L133.975 161.325L133.514 160.827L135.247 188.331L79.4465 223.54L22.43 189.234L18.5219 168.772L15.4434 172.127L8.27259 179.925L0.0325642 174.856L-12.8713 166.892L-18.125 142.541C-18.125 142.541 -12.9082 135.646 2.94514 116.991C26.1721 89.6349 70.0452 122.153 103.706 100.419C137.366 78.6851 168.059 131.794 168.059 131.794Z" fill="#5FAEF2"/>
<path d="M121.733 95.2016C120.13 96.7501 117.66 97.7824 115.853 99.2202C111.65 102.538 110.286 108.972 105.401 111.202C102.175 112.696 98.3406 111.848 94.8934 112.732C89.3079 114.17 85.8976 119.664 81.2338 123.092C73.7864 128.567 62.5232 128.051 55.6288 121.876C52.6425 119.221 50.1539 115.516 46.2275 114.76C43.0384 114.152 39.5543 115.682 36.6049 114.318C34.7983 113.488 33.6186 111.719 32.1807 110.336C30.3926 108.603 28.1068 107.405 25.6735 106.87C24.3278 106.575 22.3185 106.87 20.8438 106.428C44.8818 101.303 77.3811 117.378 103.668 100.418C109.862 96.4183 115.945 94.9435 121.733 95.2016Z" fill="#4598E0"/>
<path d="M18.5941 169.067C18.5204 169.197 18.4282 169.326 18.3176 169.491C18.0227 169.879 7.93927 180.073 7.93927 180.073L-0.300781 175.003C0.141637 174.635 0.602484 174.284 1.1002 173.989C2.48276 173.16 4.03124 172.662 5.46909 171.888C6.88852 171.132 8.2342 170.008 8.73192 168.478C9.24807 166.855 8.73191 165.049 9.2112 163.427C9.91169 160.993 12.5662 159.629 13.6169 157.343C14.7967 154.8 13.8197 151.813 14.9442 149.269C15.3313 148.403 15.7737 147.997 16.253 147.887C16.3083 148.513 16.9535 160.219 18.5941 169.067Z" fill="#4598E0"/>
<path d="M16.2734 147.85C16.2734 147.85 16.7896 159.611 18.5224 168.773" stroke="#1A1B16" stroke-width="1.47473" stroke-miterlimit="10" stroke-linecap="round" stroke-linejoin="round"/>
<path d="M132.277 147.85L133.512 160.827" stroke="#1A1B16" stroke-width="1.47473" stroke-miterlimit="10" stroke-linecap="round" stroke-linejoin="round"/>
<path d="M55.7227 114.779C55.7227 114.779 63.6677 119.147 72.5345 118.76" stroke="#0064C8" stroke-width="1.47473" stroke-miterlimit="10" stroke-linecap="round" stroke-linejoin="round"/>
<path d="M61.9531 114.023C61.9531 114.023 66.746 115.793 72.7923 115.977" stroke="#0064C8" stroke-width="1.47473" stroke-miterlimit="10" stroke-linecap="round" stroke-linejoin="round"/>
<path d="M95.9256 78.3708C96.2574 97.8003 87.7593 100.418 87.7593 100.418L87.6302 109.248C87.6302 109.248 80.4409 112.382 72.1272 112.345C66.3942 112.326 54.0065 109.561 54.0065 109.561L54.1355 81.7811C54.0065 81.7995 53.859 81.7995 53.73 81.7995C50.3934 81.7995 47.6836 78.6657 47.6836 74.7761C47.6836 72.73 48.4394 70.8866 49.6376 69.6146C51.8866 67.1997 55.9052 68.0108 57.1587 71.0525C57.1771 71.0893 57.1956 71.1446 57.214 71.1815C57.4536 71.7898 58.3385 71.7345 58.486 71.0893C58.9652 68.9325 59.0574 66.6098 59.1865 64.5084C59.2418 63.5129 59.2971 62.5544 59.4077 61.6879C59.5367 60.6188 59.7395 59.6786 60.0897 58.9413C60.5137 58.038 61.417 57.485 62.4124 57.4481C67.6293 57.2453 75.9246 54.9964 79.722 52.434C80.0169 52.2313 80.3303 52.1022 80.6622 52.0101C81.6576 51.7335 82.7452 51.9548 83.5747 52.6368C84.1462 53.0977 84.9389 53.5954 85.8421 54.1115C88.8469 55.7706 93.1236 57.4665 95.1329 58.0196C96.2574 58.3145 95.9256 59.8814 95.9071 61.0243C95.9071 61.264 95.9071 61.4852 95.8887 61.7432C95.8887 61.7986 95.8887 61.8354 95.8887 61.8907C95.8518 65.725 95.7965 70.7391 95.9256 78.3708Z" fill="#F8934F"/>
<path d="M95.9248 78.3709C96.2566 97.8004 87.7585 100.418 87.7585 100.418L87.7216 102.63L82.1914 101.598C84.8828 100.492 88.7539 98.0401 91.3347 93.3763C92.92 90.519 93.6943 87.2746 93.6943 84.0117V57.522C94.2473 57.7063 94.745 57.8722 95.1321 57.9828C96.2566 58.2778 95.9248 59.8447 95.9064 60.9876C95.9064 61.2272 95.9064 61.4484 95.8879 61.7065C95.8879 61.7618 95.8879 61.7987 95.8879 61.854C95.8511 65.7251 95.7958 70.7392 95.9248 78.3709Z" fill="#F9AF79"/>
<path d="M60.4782 110.87C59.962 110.907 54.0078 109.561 54.0078 109.561L54.1 82.1314C54.7452 82.0393 55.2245 82.1499 55.2798 83.4218C55.3535 85.0809 55.0217 86.3344 55.6853 87.9382C56.1093 88.9889 56.7545 89.8369 57.0494 90.9614C57.7499 93.5421 56.4411 96.4916 56.902 99.183C57.455 102.409 60.3123 104.013 60.7363 107.294C60.8469 108.271 60.6441 109.893 60.4782 110.87Z" fill="#F77C2D"/>
<path d="M56.1986 77.3203C56.1986 77.3203 53.3966 78.3157 52.2721 76.0114C51.1292 73.7072 52.9726 71.8638 52.9726 71.8638C53.6178 72.3984 54.2261 72.9698 54.7423 73.6334C55.5718 74.6842 56.1801 75.9746 56.1986 77.3203Z" fill="#F77C2D"/>
<path d="M52.9745 71.8645C52.9745 71.8645 51.1495 73.7079 52.274 76.0121C53.3985 78.3164 56.2004 77.3209 56.2004 77.3209C56.182 75.9753 55.5736 74.6849 54.7441 73.6341C53.9146 72.5834 52.8454 71.7354 51.7578 70.9243" stroke="#BF3028" stroke-width="1.47473" stroke-miterlimit="10" stroke-linecap="round" stroke-linejoin="round"/>
<path d="M71.4805 100.658C71.4805 100.658 81.951 103.036 87.7578 100.4C87.7393 102.114 87.7025 104.805 87.7025 104.805C87.7025 104.805 79.7942 105.985 71.4805 100.658Z" fill="#BF3028"/>
<path d="M54.1367 81.7814C54.1367 81.7814 55.3349 81.9657 56.5331 81.6523" stroke="#BF3028" stroke-width="1.47473" stroke-miterlimit="10" stroke-linecap="round" stroke-linejoin="round"/>
<path d="M80.6632 51.9917C79.2069 53.9826 77.1792 55.5495 74.8933 56.4343C73.4002 57.0242 71.7964 57.3376 70.3954 58.1118C68.7363 59.0519 67.4828 60.6004 65.7685 61.4299C64.2569 62.1673 62.5056 62.2779 61.0125 63.0337C60.312 63.384 59.6852 63.9001 59.1875 64.5084C59.2428 63.513 59.2981 62.5544 59.4087 61.688C59.5377 60.6188 59.7405 59.6787 60.0908 58.9413C60.5147 58.0381 61.418 57.4851 62.4135 57.4482C67.6303 57.2454 75.9256 54.9964 79.7231 52.4341C80.018 52.2129 80.3314 52.0839 80.6632 51.9917Z" fill="#F77C2D"/>
<path d="M89.0868 73.597C89.1052 74.445 89.4186 75.0534 90.0454 75.0349C90.6721 75.0165 91.1698 74.3344 91.1514 73.4865C91.133 72.6385 90.5984 71.9749 89.9716 71.9933C89.3449 71.9933 89.0684 72.7675 89.0868 73.597Z" fill="#1A1B16"/>
<path d="M78.4688 87.9019C78.4688 87.9019 80.2753 85.1368 83.5934 84.5653C86.9115 83.9939 86.4691 85.782 86.4691 85.782C86.4691 85.782 86.3954 87.8466 83.4459 88.2706C80.4965 88.6761 78.4688 87.9019 78.4688 87.9019Z" fill="#F77C2D"/>
<path d="M84.1245 92.8585C84.8482 92.7422 85.3759 92.2812 85.3032 91.8289C85.2305 91.3766 84.5849 91.1042 83.8612 91.2205C83.1375 91.3368 82.6097 91.7978 82.6824 92.2501C82.7551 92.7025 83.4008 92.9748 84.1245 92.8585Z" fill="#F77C2D"/>
<path d="M70.9461 73.7444C70.9646 74.6477 71.2964 75.2929 71.96 75.2744C72.6236 75.256 73.1767 74.5186 73.1398 73.6153C73.1214 72.7121 72.5499 71.9931 71.8863 72.0116C71.2226 72.03 70.9277 72.8411 70.9461 73.7444Z" fill="#1A1B16"/>
<path d="M81.4915 81.7264C82.8188 82.3347 85.8788 78.9244 84.4963 77.376C83.7589 76.5649 78.284 80.2701 81.4915 81.7264Z" fill="#F77C2D"/>
<path d="M82.1179 81.9658L83.6848 80.5648C84.6618 79.68 85.012 78.2974 84.5696 77.0623L80.8828 68.6011" stroke="#BF3028" stroke-width="1.47473" stroke-miterlimit="10" stroke-linecap="round" stroke-linejoin="round"/>
<path d="M78.4688 88.2517C78.4688 88.2517 84.0174 84.8782 86.506 85.9474" stroke="#BF3028" stroke-width="1.47473" stroke-miterlimit="10" stroke-linecap="round" stroke-linejoin="round"/>
<path d="M68.8281 65.0071C68.8281 65.0071 72.0172 63.6061 75.2432 64.0301" stroke="#1A1B16" stroke-width="1.47473" stroke-miterlimit="10" stroke-linecap="round" stroke-linejoin="round"/>
<path d="M86.8203 63.7716C86.8203 63.7716 89.4195 63.2001 92.1478 63.79" stroke="#1A1B16" stroke-width="1.47473" stroke-miterlimit="10" stroke-linecap="round" stroke-linejoin="round"/>
<path d="M55.8867 69.0063L65.6568 72.2507" stroke="#C9CEEF" stroke-width="1.47473" stroke-miterlimit="10" stroke-linecap="round" stroke-linejoin="round"/>
<path d="M78.6523 71.8637C80.6064 69.9097 83.7954 69.9097 85.7495 71.8637" stroke="#C9CEEF" stroke-width="1.47473" stroke-miterlimit="10" stroke-linecap="round" stroke-linejoin="round"/>
<path d="M78.9664 73.9098C78.9664 77.6335 75.9432 80.6567 72.2195 80.6567C72.1458 80.6567 72.0536 80.6567 71.9799 80.6567C68.3668 80.5276 65.4727 77.5597 65.4727 73.9098C65.4727 72.0111 66.2469 70.3151 67.5004 69.0801C68.7171 67.9003 70.3761 67.1629 72.2195 67.1629C75.9432 67.1445 78.9664 70.1677 78.9664 73.9098Z" stroke="#EDE3EB" stroke-width="1.47473" stroke-miterlimit="10" stroke-linecap="round" stroke-linejoin="round"/>
<path d="M99.0601 73.9098C99.0601 77.6335 96.037 80.6567 92.3133 80.6567C92.2211 80.6567 92.1289 80.6567 92.0368 80.6567C91.7787 80.6567 91.539 80.6198 91.2994 80.5829C88.3868 80.1405 86.0826 77.8362 85.6401 74.9237C85.5848 74.5919 85.5664 74.26 85.5664 73.9098C85.5664 72.0295 86.3406 70.3152 87.5757 69.0985C88.7924 67.9003 90.4699 67.1629 92.3133 67.1629C96.037 67.1445 99.0601 70.1677 99.0601 73.9098Z" stroke="#EDE3EB" stroke-width="1.47473" stroke-miterlimit="10" stroke-linecap="round" stroke-linejoin="round"/>
</g>
<defs>
<clipPath id="clip0_2_3398">
<rect width="150" height="150" rx="75" fill="white"/>
</clipPath>
</defs>
</svg>
