<svg width="150" height="150" viewBox="0 0 150 150" fill="none" xmlns="http://www.w3.org/2000/svg">
<g clip-path="url(#clip0_6_10773)">
<rect width="150" height="150" rx="75" fill="#719CCF"/>
<path d="M162.093 179.41C153.241 180.373 144.324 181.271 135.408 181.912C133.612 182.04 131.88 182.169 130.084 182.297C130.02 196.922 129.956 211.483 129.892 226.108C113.214 225.916 96.5358 225.146 79.8579 224.441C63.7574 223.735 47.5927 223.029 31.4921 223.094C24.1154 223.094 16.8028 223.158 9.42603 223.029C9.36188 215.139 9.29773 207.25 9.29773 199.424C6.60361 199.873 3.84536 199.36 1.53612 197.499C1.34368 194.613 1.27952 191.726 1.27952 188.904C1.15123 180.693 1.15126 172.418 1.15126 164.144C1.02297 145.99 1.40782 127.837 3.33219 109.812C4.48681 111.095 5.64145 112.314 6.79607 113.597C12.8258 104.039 20.2667 95.3154 31.2997 91.5949C38.4199 89.2216 46.1174 89.5423 53.43 90.312C55.0978 90.5045 56.8297 90.6969 58.4974 90.8893C65.2327 91.6591 72.0322 92.6213 78.7033 93.5835C85.0537 94.4815 91.4042 95.5078 97.7546 96.5983C108.082 98.3302 118.345 100.255 128.545 102.436C132.265 103.205 145.094 106.797 149.713 115.008L149.777 115.072C152.471 119.883 154.139 125.207 155.293 130.724C157.41 140.666 158.629 150.866 159.976 161.001C160.746 167.094 161.451 173.252 162.093 179.41Z" fill="#BCD7FD"/>
<path d="M97.7565 96.5342C94.0361 105.001 87.4291 111.865 77.3582 112.699C65.2347 113.725 54.3299 102.243 58.4994 90.8252C65.2347 91.5949 72.0341 92.5571 78.7052 93.5193C85.0557 94.4815 91.4061 95.5078 97.7565 96.5342Z" fill="#952C28"/>
<path d="M110.65 141.051C110.65 140.538 109.752 140.538 109.816 141.051C110.457 153.046 111.035 165.042 111.676 177.101C111.548 177.165 111.484 177.358 111.484 177.55C111.548 177.871 111.676 178.191 111.74 178.512C111.868 178.961 112.574 178.897 112.574 178.384C111.933 165.94 111.291 153.495 110.65 141.051Z" fill="white"/>
<path d="M17.767 110.454C17.1897 114.559 16.6123 118.665 16.035 122.77C15.9709 123.283 16.7407 123.54 16.869 122.962C17.4463 118.857 18.0236 114.752 18.6009 110.646C18.665 110.133 17.8311 109.941 17.767 110.454Z" fill="white"/>
<path d="M6.73306 113.597C-8.72604 96.278 -26.1736 80.8189 -45.289 67.4766C-47.5983 64.7183 -50.7414 62.9864 -54.5902 64.9107C-54.9109 65.1032 -57.9899 68.5029 -58.4389 69.7858C-61.9669 75.3023 -77.6826 89.4144 -77.2977 91.018C-76.7204 93.5197 -68.5739 95.2516 -69.1512 92.1085C-68.7022 91.3388 -68.4456 90.8256 -67.9966 90.12C-67.5476 89.9276 -67.1627 89.7351 -66.7778 89.5427C-66.2647 94.2253 -62.4801 97.7533 -57.6691 97.7533C-55.3599 104.168 -50.0358 108.851 -43.493 110.518C-26.0454 146.889 -0.643654 194.421 0.831696 196.858C2.43533 199.488 5.89918 205.261 9.42719 204.235C10.1969 179.86 12.8269 150.289 15.521 126.042C12.8269 121.487 6.9255 113.212 6.73306 113.597Z" fill="#952C28"/>
<path d="M93.4583 102.307L61.5779 99.3563L61.1931 90.4401L60.744 78.958L59.9102 59.2012H83.8365C83.8365 61.5746 93.4583 102.307 93.4583 102.307Z" fill="#952C28"/>
<path d="M89.739 41.4969C84.6715 30.7845 55.7419 29.8865 53.4326 41.2403C51.7007 49.8358 52.2139 55.6731 50.097 62.3442C48.3651 67.8607 46.9539 73.5056 50.3536 78.7014C57.2172 89.0929 71.5858 86.014 78.7702 77.8675C85.9545 69.6568 94.7424 52.0809 89.739 41.4969Z" fill="#952C28"/>
<path d="M89.7368 41.4971C86.5295 34.6335 73.5079 31.8111 63.9502 33.6072C63.6936 33.4789 63.4371 33.2865 63.1163 33.2223C61.5768 32.645 59.5242 32.8375 58.4337 33.9279C56.3811 33.1582 53.8794 33.7996 52.7247 35.9164C51.1211 38.803 53.2379 41.882 53.2379 42.0744C56.4452 43.7422 61.192 44.2554 64.271 44.7685C69.0819 45.6666 74.855 46.1156 78.6396 45.7949C79.1528 49.1304 78.832 57.7901 76.0096 61.0615C72.0326 65.68 54.3926 62.7935 50.8645 59.2013C50.6721 60.2276 50.3513 61.254 50.0306 62.2803C48.2987 67.7968 46.8875 73.4416 50.2872 78.6374C57.1508 89.029 71.5194 85.95 78.7037 77.8035C85.9522 69.6571 94.7402 52.0811 89.7368 41.4971Z" fill="black"/>
<path d="M61.6428 61.2539C60.7447 61.318 59.7184 61.3822 58.8203 61.0615C57.794 60.6766 56.8318 59.4578 57.7298 58.4315C58.0506 58.0466 57.4733 57.4052 57.1526 57.8542C56.3187 58.8164 56.4469 60.1634 57.345 61.0615C58.4996 62.2161 60.1674 62.2161 61.7069 62.0878C62.1559 62.0236 62.1559 61.1898 61.6428 61.2539Z" fill="black"/>
<path d="M69.6608 68.1175C69.5967 67.6044 68.7628 67.6044 68.8269 68.1175C69.0194 70.2343 67.4157 71.9663 65.2989 71.9021C64.7858 71.9021 64.7858 72.736 65.2989 72.736C67.8648 72.8002 69.9174 70.6834 69.6608 68.1175Z" fill="white"/>
<path d="M59.0761 52.5944C58.7554 55.9942 55.5481 58.56 52.1484 57.662C48.6846 56.7639 47.2092 52.9793 48.5562 49.8362C48.7487 49.323 48.0431 48.9381 47.8507 49.3872C46.247 53.0435 47.9148 57.4054 51.8918 58.4317C55.933 59.5222 59.5252 56.5073 59.91 52.5303C59.9742 52.0813 59.1403 52.0813 59.0761 52.5944Z" fill="#BCD7FD"/>
<path d="M75.688 54.1981C75.8804 57.662 73.1222 60.6127 69.5941 60.2278C66.0661 59.8429 64.0135 56.3149 64.9115 52.9794C65.0398 52.4662 64.2701 52.1455 64.1418 52.6586C63.1154 56.5074 65.3606 60.5485 69.4659 60.9976C73.5712 61.4466 76.7143 57.9827 76.5219 54.0057C76.5219 53.5567 75.688 53.6208 75.688 54.1981Z" fill="#BCD7FD"/>
<path d="M64.4651 53.8774C62.669 53.7491 60.9371 53.6849 59.2052 53.5566C58.692 53.5566 58.692 54.3905 59.2052 54.3905C60.9371 54.5188 62.669 54.583 64.4651 54.7113C64.4651 54.3905 64.4651 54.134 64.4651 53.8774Z" fill="#BCD7FD"/>
<path d="M69.2083 53.3642C69.1441 54.1339 69.0158 54.9037 68.9517 55.6734C68.8875 56.4432 70.1063 56.4432 70.1704 55.6734C70.2346 54.9037 70.3629 54.1339 70.427 53.3642C70.4912 52.5303 69.2724 52.5303 69.2083 53.3642Z" fill="black"/>
<path d="M53.8176 50.2848C53.7535 51.0546 53.6252 51.8243 53.561 52.5941C53.4969 53.3638 54.7157 53.3638 54.7798 52.5941C54.844 51.8243 54.9723 51.0546 55.0364 50.2848C55.1647 49.451 53.9459 49.451 53.8176 50.2848Z" fill="black"/>
<path d="M96.7948 57.7901C95.7043 53.7489 89.8671 51.0548 85.1845 54.2621C84.6713 58.7523 84.0298 63.2425 83.3242 67.7327C85.5693 69.0797 90.4444 69.5929 93.3951 67.6044C96.7948 65.3593 97.8853 62.0878 96.7948 57.7901Z" fill="#952C28"/>
<path d="M90.0589 59.1371C88.8401 60.2917 87.6214 61.3822 86.4668 62.5368C86.0819 62.9217 86.6592 63.4349 87.0441 63.1142C87.1082 63.05 87.2365 62.9859 87.3007 62.9217C87.3648 62.9217 87.3648 62.8576 87.3648 62.8576C88.4553 61.8312 89.5458 60.8049 90.6362 59.7786C91.0853 59.3937 90.4438 58.8164 90.0589 59.1371Z" fill="black"/>
<path d="M56.7677 47.3989C55.9338 47.0781 55.0999 46.7574 54.266 46.4367C53.817 46.2442 53.368 46.6291 53.2397 47.014C53.1114 47.463 53.4321 47.912 53.817 48.0403C54.6509 48.3611 55.4848 48.6818 56.3187 49.0025C56.7677 49.1949 57.2167 48.8101 57.345 48.4252C57.4733 47.912 57.2167 47.5272 56.7677 47.3989Z" fill="black"/>
<path d="M70.2375 46.6931C69.4036 46.6289 68.5697 46.6289 67.7358 46.5648C66.6454 46.5006 66.6454 48.1684 67.7358 48.2326C68.5697 48.2967 69.4036 48.2967 70.2375 48.3609C71.328 48.425 71.328 46.6931 70.2375 46.6931Z" fill="black"/>
</g>
<defs>
<clipPath id="clip0_6_10773">
<rect width="150" height="150" rx="75" fill="white"/>
</clipPath>
</defs>
</svg>
