<svg width="150" height="150" viewBox="0 0 150 150" fill="none" xmlns="http://www.w3.org/2000/svg">
<g clip-path="url(#clip0_2_2990)">
<rect width="150" height="150" rx="75" fill="#80C2FE"/>
<path d="M-19.375 166.525C-19.375 166.525 -13.5153 115.309 23.2751 108.682C52.141 103.492 59.9957 103.394 59.9957 103.394L74.4217 118.085L100.497 102.194C100.497 102.194 138.794 105.068 154.574 116.132C170.353 127.196 177.399 163.86 178.18 194.373C163.712 226.726 157.797 242.464 157.797 242.464C157.797 242.464 120.853 263.545 87.9687 253.555C55.0848 243.566 15.2948 246.077 -4.12589 252.467C-2.45169 233.981 -19.375 166.525 -19.375 166.525Z" fill="#F52A21"/>
<path d="M28.0064 147.97C25.0207 155.922 17.8217 162.41 17.9333 170.962C18.031 179.194 25.0486 185.988 25.1602 194.22C25.2718 202.8 17.9193 209.734 17.1381 218.272C16.3986 226.35 21.6165 233.605 23.2349 241.543C23.6674 243.678 23.8488 245.366 23.779 247.473C12.6596 248.463 2.94926 250.166 -4.11026 252.495C-2.43606 233.996 -19.3594 166.54 -19.3594 166.54C-19.3594 166.54 -13.4997 115.323 23.2907 108.696C25.2718 108.347 27.1413 108.013 28.9272 107.706C29.2759 109.645 29.4713 111.696 29.5829 113.872C30.127 124.489 31.7733 137.939 28.0064 147.97Z" fill="#D6261D"/>
<path d="M177.927 187.662C176.559 191.094 174.829 194.359 172.569 197.289C167.63 203.651 159.678 208.157 151.698 207.125C154.934 216.709 158.185 226.35 160.306 236.214C158.618 240.413 157.836 242.492 157.836 242.492C157.836 242.492 139.616 252.886 117.377 255.621C117.293 255.383 117.223 255.146 117.167 254.909C115.396 248.24 119.428 241.515 120.167 234.665C121.046 226.559 117.279 218.495 118.06 210.362C118.995 200.623 126.376 191.527 124.087 182.026C122.874 176.989 119.093 172.901 117.642 167.935C116.065 162.535 117.391 156.773 117.446 151.151C117.516 143.784 115.382 136.613 114.293 129.331C113.261 122.355 114.196 111.989 118.284 104.469C130.463 106.492 145.922 110.091 154.6 116.16C169.221 126.401 176.336 158.685 177.927 187.662Z" fill="#D6261D"/>
<path d="M55.8084 103.729L37.6992 118.1L61.124 114.933L54.497 126.568L74.4199 118.1" stroke="#BF3028" stroke-width="1.56258" stroke-miterlimit="10" stroke-linecap="round" stroke-linejoin="round"/>
<path d="M100.513 102.209L111.186 118.1L87.7607 114.933L94.3878 126.568L74.4648 118.1" stroke="#BF3028" stroke-width="1.56258" stroke-miterlimit="10" stroke-linecap="round" stroke-linejoin="round"/>
<path d="M35.287 154.401C36.9193 159.661 36.6124 165.451 34.4499 169.734C34.2825 170.055 29.232 161.349 28.8693 160.47C27.4043 156.94 26.4696 153.16 26.1208 149.407C25.8138 145.947 25.9673 141.398 29.5529 144.9C32.1339 147.398 34.1709 150.788 35.287 154.401Z" stroke="#F65852" stroke-width="2.45548" stroke-miterlimit="10" stroke-linecap="round" stroke-linejoin="round"/>
<path d="M95.1537 142.403C95.1537 142.403 94.6235 133.767 86.6153 129.693C84.0203 136.46 90.5497 143.826 90.5497 143.826C90.5497 143.826 81.5788 145.654 79.5977 155.197C83.2669 154.569 90.8985 152.016 93.0191 147.216C90.7589 153.299 96.4094 161.768 96.4094 161.768C96.4094 161.768 100.372 153.857 96.4094 145.933C103.762 145.793 106.72 136.753 106.58 134.339C101.697 134.688 98.823 136.892 95.1537 142.403Z" stroke="#F65852" stroke-width="2.45548" stroke-miterlimit="10" stroke-linecap="round" stroke-linejoin="round"/>
<path d="M61.1535 140.771C61.9934 140.771 62.6743 140.09 62.6743 139.25C62.6743 138.41 61.9934 137.729 61.1535 137.729C60.3137 137.729 59.6328 138.41 59.6328 139.25C59.6328 140.09 60.3137 140.771 61.1535 140.771Z" fill="#F65852"/>
<path d="M74.421 118.099C74.421 118.099 67.9196 191.262 71.4075 249.217" stroke="#BF3028" stroke-width="1.56258" stroke-miterlimit="10" stroke-linecap="round" stroke-linejoin="round"/>
<path d="M102.619 60.2711C101.042 59.7409 95.9361 59.5875 95.0293 66.647C94.806 68.5863 92.9505 69.6884 91.9878 66.647C91.0112 63.6055 91.9878 49.1517 91.9878 49.1517C91.9878 49.1517 81.6915 33.6235 70.1675 40.3761C63.9869 44.0035 57.039 55.2206 52.1699 54.4114C52.1559 55.5276 52.142 56.9227 52.142 58.5132C52.142 58.5132 51.0677 89.3742 59.9967 95.3734C59.9967 98.1218 59.9967 103.409 59.9967 103.409L74.4227 118.101L100.498 102.21V76.0225C103.526 75.4086 106.107 72.9113 106.846 69.5071C107.697 65.6146 105.856 61.8058 102.619 60.2711Z" fill="#F8934F"/>
<path d="M79.4191 97.4233L74.3546 100.074L60.0124 96.9908V95.3584C51.0833 89.3453 52.1576 58.4983 52.1576 58.4983C52.1436 56.8938 52.1576 55.4987 52.1855 54.3965L54.2503 57.3403C54.2503 57.3403 52.7296 85.2296 61.0169 93.2517C64.1281 96.2653 70.4203 98.8603 79.4191 97.4233Z" fill="#F9AF79"/>
<path d="M82.9471 95.9997C74.3808 107.398 59.8711 101.008 59.8711 101.008C59.8711 101.008 59.9269 97.6879 59.9827 95.344C60.0943 95.4138 60.2059 95.4835 60.3175 95.5533C67.2096 99.655 75.7201 99.4876 81.9425 96.3625C82.2634 96.2508 82.6122 96.1253 82.9471 95.9997Z" fill="#BF3028"/>
<path d="M91.7918 65.7531C91.6104 65.795 91.4291 65.8229 91.2477 65.8229C89.1131 65.8927 87.5784 63.6883 87.118 61.6095C86.6576 59.5168 86.8111 57.2845 85.974 55.3173C83.8394 55.7359 81.8862 56.7823 79.8771 57.6194C77.8681 58.4704 75.6917 59.154 73.5431 58.8052C71.3946 58.4704 69.3158 56.8381 69.1205 54.6616C69.0228 53.5594 69.26 52.1364 68.2834 51.6062C67.6695 51.2714 66.9161 51.5225 66.2604 51.8015C64.0979 52.7223 62.0051 53.7827 59.9961 54.9825L60.5821 51.5504C60.596 50.6436 60.6797 49.7367 60.8471 48.8577C63.9165 45.7465 67.1254 42.1331 70.1668 40.3612C81.6769 33.6086 91.9871 49.1368 91.9871 49.1368C91.9871 49.1368 91.164 61.456 91.7918 65.7531Z" fill="#F77C2D"/>
<path d="M100.513 76.5243V102.223L89.0586 109.199C89.5888 108.474 90.0352 107.692 90.3422 106.841C91.1234 104.651 90.8165 102.223 91.4862 99.9909C92.4349 96.81 95.2113 94.3963 96.0344 91.1735C96.6622 88.7459 96.0763 86.1928 95.7554 83.7094C95.5042 81.8259 95.1275 78.0729 96.7878 76.622C97.7644 75.743 99.2293 75.9383 100.513 76.5243Z" fill="#F77C2D"/>
<path d="M96.9531 70.1479C96.9531 70.1479 99.6318 71.5431 101.097 69.3806C102.562 67.2181 100.971 65.0974 100.971 65.0974C100.246 65.5439 99.5481 66.0461 98.9342 66.6321C97.9437 67.5808 97.1624 68.8085 96.9531 70.1479Z" fill="#F77C2D"/>
<path d="M100.971 65.1118C100.971 65.1118 102.562 67.2325 101.097 69.395C99.6318 71.5575 96.9531 70.1623 96.9531 70.1623C97.1624 68.809 97.9437 67.5952 98.9342 66.6465C99.9248 65.6978 101.111 64.9863 102.324 64.3445" stroke="#BF3028" stroke-width="1.56258" stroke-miterlimit="10" stroke-linecap="round" stroke-linejoin="round"/>
<path d="M96.8008 76.6633C96.8008 76.6633 98.461 76.7609 100.512 76.0215" stroke="#BF3028" stroke-width="1.56258" stroke-miterlimit="10" stroke-linecap="round" stroke-linejoin="round"/>
<path d="M95.9075 33.1903C87.8574 26.2145 65.2279 20.1316 52.1134 31.6975C46.1282 36.9851 53.969 38.8546 53.969 38.8546C53.969 38.8546 37.1294 48.4254 45.9747 57.2708C52.8529 64.1489 73.4454 44.8957 73.4454 44.8957C73.4454 44.8957 69.1204 52.4295 75.3568 54.9408C81.5932 57.4521 90.7036 49.9183 90.7036 49.9183C90.7036 49.9183 85.6391 65.265 92.0569 68.1949C98.4746 71.1247 94.2473 59.4054 103.455 60.4238C107.459 53.8247 104.851 40.9334 95.9075 33.1903Z" fill="#1A1B16"/>
<path d="M93.2695 34.0548C93.2695 34.0548 95.6971 22.9633 98.7107 24.5259C101.724 26.0884 95.0135 35.5197 95.0135 35.5197L93.2695 34.0548Z" fill="#1A1B16"/>
<path d="M95.6133 34.25C95.6133 34.25 102.268 28.9484 103.287 31.2783C104.305 33.6082 95.9481 35.9242 95.9481 35.9242L95.6133 34.25Z" fill="#1A1B16"/>
<path d="M38.4124 114.626C37.2963 114.361 36.7661 112.589 36.4871 111.654C35.9849 109.938 35.7895 108.026 36.0825 106.255C36.4871 103.771 38.6636 101.692 41.2725 102.334C45.4022 103.353 44.8581 107.803 43.1281 110.635C42.3886 111.891 40.268 115.072 38.4124 114.626Z" fill="#F3EDF3"/>
<path d="M38.8585 112.896C37.2959 112.519 37.2262 108.459 37.3796 107.343C37.6587 105.25 39.3189 103.883 41.4116 104.72C43.2253 105.46 43.1277 107.441 42.4859 108.975C42.0674 109.98 40.3095 113.245 38.8585 112.896Z" fill="#FACC73"/>
<path d="M39.3878 113.887C38.9135 114.933 37.0719 115.115 36.1092 115.198C34.3234 115.366 32.426 115.184 30.7378 114.557C28.38 113.678 26.7616 111.138 27.8917 108.697C29.6915 104.832 33.9467 106.241 36.3882 108.474C37.4625 109.464 40.1691 112.157 39.3878 113.887Z" fill="#F3EDF3"/>
<path d="M37.7707 113.106C37.101 114.571 33.1109 113.846 32.0366 113.483C30.0415 112.799 29.0091 110.916 30.2368 109.018C31.3111 107.372 33.2364 107.86 34.6176 108.795C35.5245 109.409 38.3846 111.753 37.7707 113.106Z" fill="#FACC73"/>
<path d="M39.5404 113.231C40.2938 114.11 39.6799 115.84 39.359 116.761C38.7591 118.449 37.7964 120.095 36.5268 121.379C34.755 123.151 31.7554 123.555 30.0254 121.518C27.263 118.282 30.3184 114.989 33.3738 113.705C34.7131 113.133 38.2847 111.794 39.5404 113.231Z" fill="#F3EDF3"/>
<path d="M38.159 114.375C39.2053 115.589 36.8894 118.924 36.1081 119.747C34.6571 121.281 32.5086 121.421 31.3087 119.51C30.2624 117.849 31.518 116.301 32.9411 115.436C33.8479 114.864 37.1824 113.245 38.159 114.375Z" fill="#FACC73"/>
<path d="M38.3259 112.868C39.3863 112.422 40.8512 113.524 41.6325 114.11C43.0555 115.198 44.3391 116.607 45.1622 118.212C46.3202 120.444 45.7901 123.416 43.3206 124.448C39.4002 126.08 37.1959 122.188 36.9029 118.881C36.7634 117.43 36.568 113.608 38.3259 112.868Z" fill="#F3EDF3"/>
<path d="M38.9938 114.529C40.4727 113.901 42.9421 117.124 43.4862 118.114C44.5047 119.97 43.9885 122.049 41.7981 122.621C39.9007 123.109 38.8124 121.449 38.4078 119.83C38.1567 118.77 37.6266 115.101 38.9938 114.529Z" fill="#FACC73"/>
<path d="M38.6215 113.482C38.6354 112.324 40.2538 111.431 41.1049 110.971C42.6814 110.106 44.4951 109.52 46.2948 109.408C48.8061 109.268 51.3035 110.943 51.2477 113.635C51.15 117.891 46.6855 118.309 43.5464 117.235C42.1512 116.76 38.5796 115.393 38.6215 113.482Z" fill="#F3EDF3"/>
<path d="M40.4064 113.552C40.4343 111.948 44.3826 110.999 45.5127 110.915C47.6194 110.734 49.3215 112.059 48.9448 114.278C48.6239 116.217 46.6567 116.538 45.0104 116.245C43.9362 116.035 40.3785 115.031 40.4064 113.552Z" fill="#FACC73"/>
<path d="M40.3213 138.747C39.247 138.329 38.9819 136.501 38.8424 135.538C38.5913 133.767 38.661 131.855 39.2052 130.139C39.9446 127.739 42.414 125.981 44.8974 126.986C48.8457 128.577 47.6738 132.902 45.5671 135.469C44.6323 136.585 42.0931 139.445 40.3213 138.747Z" fill="#F3EDF3"/>
<path d="M41.0068 137.087C39.5139 136.501 40.0162 132.469 40.3231 131.381C40.8951 129.344 42.7228 128.228 44.676 129.358C46.3781 130.335 45.9875 132.288 45.1364 133.725C44.5784 134.646 42.388 137.631 41.0068 137.087Z" fill="#F9BD64"/>
<path d="M41.3832 138.147C40.7554 139.11 38.9278 139.026 37.9511 138.984C36.1653 138.9 34.3098 138.44 32.7193 137.589C30.501 136.389 29.2593 133.641 30.7242 131.395C33.0402 127.823 37.0582 129.804 39.1649 132.371C40.0997 133.487 42.4157 136.543 41.3832 138.147Z" fill="#F3EDF3"/>
<path d="M39.892 137.143C39.027 138.496 35.1763 137.226 34.1578 136.71C32.2744 135.762 31.521 133.739 33.0138 132.05C34.3113 130.572 36.139 131.325 37.3807 132.441C38.1899 133.167 40.7012 135.901 39.892 137.143Z" fill="#F9BD64"/>
<path d="M41.6188 137.52C42.2327 138.496 41.3956 140.129 40.9491 140.994C40.112 142.584 38.9401 144.077 37.4891 145.165C35.4801 146.672 32.4666 146.658 31.0295 144.384C28.7554 140.784 32.2433 137.966 35.4522 137.115C36.8613 136.738 40.6003 135.915 41.6188 137.52Z" fill="#F3EDF3"/>
<path d="M40.0982 138.455C40.9632 139.808 38.2008 142.78 37.3079 143.477C35.6476 144.789 33.513 144.635 32.5922 142.57C31.797 140.784 33.2479 139.431 34.7826 138.761C35.7732 138.343 39.3029 137.199 40.0982 138.455Z" fill="#F9BD64"/>
<path d="M40.4771 136.976C41.5933 136.683 42.8908 137.98 43.5744 138.678C44.83 139.948 45.9043 141.538 46.4903 143.24C47.3134 145.612 46.3787 148.486 43.7837 149.156C39.6679 150.23 38.0356 146.045 38.203 142.738C38.2867 141.273 38.6355 137.478 40.4771 136.976Z" fill="#F3EDF3"/>
<path d="M40.9101 138.72C42.4587 138.301 44.4538 141.845 44.8444 142.905C45.5978 144.887 44.7886 146.882 42.5424 147.119C40.5892 147.328 39.7521 145.542 39.5847 143.882C39.487 142.808 39.4731 139.097 40.9101 138.72Z" fill="#F9BD64"/>
<path d="M40.6839 137.631C40.8653 136.501 42.5813 135.831 43.5021 135.497C45.1763 134.869 47.0598 134.534 48.8596 134.673C51.3708 134.883 53.6031 136.906 53.1706 139.557C52.473 143.756 47.9946 143.547 45.0368 142.04C43.7114 141.384 40.377 139.515 40.6839 137.631Z" fill="#F3EDF3"/>
<path d="M42.4415 137.952C42.6927 136.362 46.7386 135.985 47.8687 136.055C49.9754 136.181 51.4682 137.715 50.7846 139.878C50.1847 141.747 48.2036 141.789 46.6131 141.273C45.5946 140.924 42.2044 139.417 42.4415 137.952Z" fill="#F9BD64"/>
<path d="M43.0311 161.405C42.0964 160.735 42.2777 158.894 42.3893 157.931C42.5707 156.145 43.1288 154.317 44.0635 152.783C45.375 150.634 48.1932 149.546 50.3557 151.137C53.7878 153.648 51.5974 157.554 48.9187 159.521C47.7468 160.386 44.5798 162.521 43.0311 161.405Z" fill="#F3EDF3"/>
<path d="M44.2009 161.084C43.3638 161.865 41.5919 161.335 40.6711 161.042C38.9551 160.512 37.2669 159.619 35.9415 158.405C34.086 156.703 33.5698 153.731 35.5369 151.904C38.6621 149.016 42.0663 151.932 43.4894 154.931C44.1032 156.257 45.596 159.786 44.2009 161.084Z" fill="#F3EDF3"/>
<path d="M107.779 160.861C106.746 161.377 105.212 160.387 104.389 159.857C102.882 158.88 101.515 157.555 100.58 156.02C99.2684 153.871 99.5893 150.872 101.989 149.672C105.798 147.76 108.253 151.499 108.783 154.778C109.021 156.201 109.481 159.996 107.779 160.861Z" fill="#F3EDF3"/>
<path d="M110.457 136.766C110.82 135.678 112.62 135.301 113.569 135.106C115.326 134.743 117.238 134.715 118.982 135.148C121.423 135.747 123.307 138.105 122.456 140.644C121.102 144.677 116.708 143.756 114.029 141.802C112.857 140.951 109.857 138.566 110.457 136.766Z" fill="#F3EDF3"/>
<path d="M112.147 137.352C112.649 135.832 116.695 136.097 117.797 136.334C119.862 136.794 121.09 138.552 120.071 140.561C119.192 142.305 117.225 142.04 115.732 141.273C114.783 140.784 111.672 138.761 112.147 137.352Z" fill="#F9BD64"/>
<path d="M111.111 137.785C110.106 137.227 110.079 135.385 110.079 134.409C110.065 132.609 110.399 130.739 111.167 129.107C112.227 126.833 114.906 125.424 117.236 126.763C120.933 128.87 119.189 132.999 116.747 135.246C115.673 136.236 112.771 138.72 111.111 137.785Z" fill="#F3EDF3"/>
<path d="M112.016 136.25C110.621 135.468 111.668 131.548 112.114 130.502C112.951 128.562 114.932 127.697 116.704 129.093C118.253 130.292 117.597 132.176 116.565 133.487C115.895 134.311 113.314 136.975 112.016 136.25Z" fill="#F9BD64"/>
<path d="M111.755 137.995C110.82 138.665 109.146 137.925 108.253 137.521C106.621 136.781 105.058 135.693 103.886 134.312C102.268 132.386 102.115 129.373 104.291 127.81C107.751 125.341 110.765 128.647 111.797 131.801C112.257 133.196 113.29 136.879 111.755 137.995Z" fill="#F3EDF3"/>
<path d="M110.721 136.53C109.424 137.465 106.299 134.884 105.545 134.033C104.136 132.456 104.178 130.308 106.173 129.275C107.917 128.368 109.354 129.75 110.108 131.243C110.596 132.205 111.935 135.651 110.721 136.53Z" fill="#F9BD64"/>
<path d="M112.215 136.823C112.577 137.911 111.35 139.292 110.694 140.018C109.494 141.357 107.973 142.501 106.313 143.199C103.997 144.161 101.067 143.394 100.244 140.841C98.9327 136.795 103.007 134.925 106.327 134.897C107.806 134.883 111.629 135.009 112.215 136.823Z" fill="#F3EDF3"/>
<path d="M110.512 137.352C111.014 138.873 107.596 141.064 106.564 141.524C104.639 142.389 102.602 141.691 102.225 139.473C101.89 137.548 103.648 136.585 105.294 136.334C106.341 136.166 110.038 135.943 110.512 137.352Z" fill="#F9BD64"/>
<path d="M111.572 137.059C112.716 137.171 113.47 138.859 113.874 139.738C114.6 141.37 115.046 143.24 115.004 145.04C114.935 147.551 113.051 149.909 110.386 149.616C106.159 149.169 106.103 144.677 107.429 141.635C108.015 140.31 109.675 136.864 111.572 137.059Z" fill="#F3EDF3"/>
<path d="M111.364 138.831C112.955 138.999 113.569 143.003 113.569 144.133C113.569 146.24 112.118 147.83 109.927 147.272C108.03 146.784 107.863 144.803 108.295 143.198C108.588 142.152 109.886 138.692 111.364 138.831Z" fill="#F9BD64"/>
<path d="M114.199 113.886C113.627 112.882 114.562 111.291 115.064 110.454C115.985 108.905 117.24 107.482 118.733 106.478C120.826 105.083 123.84 105.264 125.137 107.608C127.216 111.319 123.574 113.956 120.324 114.626C118.915 114.932 115.148 115.546 114.199 113.886Z" fill="#F3EDF3"/>
<path d="M115.776 113.035C114.981 111.64 117.911 108.822 118.831 108.166C120.547 106.952 122.682 107.217 123.491 109.324C124.189 111.152 122.668 112.435 121.105 113.007C120.087 113.384 116.515 114.333 115.776 113.035Z" fill="#F9BD64"/>
<path d="M115.41 114.095C114.322 114.458 112.941 113.23 112.215 112.588C110.876 111.388 109.718 109.881 109.02 108.221C108.058 105.905 108.811 102.975 111.364 102.152C115.41 100.841 117.294 104.901 117.322 108.221C117.336 109.672 117.21 113.495 115.41 114.095Z" fill="#F3EDF3"/>
<path d="M114.865 112.379C113.344 112.881 111.139 109.477 110.679 108.444C109.814 106.519 110.498 104.482 112.716 104.091C114.641 103.757 115.604 105.501 115.869 107.147C116.05 108.221 116.288 111.918 114.865 112.379Z" fill="#F9BD64"/>
<path d="M115.984 113.761C115.858 114.905 114.17 115.645 113.277 116.035C111.631 116.747 109.775 117.165 107.976 117.11C105.464 117.026 103.134 115.101 103.441 112.436C103.944 108.209 108.422 108.209 111.45 109.562C112.775 110.162 116.193 111.864 115.984 113.761Z" fill="#F3EDF3"/>
<path d="M114.21 113.538C114.029 115.129 110.011 115.701 108.881 115.701C106.774 115.687 105.198 114.208 105.784 112.031C106.286 110.134 108.267 109.994 109.871 110.441C110.918 110.72 114.378 112.045 114.21 113.538Z" fill="#F9BD64"/>
<path d="M115.441 112.616C116.487 113.091 116.683 114.918 116.78 115.881C116.962 117.667 116.794 119.564 116.18 121.266C115.329 123.638 112.804 125.27 110.349 124.168C106.47 122.41 107.837 118.141 110.056 115.672C111.032 114.583 113.697 111.849 115.441 112.616Z" fill="#F3EDF3"/>
<path d="M114.675 114.248C116.14 114.904 115.456 118.908 115.107 119.982C114.452 121.991 112.568 123.038 110.671 121.81C109.025 120.75 109.485 118.824 110.406 117.429C111.006 116.522 113.322 113.634 114.675 114.248Z" fill="#F9BD64"/>
<path d="M115.176 113.258C116.027 112.491 117.785 113.063 118.706 113.356C120.408 113.914 122.082 114.835 123.38 116.091C125.194 117.835 125.668 120.806 123.659 122.592C120.478 125.424 117.13 122.439 115.776 119.411C115.176 118.086 113.767 114.528 115.176 113.258Z" fill="#F3EDF3"/>
<path d="M116.35 114.612C117.536 113.537 120.926 115.784 121.763 116.551C123.325 117.974 123.521 120.109 121.637 121.35C120.005 122.425 118.428 121.211 117.522 119.816C116.936 118.895 115.247 115.602 116.35 114.612Z" fill="#F9BD64"/>
<path d="M69.3301 75.045C70.516 73.7056 66.4142 70.134 65.5492 72.2686C65.1585 73.2313 67.921 76.6354 69.3301 75.045Z" fill="#F77C2D"/>
<path d="M58.8627 67.6502C58.9045 68.5291 59.2533 69.143 59.9091 69.1151C60.5648 69.0732 61.067 68.3338 61.0112 67.4688C60.9554 66.6038 60.3974 65.9062 59.7416 65.9481C59.072 65.976 58.8069 66.7712 58.8627 67.6502Z" fill="#1A1B16"/>
<path d="M74.351 67.6502C74.3928 68.5291 74.7416 69.143 75.3973 69.1151C76.0531 69.0732 76.5553 68.3338 76.4995 67.4688C76.4437 66.6038 75.8856 65.9062 75.2299 65.9481C74.5602 65.976 74.2952 66.7712 74.351 67.6502Z" fill="#1A1B16"/>
<path d="M73.543 61.0373C76.0961 60.4234 78.7609 60.4234 81.314 61.0373" stroke="#1A1B16" stroke-width="1.56258" stroke-miterlimit="10" stroke-linecap="round" stroke-linejoin="round"/>
<path d="M56.7578 61.0381C58.7947 60.5498 60.9014 60.4521 62.9663 60.7451" stroke="#1A1B16" stroke-width="1.56258" stroke-miterlimit="10" stroke-linecap="round" stroke-linejoin="round"/>
<path d="M73.1225 89.0193C74.2223 88.5735 74.9401 87.7837 74.7259 87.2553C74.5117 86.7268 73.4465 86.6598 72.3467 87.1056C71.247 87.5514 70.5291 88.3412 70.7433 88.8697C70.9576 89.3981 72.0228 89.4651 73.1225 89.0193Z" fill="#F77C2D"/>
<path d="M68.6014 63.2976L65.6576 71.5709C65.3367 72.4917 65.6018 73.5102 66.3412 74.152L67.4853 75.1286" stroke="#BF3028" stroke-width="1.56258" stroke-miterlimit="10" stroke-linecap="round" stroke-linejoin="round"/>
<path d="M77.0581 79.7899C76.4582 81.5757 73.9469 83.5011 71.7007 83.9754C71.4774 84.0173 71.2682 84.0591 71.0589 84.0731C69.1196 84.2265 67.4454 83.7661 66.4688 82.7756C65.8689 82.1757 65.5759 81.4223 65.6317 80.6549C65.7015 79.8178 66.0782 79.3016 66.6223 78.9947C67.4315 78.5203 68.5895 78.4924 69.4684 78.4645C70.0125 78.4506 70.5845 78.4366 70.9752 78.3529C71.4356 78.2413 72.0076 77.9623 72.5657 77.6693C73.5702 77.1531 74.77 76.5392 75.8303 76.9299C76.0536 77.0136 76.2628 77.1391 76.4721 77.3205C77.1557 77.9344 77.379 78.8273 77.0581 79.7899Z" fill="#1A1B16"/>
<path d="M74.4618 77.5708C74.3502 78.0312 74.1688 79.2171 73.8479 79.6635C72.969 80.8913 71.5459 81.0448 69.8578 81.1982C68.7277 81.2959 68.2673 79.9007 68.0859 79.4403C68.7277 78.966 69.6346 78.9381 70.3321 78.9102C70.7646 78.8962 71.2111 78.8823 71.518 78.7985C71.8808 78.6869 72.3272 78.4079 72.7737 78.1149C73.5689 77.5848 74.4618 77.5708 74.4618 77.5708Z" fill="#EDE3EB"/>
<path d="M75.0892 77.7657C75.2148 77.7657 75.3125 77.7796 75.4241 77.8075L75.4799 77.8215C75.5915 77.8633 75.7031 77.9331 75.8008 78.0308C76.317 78.4772 76.2612 79.0632 76.1217 79.4678C75.6473 80.9048 73.429 82.5929 71.4897 82.9975C71.3223 83.0394 71.1409 83.0673 70.9735 83.0813C70.7503 83.0952 70.541 83.1092 70.3317 83.1092C68.9784 83.1092 67.8065 82.7325 67.1508 82.0767C66.7462 81.6861 66.5648 81.2117 66.5927 80.7095C66.6346 80.1654 66.8717 79.9561 67.1089 79.8166C67.7088 79.4678 68.7273 79.4399 69.4807 79.4259H69.4947C70.0806 79.412 70.6945 79.398 71.1828 79.2864C71.7688 79.1469 72.3966 78.826 72.9965 78.5191C73.6941 78.1703 74.4754 77.7657 75.0892 77.7657ZM75.0892 76.7891C74.2242 76.7891 73.3314 77.2495 72.5501 77.6541C71.992 77.9331 71.4339 78.2261 70.9596 78.3377C70.5689 78.4214 69.9969 78.4354 69.4528 78.4493C68.5738 78.4772 67.4159 78.5051 66.6067 78.9795C66.0626 79.3004 65.6859 79.8026 65.6161 80.6397C65.5603 81.421 65.8533 82.1744 66.4532 82.7604C67.3042 83.6114 68.6994 84.0858 70.3178 84.0858C70.555 84.0858 70.7921 84.0718 71.0433 84.0579C71.2526 84.0439 71.4758 84.0021 71.685 83.9602C73.9173 83.4858 76.4426 81.5745 77.0425 79.7747C77.3634 78.826 77.1401 77.9191 76.4426 77.3053C76.2333 77.1239 76.024 76.9983 75.8008 76.9146C75.5776 76.8309 75.3404 76.7891 75.0892 76.7891Z" fill="#1A1B16"/>
</g>
<defs>
<clipPath id="clip0_2_2990">
<rect width="150" height="150" rx="75" fill="white"/>
</clipPath>
</defs>
</svg>
