<svg width="150" height="150" viewBox="0 0 150 150" fill="none" xmlns="http://www.w3.org/2000/svg">
<g clip-path="url(#clip0_2_3289)">
<rect width="150" height="150" rx="75" fill="#91C8FB"/>
<path d="M101.512 41.9557L48.2388 70.1247C48.0697 69.7924 47.9088 69.4387 47.7545 69.0998C47.6338 68.8346 47.5131 68.5693 47.414 68.3121C40.4105 51.8994 46.6413 33.4078 61.5758 26.6952C73.6748 21.2571 87.8586 25.1947 96.9301 35.424C98.6537 37.365 100.207 39.5601 101.512 41.9557Z" fill="#0064C8"/>
<path d="M81.8708 24.8835C81.8708 24.8835 72.2931 24.295 80.83 6.11295C85.3234 14.8711 85.5072 22.2181 81.8708 24.8835Z" fill="#0061CB"/>
<path d="M82.8642 25.2175C82.8642 25.2175 82.5656 18.6828 97.4152 15.8611C92.9136 22.9453 86.4329 26.756 82.8642 25.2175Z" fill="#0061CB"/>
<path d="M85.471 25.1862C85.6454 23.6628 84.2822 22.2353 82.4261 21.9979C80.57 21.7604 78.924 22.803 78.7495 24.3265C78.575 25.8499 79.9382 27.2774 81.7943 27.5148C83.6504 27.7523 85.2965 26.7097 85.471 25.1862Z" fill="#0061CB" stroke="#F9BD64" stroke-width="1.04356" stroke-miterlimit="10"/>
<path d="M85.471 25.1862C85.6454 23.6628 84.2822 22.2353 82.4261 21.9979C80.57 21.7604 78.924 22.803 78.7495 24.3265C78.575 25.8499 79.9382 27.2774 81.7943 27.5148C83.6504 27.7523 85.2965 26.7097 85.471 25.1862Z" fill="#0061CB" stroke="#F9BD64" stroke-width="1.04356" stroke-miterlimit="10"/>
<path d="M126.725 78.7981C122.593 67.7933 118.713 64.8748 108.996 64.96C103.958 65.0034 101.813 59.4838 101.909 51.8444L103.975 51.6725L105.864 51.5449C105.864 51.5449 104.047 42.8163 96.404 36.1438C91.7486 32.0828 84.6884 28.1164 75.095 29.4437C54.1753 32.3329 46.9013 46.7856 48.1881 64.7375C48.2175 65.1511 48.2253 65.5567 48.2264 65.9476C48.1712 72.3942 44.0042 78.2156 37.7311 80.1181C37.606 80.157 37.4662 80.2027 37.3196 80.2336C28.6428 82.6216 13.2598 92.9254 21.1555 107.257C15.7409 106.636 10.9944 113.645 12.5199 119.837C33.6118 115.963 143.738 94.2243 143.738 94.2243C143.738 94.2243 140.086 77.5409 126.725 78.7981Z" fill="#F52A21"/>
<path d="M49.2523 83.1461C47.5323 85.3715 45.4377 87.7874 45.7625 90.61C46.0586 93.213 48.3729 95.2617 48.5529 97.8824C48.7513 100.817 46.2558 103.131 44.8774 105.718C43.3519 108.606 43.2297 112.279 44.7951 115.139C46.3605 117.998 49.6838 119.886 52.895 119.498C55.9033 119.132 58.4887 116.937 59.9428 114.244C61.3969 111.55 61.8614 108.435 61.9991 105.382C62.3912 95.9795 59.7327 86.6945 55.947 78.0904C55.1679 76.3367 52.1263 72.4925 51.5544 76.2298C51.1594 78.9903 51.1001 80.7724 49.2523 83.1461Z" fill="#D6261D"/>
<path d="M20.6562 106.922C20.6562 106.922 22.865 110.078 26.0058 111.029" stroke="#BF3028" stroke-width="1.30446" stroke-miterlimit="10" stroke-linecap="round" stroke-linejoin="round"/>
<path d="M126.91 79.5718C126.91 79.5718 124.825 79.2387 121.254 80.5935" stroke="#BF3028" stroke-width="1.30446" stroke-miterlimit="10" stroke-linecap="round" stroke-linejoin="round"/>
<path d="M55.8516 60.0557C55.8516 60.0557 57.6497 62.0906 58.7291 65.3779" stroke="#BF3028" stroke-width="1.30446" stroke-miterlimit="10" stroke-linecap="round" stroke-linejoin="round"/>
<path d="M63.3407 54.1509L62.928 50.3946" stroke="#BF3028" stroke-width="1.30446" stroke-miterlimit="10" stroke-linecap="round" stroke-linejoin="round"/>
<path d="M60.1055 188.615L61.5542 169.336C56.0452 176.176 35.3028 179.526 22.8137 170.107L15.5757 216.06L6.73171 245.463L-2.2825 185.8L-2.41925 184.92C-2.76261 182.658 -3.10597 180.396 -3.44933 178.134C-4.17161 173.377 -4.88586 168.598 -5.60815 163.842C-6.2538 159.601 -6.88464 155.354 -7.53707 151.099C-8.10482 147.338 -8.58075 143.661 -7.95984 139.88C-7.44002 136.695 -6.29729 133.621 -4.6404 130.847C-1.27288 125.223 4.20167 121.029 10.5185 119.211C11.0707 119.05 11.6513 118.913 12.2171 118.782L53.2387 109.909L53.3023 111.835C55.0645 113.955 61.4819 120.284 73.4838 117.411C87.8161 113.967 90.966 106.237 90.966 106.237L90.9478 101.767C90.9478 101.767 127.218 93.9173 127.233 93.9107C129.833 93.3421 132.481 93.0718 135.148 93.0771C137.764 93.0877 140.384 93.3806 142.937 93.9529C145.468 94.5173 147.939 95.3398 150.299 96.4257C153.024 97.6843 155.599 99.2773 157.946 101.151C160.214 102.971 162.275 105.08 164.038 107.395C164.791 108.371 165.491 109.388 166.139 110.446L180.231 133.377L60.1055 188.615Z" fill="white"/>
<path d="M-8.44236 143.979C-7.66023 142.882 -6.767 142.109 -5.81337 141.666C-4.35423 141.006 -2.66599 141.206 -1.6975 142.171C-0.986829 142.88 -0.579943 144.017 -0.532941 145.535C-0.425562 148.602 -1.46857 151.558 -2.74933 154.302C-3.70512 155.212 -4.28033 156.375 -4.37508 157.619C-4.39622 157.808 -4.27994 157.986 -4.07973 158.037C-3.89418 158.094 -3.70346 158.005 -3.60356 157.833C-3.10817 156.887 -2.57417 155.869 -2.08159 154.798C-1.82829 154.573 -1.55363 154.356 -1.22957 154.169C0.274668 153.256 2.08526 153.059 3.52043 153.682C6.35602 154.89 7.83599 158.716 6.67842 161.851C5.61406 164.799 2.57925 166.961 -0.86458 167.236C-1.06739 167.258 -1.23934 167.428 -1.23244 167.64C-1.22554 167.851 -1.07323 168.031 -0.857046 168.038C1.20079 168.193 3.22495 169.294 4.67735 171.056C6.13644 172.832 6.83003 175.035 6.59741 177.113C6.36478 179.191 5.18998 181.188 3.39403 182.595C2.37006 183.393 1.16572 183.989 -0.120377 184.246C-0.963537 184.423 -1.83216 184.504 -2.66107 184.28L-2.52667 185.167C-2.50531 185.175 -2.48396 185.183 -2.44793 185.184C-1.81664 185.285 -1.18017 185.24 -0.563771 185.15C0.320812 185.026 1.18124 184.77 2.00283 184.388C2.66304 184.081 3.28979 183.7 3.87643 183.231C5.85771 181.684 7.13371 179.479 7.39547 177.19C7.65722 174.901 6.87798 172.469 5.29462 170.536C4.18828 169.187 2.78074 168.193 1.25625 167.648C4.12167 166.8 6.48936 164.733 7.44865 162.102C8.72856 158.57 7.04924 154.264 3.84386 152.905C2.25249 152.211 0.255053 152.387 -1.41596 153.325C-0.391092 150.878 0.39603 148.22 0.290368 145.511C0.229779 143.766 -0.242692 142.445 -1.12165 141.599C-2.31321 140.416 -4.37385 140.137 -6.12642 140.933L-6.17043 140.954C-6.99202 141.335 -7.74134 141.916 -8.43305 142.703L-8.44236 143.979Z" fill="#F77C2D"/>
<path d="M103.481 144.478C103.407 144.512 103.32 144.516 103.226 144.506C103.01 144.462 102.857 144.247 102.9 144.031C103.22 142.403 103.893 140.882 104.541 139.425C104.908 138.597 105.29 137.762 105.593 136.909C106.182 135.284 106.917 132.235 105.327 130.021C103.945 128.103 100.949 127.443 98.5208 128.521C96.4022 129.456 94.6237 131.556 93.6733 134.293C93.5293 134.716 93.3921 135.153 93.2843 135.578C93.3576 137.827 93.0755 140.08 92.4481 142.24C92.3982 142.442 92.1842 142.558 91.9895 142.522C91.7948 142.486 91.641 142.307 91.6547 142.105C91.7896 139.92 91.9336 137.677 92.4817 135.5C92.4371 134.396 92.3053 133.297 92.0784 132.224C91.7015 130.398 91.0558 129.267 90.0939 128.727C89.2814 128.279 88.4436 128.396 87.8865 128.58C86.7871 128.941 85.8164 129.814 85.3188 130.863C84.4233 132.79 84.7026 135.177 84.9244 137.091C84.9537 137.31 84.7951 137.507 84.5619 137.543C84.3434 137.572 84.1454 137.413 84.1093 137.18C83.8762 135.164 83.5789 132.66 84.5753 130.526C85.1591 129.277 86.3166 128.229 87.621 127.81C88.6468 127.482 89.6237 127.551 90.486 128.03C91.6618 128.686 92.4466 130.003 92.8664 132.076C92.9601 132.551 93.039 133.032 93.1112 133.498C94.1758 130.816 96.011 128.762 98.1884 127.799C100.976 126.574 104.397 127.343 105.994 129.572C107.799 132.098 107.003 135.442 106.359 137.218C106.049 138.092 105.659 138.949 105.291 139.777C104.651 141.212 103.988 142.676 103.699 144.217C103.689 144.311 103.598 144.424 103.481 144.478Z" fill="#F77C2D"/>
<path d="M154.836 98.6592C154.414 100.842 153.002 103.01 150.975 103.924C150.354 104.204 149.678 104.366 148.963 104.368C146.105 104.411 144.049 102.206 142.56 99.834C142.761 101.043 142.873 102.291 142.73 103.53C142.506 105.482 141.464 107.91 139.215 108.924L139.185 108.937C137.729 109.576 136.026 109.489 134.377 108.667C132.885 107.916 131.594 106.629 130.841 105.154C130.389 104.254 130.086 103.287 129.884 102.31C129.368 104.056 128.577 105.711 127.515 107.205C125.513 110.03 121.822 111.907 119.153 110.156C117.669 109.188 116.855 107.349 116.71 104.673C116.554 101.861 116.969 99.0042 117.887 96.3479L118.827 96.1377C117.82 98.834 117.36 101.747 117.513 104.632C117.638 107.031 118.342 108.671 119.591 109.479C121.082 110.461 124.332 110.26 126.831 106.73C128.275 104.709 129.206 102.313 129.572 99.8531C129.495 98.4104 129.571 96.9881 129.62 95.7022C129.627 95.4855 129.801 95.3184 130.012 95.312C130.224 95.3056 130.401 95.4571 130.43 95.6752C130.596 97.0778 130.578 98.5096 130.386 99.913C130.484 101.595 130.778 103.278 131.552 104.797C132.845 107.364 136.139 109.385 138.83 108.207L138.86 108.194C140.798 107.32 141.715 105.163 141.902 103.441C142.13 101.38 141.637 99.3069 141.171 97.2924C141.119 97.1023 141.236 96.8897 141.435 96.8177C141.634 96.7457 141.842 96.8477 141.938 97.0177C144.819 102.944 147.32 103.596 148.938 103.578C151.119 103.538 153.613 101.506 154.063 98.2246C154.336 98.3508 154.586 98.505 154.836 98.6592Z" fill="#F77C2D"/>
<path d="M136.522 135.261C136.374 135.328 136.2 135.3 136.073 135.179C134.405 133.582 131.772 129.858 131.855 126.67C131.885 125.304 132.418 124.174 133.422 123.329C134.232 122.644 135.259 122.43 136.453 122.692C138.088 123.058 139.875 124.334 141.337 125.757C141.232 125.413 141.149 125.041 141.088 124.677C140.747 122.623 141.316 120.605 142.602 119.402C144.685 117.448 148.072 117.931 150.189 119.379C152.427 120.896 153.813 123.315 155.041 125.43C155.151 125.63 155.085 125.873 154.884 125.981C154.684 126.09 154.438 126.022 154.328 125.823C153.149 123.774 151.805 121.444 149.723 120.034C147.221 118.333 144.475 118.735 143.144 119.994C142.061 121.017 141.566 122.77 141.872 124.554C142.067 125.712 142.541 126.815 143.12 127.836C143.504 128.357 143.808 128.86 143.997 129.309C144.085 129.5 144.012 129.729 143.827 129.83C143.641 129.932 143.396 129.865 143.293 129.68C142.987 129.212 142.697 128.738 142.414 128.243C140.985 126.271 138.415 123.96 136.281 123.481C135.348 123.279 134.563 123.438 133.956 123.943C133.131 124.635 132.7 125.559 132.685 126.687C132.609 129.462 134.949 132.981 136.645 134.6C136.808 134.758 136.814 135.005 136.656 135.165C136.604 135.207 136.566 135.241 136.522 135.261Z" fill="#F77C2D"/>
<path d="M105.824 112.917C106.583 113.211 107.111 113.701 106.866 114.331C106.621 114.961 105.822 115.238 105.049 114.951C104.29 114.657 103.556 113.799 103.786 113.175C104.017 112.552 105.05 112.63 105.824 112.917Z" fill="#F77C2D"/>
<path d="M18.762 148.433C18.2251 148.038 17.9378 147.527 18.2637 147.073C18.5963 146.633 19.292 146.598 19.829 146.993C20.3659 147.389 20.7363 148.236 20.4104 148.69C20.0778 149.13 19.2843 148.835 18.762 148.433Z" fill="#F77C2D"/>
<path d="M41.4132 116.345C41.8387 118.238 41.7693 119.676 41.2058 120.857C41.0255 121.241 40.7885 121.579 40.5016 121.887C38.8388 123.705 35.6758 123.973 33.4083 122.929C31.3988 122.018 29.844 120.35 28.5655 118.7C28.973 120.476 29.2167 122.361 28.7624 124.205C28.1626 126.702 25.8168 129.131 23.055 128.719C20.6989 128.374 19.2428 126.145 18.5867 124.838C17.3697 122.429 16.8193 119.685 16.9737 116.997L17.8028 116.819C17.6144 119.433 18.1295 122.14 19.3126 124.475C19.9007 125.635 21.1901 127.619 23.1836 127.913C25.409 128.246 27.4666 126.16 27.9896 124.001C28.5482 121.647 27.8884 119.13 27.2985 116.92C27.2465 116.729 27.3401 116.545 27.5107 116.45C27.6882 116.37 27.8905 116.421 28.0164 116.578C29.5352 118.672 31.256 121.05 33.7608 122.183C36.0498 123.235 39.3792 122.785 40.4822 120.488C40.967 119.486 41.0088 118.22 40.6285 116.503C40.2989 115.013 39.7851 113.588 39.079 112.25L39.8933 112.078C40.563 113.415 41.0836 114.855 41.4132 116.345Z" fill="#F77C2D"/>
<path d="M99.5834 52.05C99.6029 52.3263 99.6157 52.5879 99.642 52.8789C99.7092 53.882 99.7966 54.9294 99.8681 56.0198C100.291 61.8872 101.111 68.8561 101.058 74.6564C100.924 87.6416 91.9124 92.0701 91.9124 92.0701L91.9361 97.7281L91.9699 105.628C91.9699 105.628 88.8375 113.39 74.5676 116.892C62.61 119.835 56.2164 113.51 54.4685 111.368L53.506 79.1334L53.4905 77.8926C52.1653 77.1801 51.0362 76.0392 50.3543 74.5509C49.7332 73.1952 49.5722 71.7536 49.8006 70.3834C49.8339 70.2612 49.8603 70.1243 49.9083 69.9954C50.4957 67.8904 52.1009 64.0359 56.7413 64.3539C60.4769 64.6046 59.3503 74.604 62.6002 74.4175C65.4503 74.2537 63.598 59.0757 63.1019 55.3454C63.0401 54.8211 62.9923 54.5221 62.9923 54.5221L73.7563 53.8015L75.4161 46.8737L80.1205 53.3659L99.5834 52.05Z" fill="#F8934F"/>
<path d="M58.561 73.438C58.561 73.438 55.8776 74.6654 54.5774 72.4613C53.2772 70.2572 54.9469 68.2844 54.9469 68.2844C55.6236 68.7571 56.2695 69.2799 56.8326 69.8948C57.7581 70.878 58.4363 72.1011 58.561 73.438Z" fill="#F77C2D"/>
<path d="M54.9727 68.2671C54.9727 68.2671 53.3101 70.2564 54.6008 72.4497C55.8982 74.6578 58.5797 73.4306 58.5797 73.4306C58.4561 72.0917 57.7727 70.8516 56.8702 69.8744C55.9676 68.8971 54.8552 68.1248 53.7255 67.4321" stroke="#BF3028" stroke-width="1.30446" stroke-miterlimit="10" stroke-linecap="round" stroke-linejoin="round"/>
<path d="M61.4527 101.792C61.9386 103.307 61.748 105.008 61.0137 106.405C60.6199 107.143 60.0929 107.781 59.8271 108.567C59.3671 109.945 59.8104 111.444 59.9819 112.888C60.0918 113.842 60.0779 114.834 59.7935 115.737C56.7781 114.26 54.9185 112.286 54.084 111.255L53.194 78.8L53.1828 77.9087C53.8916 78.2269 54.7843 78.6394 54.9832 79.1213C55.4515 80.3215 54.909 81.5941 55.6638 82.8413C56.3505 83.9765 57.4887 84.7778 58.0942 85.9684C59.5615 88.841 57.2595 92.3784 57.997 95.5163C58.5688 97.8521 60.7065 99.5006 61.4527 101.792Z" fill="#F77C2D"/>
<path d="M100.138 52.0064C100.156 52.2815 100.168 52.5418 100.194 52.8315C98.6528 53.8432 96.7648 54.3728 94.9107 54.5861C92.4993 54.8726 90.0745 54.7399 87.6604 54.9035C84.6243 55.1165 81.6136 55.8141 78.5843 55.6519C77.0042 55.5648 75.4255 55.2467 73.8278 55.2383C72.3395 55.234 70.8484 55.4966 69.3559 55.6004C68.2292 55.6816 65.1296 55.8345 63.4471 55.1732C63.3865 54.6512 63.3394 54.3535 63.3394 54.3535L74.1643 53.6696L75.8543 46.7794L80.5645 53.2558L100.138 52.0064Z" fill="#F77C2D"/>
<path d="M100.036 55.8357C100.039 55.9592 100.753 64.5669 101.014 68.7986C101.12 70.5871 101.191 72.3381 101.199 73.9927C101.196 74.2974 101.201 74.5805 101.199 74.8489C101.067 87.8392 92.0591 92.2701 92.0591 92.2701L92.0676 94.7809L92.0639 94.8896C91.3897 95.0915 90.7032 95.2278 90.0113 95.313C87.4406 95.6172 84.697 95.0375 82.6776 93.4305C86.3939 93.1364 90.0878 92.0143 93.1147 89.8247C96.1483 87.6498 98.4437 84.3687 99.0839 80.7047C99.4247 78.8008 99.7682 64.0908 99.7406 61.9277C99.7336 60.8608 99.6032 59.7971 99.5961 58.7303C99.5914 58.019 99.5446 56.6316 100.036 55.8357Z" fill="#F9AF79"/>
<path d="M91.7692 92.294L91.7918 97.9474C89.7426 98.1888 81.9636 98.6253 78.3985 92.2925C78.3905 92.3139 84.387 95.5413 91.7692 92.294Z" fill="#BF3028"/>
<path d="M53.6836 77.8701C53.6836 77.8701 55.3885 78.8556 57.3484 78.411" stroke="#BF3028" stroke-width="1.30446" stroke-miterlimit="10" stroke-linecap="round" stroke-linejoin="round"/>
<path d="M86.7359 74.0255C87.9955 74.623 90.9863 71.4349 89.6784 69.9547C88.9935 69.1667 83.6939 72.5894 86.7359 74.0255Z" fill="#F77C2D"/>
<path d="M87.7749 84.6867C87.7597 85.3149 86.8457 85.2345 85.7339 85.191C84.6221 85.1475 83.711 85.19 83.741 84.5552C83.7711 83.9203 84.7634 83.2374 85.8832 83.2594C86.995 83.3029 87.805 84.0519 87.7749 84.6867Z" fill="#F77C2D"/>
<path d="M80.35 68.0727C80.3147 68.8923 80.0122 69.4783 79.4122 69.452C78.7974 69.4325 78.3283 68.7567 78.3636 67.9371C78.399 67.1175 78.9277 66.4805 79.5277 66.5068C80.121 66.5184 80.3854 67.2531 80.35 68.0727Z" fill="#1A1B16"/>
<path d="M95.2534 67.1308C95.2193 67.9143 94.9328 68.4572 94.3757 68.4468C93.8119 68.4217 93.3777 67.7832 93.4118 66.9998C93.446 66.2163 93.9304 65.5997 94.4942 65.6249C95.058 65.65 95.2875 66.3474 95.2534 67.1308Z" fill="#1A1B16"/>
<path d="M72.7515 62.4155C75.172 61.1616 77.9982 60.6805 80.7149 61.0601" stroke="#BF3028" stroke-width="1.30446" stroke-miterlimit="10" stroke-linecap="round" stroke-linejoin="round"/>
<path d="M92.4922 60.2229C94.637 59.9406 96.8575 60.1733 98.8912 60.9339" stroke="#BF3028" stroke-width="1.30446" stroke-miterlimit="10" stroke-linecap="round" stroke-linejoin="round"/>
<path d="M87.8309 73.7921C88.364 73.4013 88.9037 73.0254 89.3325 72.5218C89.7613 72.0182 90.0646 71.3937 90.0663 70.73C90.0519 69.9126 89.5587 69.174 89.1802 68.4539C88.3752 66.9465 87.974 65.2336 88.005 63.5351" stroke="#BF3028" stroke-width="1.30446" stroke-miterlimit="10" stroke-linecap="round" stroke-linejoin="round"/>
<path d="M79.8648 76.2384C79.8648 76.2384 82.3107 81.9079 87.4439 80.8582C90.5193 80.234 90.9863 76.8931 90.9863 76.8931C90.9863 76.8931 89.4176 76.4376 87.2517 78.0675C85.18 76.8291 79.4953 74.9681 79.8648 76.2384Z" fill="#F52A21"/>
<path d="M79.582 76.0312C79.582 76.0312 83.4534 79.1121 87.0216 79.1219C89.2643 79.1311 90.985 76.8777 90.985 76.8777" stroke="#BF3028" stroke-width="1.30446" stroke-miterlimit="10" stroke-linecap="round" stroke-linejoin="round"/>
</g>
<defs>
<clipPath id="clip0_2_3289">
<rect width="150" height="150" rx="75" fill="white"/>
</clipPath>
</defs>
</svg>
