<svg width="150" height="150" viewBox="0 0 150 150" fill="none" xmlns="http://www.w3.org/2000/svg">
<g clip-path="url(#clip0_2_3488)">
<rect width="150" height="150" rx="75" fill="#98C1FF"/>
<path d="M243.367 81.5806L238.858 175.712C237.788 192.242 222.577 204.441 205.82 202.191L199.635 201.011L195.663 200.252L172.558 195.847L168.586 195.088L155.193 192.52C155.193 192.52 162.803 212.679 169.022 225.585C156.936 228.031 144.263 236.071 130.609 243.01C130.357 243.137 130.12 243.261 129.869 243.388C129.632 243.511 129.408 243.616 129.172 243.739C128.904 243.87 128.637 244.002 128.369 244.133C127.924 244.357 127.491 244.561 127.046 244.785C126.72 244.947 126.377 245.113 126.031 245.264C125.555 245.495 125.074 245.711 124.598 245.943C111.842 251.876 98.2308 256.087 83.4375 253.47C50.1233 247.58 31.8212 258.934 31.8212 258.934L22.9365 264.047C0.309392 277.069 -28.7914 267.755 -39.1532 244.197L-55.5893 213.245L-56.013 212.433L-58.3901 207.943L-58.5901 207.551L-72.7549 180.868L-50.3248 165.293L-45.549 161.975L-44.9938 161.593L-13.0964 201.021L-11.3093 172.629C-9.63508 146.098 9.73283 123.795 36.2083 117.896L114.529 100.453C131.825 96.5966 149.932 100.871 163.525 111.999L181.895 127.059L185.443 129.968L195.512 138.213L208.179 79.31L219.191 80.0084L223.27 80.2666L243.367 81.5806Z" fill="#EDE3EB"/>
<path d="M14.907 122.436L12.6457 136.478L12.0027 140.458L8.2791 163.565L7.6361 167.545L3.91245 190.652L3.26945 194.632L-0.454192 217.738L-1.09719 221.719L-4.82084 244.825L-5.46384 248.805L-8.64758 268.58C-9.91922 268.262 -11.1623 267.87 -12.4027 267.426L-9.29224 248.107L-8.64925 244.127L-4.9256 221.02L-4.2826 217.04L-0.558957 193.933L0.084037 189.953L3.80769 166.847L4.45069 162.866L8.17434 139.76L8.81734 135.78L10.4465 125.698C11.8603 124.536 13.3585 123.451 14.907 122.436Z" fill="#C9CEEF"/>
<path d="M40.8587 113.864L44.9569 112.83L44.6042 115.038L43.9613 119.018L40.2379 142.121L39.5949 146.101L35.8715 169.204L35.2286 173.183L31.5052 196.287L30.8623 200.266L27.1389 223.37L26.4959 227.349L22.7725 250.453L22.1296 254.432L20.1207 266.862C18.7376 267.529 17.3299 268.103 15.8976 268.584L18.2999 253.734L18.9429 249.754L22.6662 226.651L23.3092 222.671L27.0326 199.568L27.6755 195.589L31.3989 172.485L32.0419 168.506L35.7653 145.402L36.4082 141.423L40.1316 118.32L40.7745 114.34L40.8587 113.864Z" fill="#C9CEEF"/>
<path d="M70.6087 107.731L74.7222 106.693L72.4638 120.681L71.8209 124.661L68.0975 147.763L67.4546 151.743L63.7312 174.846L63.0883 178.825L59.365 201.928L58.722 205.907L54.9987 229.01L54.3558 232.989L50.9783 253.919C49.5159 254.224 48.1447 254.57 46.8716 254.922L50.5258 232.291L51.1687 228.311L54.8921 205.209L55.535 201.229L59.2583 178.127L59.9013 174.147L63.6246 151.045L64.2676 147.065L67.9909 123.963L68.6338 119.983L70.6087 107.731Z" fill="#C9CEEF"/>
<path d="M104.166 100.542L103.733 103.241L100.009 126.347L99.3663 130.327L95.6427 153.434L94.9997 157.414L91.2761 180.52L90.6331 184.5L86.9095 207.606L86.2665 211.586L82.5429 234.692L81.8999 238.672L79.4623 253.818C78.1376 253.666 76.836 253.54 75.5767 253.454L78.0713 237.974L78.7143 233.993L82.4379 210.887L83.0809 206.907L86.8045 183.801L87.4475 179.821L91.1711 156.715L91.814 152.735L95.5376 129.629L96.1806 125.649L99.9042 102.543L100.053 101.58L104.166 100.542Z" fill="#C9CEEF"/>
<path d="M128.945 98.042C130.249 98.1163 131.535 98.2458 132.819 98.4263L131.773 104.913L131.13 108.893L127.406 132L126.763 135.98L123.04 159.087L122.397 163.068L118.673 186.174L118.03 190.155L114.306 213.261L113.663 217.242L109.94 240.349L109.297 244.329L107.631 254.639C106.29 254.976 104.922 255.271 103.557 255.516L105.472 243.646L106.115 239.666L109.839 216.559L110.482 212.579L114.206 189.472L114.849 185.491L118.573 162.385L119.216 158.404L122.939 135.298L123.582 131.317L127.306 108.21L127.949 104.23L128.945 98.042Z" fill="#C9CEEF"/>
<path d="M159.312 109.717L159.175 110.542L158.532 114.523L154.808 137.631L154.161 141.596L150.437 164.704L149.794 168.685L146.07 191.793L145.427 195.774L141.703 218.882L141.06 222.862L137.909 242.395C136.477 243.244 135.027 244.081 133.572 244.903L137.217 222.168L137.86 218.187L141.584 195.079L142.227 191.099L145.951 167.99L146.594 164.01L150.318 140.901L150.961 136.921L154.685 113.813L155.328 109.832L155.744 107.255C156.972 108.02 158.153 108.849 159.312 109.717Z" fill="#C9CEEF"/>
<path d="M166.849 221.813C167.38 222.901 167.911 223.989 168.446 225.027C167.657 225.194 166.873 225.377 166.081 225.594L166.066 225.662L165.925 225.633L162.101 224.956L138.989 220.888L134.992 220.19L111.88 216.122L107.899 215.419L84.7867 211.351L80.8056 210.649L57.6935 206.581L53.7124 205.879L30.6003 201.81L26.6193 201.108L3.50716 197.04L-0.473917 196.338L-13.0458 194.129L-12.8606 190.171L0.222276 192.478L4.20335 193.18L27.3155 197.248L31.2965 197.951L54.4003 201.988L58.3814 202.691L81.4935 206.759L85.4745 207.461L108.587 211.529L112.568 212.231L135.68 216.299L139.661 217.002L162.773 221.07L166.754 221.772L166.849 221.813Z" fill="#C9CEEF"/>
<path d="M154.995 191.294C154.995 191.294 156.397 194.769 156.744 195.611L144.591 193.462L140.611 192.76L117.504 188.696L113.524 187.994L90.4166 183.929L86.4364 183.228L63.3294 179.163L59.3492 178.462L36.2421 174.397L32.2619 173.696L9.15487 169.631L5.17467 168.93L-10.4673 166.166C-10.2581 164.858 -9.98958 163.583 -9.70546 162.305L5.86157 165.039L9.84177 165.74L32.9488 169.805L36.929 170.506L60.0361 174.571L64.0163 175.272L87.1233 179.337L91.1035 180.038L114.211 184.103L118.191 184.804L141.298 188.869L145.278 189.57L154.995 191.294Z" fill="#C9CEEF"/>
<path d="M238.44 179.281C238.148 180.593 237.772 181.845 237.306 183.071L231.587 182.058L227.605 181.355L204.487 177.282L200.505 176.579L177.387 172.507L173.405 171.804L150.288 167.732L146.306 167.029L123.188 162.956L119.206 162.253L96.0886 158.181L92.1066 157.478L68.989 153.406L65.007 152.703L41.8894 148.63L37.9074 147.927L14.7898 143.855L10.8078 143.152L1.24778 141.465C2.15305 140.259 3.08644 139.094 4.08335 137.978L11.505 139.293L15.487 139.996L38.6046 144.068L42.5866 144.771L65.7042 148.844L69.6862 149.547L92.8038 153.619L96.7858 154.322L119.903 158.394L123.885 159.097L147.003 163.17L150.985 163.873L174.103 167.945L178.085 168.648L201.202 172.72L205.184 173.423L228.302 177.496L232.284 178.199L238.44 179.281Z" fill="#C9CEEF"/>
<path d="M240.68 152.034L240.563 156.006L237.249 155.426L233.265 154.722L210.141 150.644L206.158 149.94L183.033 145.862L179.05 145.158L155.921 141.065L151.938 140.361L128.813 136.282L124.83 135.578L101.705 131.5L97.7219 130.796L74.5973 126.718L70.614 126.014L47.4894 121.936L43.5062 121.232L33.5382 119.466C34.6816 119.129 35.8375 118.837 36.9975 118.56L43.1114 117.162L44.1965 117.344L48.1797 118.048L71.3043 122.126L75.2876 122.83L98.4122 126.908L102.395 127.612L125.52 131.69L129.503 132.394L152.628 136.472L156.611 137.176L179.736 141.254L183.719 141.958L206.844 146.036L210.827 146.74L233.952 150.818L237.935 151.523L240.68 152.034Z" fill="#C9CEEF"/>
<path d="M170.325 115.273L161.568 113.723L157.585 113.02L134.463 108.943L130.48 108.239L107.357 104.162L103.374 103.459L101.164 103.072L103.535 102.522L107.824 101.536L110.996 100.799L131.174 104.366L135.157 105.07L158.28 109.146L162.263 109.85L163.859 110.131C164.152 110.35 164.431 110.573 164.728 110.807L170.325 115.273Z" fill="#C9CEEF"/>
<path d="M141.535 151.451L156.118 196.986" stroke="#1A1B16" stroke-width="1.56182" stroke-miterlimit="10" stroke-linecap="round" stroke-linejoin="round"/>
<path d="M71.7271 122.09C71.7271 122.09 75.0305 191.391 98.8069 255.616" stroke="#1A1B16" stroke-width="1.56182" stroke-miterlimit="10" stroke-linecap="round" stroke-linejoin="round"/>
<path d="M51.9656 58.7316L53.4199 45.4575C54.1663 40.1693 58.2718 35.851 63.3843 34.2005L90.9678 32.7095C96.7092 33.6147 103.983 38.3271 103.888 49.4803L103.197 70.4279L75.3295 74.1616L51.9656 58.7316Z" fill="#FACC73"/>
<path d="M66.0542 49.927C68.318 50.1285 78.8639 50.1355 81.1404 50.075C82.2552 50.0507 83.4027 50.1475 84.4955 49.9184C85.5882 49.6894 86.6879 49.0541 87.0449 48.0251C87.4209 46.9426 86.8332 45.7005 85.9178 44.9785C85.0023 44.2565 83.8089 43.9286 82.6482 43.7219C80.13 43.2614 77.5612 43.1697 75.0193 43.3623C72.7559 43.5328 61.1205 43.026 59.1313 44.1461C54.3763 46.7938 64.2385 49.7734 66.0542 49.927Z" fill="#F9BD64"/>
<path d="M103.897 53.1363L103.401 69.048C102.639 68.1088 101.876 67.1696 101.129 66.2262C100.2 65.083 99.2274 63.835 99.0639 62.3436C98.9285 61.1451 99.3172 59.8499 98.8204 58.7527C98.3358 57.7022 97.2139 57.1811 96.2715 56.5429C94.7541 55.4978 92.2582 52.8722 93.8755 50.8985C95.3226 49.1397 99.0569 51.0005 100.788 51.5014C101.678 51.7533 102.595 52.0476 103.339 52.6077C103.546 52.7834 103.735 52.9479 103.897 53.1363Z" fill="#F9BD64"/>
<path d="M103.728 73.7928C102.865 76.421 100.94 78.3732 98.7213 79.2211L97.3336 118.039L54.0424 117.714C54.0424 117.714 56.6336 101.127 56.7069 95.6105C48.2257 91.262 49.8864 68.5173 51.5426 55.722C51.7232 54.3307 51.9001 53.0566 52.0695 51.9505C52.0695 51.9505 68.3712 60.7164 87.6731 48.2562C89.5204 48.7652 89.3533 48.8244 90.8469 49.3737C90.7129 50.6867 90.5601 52.5193 90.4544 54.6057C90.2509 58.876 90.2823 64.2159 91.2643 68.3335C91.5381 69.4927 93.1555 69.6119 93.5853 68.4893C93.9881 67.4566 94.4335 66.3963 95.1242 65.5227C96.8081 63.3995 99.9724 63.2904 101.903 65.1898C103.982 67.2175 104.804 70.5623 103.728 73.7928Z" fill="#F8934F"/>
<path d="M62.4364 97.4882L56.2943 98.0738L56.4943 95.5754C56.4943 95.5754 56.4598 95.5675 56.3872 95.5359C56.3952 95.4332 56.3916 95.3503 56.3996 95.2477C48.0644 90.8142 49.8121 67.8396 51.5067 54.9184C51.6915 53.5134 51.9485 52.2743 52.117 51.1416C52.117 51.1416 52.1819 51.2088 53.3139 51.7231L52.1252 70.2301C51.7834 73.9045 51.9027 83.9304 53.3277 87.3028C55.6533 92.8076 59.6301 95.9616 62.4364 97.4882Z" fill="#F9AF79"/>
<path d="M98.6424 79.7576L97.5157 111.17C93.7566 113.59 89.8338 115.753 85.5088 116.706C84.1448 117.004 82.6096 117.146 81.4655 116.342C80.4032 115.599 79.9618 114.167 80.1309 112.862C80.2844 111.56 80.9668 110.39 81.7271 109.332C82.79 107.899 84.0748 106.625 85.5309 105.572C86.7501 104.697 88.1289 103.93 88.8927 102.623C90.0365 100.653 89.3835 98.1126 90.0955 95.938C91.1364 92.7661 94.9352 90.9007 95.3772 87.5825C95.8423 84.0922 92.7414 79.6343 98.3274 79.6884C98.4363 79.7271 98.5413 79.7502 98.6424 79.7576Z" fill="#F77C2D"/>
<path d="M94.9099 73.8767C94.9099 73.8767 97.5132 75.4139 99.1016 73.3475C100.69 71.281 99.2177 69.0967 99.2177 69.0967C98.4656 69.4948 97.7456 69.9499 97.0856 70.5039C96.0367 71.3918 95.1946 72.5528 94.9099 73.8767Z" fill="#F77C2D"/>
<path d="M99.2519 69.1213C99.2519 69.1213 100.727 71.3001 99.1301 73.3578C97.5333 75.4155 94.9221 73.8804 94.9221 73.8804C95.2095 72.5612 96.0717 71.401 97.1256 70.5173C98.1796 69.6336 99.4211 69.0112 100.655 68.4234" stroke="#BF3028" stroke-width="1.56182" stroke-miterlimit="10" stroke-linecap="round" stroke-linejoin="round"/>
<path d="M56.181 95.5433C56.181 95.5433 61.3878 98.8459 69.791 98.3621C79.385 97.8185 84.0825 93.2782 84.0825 93.2782C84.0825 93.2782 77.4036 103.429 55.4308 102.844C55.9278 98.7812 56.181 95.5433 56.181 95.5433Z" fill="#BF3028"/>
<path d="M95.8828 80.0625C95.8828 80.0625 97.574 80.3955 99.1606 79.6313" stroke="#BF3028" stroke-width="1.56182" stroke-miterlimit="10" stroke-linecap="round" stroke-linejoin="round"/>
<path d="M63.7936 71.0407C64.1327 69.4736 69.7436 70.9878 68.1675 73.2503C67.4288 74.319 63.3281 73.183 63.7936 71.0407Z" fill="#F77C2D"/>
<path d="M72.6846 67.0682C72.7122 67.7898 72.9664 68.3157 73.5178 68.295C74.0538 68.2785 74.4801 67.6627 74.4525 66.9411C74.4248 66.2196 73.9742 65.6322 73.427 65.6683C72.8868 65.6694 72.6529 66.3311 72.6846 67.0682Z" fill="#1A1B16"/>
<path d="M57.645 65.5682C57.6686 66.2744 57.9298 66.7652 58.4506 66.753C58.9674 66.7253 59.3713 66.1489 59.3478 65.4427C59.3242 64.7366 58.8859 64.1955 58.3651 64.2077C57.8484 64.2354 57.6215 64.8621 57.645 65.5682Z" fill="#1A1B16"/>
<path d="M79.7963 60.4264C77.3767 59.4118 74.7314 59.0779 72.1758 59.4783" stroke="#1A1B16" stroke-width="1.56182" stroke-miterlimit="10" stroke-linecap="round" stroke-linejoin="round"/>
<path d="M61.5033 58.615C59.5312 58.0692 57.4577 57.9437 55.4453 58.2815" stroke="#1A1B16" stroke-width="1.56182" stroke-miterlimit="10" stroke-linecap="round" stroke-linejoin="round"/>
<path d="M67.3722 73.5062L65.7687 73.1848C64.5718 72.9506 63.7588 71.7521 63.9404 70.4921L65.0951 62.3596" stroke="#BF3028" stroke-width="1.56182" stroke-miterlimit="10" stroke-linecap="round" stroke-linejoin="round"/>
<path d="M65.1123 78.2233C67.0258 78.6189 69.8272 78.1571 72.7753 75.5167" stroke="#BF3028" stroke-width="1.56182" stroke-miterlimit="10" stroke-linecap="round" stroke-linejoin="round"/>
<path d="M70.7838 81.7004C71.7199 81.2984 72.318 80.62 72.1198 80.1851C71.9215 79.7503 71.002 79.7236 70.066 80.1256C69.1299 80.5276 68.5318 81.206 68.73 81.6409C68.9283 82.0758 69.8478 82.1024 70.7838 81.7004Z" fill="#F77C2D"/>
<path d="M99.3907 99.0635L71.9193 115.651L43.6279 101.788C39.1687 113.7 39.5183 126.65 44.6047 138.116L72.0761 121.529L100.368 135.392C104.842 123.476 104.493 110.526 99.3907 99.0635Z" fill="#0064C8"/>
<path d="M53.7344 114.402L67.315 117.361" stroke="#173F80" stroke-width="1.56182" stroke-miterlimit="10" stroke-linecap="round" stroke-linejoin="round"/>
<path d="M56.5703 120.398L64.34 119.33" stroke="#173F80" stroke-width="1.56182" stroke-miterlimit="10" stroke-linecap="round" stroke-linejoin="round"/>
<path d="M74.5066 116.653L87.2149 112.054" stroke="#173F80" stroke-width="1.56182" stroke-miterlimit="10" stroke-linecap="round" stroke-linejoin="round"/>
<path d="M76.8516 119.005L81.2295 119.662" stroke="#173F80" stroke-width="1.56182" stroke-miterlimit="10" stroke-linecap="round" stroke-linejoin="round"/>
<path d="M43.7138 107.381C44.6317 109.986 46.0258 112.526 45.9062 115.301C45.7546 118.523 43.5684 121.418 43.7672 124.643C43.9612 127.785 46.36 130.214 47.6087 133.064C47.9342 133.797 48.1745 134.572 48.3256 135.371L44.5622 137.863C43.4778 135.355 42.6123 132.769 41.9547 130.125C39.5828 120.59 39.9834 110.453 43.2006 100.913L43.583 101.109C43.6016 103.291 42.8272 104.902 43.7138 107.381Z" fill="#0F70D1"/>
<path d="M101.833 106.99C104.286 116.453 103.941 126.532 100.746 136.035L92.5597 131.981C92.6158 130.09 92.2161 128.175 92.5363 126.31C93.2611 122.037 97.4237 119.246 98.7838 115.13C100.019 111.401 98.7409 107.337 98.4929 103.404C98.4166 102.303 98.4934 100.925 98.7742 99.5898L99.1723 99.3275C100.268 101.818 101.157 104.382 101.833 106.99Z" fill="#0F70D1"/>
<path d="M105.393 48.9387L104.863 48.8845L53.8353 43.7575C53.8535 43.5895 53.8718 43.4215 53.8944 43.2686C54.213 40.5573 55.0654 38.0296 56.3061 35.757C59.0509 30.7989 63.7767 27.1386 69.3407 25.6522C71.7913 24.9975 74.4294 24.7658 77.1138 25.0437L86.082 25.9429C95.0501 26.8421 102.22 33.0501 104.612 41.0564C105.374 43.5443 105.656 46.2093 105.393 48.9387Z" fill="#0055A8"/>
<path d="M105.387 49.2423L104.854 49.1848C93.0264 44.5405 80.1112 43.1323 70.7382 42.8106C63.5318 42.5622 57.434 42.9232 53.6551 43.2526C53.9649 40.5449 54.8113 38.0241 56.0485 35.7607C59.8848 35.5143 64.9402 35.3427 70.6978 35.527C78.2046 35.7789 85.3711 36.5762 91.9986 37.9215C96.4354 38.8244 100.642 39.9666 104.584 41.3408C105.348 43.8511 105.641 46.5163 105.387 49.2423Z" fill="#173F80"/>
<path d="M89.4239 39.194C89.4718 39.5922 89.5155 40.0905 89.2069 40.39C88.8245 40.7758 88.1659 40.7113 87.9118 41.2592C87.725 41.6402 87.9533 41.9226 88.2381 42.1729C88.4795 42.3859 88.7817 42.5821 89.0273 42.8103L84.8236 42.1148C84.1867 42.0114 83.5693 41.8038 83.0128 41.4642C82.7932 41.3274 82.6606 41.1502 82.6931 40.8613C82.8231 39.7058 85.399 40.5067 85.4138 39.235C85.4244 38.6394 84.7374 38.0725 83.97 37.6266C83.8722 37.5714 83.9286 37.424 84.033 37.4445C85.5872 37.7712 87.1 38.0105 88.6063 38.1693C88.8258 38.1908 89.0258 38.3165 89.1433 38.498C89.2933 38.7363 89.3934 38.9719 89.4239 39.194Z" fill="#0064C8"/>
<path d="M114.237 56.0434C114.04 59.3813 103.942 61.2911 103.88 61.3069L103.723 55.8844C99.6903 52.7114 89.8838 49.6564 78.2305 48.2674C67.5419 46.9916 58.0827 47.4299 53.0576 49.1556L52.1902 55.3472C52.1349 55.3286 50.7919 54.7722 50.1658 54.507C45.0971 52.2367 42.1421 49.737 42.3893 47.4331C42.6768 44.5791 47.7596 42.5933 55.5614 41.7771C62.0044 41.0957 70.2947 41.2179 79.277 42.2918C88.6555 43.4116 97.0817 45.38 103.328 47.6929C110.297 50.2625 114.398 53.2707 114.237 56.0434Z" fill="#0F70D1"/>
<path d="M114.007 57.0325C112.777 59.3068 106.139 60.976 103.852 61.4856L103.708 56.0525C99.6732 52.8587 89.8493 49.7615 78.1694 48.3264C67.4566 47.0084 57.9718 47.4121 52.9293 49.1222L52.0436 55.3218C51.9882 55.303 50.6432 54.7406 50.0162 54.4725C47.0495 53.1389 44.8086 51.721 43.5041 50.3133C44.5683 47.8678 49.4154 46.174 56.5292 45.4659C62.9905 44.8073 71.3019 44.9606 80.3047 46.07C89.7045 47.227 98.1474 49.2304 104.404 51.5709C108.944 53.2783 112.284 55.1567 114.007 57.0325Z" fill="#0055A8"/>
<path d="M103.685 56.764L103.812 60.5811C103.812 60.5811 104.642 60.4111 105.126 59.6196C106.158 57.9845 103.685 56.764 103.685 56.764Z" fill="#1A1B16"/>
<path d="M52.8089 48.3204C52.8089 48.3204 51.3568 48.7281 50.6162 50.4018C49.8649 52.0951 52.22 52.7163 52.22 52.7163C52.494 50.4742 52.8089 48.3204 52.8089 48.3204Z" fill="#1A1B16"/>
</g>
<defs>
<clipPath id="clip0_2_3488">
<rect width="150" height="150" rx="75" fill="white"/>
</clipPath>
</defs>
</svg>
