<svg width="150" height="150" viewBox="0 0 150 150" fill="none" xmlns="http://www.w3.org/2000/svg">
<g clip-path="url(#clip0_2_2079)">
<rect width="150" height="150" rx="75" fill="#F86767"/>
<path d="M142.812 111.87C133.669 140.738 106.664 161.658 74.7696 161.658C44.9726 161.658 19.4418 143.4 8.75391 117.457C8.75391 117.457 8.75391 117.457 8.75391 117.453C9.75355 112.399 12.2043 107.624 15.8423 103.288C15.1011 100.355 14.7129 97.2267 14.7129 93.8978C14.7129 66.5006 39.6052 49.2576 76.7842 49.7086C107.687 50.085 131.59 64.8696 129.517 92.8553C129.446 93.8355 129.454 94.8076 129.391 95.7724C135.614 100.41 140.26 105.88 142.812 111.87Z" fill="#D6E8ED" stroke="#871C20" stroke-width="0.723073" stroke-miterlimit="10" stroke-linecap="round" stroke-linejoin="round"/>
<path d="M86.4229 116.025C86.2254 116.026 85.1123 116.069 84.2998 116.101C83.4244 116.135 82.516 116.17 82.0036 116.185C80.998 116.214 79.9875 116.229 79.0006 116.229C78.3507 116.229 77.7062 116.223 77.0672 116.21C76.7676 116.21 76.4648 116.201 76.1693 116.194C75.9316 116.189 75.6889 116.181 75.4462 116.173C75.0499 116.161 74.6409 116.144 74.2364 116.123C73.7777 116.104 73.2941 116.08 72.8156 116.052C72.3415 116.023 71.8959 115.995 71.4548 115.96C71.1258 115.939 70.7968 115.912 70.4719 115.884C70.1298 115.859 69.7881 115.826 69.4501 115.793C68.4274 115.697 67.4729 115.592 66.542 115.474C66.1841 115.43 65.8203 115.385 65.4606 115.333C65.0362 115.277 64.6118 115.214 64.1952 115.15C64.1369 115.142 64.0799 115.133 64.0243 115.123C63.576 115.056 63.1386 114.983 62.7011 114.909C62.2438 114.832 61.791 114.75 61.3381 114.664C60.9531 114.596 60.5473 114.514 60.1414 114.432C59.859 114.376 59.5743 114.315 59.29 114.255L59.224 114.241C58.9746 114.19 58.7066 114.131 58.4377 114.067C57.9442 113.958 57.4584 113.842 56.9771 113.725L56.2387 113.541C55.9689 113.474 55.6909 113.4 55.413 113.325C55.1708 113.261 54.915 113.193 54.6628 113.123C54.3338 113.03 54.0039 112.936 53.6736 112.838C53.3093 112.735 52.9184 112.615 52.5311 112.494L52.3101 112.424C52.0652 112.347 51.822 112.271 51.5816 112.19C51.3227 112.109 51.0705 112.023 50.8152 111.935C50.774 111.921 50.5991 111.863 50.5991 111.863C50.3189 111.769 50.0428 111.671 49.7667 111.57C49.143 111.35 48.5307 111.121 47.8958 110.871C47.5681 110.745 47.2197 110.603 46.8758 110.46C46.8758 110.46 46.7366 110.404 46.6832 110.381C46.4216 110.275 46.1635 110.165 45.9055 110.051C44.7187 109.539 43.5564 108.994 42.4736 108.441C42.3199 108.364 42.1446 108.272 41.9738 108.179C41.8346 108.107 41.6619 108.016 41.4934 107.926C41.2484 107.797 40.9881 107.654 40.7274 107.506C40.4138 107.332 40.0838 107.143 39.758 106.953C39.4968 106.801 39.232 106.647 38.9762 106.489L38.3882 106.123L38.2066 106.008C38.0972 105.939 37.9883 105.87 37.8812 105.8C37.3095 105.429 36.7374 105.04 36.196 104.654C36.0229 104.534 35.8498 104.41 35.6772 104.281L35.5244 104.169C35.4137 104.088 35.3039 104.007 35.1954 103.924C35.03 103.801 34.8456 103.66 34.6649 103.515C34.0462 103.034 33.4619 102.552 32.9281 102.083C32.7641 101.942 32.5874 101.783 32.4111 101.624C31.6298 100.915 30.8967 100.19 30.2265 99.465C30.1158 99.3462 30.0019 99.2232 29.8885 99.0967L29.7819 98.9751C29.5098 98.6719 29.2576 98.3777 29.0353 98.1029C28.7922 97.8087 28.5382 97.487 28.2964 97.1647C28.2128 97.059 28.1007 96.913 27.9855 96.7458C27.934 96.6771 27.7518 96.424 27.7518 96.424C27.4762 96.0345 27.2353 95.6747 27.0157 95.3236C27.0157 95.3236 26.8977 95.1356 26.8683 95.0882L26.8105 95.029L26.65 94.7289C24.1812 90.5807 23.2765 86.2676 24.033 82.2518C27.4075 64.2667 43.1022 56.2451 74.9215 56.2451C75.4995 56.2451 76.078 56.2474 76.6668 56.2528C103.712 56.4864 124.293 68.1297 125.602 83.9375C125.931 87.8746 125.393 91.6508 124.004 95.16C121.928 100.421 118.032 104.9 112.426 108.47C112.426 108.47 112.076 108.691 111.965 108.758C111.684 108.935 111.368 109.12 111.052 109.306C109.176 110.397 107.582 111.585 106.306 112.84C106.077 113.069 105.842 113.31 105.617 113.555L105.533 113.65C105.461 113.73 105.39 113.809 105.323 113.889C105.163 114.079 105.006 114.274 104.839 114.488L104.734 114.628C104.546 114.878 104.385 115.107 104.241 115.328C104.159 115.452 104.098 115.552 104.037 115.656C103.872 115.928 103.748 116.15 103.646 116.352C102.79 118.025 100.03 121.685 100.03 121.685C100.03 121.685 91.61 116.025 86.4229 116.025Z" stroke="#F3F8FA" stroke-width="0.723073" stroke-miterlimit="10" stroke-linecap="round" stroke-linejoin="round"/>
<path d="M121.457 94.148C119.704 98.5899 116.332 102.73 110.957 106.153C110.82 106.239 110.679 106.329 110.538 106.415C110.255 106.592 109.962 106.764 109.667 106.937C107.538 108.176 105.786 109.505 104.386 110.881C104.108 111.16 103.841 111.434 103.586 111.712C103.461 111.853 103.336 111.991 103.218 112.132C102.983 112.41 102.759 112.693 102.544 112.975C102.54 112.979 102.544 112.979 102.544 112.979C102.332 113.261 102.132 113.543 101.948 113.825C101.854 113.966 101.767 114.108 101.681 114.253C101.508 114.539 101.348 114.822 101.203 115.108C100.054 117.354 99.7012 119.601 100.035 121.683L100.004 121.687C98.51 116.86 92.9974 113.281 86.4265 113.281C86.0071 113.281 83.0353 113.41 81.9294 113.442C80.2867 113.489 78.6752 113.497 77.0993 113.465C76.8092 113.465 76.515 113.458 76.2289 113.449C76.0016 113.445 75.7743 113.438 75.5465 113.43C75.1547 113.418 74.7665 113.402 74.3819 113.383C73.9115 113.364 73.4451 113.34 72.9823 113.313C72.5354 113.285 72.0925 113.258 71.6532 113.222C71.3319 113.203 71.0101 113.175 70.6929 113.148C70.3675 113.124 70.0421 113.092 69.7203 113.061C68.76 112.971 67.8187 112.869 66.8895 112.752C66.5366 112.709 66.1877 112.665 65.8429 112.614C65.4235 112.56 65.0037 112.497 64.592 112.434C64.5332 112.426 64.4781 112.415 64.4234 112.406C63.9999 112.344 63.5806 112.273 63.1612 112.203C62.7219 112.128 62.2867 112.05 61.8515 111.967C61.4592 111.897 61.071 111.818 60.6833 111.74C60.3855 111.681 60.0913 111.618 59.7971 111.555C59.5463 111.504 59.2991 111.45 59.0523 111.391C58.5701 111.285 58.0956 111.171 57.6251 111.058C57.3897 110.999 57.1506 110.94 56.9192 110.882C56.6526 110.815 56.39 110.744 56.1275 110.674C55.8884 110.611 55.6494 110.548 55.4139 110.482C55.0926 110.391 54.7749 110.301 54.4572 110.207C54.0848 110.102 53.716 109.988 53.3513 109.874C53.0418 109.776 52.7358 109.682 52.4339 109.58C52.1831 109.502 51.94 109.419 51.6928 109.333C51.6182 109.309 51.5437 109.282 51.4691 109.258C51.2101 109.172 50.9552 109.082 50.7008 108.988C50.0894 108.772 49.4933 108.548 48.9053 108.317C48.58 108.191 48.2546 108.058 47.9333 107.925C47.8668 107.897 47.804 107.874 47.7412 107.846C47.498 107.748 47.259 107.646 47.0199 107.54C45.8752 107.046 44.7775 106.532 43.7268 105.995C43.5776 105.921 43.429 105.843 43.2839 105.764C43.1194 105.678 42.9544 105.591 42.794 105.505C42.5549 105.38 42.3195 105.25 42.0845 105.117C41.7668 104.941 41.4532 104.76 41.1436 104.58C40.9005 104.439 40.6573 104.297 40.4223 104.152C40.2303 104.031 40.0382 103.913 39.8498 103.796C39.697 103.697 39.5438 103.603 39.3951 103.505C38.8383 103.145 38.3015 102.78 37.7799 102.408C37.6272 102.302 37.474 102.192 37.3213 102.078C37.1685 101.964 37.0153 101.855 36.8666 101.741C36.6981 101.615 36.5336 101.49 36.3727 101.361C35.8082 100.922 35.2632 100.475 34.7458 100.02C34.5772 99.8751 34.4163 99.7301 34.2559 99.585C33.5382 98.9342 32.868 98.2717 32.2484 97.6011C32.1427 97.4872 32.0406 97.3774 31.9389 97.2639C31.9113 97.2328 31.8842 97.2011 31.8566 97.1699C31.6212 96.9074 31.3902 96.6407 31.1742 96.3741C30.9311 96.0799 30.6997 95.7862 30.4765 95.4879C30.3865 95.374 30.3002 95.2606 30.2216 95.1426C30.1434 95.0405 30.0724 94.9388 29.9979 94.8367C29.7706 94.5154 29.5509 94.19 29.3471 93.8646C29.249 93.7078 29.151 93.555 29.061 93.3982C29.0534 93.3905 29.0493 93.3824 29.0452 93.3747C26.9085 89.8068 26.0969 86.149 26.7359 82.7577C29.8957 65.9147 45.0138 58.7205 76.6492 58.9948C102.945 59.2222 121.736 70.4352 122.873 84.1614C123.154 87.5454 122.731 90.9289 121.457 94.148Z" fill="#7575C6" stroke="#871C20" stroke-width="0.723073" stroke-miterlimit="10" stroke-linecap="round" stroke-linejoin="round"/>
<path d="M121.454 94.148C119.702 98.5899 116.33 102.73 110.955 106.153C110.818 106.239 110.677 106.329 110.536 106.415C110.253 106.592 109.959 106.764 109.665 106.937C107.536 108.176 105.784 109.505 104.384 110.881C104.102 111.156 103.835 111.434 103.584 111.712C103.459 111.853 103.333 111.991 103.216 112.132C102.977 112.41 102.753 112.693 102.542 112.975C102.537 112.979 102.542 112.979 102.542 112.979C102.326 113.261 102.13 113.543 101.945 113.826C101.851 113.967 101.765 114.108 101.679 114.253C101.506 114.535 101.346 114.822 101.201 115.108C100.052 117.354 99.699 119.601 100.033 121.683L100.001 121.687C98.5077 116.86 92.9952 113.281 86.4243 113.281C86.0049 113.281 83.033 113.41 81.9272 113.442C80.2845 113.489 78.6729 113.497 77.0971 113.465C76.8069 113.465 76.5127 113.458 76.2267 113.45C75.9994 113.445 75.772 113.438 75.5443 113.43C75.1524 113.418 74.7642 113.403 74.3797 113.383C73.9092 113.364 73.4428 113.34 72.9801 113.313C72.5331 113.285 72.0902 113.258 71.651 113.222C71.3297 113.203 71.0079 113.175 70.6906 113.148C70.3653 113.124 70.0399 113.093 69.7181 113.061C68.7578 112.971 67.8164 112.869 66.8873 112.752C66.5343 112.709 66.1854 112.665 65.8406 112.614C65.4212 112.56 65.0014 112.497 64.5897 112.434C64.531 112.426 64.4758 112.415 64.4211 112.407C63.9977 112.344 63.5783 112.273 63.1589 112.203C62.7197 112.128 62.2845 112.05 61.8493 111.967C61.457 111.897 61.0688 111.818 60.681 111.74C60.3832 111.681 60.089 111.618 59.7948 111.556C59.544 111.504 59.2968 111.45 59.0501 111.391C58.5679 111.285 58.0933 111.171 57.6229 111.058C57.3874 110.999 57.1484 110.94 56.917 110.882C56.6504 110.815 56.3878 110.744 56.1252 110.674C55.8862 110.611 55.6471 110.548 55.4117 110.482C55.0903 110.391 54.7726 110.301 54.4549 110.207C54.0826 110.102 53.7138 109.988 53.3491 109.874C53.0395 109.776 52.7336 109.682 52.4317 109.58C52.1809 109.502 51.9377 109.419 51.6905 109.333C51.616 109.309 51.5414 109.282 51.4668 109.258C51.2079 109.172 50.953 109.082 50.6986 108.988C50.0871 108.772 49.491 108.548 48.9031 108.317C48.5777 108.191 48.2523 108.058 47.931 107.925C47.8646 107.897 47.8017 107.874 47.7389 107.846C47.4958 107.748 47.2567 107.646 47.0177 107.54C45.873 107.046 44.7752 106.532 43.7245 105.996C43.5754 105.921 43.4267 105.843 43.2816 105.764C43.1171 105.678 42.9522 105.592 42.7918 105.505C42.5527 105.38 42.3172 105.25 42.0822 105.117C41.7645 104.941 41.4509 104.76 41.1413 104.58C40.8982 104.439 40.6551 104.297 40.4201 104.152C40.228 104.031 40.036 103.913 39.8475 103.796C39.6948 103.698 39.5415 103.604 39.3929 103.505C38.8361 103.145 38.2992 102.78 37.7777 102.408C37.6249 102.302 37.4718 102.192 37.319 102.078C37.1663 101.964 37.013 101.855 36.8644 101.741C36.6958 101.616 36.5313 101.49 36.3704 101.361C35.806 100.922 35.261 100.475 34.7435 100.02C34.5749 99.8752 34.414 99.7301 34.2536 99.585C33.536 98.9343 32.8658 98.2718 32.2462 97.6011C32.1404 97.4872 32.0383 97.3774 31.9366 97.264C31.9091 97.2328 31.8819 97.2012 31.8544 97.17C31.6189 96.9034 31.3916 96.6408 31.172 96.3742C30.9288 96.08 30.6975 95.7862 30.4742 95.4879C30.3843 95.3741 30.298 95.2606 30.2193 95.1427C30.1411 95.0406 30.0702 94.9389 29.9956 94.8367C29.7683 94.5114 29.5487 94.19 29.3449 93.8647C29.2468 93.7078 29.1487 93.5551 29.0588 93.3982C29.0511 93.3906 29.047 93.3824 29.043 93.3747C38.2409 85.4395 55.2955 80.1113 74.8203 80.1113C94.9665 80.1118 112.488 85.7893 121.454 94.148Z" fill="url(#paint0_linear_2_2079)" stroke="#871C20" stroke-width="0.723073" stroke-miterlimit="10" stroke-linecap="round" stroke-linejoin="round"/>
<path d="M15.8388 103.287C15.0967 100.357 14.7148 97.2266 14.7148 93.8987C14.7148 66.5019 39.608 49.2584 76.7857 49.7098C107.689 50.0854 131.053 64.0556 129.52 92.8542C128.306 115.679 116.822 132.328 86.103 134.978C70.753 136.302 57.1651 134.14 46.1297 130.744" stroke="#871C20" stroke-width="0.723073" stroke-miterlimit="10" stroke-linecap="round" stroke-linejoin="round"/>
<path d="M21.3872 97.7634C21.3872 97.7634 14.1474 103.816 11.3555 110.002" stroke="#871C20" stroke-width="0.723073" stroke-miterlimit="10" stroke-linecap="round" stroke-linejoin="round"/>
<path d="M90.6559 123.533C90.6559 125.086 89.3968 126.346 87.8436 126.346C86.2903 126.346 85.0312 125.086 85.0312 123.533C85.0312 121.98 86.2903 120.721 87.8436 120.721C89.3964 120.721 90.6559 121.98 90.6559 123.533Z" fill="#871C20" stroke="#871C20" stroke-width="0.723073" stroke-miterlimit="10" stroke-linecap="round" stroke-linejoin="round"/>
<path d="M111.322 120.124C112.933 120.124 114.239 118.819 114.239 117.208C114.239 115.598 112.933 114.292 111.322 114.292C109.712 114.292 108.406 115.598 108.406 117.208C108.406 118.819 109.712 120.124 111.322 120.124Z" fill="#871C20" stroke="#871C20" stroke-width="0.723073" stroke-miterlimit="10" stroke-linecap="round" stroke-linejoin="round"/>
<path d="M89.7458 149.969C89.2279 149.969 88.7109 149.764 88.3259 149.36C83.6544 144.453 81.773 138.244 82.8856 131.402C83.71 126.334 85.8927 122.711 85.9854 122.559C86.5485 121.635 87.7546 121.343 88.6797 121.906C89.603 122.468 89.8958 123.673 89.335 124.596C89.0282 125.105 82.0044 137.034 91.1653 146.657C91.9119 147.441 91.8816 148.682 91.0975 149.428C90.7179 149.789 90.2312 149.969 89.7458 149.969Z" fill="#7575C6" stroke="#871C20" stroke-width="0.723073" stroke-miterlimit="10" stroke-linecap="round" stroke-linejoin="round"/>
<path d="M119.255 139.688C119.102 139.688 118.946 139.67 118.791 139.632C117.739 139.377 117.093 138.317 117.349 137.265C120.556 124.061 110.969 119.173 110.559 118.972C109.591 118.495 109.186 117.324 109.658 116.354C110.13 115.383 111.293 114.975 112.265 115.442C112.401 115.506 115.603 117.072 118.276 120.674C120.729 123.979 123.22 129.702 121.159 138.191C120.941 139.087 120.138 139.688 119.255 139.688Z" fill="#7575C6" stroke="#871C20" stroke-width="0.723073" stroke-miterlimit="10" stroke-linecap="round" stroke-linejoin="round"/>
<path d="M123.998 50.6456C124.537 55.8396 121.039 60.4582 116.187 60.9612C111.335 61.4642 106.965 57.6617 106.426 52.4673C105.887 47.2734 109.385 42.6548 114.237 42.1518C119.089 41.6492 123.459 45.4517 123.998 50.6456Z" fill="#FCD9C4"/>
<path d="M107.285 47.2532C108.577 44.4847 111.129 42.4746 114.237 42.1523C119.089 41.6493 123.459 45.4518 123.998 50.6457C124.536 55.8397 121.039 60.4583 116.187 60.9613C114.682 61.1172 113.223 60.8591 111.911 60.2735" stroke="#871C20" stroke-width="0.723073" stroke-miterlimit="10" stroke-linecap="round" stroke-linejoin="round"/>
<path d="M108.273 88.104C111.09 96.9694 101.21 104.837 86.7315 107.396C71.0539 110.165 50.9019 103.882 47.2901 94.4685C43.1831 83.7629 64.0315 75.1312 80.6387 74.2911C96.5341 73.4871 105.552 79.5392 108.273 88.104Z" fill="#FABAAF" stroke="#871C20" stroke-width="0.723073" stroke-miterlimit="10" stroke-linecap="round" stroke-linejoin="round"/>
<path d="M34.1725 66.4844C33.7101 89.2892 52.4002 103.358 75.9159 103.358C99.4316 103.358 119.331 89.2937 119.331 66.4844C119.331 43.675 99.4321 22.0276 75.9159 22.0276C52.4002 22.0276 34.5566 47.5245 34.1725 66.4844Z" fill="url(#paint1_linear_2_2079)"/>
<path d="M61.8628 38.7098C58.5579 39.8897 47.9531 47.8209 52.7932 62.4451C53.1958 63.6621 52.2757 64.9374 51.032 65.2484C49.5416 65.6212 48.1013 64.5126 48.0602 62.9765C47.9743 59.7666 47.2847 54.7584 44.114 51.7233C39.1623 46.9831 35.6211 49.6996 35.6211 49.6996L46.5693 39.2222C46.5684 39.2222 65.0922 37.5569 61.8628 38.7098Z" fill="#871C20" stroke="#871C20" stroke-width="0.723073" stroke-miterlimit="10" stroke-linecap="round" stroke-linejoin="round"/>
<path d="M99.5976 69.2363C99.1936 71.9966 96.2064 75.8389 90.4625 76.4621C84.3304 76.956 80.5862 73.29 79.9906 70.5812C79.7787 69.6204 79.963 68.7776 80.5786 68.2877C82.7387 66.3002 87.2245 67.6993 90.1335 67.4209C93.0425 67.1466 96.1391 65.0298 98.6368 66.5745C99.4526 67.0015 99.778 68.0134 99.5976 69.2363Z" fill="white" stroke="#871C20" stroke-width="0.723073" stroke-miterlimit="10" stroke-linecap="round" stroke-linejoin="round"/>
<path d="M90.0524 37.699C91.912 39.5586 94.2575 40.2288 95.2911 39.1953C96.3246 38.1617 95.6548 35.8162 93.7947 33.9566C91.9351 32.0969 89.5896 31.4267 88.5561 32.4603C87.5225 33.4938 88.1923 35.8393 90.0524 37.699Z" fill="#871C20" stroke="#871C20" stroke-width="0.723073" stroke-miterlimit="10" stroke-linecap="round" stroke-linejoin="round"/>
<path d="M83.813 34.0797C82.0754 36.0541 81.5561 38.4371 82.6534 39.4028C83.7506 40.3686 86.0486 39.5506 87.7863 37.5762C89.5239 35.6017 90.0432 33.2188 88.9459 32.253C87.8486 31.2872 85.5506 32.1052 83.813 34.0797Z" fill="#871C20" stroke="#871C20" stroke-width="0.723073" stroke-miterlimit="10" stroke-linecap="round" stroke-linejoin="round"/>
<path d="M34.1725 66.4844C33.7101 89.2892 52.4002 103.358 75.9159 103.358C99.4316 103.358 119.331 89.2937 119.331 66.4844C119.331 43.675 99.4321 22.0276 75.9159 22.0276C52.4002 22.0276 34.5566 47.5245 34.1725 66.4844Z" stroke="#871C20" stroke-width="0.723073" stroke-miterlimit="10" stroke-linecap="round" stroke-linejoin="round"/>
<path d="M36.4336 36.9628C36.0807 38.1505 35.8123 39.363 35.6211 40.5899C58.6519 39.3489 95.3022 31.5312 102.049 23.4938C83.1374 3.79679 43.2893 11.9485 36.4336 36.9628Z" fill="#9090DD" stroke="#871C20" stroke-width="0.723073" stroke-miterlimit="10" stroke-linecap="round" stroke-linejoin="round"/>
<path d="M30.7382 49.6216C31.7997 52.7588 33.5685 57.5089 37.263 58.8349C38.0507 56.1916 38.7069 54.8412 39.8114 52.5026C44.9854 39.5134 90.1314 28.8834 105.6 36.5543C107.539 37.516 109.445 38.9865 111.249 41.4224C113.378 39.1004 112.833 35.1434 111.902 30.8687C110.832 25.9545 107.778 24.1762 106.91 23.7383C89.5552 14.9764 45.9444 26.6057 33.1365 38.0063C29.0864 41.7419 29.6852 46.5078 30.7382 49.6216Z" fill="#9090DD" stroke="#871C20" stroke-width="0.723073" stroke-miterlimit="10" stroke-linecap="round" stroke-linejoin="round"/>
<path d="M38.3624 68.4417C43.8285 67.5517 47.5382 62.3991 46.6482 56.933C45.7583 51.4668 40.6056 47.7571 35.1395 48.6471C29.6734 49.5371 25.9637 54.6897 26.8536 60.1559C27.7436 65.622 32.8963 69.3317 38.3624 68.4417Z" fill="#FBCDBC"/>
<path d="M45.2084 53.1307C43.4256 50.3513 40.3092 48.5098 36.762 48.5098C31.2242 48.5098 26.7344 52.9991 26.7344 58.5374C26.7344 64.0757 31.2238 68.5651 36.762 68.5651C38.4798 68.5651 40.0968 68.1331 41.5099 67.372" stroke="#871C20" stroke-width="0.723073" stroke-miterlimit="10" stroke-linecap="round" stroke-linejoin="round"/>
<path d="M37.1833 65.0258C37.9687 65.0258 38.7212 64.8753 39.4063 64.5996C41.6379 63.7138 43.2173 61.5406 43.2173 58.9917C43.2173 57.6961 42.8079 56.4926 42.0975 55.5065C41.0111 53.9686 39.2142 52.9658 37.1833 52.9658C35.8488 52.9658 34.6159 53.3983 33.6172 54.1304" stroke="#871C20" stroke-width="0.723073" stroke-miterlimit="10" stroke-linecap="round" stroke-linejoin="round"/>
<path d="M38.293 61.1056C38.293 62.4008 38.7024 63.6129 39.4047 64.599C41.6363 63.7132 43.2157 61.5399 43.2157 58.9911C43.2157 57.6954 42.8063 56.492 42.0959 55.5059C39.8638 56.3839 38.293 58.5568 38.293 61.1056Z" fill="#871C20" stroke="#871C20" stroke-width="0.723073" stroke-miterlimit="10" stroke-linecap="round" stroke-linejoin="round"/>
<path d="M97.5469 51.8594C99.1833 54.0783 99.3794 56.8283 98.0738 59.2569" stroke="#871C20" stroke-width="7.23073" stroke-miterlimit="10" stroke-linecap="round" stroke-linejoin="round"/>
<path d="M76.207 53.5198C77.8434 55.7387 78.0396 58.4886 76.734 60.9173" stroke="#871C20" stroke-width="7.23073" stroke-miterlimit="10" stroke-linecap="round" stroke-linejoin="round"/>
<path d="M96.784 66.0156C96.784 66.0156 98.969 64.4927 99.6867 63.9707C101.908 62.3551 103.085 60.2396 102.069 57.9077C101.052 55.5758 98.3377 54.5093 96.0058 55.5256L90.3125 57.8607" fill="#FBD5BE"/>
<path d="M96.784 66.0156C96.784 66.0156 98.969 64.4927 99.6867 63.9707C101.908 62.3551 103.085 60.2396 102.069 57.9077C101.052 55.5758 98.3377 54.5093 96.0058 55.5256L90.3125 57.8607" stroke="#871C20" stroke-width="0.723073" stroke-miterlimit="10" stroke-linecap="round" stroke-linejoin="round"/>
<path d="M67.6758 70.6311C69.9051 71.6854 72.3274 71.2393 73.0866 69.635C73.8459 68.0302 72.6542 65.8746 70.4248 64.8203C68.1955 63.7659 65.7732 64.212 65.014 65.8163C64.2548 67.4211 65.4465 69.5767 67.6758 70.6311Z" fill="#FABAAF"/>
<path d="M108.693 64.3041C107.239 65.1921 105.504 65.0018 104.818 63.8793C104.132 62.7563 104.754 61.1257 106.208 60.2377C107.662 59.3492 109.396 59.5395 110.082 60.6625C110.768 61.7851 110.146 63.4156 108.693 64.3041Z" fill="#FABAAF"/>
<path d="M100.62 47.099C98.9535 43.3679 93.6081 43.5144 92.1484 47.3308" stroke="#871C20" stroke-width="0.723073" stroke-miterlimit="10" stroke-linecap="round" stroke-linejoin="round"/>
<path d="M80.917 48.1927C79.2503 44.4617 73.905 44.6081 72.4453 48.4246" stroke="#871C20" stroke-width="0.723073" stroke-miterlimit="10" stroke-linecap="round" stroke-linejoin="round"/>
<path d="M94.1875 66.4092C94.5368 66.7291 96.6812 70.0151 94.7628 75.2149" stroke="#871C20" stroke-width="0.723073" stroke-miterlimit="10" stroke-linecap="round" stroke-linejoin="round"/>
<path d="M90.3822 67.3911C90.3822 67.3911 92.6305 71.1674 89.9258 76.4815" stroke="#871C20" stroke-width="0.723073" stroke-miterlimit="10" stroke-linecap="round" stroke-linejoin="round"/>
<path d="M85.6407 67.241C85.6407 67.241 87.0846 71.8158 85.1797 75.578" stroke="#871C20" stroke-width="0.723073" stroke-miterlimit="10" stroke-linecap="round" stroke-linejoin="round"/>
</g>
<defs>
<linearGradient id="paint0_linear_2_2079" x1="32.3376" y1="121.034" x2="116.513" y2="83.3993" gradientUnits="userSpaceOnUse">
<stop offset="0.1031" stop-color="#D6E8ED"/>
<stop offset="0.1854" stop-color="#DEECF0"/>
<stop offset="0.4424" stop-color="#F0F7F9"/>
<stop offset="0.7094" stop-color="#FBFDFD"/>
<stop offset="1" stop-color="white"/>
</linearGradient>
<linearGradient id="paint1_linear_2_2079" x1="32.909" y1="100.475" x2="135.622" y2="16.2091" gradientUnits="userSpaceOnUse">
<stop stop-color="#F79292"/>
<stop offset="0.0345" stop-color="#F8A09C"/>
<stop offset="0.1011" stop-color="#F9B6AC"/>
<stop offset="0.1748" stop-color="#FAC5B7"/>
<stop offset="0.2603" stop-color="#FBCEBD"/>
<stop offset="0.385" stop-color="#FBD1BF"/>
<stop offset="0.4315" stop-color="#FBD2C0"/>
<stop offset="0.8047" stop-color="#FCDAC5"/>
</linearGradient>
<clipPath id="clip0_2_2079">
<rect width="150" height="150" rx="75" fill="white"/>
</clipPath>
</defs>
</svg>
