<svg width="150" height="150" viewBox="0 0 150 150" fill="none" xmlns="http://www.w3.org/2000/svg">
<g clip-path="url(#clip0_2_2412)">
<rect width="150" height="150" rx="75" fill="#9AB78D"/>
<path d="M149.872 91.4171V227.963C149.872 229.75 149.533 231.57 148.83 233.225C148.4 234.243 147.829 235.211 147.142 236.079C146.72 236.626 146.24 237.13 145.719 237.594C144.379 238.793 142.757 239.679 141.028 240.183C139.29 240.688 137.453 240.812 135.674 240.597L14.6508 226.225C12.7313 225.993 10.8531 225.373 9.14034 224.438C7.42762 223.511 5.89695 222.278 4.60621 220.822C3.32374 219.366 2.28119 217.695 1.56962 215.883C0.849786 214.079 0.460938 212.135 0.460938 210.198V82.7791C8.79284 76.9873 18.9533 73.595 29.9246 73.595C48.5576 73.595 64.8656 83.3996 73.8181 98.0446C83.1594 85.7494 98.0608 77.7981 114.857 77.7981C128.402 77.7981 140.713 82.9776 149.872 91.4171Z" fill="#FBD5BE"/>
<path d="M150.002 202.48L149.872 227.963C149.872 229.75 149.533 231.57 148.83 233.225C148.4 234.243 147.829 235.211 147.142 236.079C146.72 236.626 146.24 237.13 145.719 237.594C144.379 238.793 142.757 239.679 141.028 240.183C139.29 240.688 137.453 240.812 135.674 240.597L14.6508 226.225C12.7313 225.993 10.8531 225.373 9.14034 224.438C7.42762 223.511 5.89695 222.278 4.60621 220.822C3.32374 219.366 2.28119 217.695 1.56962 215.883C0.849786 214.079 0.460938 212.135 0.460938 210.198V151.602C14.3348 144.971 8.83009 133.863 12.6816 97.8626C13.8764 86.6985 18.7705 76.1103 18.878 75.8703C19.2504 75.0347 20.5195 73.1474 25.1943 72.4441C27.9909 72.0221 29.5597 72.5607 30.536 73.8266C30.5278 73.8515 19.7583 129.848 62.9295 133.977C97.7084 137.303 104.835 111.683 107.135 103.289C109.356 95.1851 115.221 80.7901 117.273 77.8528C117.273 77.8528 119.694 74.9527 125.199 76.5993C127.78 77.3712 129.1 78.4146 129.092 79.7707C129.092 79.7707 122.422 108.53 122.422 125.691C122.422 143.984 118.845 221.394 135.545 219.681C147.046 218.503 150.002 202.48 150.002 202.48Z" fill="#EBF0F3" stroke="#871C20" stroke-width="1.16566" stroke-miterlimit="10"/>
<path d="M25.7823 59.4372C25.2337 64.7284 28.7966 69.433 33.7394 69.9459C38.6823 70.4589 43.1345 66.5842 43.6831 61.293C44.2316 56.0018 40.6689 51.2972 35.726 50.7842C30.7831 50.2721 26.3309 54.146 25.7823 59.4372Z" fill="#FBD5BE"/>
<path d="M42.8077 55.9811C41.4921 53.1605 38.8925 51.1127 35.726 50.7842C30.7831 50.2721 26.3309 54.146 25.7823 59.4372C25.2337 64.7284 28.7966 69.433 33.7394 69.946C35.2726 70.1048 36.7586 69.8417 38.0957 69.2452" stroke="#871C20" stroke-width="1.16566" stroke-miterlimit="10" stroke-linecap="round" stroke-linejoin="round"/>
<path d="M117.292 75.5723C117.763 98.8039 98.7225 113.137 74.7668 113.137C50.8111 113.137 30.5391 98.8089 30.5391 75.5723C30.5391 52.3356 50.8111 30.283 74.7668 30.283C98.7225 30.283 116.9 56.2575 117.292 75.5723Z" fill="#FBD5BE"/>
<path d="M60.3627 46.2476C58.468 48.1423 56.0784 48.8249 55.0259 47.7716C53.9735 46.7192 54.6553 44.3296 56.55 42.4349C58.4448 40.5401 60.8343 39.8576 61.8867 40.9108C62.94 41.9641 62.2574 44.3528 60.3627 46.2476Z" fill="#871C20" stroke="#871C20" stroke-width="1.16566" stroke-miterlimit="10" stroke-linecap="round" stroke-linejoin="round"/>
<path d="M66.7176 42.5604C68.4882 44.5718 69.0169 46.9993 67.8991 47.9831C66.7813 48.9669 64.4406 48.1337 62.67 46.1223C60.8994 44.1109 60.3706 41.6833 61.4884 40.6995C62.6062 39.7158 64.947 40.549 66.7176 42.5604Z" fill="#871C20" stroke="#871C20" stroke-width="1.16566" stroke-miterlimit="10" stroke-linecap="round" stroke-linejoin="round"/>
<path d="M117.292 75.5723C117.763 98.8039 98.7225 113.137 74.7668 113.137C50.8111 113.137 30.5391 98.8089 30.5391 75.5723C30.5391 52.3356 50.8111 30.283 74.7668 30.283C98.7225 30.283 116.9 56.2575 117.292 75.5723Z" stroke="#871C20" stroke-width="1.16566" stroke-miterlimit="10" stroke-linecap="round" stroke-linejoin="round"/>
<path d="M53.8771 57.8611C52.0585 60.3276 51.8409 63.3831 53.2913 66.0821" stroke="#871C20" stroke-width="5.82828" stroke-miterlimit="10" stroke-linecap="round" stroke-linejoin="round"/>
<path d="M75.4592 59.178C73.6405 61.6436 73.4229 64.7 74.8734 67.399" stroke="#871C20" stroke-width="5.82828" stroke-miterlimit="10" stroke-linecap="round" stroke-linejoin="round"/>
<path d="M59.5094 74.5198L54.584 72.1989C52.6148 71.2532 51.7849 68.891 52.7306 66.9226C53.6755 64.9534 56.0386 64.1235 58.007 65.0692L62.9325 67.3901" fill="#FBD5BE"/>
<path d="M59.5094 74.5198L54.584 72.1989C52.6148 71.2532 51.7849 68.891 52.7306 66.9226C53.6755 64.9534 56.0386 64.1235 58.007 65.0692L62.9325 67.3901" stroke="#871C20" stroke-width="1.16566" stroke-miterlimit="10" stroke-linecap="round" stroke-linejoin="round"/>
<path d="M69.9929 88.7106C69.2582 88.6792 68.5309 88.493 67.8599 88.1596C66.2035 87.3371 64.4585 87.3371 61.9953 88.0768C60.012 88.6726 57.759 88.0702 56.3541 86.3161C54.5495 84.0631 55.1296 80.6245 57.3445 78.7736C62.1318 74.7739 69.2127 75.0635 73.6575 79.4313C76.0147 81.7472 76.0768 85.521 73.4887 87.5763C72.4668 88.388 71.2208 88.7627 69.9929 88.7106Z" fill="#871C20" stroke="#871C20" stroke-width="1.16566" stroke-miterlimit="10" stroke-linecap="round" stroke-linejoin="round"/>
<path d="M62.585 86.9506C62.585 86.9506 59.392 89.0877 55.8416 91.3184V91.3267C52.1548 93.6426 48.1022 96.0859 46.8255 96.3837C45.3867 96.7155 43.8626 95.9237 43.3687 94.5362C42.7729 92.8847 43.7004 91.105 45.361 90.6193C45.3866 90.611 45.4206 90.611 45.4462 90.611L53.875 87.8955C53.875 87.8955 53.875 87.8955 53.8832 87.8955L61.8527 85.333C62.8654 85.0013 63.4959 86.4061 62.585 86.9506Z" fill="white" stroke="#871C20" stroke-width="1.16566" stroke-miterlimit="10" stroke-linecap="round" stroke-linejoin="round"/>
<path d="M62.5884 86.9508C62.5884 86.9508 59.3955 89.088 55.8451 91.3186C56.2795 88.2449 54.0745 87.9214 53.8867 87.8957L61.8562 85.3333C62.8689 85.0015 63.4994 86.4064 62.5884 86.9508Z" fill="#F4736C" stroke="#871C20" stroke-width="1.16566" stroke-miterlimit="10" stroke-linecap="round" stroke-linejoin="round"/>
<path d="M47.9865 92.9124C48.4805 94.1948 47.9047 95.6105 46.7008 96.0739C45.4969 96.538 44.1201 95.8745 43.6261 94.592C43.1322 93.3096 43.708 91.8939 44.9119 91.4297C46.1157 90.9672 47.4926 91.6307 47.9865 92.9124Z" fill="#871C20"/>
<path d="M84.3494 60.3646C80.9712 61.6719 78.791 61.278 75.3912 61.1613C70.7966 61.0033 68.5461 60.0874 68.3567 59.9865C67.3779 59.4644 66.5604 58.0942 66.7664 56.9383C66.7664 56.9383 68.9276 55.3365 73.4799 55.4879C78.0315 55.6401 84.3494 60.3646 84.3494 60.3646Z" fill="#FBD5BE"/>
<path d="M59.839 57.0422C59.8026 58.4173 58.8867 59.5277 57.6597 59.9728C55.4522 60.7738 53.0031 60.6207 51.3119 60.3245C47.5538 59.665 44.4362 59.2878 44.1797 58.9378C44.1797 58.9378 47.7036 54.1298 52.9153 53.9635C58.1263 53.7971 59.839 57.0422 59.839 57.0422Z" fill="#FBD5BE"/>
<path d="M46.4102 60.2514C48.7807 60.2894 55.1061 60.608 57.6619 59.9734C58.9171 59.6631 59.8049 58.4179 59.8413 57.0427" stroke="#871C20" stroke-width="1.16566" stroke-miterlimit="10" stroke-linecap="round" stroke-linejoin="round"/>
<path d="M83.7495 60.9699C78.3879 61.3414 70.9843 61.6186 68.5865 60.3055C66.9938 59.4326 66.5611 58.0939 66.7663 56.938" stroke="#871C20" stroke-width="1.16566" stroke-miterlimit="10" stroke-linecap="round" stroke-linejoin="round"/>
<path d="M66.3908 76.019V80.8096C65.8861 80.8096 65.3731 80.7931 64.8519 80.7765C61.6581 80.6442 58.7457 80.2305 56.5117 79.643C56.7517 79.3286 57.033 79.039 57.3474 78.7743C59.9454 76.5982 63.2219 75.6881 66.3908 76.019Z" fill="white" stroke="#871C20" stroke-width="1.16566" stroke-miterlimit="10" stroke-linecap="round" stroke-linejoin="round"/>
<path d="M74.2588 80.1397C72.7777 80.4706 70.9244 80.6941 68.8477 80.7851V76.5322C70.6017 77.0866 72.2565 78.0546 73.6548 79.4281C73.8865 79.6515 74.0933 79.8915 74.2588 80.1397Z" fill="white" stroke="#871C20" stroke-width="1.16566" stroke-miterlimit="10" stroke-linecap="round" stroke-linejoin="round"/>
<path d="M114.984 45.498C115.344 46.7077 115.617 47.943 115.813 49.1932C92.351 47.9289 55.0138 39.9644 48.1406 31.7773C67.4058 11.7104 108 20.015 114.984 45.498Z" fill="#8D95B7" stroke="#871C20" stroke-width="1.16566" stroke-miterlimit="10"/>
<path d="M120.791 58.3941C119.709 61.5903 117.907 66.4289 114.143 67.7801C113.341 65.0877 112.672 63.7118 111.547 61.3289C106.277 48.0963 60.2848 37.2673 44.5262 45.0821C42.5503 46.0617 40.6101 47.5601 38.7717 50.0415C36.6022 47.6759 37.1582 43.6449 38.1064 39.2903C39.1969 34.2837 42.3088 32.4725 43.1925 32.0266C60.8723 23.1006 105.299 34.9473 118.348 46.5614C122.473 50.3666 121.863 55.2218 120.791 58.3941Z" fill="#8D95B7" stroke="#871C20" stroke-width="1.16566" stroke-miterlimit="10"/>
<path d="M124.76 69.1107C125.664 63.5419 121.882 58.2948 116.313 57.391C110.744 56.4872 105.497 60.269 104.593 65.8378C103.69 71.4066 107.471 76.6538 113.04 77.5576C118.609 78.4614 123.856 74.6795 124.76 69.1107Z" fill="#FBD5BE"/>
<path d="M106.047 61.9688C107.863 59.1374 111.038 57.2617 114.652 57.2617C120.294 57.2617 124.867 61.8355 124.867 67.4767C124.867 73.1188 120.293 77.6918 114.652 77.6918C112.902 77.6918 111.255 77.2516 109.815 76.4764" stroke="#871C20" stroke-width="1.16566" stroke-miterlimit="10" stroke-linecap="round" stroke-linejoin="round"/>
<path d="M114.225 74.0868C113.425 74.0868 112.658 73.9337 111.96 73.6524C109.687 72.7497 108.078 70.5365 108.078 67.9393C108.078 66.6196 108.495 65.3933 109.219 64.3889C110.326 62.8226 112.156 61.8008 114.226 61.8008C115.585 61.8008 116.841 62.2409 117.859 62.9872" stroke="#871C20" stroke-width="1.16566" stroke-miterlimit="10" stroke-linecap="round" stroke-linejoin="round"/>
<path d="M113.093 70.0934C113.093 71.4131 112.676 72.6475 111.96 73.652C109.687 72.7493 108.078 70.536 108.078 67.9388C108.078 66.6191 108.495 65.3929 109.219 64.3884C111.493 65.2828 113.093 67.4962 113.093 70.0934Z" fill="#871C20" stroke="#871C20" stroke-width="1.16566" stroke-miterlimit="10" stroke-linecap="round" stroke-linejoin="round"/>
<path d="M66.5194 119.967C67.9318 122.401 67.1028 125.52 64.6686 126.932C62.7209 128.062 60.2263 127.399 59.0969 125.452C58.1934 123.894 58.7237 121.898 60.2817 120.995C61.5278 120.272 63.1246 120.696 63.8478 121.942C64.4261 122.939 64.0869 124.217 63.0898 124.795C62.2922 125.257 61.2705 124.986 60.8079 124.188" stroke="#871C20" stroke-width="1.16566" stroke-miterlimit="10" stroke-linecap="round" stroke-linejoin="round"/>
</g>
<defs>
<clipPath id="clip0_2_2412">
<rect width="150" height="150" rx="75" fill="white"/>
</clipPath>
</defs>
</svg>
