<svg width="150" height="150" viewBox="0 0 150 150" fill="none" xmlns="http://www.w3.org/2000/svg">
<g clip-path="url(#clip0_2_3239)">
<rect width="150" height="150" rx="75" fill="#E773FA"/>
<path d="M91.1603 28.3816C81.8938 25.9407 63.7903 27.681 55.4505 45.1065C48.2859 60.0684 51.2918 65.4475 45.1217 67.2556C38.9516 69.0637 33.9116 71.482 31.4933 75.0982C29.0749 78.7144 31.7871 87.5966 26.6792 90.1731C21.5487 92.7271 14.9266 98.7616 14.6328 104.48C25.7752 104.932 147.46 111.034 147.46 111.034C147.46 111.034 149.72 100.411 141.131 96.3433C132.543 92.275 131.865 97.9253 127.571 92.5011C123.277 87.0768 129.831 79.6184 123.05 75.7762C116.27 71.934 116.044 77.8103 111.298 73.0641C106.552 68.3178 116.248 35.0264 91.1603 28.3816Z" fill="#0064C8"/>
<path d="M54.682 57.2203C54.569 59.5031 54.7272 61.8084 54.343 64.0685C53.4616 69.3346 49.5064 73.9678 44.4663 75.6855C41.0083 76.8607 36.8271 76.9285 34.5218 79.7763C32.1939 82.624 32.9849 86.7826 32.4651 90.4214C31.6289 96.2073 27.086 101.044 21.6618 103.168C20.4187 103.666 19.1078 104.027 17.9326 104.638C16.4409 104.57 15.3334 104.525 14.6328 104.502C14.9266 98.7838 21.5713 92.7493 26.6792 90.1954C31.8097 87.6415 29.0975 78.7366 31.4933 75.1204C33.9116 71.5043 38.929 69.0859 45.1217 67.2779C51.2918 65.4698 48.2859 60.0907 55.4505 45.1287C55.7217 44.5863 55.9929 44.0439 56.2641 43.524C56.2867 43.5693 56.3093 43.6145 56.3319 43.6597C58.1626 46.9594 54.8402 53.6494 54.682 57.2203Z" fill="#0F70D1"/>
<path d="M107.433 81.9239C107.998 84.297 106.8 86.9413 107.863 89.1336C109.219 91.9362 113.332 92.1396 115.321 94.5579C116.858 96.4112 116.858 99.2589 118.598 100.909C119.841 102.084 121.649 102.355 123.277 102.875C124.904 103.395 126.644 104.48 126.802 106.175C127.028 108.525 124.248 109.949 121.921 110.356C118.847 110.899 115.683 110.899 112.541 110.899C107.433 110.876 102.348 110.786 97.2401 110.673C94.8444 110.605 92.1548 110.401 90.6631 108.525C89.6009 107.169 89.4879 105.316 89.4201 103.598C89.2393 97.9029 89.1715 92.1848 89.2167 86.4667C89.2393 84.2066 89.2845 81.9239 89.9173 79.7541C90.9344 76.3188 95.658 70.3069 99.9296 71.1205C102.032 71.5273 102.235 73.6971 103.094 75.3017C104.337 77.607 106.8 79.3021 107.433 81.9239Z" fill="#0055A8"/>
<path d="M60.7384 68.1369C63.3376 69.7868 65.0553 72.7023 65.0553 76.0021C65.0553 81.1552 60.874 85.3364 55.721 85.3364C50.5679 85.3364 46.3867 81.1552 46.3867 76.0021C46.3867 70.8491 50.5679 66.6678 55.721 66.6678" stroke="#F9BD64" stroke-width="1.44647" stroke-miterlimit="10" stroke-linecap="round" stroke-linejoin="round"/>
<path d="M-2.5 136.121L6.11103 115.373C9.5464 106.31 18.3835 100.434 28.0794 100.773L135.051 104.57C149.108 105.067 160.183 116.752 159.912 130.81L158.827 190.567L106.121 186.974L102.053 216.129L-2.5 136.121Z" fill="#FACC73"/>
<path d="M119.435 104.028C115.208 109.904 111.004 115.758 106.778 121.634C105.58 123.307 104.314 125.024 102.484 125.996C99.5682 127.533 96.0424 126.697 92.7426 127.013C87.4539 127.488 82.9563 130.856 78.2553 133.274C73.5317 135.715 67.4519 137.161 63.1803 134.02C59.3833 131.24 58.1177 125.544 53.8008 123.668C49.0998 121.612 42.7263 125.047 38.8841 121.657C34.8611 118.131 36.9404 109.769 35.6973 104.932C35.4487 103.983 34.8611 102.582 34.2734 101.045L119.435 104.028Z" fill="#FBD488"/>
<path d="M159.911 130.833L158.804 190.59L134.395 188.918C134.756 185.55 135.796 182.25 137.4 179.29C139.367 175.673 142.079 172.509 144.045 168.893C146.012 165.277 147.209 160.915 145.808 157.05C145.107 155.084 143.774 153.389 142.96 151.468C139.615 143.535 145.356 135.443 147.187 127.895C148.814 121.159 144.203 113.972 146.464 107.734C154.668 112.187 160.092 120.911 159.911 130.833Z" fill="#F9BD64"/>
<path d="M113.219 103.802C113.219 103.802 111.818 106.175 108.925 109.271C103.32 115.283 92.1772 124.007 75.0229 123.578C57.3262 123.126 47.1331 112.887 42.432 106.423C40.2397 103.395 39.2227 101.18 39.2227 101.18L57.4166 101.835L59.7897 93.4504L61.643 86.8509C61.643 86.8509 52.9868 82.8957 55.3599 65.4928C55.7215 62.7807 56.603 59.5713 57.6878 56.3394C58.3206 54.4861 58.9987 52.6328 59.6993 50.8473C59.6993 50.8247 59.7219 50.8021 59.7219 50.7795C61.2136 46.9825 64.4229 44.0895 68.3781 43.0499C68.9432 42.8917 69.5308 42.7561 70.141 42.6431C70.1862 42.6431 70.254 42.6205 70.3218 42.6205C72.6272 42.191 75.2489 42.0328 78.074 42.3267C90.4821 43.7053 97.172 48.0899 93.8722 57.8084C91.9059 63.5943 92.7648 64.747 94.4599 63.7299C96.6522 61.1308 99.0479 60.3172 101.624 61.9671C104.472 63.7751 104.63 67.4139 103.229 70.5781C102.189 72.9512 98.5281 74.0813 97.1042 73.9005C97.0816 73.9457 91.6121 103.033 91.6121 103.033L113.219 103.802Z" fill="#F8934F"/>
<path d="M70.3226 42.6205C70.0966 42.9821 69.7576 43.3211 69.4412 43.6149C67.5427 45.2874 65.4407 46.6887 63.4292 48.2256C62.4122 48.994 61.1239 50.5987 59.7227 50.8699C59.7227 50.8473 59.7453 50.8247 59.7453 50.8021C61.2369 47.0051 64.4463 44.1122 68.4015 43.0725C68.9665 42.9143 69.5541 42.7787 70.1644 42.6657C70.2096 42.6431 70.2548 42.6205 70.3226 42.6205Z" fill="#F77C2D"/>
<path d="M97.1496 73.9232C97.127 73.9232 97.127 73.9232 97.1044 73.9232C97.0818 73.9684 92.1548 100.163 91.6575 102.83C89.9398 102.83 88.2448 102.83 86.5271 102.83C86.2559 102.83 85.9846 102.83 85.7586 102.717C85.397 102.536 85.171 102.152 85.1032 101.745C84.7642 100.231 85.9168 98.807 87.0469 97.8126C88.1995 96.7955 89.5104 95.7785 89.7817 94.2416C90.0303 92.7047 89.1036 91.1904 89.1488 89.631C89.2618 86.2634 93.556 84.5909 94.2341 81.2912C94.5053 79.9577 94.1211 78.5564 94.2341 77.2003C94.3471 75.9347 95.7483 72.4541 97.1496 73.9232Z" fill="#F77C2D"/>
<path d="M94.3008 73.2225C94.3008 73.2225 94.9336 73.7876 97.1033 73.9232" stroke="#BF3028" stroke-width="1.44647" stroke-miterlimit="10" stroke-linecap="round" stroke-linejoin="round"/>
<path d="M88.2227 102.92L93.6244 103.124" stroke="#BF3028" stroke-width="1.44647" stroke-miterlimit="10" stroke-linecap="round" stroke-linejoin="round"/>
<path d="M93.873 57.8087C93.5566 58.758 93.308 59.5716 93.1272 60.2949C92.9238 60.0689 92.7882 59.775 92.6752 59.5038C91.8841 57.3793 92.2231 55.0062 91.9067 52.7687C91.6355 50.7798 90.7993 48.8813 89.5788 47.2992C88.4714 45.8753 87.0701 44.6775 85.4654 43.8638C85.3298 43.796 85.1942 43.7056 85.0586 43.6378C92.8334 45.7623 96.4722 50.1244 93.873 57.8087Z" fill="#F77C2D"/>
<path d="M78.9988 89.2922L66.1388 91.3263L59.8104 93.4508L61.6638 86.8513C61.6638 86.8513 53.0075 82.8961 55.3806 65.4932C55.7422 62.781 56.6237 59.5717 57.7086 56.3397C47.6058 91.3263 78.9988 89.2922 78.9988 89.2922Z" fill="#F9AF79"/>
<path d="M83.9285 87.9814C83.9285 87.9814 72.2211 92.6824 61.6212 86.8513C60.4233 91.0777 59.0898 95.8014 59.0898 95.8014C59.0898 95.8014 75.5661 94.8747 83.9285 87.9814Z" fill="#BF3028"/>
<path d="M95.1836 68.4538C95.1836 68.4538 97.2403 70.1941 98.9354 68.5894C100.63 66.9848 99.6586 64.8376 99.6586 64.8376C98.9354 65.0863 98.2348 65.3801 97.5793 65.7643C96.5397 66.4197 95.6356 67.3238 95.1836 68.4538Z" fill="#F77C2D"/>
<path d="M99.6586 64.8601C99.6586 64.8601 100.63 67.0072 98.9354 68.6118C97.2403 70.2165 95.1836 68.4762 95.1836 68.4762C95.6356 67.3462 96.5397 66.4421 97.6019 65.8093C98.6416 65.1765 99.8169 64.7922 100.992 64.4758" stroke="#BF3028" stroke-width="1.44647" stroke-miterlimit="10" stroke-linecap="round" stroke-linejoin="round"/>
<path d="M72.2408 68.0692C73.5517 66.5775 69.0088 62.6223 68.037 64.9954C67.6302 66.0803 70.6813 69.8547 72.2408 68.0692Z" fill="#F77C2D"/>
<path d="M72.2423 57.3339C72.2423 57.3339 68.1514 64.0012 68.061 65.3573C67.9706 66.7133 70.4116 68.1824 70.4116 68.1824" stroke="#BF3028" stroke-width="1.44647" stroke-miterlimit="10" stroke-linecap="round" stroke-linejoin="round"/>
<path d="M63.3134 60.882C63.1778 61.7182 63.3812 62.3736 64.0141 62.4641C64.6469 62.5545 65.2571 61.9668 65.3927 61.1306C65.5283 60.2944 65.1215 59.5485 64.4887 59.4355C63.8559 59.3225 63.449 60.0457 63.3134 60.882Z" fill="#1A1B16"/>
<path d="M76.2197 63.4132C76.0841 64.2494 76.2875 64.9049 76.9203 64.9953C77.5531 65.0857 78.1634 64.4981 78.299 63.6618C78.4346 62.8256 78.0277 62.0797 77.3949 61.9667C76.7395 61.8763 76.3327 62.577 76.2197 63.4132Z" fill="#1A1B16"/>
<path d="M63.043 54.9152C63.043 54.9152 66.4105 53.74 68.6028 55.7515" stroke="#1A1B16" stroke-width="1.44647" stroke-miterlimit="10" stroke-linecap="round" stroke-linejoin="round"/>
<path d="M76.9648 56.3846C76.9648 56.3846 80.4228 55.4805 83.0897 57.1078" stroke="#1A1B16" stroke-width="1.44647" stroke-miterlimit="10" stroke-linecap="round" stroke-linejoin="round"/>
<path d="M67.8788 72.4539L76.987 69.5384C77.4616 69.3801 77.9363 69.7644 77.8911 70.239C77.8007 71.5951 77.0774 74.036 73.3482 75.0304C69.8451 75.9797 68.1952 74.5106 67.4945 73.5161C67.2459 73.1319 67.4493 72.5895 67.8788 72.4539Z" fill="#1A1B16"/>
<path d="M69.8242 72.7705L75.2259 71.1206C75.2259 71.1206 75.4519 72.6575 73.0336 73.3581C70.231 74.1492 69.8242 72.7705 69.8242 72.7705Z" fill="#EDE3EB"/>
<path d="M74.953 78.0596C75.9132 77.6704 76.5395 76.9797 76.352 76.5169C76.1644 76.0542 75.2339 75.9946 74.2737 76.3839C73.3135 76.7731 72.6872 77.4638 72.8748 77.9265C73.0624 78.3892 73.9928 78.4488 74.953 78.0596Z" fill="#F77C2D"/>
<path d="M74.1641 38.53L83.9278 54.5768C83.9278 54.5542 89.9623 42.3044 74.1641 38.53Z" fill="#0064C8"/>
<path d="M65.0547 51.3222L81.1693 41.6715C81.1693 41.6715 68.9647 35.5466 65.0547 51.3222Z" fill="#0064C8"/>
<path d="M85.0555 28.4045C85.0555 28.4045 79.699 32.5632 78.3203 41.4002" stroke="#0055A8" stroke-width="1.44647" stroke-miterlimit="10" stroke-linecap="round" stroke-linejoin="round"/>
<path d="M101.781 72.9739C104.38 74.3073 106.324 76.8161 106.776 79.9124C107.545 85.0203 104.019 89.7665 98.9109 90.5124C93.803 91.2808 89.0568 87.755 88.311 82.6472C87.5652 77.5393 91.0683 72.7931 96.1762 72.0472" stroke="#FBD488" stroke-width="1.44647" stroke-miterlimit="10" stroke-linecap="round" stroke-linejoin="round"/>
</g>
<defs>
<clipPath id="clip0_2_3239">
<rect width="150" height="150" rx="75" fill="white"/>
</clipPath>
</defs>
</svg>
