<svg width="150" height="150" viewBox="0 0 150 150" fill="none" xmlns="http://www.w3.org/2000/svg">
<g clip-path="url(#clip0_2_2937)">
<rect width="150" height="150" rx="75" fill="#EFFC5E"/>
<path d="M31.4883 91.7453C31.4883 91.7453 32.0209 84.602 39.4148 83.0668C46.8401 81.5317 46.7775 83.5995 52.6989 82.5656C58.6203 81.5317 60.0928 73.9811 60.0928 73.9811V84.1321C60.0928 84.1321 56.5525 87.0458 47.78 86.4192C39.0075 85.7926 36.2818 86.1059 31.4883 91.7453Z" fill="#0064C8"/>
<path d="M56.491 73.2607C56.491 73.2607 44.0842 51.6742 62.0678 38.8914C79.9573 26.1714 95.2152 35.3511 99.6014 45.7841C103.988 56.2171 99.6014 66.6814 99.6014 66.6814L67.2373 78.5868L56.491 73.2607Z" fill="#0064C8"/>
<path d="M74.5684 33.1897C71.7486 34.5056 68.7723 37.4193 67.0491 39.9257C65.0126 42.8707 66.4225 46.1291 65.044 49.2308C63.9161 51.7685 61.1277 52.8651 59.9685 55.3715C58.59 58.3479 59.8432 61.2929 60.5011 64.2379C61.253 67.5903 61.7856 71.6006 57.9947 73.2611C57.744 73.3864 57.4621 73.4804 57.2114 73.5744L56.5535 73.2611C56.5535 73.2611 44.1467 51.6745 62.1303 38.8918C66.4225 35.7901 70.6208 33.973 74.5684 33.1897Z" fill="#0055A8"/>
<path d="M86.6622 33.8786L68.898 34.9751C68.898 34.9751 68.7413 32.9387 68.1147 30.7455C49.5672 26.1713 26.5395 41.5545 4.92166 57.7835C0.911392 60.7912 -3.06756 63.8303 -6.92118 66.7753C-31.6721 85.5734 -78.9807 92.6854 -100.912 73.3547C-126.979 50.3896 -89.3197 31.6854 -83.0536 37.0116C-87.5652 37.2622 -92.484 45.5334 -76.3176 48.5411C-72.276 49.293 -66.8872 49.7317 -59.8693 49.6377C-24.7794 49.1051 -21.0198 23.8529 24.315 15.3937C69.6186 6.93457 86.6622 33.8786 86.6622 33.8786Z" fill="#0064C8"/>
<path d="M4.92168 57.7834C0.9114 60.7911 -3.06755 63.8301 -6.92117 66.7752C-31.6721 85.5733 -78.9807 92.6853 -100.912 73.3545C-126.979 50.3895 -89.3197 31.6853 -83.0536 37.0115C-87.5652 37.2621 -92.484 45.5333 -76.3176 48.541C-68.2344 53.0839 -55.1384 51.486 -47.2745 50.3895C-38.3767 49.1676 -26.7219 43.5282 -20.4558 51.1414C-13.4378 59.6632 -6.1379 55.7469 3.66846 57.4701C4.10709 57.5954 4.51438 57.6894 4.92168 57.7834Z" fill="#0055A8"/>
<path d="M-83.0518 37.0114C-96.7745 39.2358 -97.7457 49.7941 -94.7694 56.9688C-87.2188 75.1403 -60.4314 70.8167 -45.1423 66.4305C-26.1248 60.9477 -10.1464 50.0448 6.74057 40.5204C22.4997 31.6226 39.9193 23.7587 58.8114 25.1999C62.9784 25.5132 67.1139 26.2651 71.1242 27.393" stroke="#173F80" stroke-width="2.50642" stroke-miterlimit="10" stroke-linecap="round" stroke-linejoin="round"/>
<path d="M73.5981 48.4469L71.9062 53.3971" stroke="#173F80" stroke-width="2.50642" stroke-miterlimit="10" stroke-linecap="round" stroke-linejoin="round"/>
<path d="M45.4648 85.448L47.8146 83.5995" stroke="#173F80" stroke-width="2.50642" stroke-miterlimit="10" stroke-linecap="round" stroke-linejoin="round"/>
<path d="M87.8859 34.3487C81.1813 32.2496 73.8813 32.8449 67.4586 35.7273C67.4586 35.7273 67.4586 35.6959 67.4273 35.6959C66.3308 33.2522 67.6466 30.4011 70.247 29.6805C74.8839 28.396 79.7714 28.114 84.5336 28.8973C87.0714 29.3046 88.6692 31.8736 87.8859 34.3487Z" fill="#F52A21"/>
<path d="M87.9142 34.3175V34.3488C86.0657 33.7849 84.1859 33.4089 82.2747 33.2209C82.2434 33.0956 82.2121 32.9703 82.1808 32.845C81.8988 31.5917 81.4289 30.7458 80.4263 29.9312C80.019 29.5866 79.1731 29.0227 78.7031 28.4274C80.6456 28.3961 82.6194 28.5214 84.5619 28.8347C87.0996 29.2733 88.6661 31.8424 87.9142 34.3175Z" fill="#F65852"/>
<path d="M131.244 135.169V181.444C131.244 181.444 126.951 180.723 121.782 180.002C116.8 179.313 110.973 178.624 107.433 178.624C104.926 189.589 93.0208 207.134 93.0208 207.134C93.0208 207.134 74.2854 258.673 51.7903 334.836C31.175 306.639 -8.86506 316.728 -45.5214 320.487C-82.1778 324.247 -108.84 297.459 -108.84 297.459L-30.7336 189.621L-6.20199 116.026C-1.18915 108.319 7.42664 103.713 16.6064 103.807L37.7543 104.027L91.329 104.591L101.073 104.685C102.169 104.685 103.266 104.779 104.331 104.904C104.362 104.904 104.362 104.904 104.394 104.904C119.558 106.721 131.244 119.566 131.244 135.169Z" fill="#5FAEF2"/>
<path d="M95.9349 119.661C94.2744 123.451 91.2354 124.36 88.1023 126.522C83.2775 129.874 77.1368 131.002 71.3407 129.718C68.427 129.06 65.3253 128.245 62.3176 128.151C60.845 128.12 59.3412 128.245 57.8687 128.182C53.2631 127.9 50.1928 125.112 47.279 121.791C46.2765 120.632 45.0859 119.473 44.2713 118.188C43.1121 116.402 42.8928 114.178 41.7649 112.392C41.4203 111.828 40.8877 110.731 40.4177 110.073C40.2297 109.791 40.2611 109.416 40.5117 109.228C44.71 115.682 54.2344 125.801 72.6565 125.363C84.0294 125.112 91.5487 121.196 96.4049 116.809C96.5615 117.499 96.4362 118.439 95.9349 119.661Z" fill="#4598E0"/>
<path d="M-41.5443 204.566C-35.2782 198.989 -29.0122 193.412 -22.5895 187.992C-16.9501 183.261 -10.6527 180.191 -6.23513 174.489C3.60256 161.737 19.111 141.937 37.5959 150.145C45.867 153.811 49.752 158.604 59.1198 160.171C64.1326 161.017 72.5604 161.737 76.1634 165.779C87.8182 178.75 65.6051 195.417 60.5923 205.694C54.7648 217.599 66.827 230.288 60.1223 241.911C53.7936 252.877 38.5358 246.83 28.7608 253.159C20.0509 258.798 18.9857 268.542 12.2497 275.403C4.2605 283.581 -4.32398 283.424 -15.0076 283.863C-21.8376 284.145 -27.9156 284.834 -33.8684 288.406C-41.1057 292.76 -45.3352 298.744 -54.421 298.306C-61.9402 297.93 -70.3994 294.703 -75.7569 289.471C-80.4877 284.834 -83.5581 272.521 -89.6362 271.331C-89.6988 271.299 -89.7928 271.237 -89.8555 271.205L-41.5443 204.566Z" fill="#4598E0"/>
<path d="M115.799 179.251C112.634 178.906 109.595 178.624 107.434 178.624C107.402 178.749 107.371 178.875 107.34 179C107.152 177.715 107.559 177.151 108.091 175.71C110.065 170.259 110.943 164.243 111.193 158.447C111.318 155.377 110.504 152.526 110.253 149.205C111.225 149.455 112.352 153.278 112.728 154.406C113.856 157.758 113.856 161.455 114.483 164.901C115.047 167.972 117.334 175.303 115.799 179.251Z" fill="#4598E0"/>
<path d="M110.473 148.547C110.473 148.547 112.979 161.925 107.434 178.624" stroke="#1A1B16" stroke-width="2.00513" stroke-miterlimit="10" stroke-linecap="round" stroke-linejoin="round"/>
<path d="M131.245 135.169V181.444C131.245 181.444 126.952 180.723 121.783 180.002C122.19 176.243 124.352 172.796 124.352 168.692C124.383 163.147 122.691 159.105 124.039 153.372C125.229 148.265 128.519 143.252 126.326 138.145C125.292 135.764 123.099 133.822 122.378 131.347C121.783 129.247 121.846 126.49 121.564 124.297C120.749 118.157 118.368 115.869 112.948 112.642C110.003 110.888 105.366 108.413 104.363 104.873C104.395 104.873 104.395 104.873 104.426 104.873C119.558 106.721 131.245 119.566 131.245 135.169Z" fill="#71B6F2"/>
<path d="M104.428 104.904C102.925 109.228 95.844 124.83 72.6596 125.363C45.7156 125.989 37.7891 104.027 37.7891 104.027L56.1486 103.62L59.7202 76.801C57.4644 75.7044 55.8979 73.1667 55.8979 70.1903C55.8979 66.2427 58.6863 62.953 62.164 63.0157C62.8846 63.0157 65.3597 63.8616 65.3597 67.3079C65.3597 70.7542 68.4927 71.4748 69.2133 67.3079C69.5893 65.1461 70.0279 60.9792 71.1244 57.4076C72.127 54.1179 73.6935 51.2982 76.3252 51.0162C80.9308 50.4836 95.75 48.7291 101.452 53.4913C101.483 53.5226 101.483 53.5853 101.515 53.6479C101.922 55.8097 101.546 74.4199 100.669 80.2473C98.789 92.7794 92.3037 94.2519 92.3037 94.2519L91.3638 104.591L101.107 104.685C102.204 104.685 103.332 104.779 104.428 104.904Z" fill="#F8934F"/>
<path d="M65.297 99.9539C65.1404 101.52 64.1691 102.868 63.9498 104.465C63.7305 106.095 64.2005 107.755 63.3546 109.228C61.976 111.546 59.2189 111.953 56.7438 111.922C54.1121 111.859 52.5769 110.418 50.1645 109.666C48.6293 109.196 46.9375 109.478 45.4023 109.76C43.6478 110.074 42.4886 110.544 41.3607 110.45C38.823 106.847 37.7891 104.058 37.7891 104.058L56.1486 103.651L59.6262 77.6468C60.0962 77.4901 60.6915 77.4588 61.4121 77.6154C63.8558 77.3648 63.1979 82.6909 62.8532 83.8815C62.2893 85.73 61.882 87.1085 61.882 89.0823C61.882 91.8707 62.7906 92.9986 64.0438 95.411C64.7331 96.7582 65.4537 98.356 65.297 99.9539Z" fill="#F77C2D"/>
<path d="M78.6445 92.6854C78.6445 92.6854 86.2578 96.539 92.3045 94.2519C91.9599 98.1055 91.8345 99.4841 91.8345 99.4841C91.8345 99.4841 84.4093 99.766 78.6445 92.6854Z" fill="#BF3028"/>
<path d="M63.3251 71.7887C63.3251 71.7887 61.1634 72.8853 60.0041 71.1308C58.8449 69.3763 60.1295 67.6844 60.1295 67.6844C60.7247 68.0604 61.2573 68.4677 61.7586 68.9377C62.5419 69.7209 63.1685 70.6921 63.3251 71.7887Z" fill="#F77C2D"/>
<path d="M60.1277 67.6841C60.1277 67.6841 58.8432 69.3759 60.0024 71.1304C61.1616 72.8849 63.3234 71.7884 63.3234 71.7884C63.1668 70.6918 62.5402 69.7206 61.7569 68.9373C60.9736 68.1541 60.0024 67.5901 59.0625 67.0575" stroke="#BF3028" stroke-width="2.00513" stroke-miterlimit="10" stroke-linecap="round" stroke-linejoin="round"/>
<path d="M59.7188 76.7697C59.7188 76.7697 61.6612 77.8975 63.3217 77.5842" stroke="#BF3028" stroke-width="2.00513" stroke-miterlimit="10" stroke-linecap="round" stroke-linejoin="round"/>
<path d="M56.0563 103.651L55.4297 106.502" stroke="#BF3028" stroke-width="2.00513" stroke-miterlimit="10" stroke-linecap="round" stroke-linejoin="round"/>
<path d="M91.3642 104.591L90.9883 108.601" stroke="#BF3028" stroke-width="2.00513" stroke-miterlimit="10" stroke-linecap="round" stroke-linejoin="round"/>
<path d="M101.515 53.6481C99.8861 54.7447 97.5364 53.4288 95.8132 52.9902C93.5575 52.3949 91.6776 53.2095 89.4532 53.1782C87.1661 53.1782 85.0043 52.3636 82.7485 52.3323C80.2108 52.3009 78.143 52.7082 75.8245 53.8361C74.446 54.5254 72.2529 55.8099 71.125 57.3764C72.1276 54.0868 73.6941 51.267 76.3258 50.9851C80.9314 50.4525 95.7506 48.698 101.453 53.4602C101.484 53.5228 101.484 53.5542 101.515 53.6481Z" fill="#F77C2D"/>
<path d="M86.4747 74.9522C85.5348 73.699 89.5137 70.9419 90.391 72.8844C91.2995 74.8269 87.7279 76.6753 86.4747 74.9522Z" fill="#F77C2D"/>
<path d="M82.529 69.7827C82.4037 70.566 82.0278 71.0986 81.4325 71.0046C80.8372 70.9106 80.4613 70.19 80.5866 69.4068C80.7119 68.6235 81.3072 68.0596 81.8711 68.1535C82.4977 68.2475 82.6544 68.9995 82.529 69.7827Z" fill="#1A1B16"/>
<path d="M95.1866 70.6917C95.0613 71.4436 94.7166 71.9449 94.1527 71.8509C93.5888 71.7569 93.2441 71.0676 93.3694 70.347C93.4948 69.5951 94.0274 69.0625 94.5913 69.1565C95.1553 69.2192 95.3119 69.9398 95.1866 70.6917Z" fill="#1A1B16"/>
<path d="M88.793 75.6415L89.4509 75.2968C90.2028 74.8896 90.6101 74.075 90.5161 73.229L89.3882 65.3025" stroke="#BF3028" stroke-width="2.00513" stroke-miterlimit="10" stroke-linecap="round" stroke-linejoin="round"/>
<path d="M79.7089 76.1741C78.487 76.8633 78.3617 78.7745 79.0509 79.9964C79.9908 81.7195 81.8393 83.0354 83.7191 83.5367C85.4736 84.0066 87.6041 83.7873 88.9199 82.4401C89.7032 81.6255 90.1105 80.0277 88.9513 79.3384C88.3247 78.9625 87.5101 79.0878 86.8208 79.0564C85.9122 78.9938 85.0037 78.8371 84.2831 78.2732C83.3118 77.5213 82.1213 75.8921 80.8054 75.8921C80.3668 75.8921 79.9908 76.0174 79.7089 76.1741Z" fill="#1A1B16"/>
<path d="M87.574 79.8399L86.6654 80.7485C85.8195 81.5631 85.3182 82.0017 84.2843 81.4377L83.0938 80.9678C82.3105 80.5292 81.8092 79.7146 81.7152 78.8373L81.5586 76.8635C82.5925 77.7408 82.7804 77.8034 84.0023 78.4614C85.4122 79.1506 86.0701 79.4639 87.574 79.8399C87.6053 79.8399 87.574 79.8399 87.574 79.8399Z" fill="#F3EDF3"/>
<path d="M80.8054 75.8928V76.8327C81.3694 76.8327 82.1526 77.5847 82.7479 78.1486C83.0612 78.4619 83.3745 78.7752 83.6878 78.9945C84.6903 79.7464 85.8496 79.9031 86.7582 79.9658C86.9461 79.9658 87.1341 79.9658 87.3221 79.9658C87.7607 79.9658 88.2307 79.9658 88.4813 80.1224C88.638 80.2164 88.7006 80.3417 88.732 80.4984C88.7946 80.8743 88.5753 81.4069 88.262 81.7516C87.6041 82.4095 86.6015 82.7855 85.4423 82.7855C84.941 82.7855 84.4397 82.7228 83.9698 82.5975C82.2779 82.1275 80.6488 80.937 79.8655 79.4958C79.3956 78.6812 79.4269 77.334 80.1788 76.9267C80.3355 76.8327 80.5548 76.7701 80.8054 76.7701V75.8928ZM80.8054 75.8928C80.3668 75.8928 79.9908 75.9868 79.7089 76.1748C78.487 76.8641 78.3617 78.7752 79.0509 79.9971C79.9908 81.7203 81.8393 83.0361 83.7191 83.5374C84.2518 83.6941 84.847 83.7567 85.4423 83.7567C86.7268 83.7567 88.0114 83.3494 88.9199 82.4408C89.7032 81.6263 90.1105 80.0284 88.9513 79.3392C88.3247 78.9632 87.5101 79.0885 86.8208 79.0572C85.9122 78.9945 85.0037 78.8379 84.2831 78.2739C83.3118 77.5533 82.1213 75.8928 80.8054 75.8928Z" fill="#1A1B16"/>
<path d="M78.6445 62.1386C78.6445 62.1386 81.8402 60.6034 85.0359 61.1987" stroke="#1A1B16" stroke-width="2.00513" stroke-miterlimit="10" stroke-linecap="round" stroke-linejoin="round"/>
<path d="M93.4336 61.4489C93.4336 61.4489 96.128 61.5115 98.5404 62.8587" stroke="#1A1B16" stroke-width="2.00513" stroke-miterlimit="10" stroke-linecap="round" stroke-linejoin="round"/>
<path d="M82.2864 85.6012C82.4354 85.1221 81.9534 84.5463 81.2098 84.3152C80.4663 84.0841 79.7428 84.2852 79.5939 84.7643C79.445 85.2435 79.927 85.8193 80.6705 86.0504C81.414 86.2815 82.1375 86.0804 82.2864 85.6012Z" fill="#F77C2D"/>
</g>
<defs>
<clipPath id="clip0_2_2937">
<rect width="150" height="150" rx="75" fill="white"/>
</clipPath>
</defs>
</svg>
