<svg width="150" height="150" viewBox="0 0 150 150" fill="none" xmlns="http://www.w3.org/2000/svg">
<g clip-path="url(#clip0_2_2159)">
<rect width="150" height="150" rx="75" fill="#D9B7F3"/>
<path d="M141.561 128.09L141.529 208.577C141.529 210.094 141.248 211.635 140.646 213.042C140.278 213.903 139.801 214.724 139.214 215.459C138.855 215.921 138.448 216.351 138.002 216.75C136.868 217.758 135.492 218.517 134.021 218.939C132.551 219.37 130.994 219.479 129.485 219.299L26.8101 207.098C25.1833 206.903 23.5878 206.379 22.1331 205.581C20.6862 204.799 19.3879 203.751 18.2929 202.515C17.198 201.287 16.3142 199.864 15.712 198.331C15.1019 196.798 14.7656 195.14 14.7656 193.505V120.027C17.4561 116.1 21.875 112.464 27.8503 109.437C33.7161 106.457 41.0757 104.064 49.7649 102.546C56.4284 101.381 63.8819 100.732 72.0393 100.732C82.2849 100.732 94.1494 102.75 105.216 106.097C114.422 108.882 123.072 112.581 129.759 116.804C135.288 120.285 139.48 124.125 141.561 128.09Z" fill="url(#paint0_linear_2_2159)"/>
<path d="M99.0291 132.516C102.727 136.698 105.331 140.739 106.91 143.496C107.994 145.387 107.242 147.796 105.276 148.736L66.1885 167.422C62.8802 169.002 59.1964 166.038 60.0646 162.479C60.7372 159.702 61.7696 156.371 63.326 152.71L35.1381 133.182C33.8234 132.272 33.7224 130.363 34.9394 129.325C37.2928 127.317 41.201 124.139 45.7364 121.066C39.8612 117.927 34.7431 114.483 31.4794 112.143C29.7752 110.922 30.0958 108.318 32.0331 107.517C37.0933 105.424 43.0295 103.722 49.7642 102.545C49.7642 102.717 49.7799 102.897 49.8112 103.085C50.4603 107.973 51.7117 112.494 53.3385 116.631C53.6826 117.531 54.0502 118.407 54.4334 119.259C54.4725 119.345 54.5116 119.423 54.5507 119.509C54.934 120.37 55.3407 121.206 55.7552 122.035C55.7943 122.106 55.8334 122.176 55.8647 122.247C56.2948 123.076 56.7328 123.889 57.1786 124.679C57.2099 124.742 57.249 124.796 57.2803 124.859C61.0969 131.53 65.7035 136.88 69.794 140.861C73.9235 134.753 79.5938 128.371 87.3992 122.38C94.1566 116.154 100.742 110.625 105.216 106.096C112.953 108.436 120.298 111.423 126.415 114.824C127.975 115.692 128.03 117.918 126.515 118.862C119.392 123.31 107.42 130.285 99.0369 132.516H99.0291V132.516Z" fill="#616F93"/>
<path d="M141.561 128.09L141.529 208.577C141.529 210.094 141.248 211.635 140.646 213.042C140.278 213.903 139.801 214.724 139.214 215.459C138.855 215.921 138.448 216.351 138.002 216.75C136.868 217.758 135.492 218.517 134.021 218.939C132.551 219.37 130.994 219.479 129.485 219.299L26.8101 207.098C25.1833 206.903 23.5878 206.379 22.1331 205.581C20.6862 204.799 19.3879 203.751 18.2929 202.515C17.198 201.287 16.3142 199.864 15.712 198.331C15.1019 196.798 14.7656 195.14 14.7656 193.505V120.027C17.4561 116.1 21.875 112.464 27.8503 109.437C33.7161 106.457 41.0757 104.064 49.7649 102.546C56.4284 101.381 63.8819 100.732 72.0393 100.732C82.2849 100.732 94.1494 102.75 105.216 106.097C114.422 108.882 123.072 112.581 129.759 116.804C135.288 120.285 139.48 124.125 141.561 128.09Z" stroke="#871C20" stroke-width="1.14295" stroke-miterlimit="10"/>
<path d="M99.8893 113.526C99.8893 128.615 88.2524 140.848 73.8984 140.848C59.5444 140.848 46.1016 125.62 46.1016 110.53C46.1016 95.4405 59.5436 86.2039 73.8984 86.2039C88.2524 86.2039 99.8893 98.4367 99.8893 113.526Z" fill="#F5B2A0"/>
<path d="M129.706 110.894C129.706 110.894 108.879 125.05 96.2294 128.419C87.7435 130.678 82.0514 120.624 84.5956 118.281C95.0969 108.61 105.189 100.602 107.577 95.4739L129.706 110.894Z" fill="#747FA3" stroke="#871C20" stroke-width="1.14295" stroke-miterlimit="10" stroke-linecap="round" stroke-linejoin="round"/>
<path d="M60.0733 123.766C44.7542 118.756 29.5156 106.536 29.5156 106.536C29.5156 106.536 41.5773 100.811 52.4955 94.1726C52.9272 96.436 51.2433 97.6131 51.5992 100.287C52.8232 109.419 56.1017 117.27 60.0733 123.766Z" fill="#747FA3" stroke="#871C20" stroke-width="1.14295" stroke-miterlimit="10" stroke-linecap="round" stroke-linejoin="round"/>
<path d="M78.6117 144.125C74.8318 149.058 71.3029 154.206 71.3029 154.206L34.3672 128.613C34.3672 128.613 44.3766 119.349 55.0703 113.702C61.1958 129.445 72.8288 139.747 78.6117 144.125Z" fill="#747FA3" stroke="#871C20" stroke-width="1.14295" stroke-miterlimit="10" stroke-linecap="round" stroke-linejoin="round"/>
<path d="M105.966 142.967L63.3816 163.323C60.0733 164.904 56.3896 161.943 57.2577 158.38C59.6158 148.703 66.2027 132.404 84.5939 118.28C99.2779 127.803 105.966 142.967 105.966 142.967Z" fill="#747FA3" stroke="#871C20" stroke-width="1.14295" stroke-miterlimit="10" stroke-linecap="round" stroke-linejoin="round"/>
<path d="M124.016 103.01C121.924 103.939 119.829 104.874 117.738 105.804C117.738 105.804 117.737 105.804 117.737 105.805C117.737 105.805 117.737 105.805 117.736 105.805C117.067 106.068 116.647 106.835 116.729 107.522C116.728 107.508 116.729 107.496 116.729 107.482C116.733 107.517 116.733 107.552 116.737 107.588C116.735 107.572 116.732 107.557 116.73 107.541C116.737 107.63 116.748 107.714 116.763 107.8V107.799C116.768 107.824 116.772 107.848 116.777 107.87C116.794 107.953 116.81 108.018 116.841 108.122C117.558 110.33 120.536 112.312 122.842 111.806C123.508 111.66 124.106 111.092 124.179 110.39C124.183 110.364 124.185 110.336 124.187 110.31C124.184 110.336 124.183 110.364 124.179 110.39C124.19 110.314 124.195 110.251 124.198 110.205C124.262 108.719 124.492 103.338 124.492 103.338C124.493 103.115 124.225 102.93 124.016 103.01Z" fill="url(#paint1_linear_2_2159)" stroke="#871C20" stroke-width="1.14295" stroke-miterlimit="10" stroke-linecap="round" stroke-linejoin="round"/>
<path d="M34.043 99.5118C34.043 99.5126 34.043 99.5126 34.043 99.5118C34.043 99.5118 34.1095 104.897 34.1282 106.385C34.1298 106.43 34.1329 106.494 34.1415 106.57C34.1384 106.543 34.1376 106.516 34.1361 106.49C34.1384 106.516 34.1384 106.545 34.1415 106.57C34.1931 107.273 34.7735 107.859 35.4359 108.026C37.7251 108.601 40.7621 106.711 41.5449 104.526C41.5794 104.423 41.5966 104.358 41.6161 104.276C41.6216 104.253 41.6271 104.229 41.6325 104.204C41.6325 104.205 41.6325 104.205 41.6325 104.205C41.6497 104.12 41.6638 104.037 41.6732 103.947C41.6716 103.962 41.6677 103.978 41.6662 103.994C41.6709 103.958 41.6717 103.924 41.6771 103.889C41.6763 103.902 41.6771 103.914 41.6756 103.928C41.7772 103.243 41.3807 102.463 40.7206 102.18C40.7206 102.18 40.7206 102.18 40.7198 102.18C40.7198 102.18 40.719 102.18 40.719 102.18C38.6566 101.186 36.5911 100.188 34.5287 99.1966C34.3206 99.1114 34.0477 99.2882 34.043 99.5118Z" fill="url(#paint2_linear_2_2159)" stroke="#871C20" stroke-width="1.14295" stroke-miterlimit="10" stroke-linecap="round" stroke-linejoin="round"/>
<path d="M99.558 142.757C99.5627 142.751 99.5682 142.745 99.5728 142.739C100.993 141.124 100.504 138.264 98.4177 137.029C98.4138 137.026 98.4083 137.023 98.4036 137.021C98.4067 137.023 98.4106 137.025 98.4146 137.027C98.3293 136.977 98.2433 136.926 98.1565 136.879C98.0712 136.835 97.9734 136.787 97.8835 136.746L97.8765 136.742C97.8757 136.742 97.8757 136.742 97.8749 136.741C97.8741 136.741 97.8741 136.74 97.8733 136.74C97.8303 136.724 97.7818 136.703 97.738 136.684H97.7373C97.6567 136.653 97.5566 136.614 97.4737 136.588C97.4197 136.573 97.3681 136.556 97.3141 136.54L97.2977 136.534C97.2961 136.534 97.2946 136.534 97.293 136.534C97.2915 136.533 97.2899 136.533 97.2883 136.532L97.2696 136.527C97.1303 136.491 96.9911 136.459 96.8496 136.438C96.8472 136.438 96.8449 136.437 96.8425 136.437C96.6579 136.407 96.4718 136.39 96.2849 136.387C96.2857 136.387 96.2857 136.387 96.2864 136.387C96.2059 136.387 96.1261 136.385 96.0456 136.389C96.0417 136.389 96.0377 136.389 96.0338 136.389C95.9189 136.398 95.8031 136.404 95.6881 136.42C95.696 136.419 95.7053 136.416 95.7124 136.416C95.6232 136.427 95.5302 136.446 95.4418 136.459C95.4347 136.46 95.4254 136.463 95.4183 136.464C95.4105 136.466 95.4003 136.467 95.3925 136.469C95.2627 136.499 95.1336 136.531 95.0108 136.57L95.0179 136.567L95.0108 136.57C95.0077 136.57 95.0054 136.571 95.003 136.573L94.892 136.611L94.8521 136.624C94.8482 136.626 94.8435 136.628 94.8395 136.63L94.8247 136.635C94.8223 136.636 94.8208 136.638 94.8184 136.638C94.8153 136.639 94.813 136.641 94.8098 136.642L94.7942 136.647L94.7926 136.648C93.9831 137.026 93.4967 137.272 92.8647 138.413C92.7975 138.549 92.7552 138.652 92.6982 138.817C92.6888 138.838 92.6395 138.996 92.6207 139.08L92.6035 139.142C92.6012 139.153 92.5988 139.166 92.5965 139.178C92.5933 139.19 92.5902 139.203 92.5871 139.214L92.5855 139.221C92.5855 139.222 92.5847 139.223 92.5847 139.223C92.5769 139.259 92.5707 139.303 92.5628 139.341C92.5503 139.395 92.5425 139.454 92.5347 139.51C92.5355 139.503 92.537 139.496 92.5378 139.489C92.537 139.492 92.537 139.496 92.537 139.5C92.5269 139.567 92.519 139.639 92.5136 139.722L92.512 139.737C92.512 139.747 92.5112 139.76 92.5112 139.771C92.5104 139.781 92.5089 139.794 92.5081 139.804V139.833C92.5042 139.902 92.5034 139.996 92.5042 140.068C92.5042 140.056 92.505 140.041 92.505 140.029C92.5042 140.156 92.5112 140.263 92.5214 140.358C92.5214 140.359 92.5214 140.361 92.5222 140.362C92.523 140.368 92.5237 140.375 92.5245 140.381C92.5237 140.375 92.523 140.368 92.5222 140.362C92.523 140.367 92.5229 140.371 92.5237 140.375L92.5269 140.397C92.5269 140.415 92.5308 140.431 92.5339 140.448C92.5441 140.53 92.5558 140.617 92.5683 140.688L92.5621 140.645C92.5668 140.677 92.5714 140.709 92.5785 140.74C92.5785 140.741 92.5785 140.741 92.5785 140.742C92.5785 140.744 92.5793 140.745 92.5801 140.747C92.6066 140.881 92.6246 140.959 92.6551 141.058C92.6825 141.162 92.731 141.3 92.7803 141.423C92.7818 141.428 92.7834 141.432 92.785 141.437C92.7904 141.452 92.799 141.472 92.8045 141.486C92.8014 141.478 92.7983 141.469 92.7943 141.46C92.8076 141.492 92.8217 141.525 92.8358 141.557L92.8491 141.591C92.8507 141.595 92.853 141.599 92.8546 141.603C92.8561 141.606 92.8577 141.611 92.8593 141.614L92.8788 141.653C92.9609 141.835 93.0524 141.986 93.1549 142.152L93.1635 142.163C93.6046 142.841 94.2451 143.382 94.9842 143.706C94.9889 143.708 94.996 143.711 95.0007 143.713C95.0015 143.713 95.0014 143.713 95.0014 143.714C95.0022 143.714 95.0022 143.715 95.003 143.715C95.0953 143.754 95.1813 143.787 95.2721 143.822C95.2697 143.821 95.2666 143.821 95.2642 143.82L95.2736 143.823C96.7229 144.352 98.3809 144.083 99.4485 142.88C99.4868 142.842 99.522 142.799 99.558 142.757Z" fill="url(#paint3_radial_2_2159)" stroke="#871C20" stroke-width="1.14295" stroke-miterlimit="10" stroke-linecap="round" stroke-linejoin="round"/>
<path d="M40.7316 128.922C41.1532 130.343 42.4319 131.214 43.8476 131.339L43.8562 131.341C43.8538 131.341 43.8515 131.34 43.8491 131.34C43.9391 131.346 44.0235 131.352 44.1158 131.355C44.1166 131.355 44.1166 131.355 44.1174 131.355C44.1182 131.355 44.1182 131.355 44.1182 131.355C44.1237 131.355 44.1299 131.355 44.1354 131.355C44.8792 131.373 45.6245 131.172 46.2572 130.779L46.269 130.772C46.4191 130.674 46.5544 130.584 46.6937 130.465L46.7257 130.44C46.7281 130.437 46.732 130.434 46.7343 130.432C46.7374 130.429 46.7406 130.426 46.7437 130.424L46.768 130.401C46.793 130.379 46.8172 130.358 46.8407 130.336C46.8344 130.342 46.8282 130.349 46.8227 130.354C46.8337 130.343 46.8477 130.331 46.8579 130.321C46.8618 130.317 46.8641 130.315 46.8673 130.311C46.9564 130.228 47.0503 130.131 47.1144 130.056C47.1786 129.985 47.2239 129.926 47.2982 129.825C47.299 129.823 47.3006 129.823 47.3014 129.821C47.3021 129.82 47.3013 129.82 47.3021 129.819C47.3193 129.797 47.3365 129.772 47.353 129.747L47.3311 129.78C47.3694 129.725 47.4132 129.657 47.4538 129.593C47.4632 129.579 47.4726 129.567 47.4797 129.553L47.4906 129.536C47.493 129.532 47.4945 129.528 47.4969 129.525C47.4938 129.529 47.4906 129.535 47.4875 129.539C47.4906 129.535 47.4938 129.529 47.4969 129.525C47.4977 129.524 47.4984 129.522 47.4984 129.522C47.5446 129.446 47.5923 129.36 47.6408 129.253C47.6361 129.263 47.6306 129.276 47.6259 129.286C47.6548 129.227 47.6908 129.148 47.7143 129.089L47.7252 129.064C47.7284 129.055 47.7323 129.044 47.7354 129.036C47.7393 129.026 47.744 129.015 47.7479 129.007L47.7526 128.994C47.78 128.922 47.8019 128.859 47.8191 128.8C47.8199 128.796 47.8214 128.792 47.8222 128.789C47.8207 128.796 47.8183 128.803 47.8168 128.808C47.8316 128.759 47.848 128.707 47.859 128.657C47.8676 128.623 47.8793 128.583 47.8871 128.55C47.8871 128.549 47.8871 128.549 47.8871 128.548L47.8887 128.541C47.8903 128.53 47.8926 128.518 47.895 128.507C47.8973 128.496 47.9004 128.484 47.9028 128.474L47.9129 128.416C47.9302 128.337 47.9513 128.186 47.9513 128.165C47.9685 128.006 47.9732 127.902 47.9708 127.763C47.8895 126.564 47.5798 126.169 47.0519 125.537L47.0511 125.537L47.0401 125.526C47.0386 125.523 47.0362 125.522 47.0347 125.52C47.0331 125.519 47.0323 125.517 47.0307 125.515L47.0206 125.505C47.0182 125.502 47.0143 125.499 47.012 125.496L46.9838 125.469L46.9064 125.393C46.9048 125.392 46.9025 125.39 46.9009 125.388L46.8954 125.383L46.9001 125.388C46.8125 125.307 46.7171 125.231 46.6209 125.154C46.6147 125.15 46.6076 125.145 46.6014 125.14C46.5959 125.135 46.5889 125.131 46.5834 125.126C46.5146 125.081 46.4442 125.028 46.3746 124.984C46.38 124.988 46.3871 124.993 46.3933 124.997C46.3042 124.939 46.2103 124.889 46.1172 124.837C46.1141 124.835 46.111 124.833 46.1079 124.832C46.0422 124.797 45.9749 124.767 45.9076 124.737L45.9084 124.737C45.752 124.666 45.5893 124.607 45.4235 124.561C45.422 124.56 45.4196 124.56 45.4173 124.559C45.2906 124.521 45.1615 124.494 45.0317 124.47L45.0145 124.466C45.0129 124.466 45.0113 124.465 45.0098 124.465C45.0082 124.465 45.0067 124.464 45.0059 124.464L44.9902 124.462C44.9394 124.454 44.8893 124.448 44.8385 124.439C44.7587 124.429 44.6602 124.422 44.5812 124.417H44.5804C44.5366 124.414 44.4881 124.413 44.4459 124.41C44.4451 124.41 44.4451 124.41 44.4443 124.41C44.4435 124.41 44.4435 124.41 44.4428 124.41H44.4357C44.345 124.41 44.2449 124.411 44.1557 124.414C44.065 124.421 43.9727 124.429 43.882 124.438C43.8851 124.438 43.8898 124.437 43.8929 124.437C43.8882 124.437 43.8828 124.438 43.8781 124.439C41.6553 124.654 40.1302 126.85 40.6847 128.753C40.6863 128.76 40.6886 128.767 40.6902 128.773C40.7027 128.823 40.716 128.872 40.7316 128.922Z" fill="url(#paint4_radial_2_2159)" stroke="#871C20" stroke-width="1.14295" stroke-miterlimit="10" stroke-linecap="round" stroke-linejoin="round"/>
<path d="M115.943 114.809C115.956 114.554 115.931 114.309 115.884 114.062C115.679 113.171 115.562 112.244 115.31 111.371C115.266 111.301 115.184 111.261 115.103 111.251C114.072 111.209 113.037 111.078 112.006 111.094C111.982 111.095 111.957 111.097 111.932 111.1C111.91 111.103 111.887 111.105 111.866 111.108C111.875 111.106 111.885 111.107 111.893 111.105C111.882 111.107 111.871 111.107 111.86 111.108H111.861H111.86C111.655 111.139 111.469 111.176 111.272 111.251C111.122 111.301 110.93 111.394 110.781 111.488C110.744 111.512 110.708 111.535 110.672 111.56C110.089 111.955 109.692 112.639 109.615 113.333C109.592 113.512 109.591 113.703 109.597 113.868C109.642 114.453 109.781 114.866 110.05 115.351C110.081 115.404 110.113 115.457 110.145 115.509C110.189 115.584 110.244 115.659 110.3 115.735C110.299 115.733 110.297 115.731 110.296 115.729C110.298 115.732 110.3 115.735 110.303 115.738C110.302 115.738 110.301 115.737 110.3 115.735C110.584 116.118 110.945 116.451 111.346 116.711C111.357 116.717 111.366 116.722 111.376 116.729C111.484 116.793 111.592 116.857 111.703 116.912C111.702 116.912 111.7 116.911 111.699 116.911C111.714 116.918 111.73 116.925 111.745 116.932C111.736 116.928 111.727 116.925 111.718 116.92C112.64 117.383 113.829 117.458 114.728 116.908C114.874 116.833 115.188 116.578 115.315 116.417C115.359 116.368 115.353 116.379 115.426 116.283C115.427 116.281 115.428 116.28 115.429 116.279C115.433 116.273 115.437 116.267 115.442 116.262C115.75 115.86 115.925 115.318 115.943 114.809Z" fill="url(#paint5_linear_2_2159)" stroke="#871C20" stroke-width="1.14295" stroke-miterlimit="10" stroke-linecap="round" stroke-linejoin="round"/>
<path d="M43.9462 113.129C43.9501 113.134 43.9548 113.139 43.9587 113.143C43.9595 113.143 43.9611 113.145 43.9619 113.146C44.0385 113.223 44.0315 113.215 44.076 113.254C44.2074 113.383 44.5164 113.575 44.6548 113.625C45.5182 114.016 46.5702 113.817 47.3413 113.301C47.3343 113.305 47.3257 113.309 47.3187 113.314C47.3312 113.305 47.3445 113.297 47.357 113.29C47.3562 113.29 47.3554 113.291 47.3538 113.292C47.4461 113.23 47.5361 113.161 47.6245 113.091C47.6331 113.084 47.6409 113.079 47.6503 113.071C47.9788 112.795 48.2634 112.458 48.4738 112.084C48.473 112.085 48.4731 112.086 48.4723 112.087C48.4738 112.084 48.4754 112.081 48.4777 112.078C48.4762 112.081 48.4754 112.082 48.4746 112.084C48.5168 112.011 48.5575 111.937 48.588 111.865C48.6115 111.815 48.6334 111.765 48.6553 111.714C48.8414 111.251 48.9196 110.867 48.8938 110.34C48.8805 110.192 48.8594 110.022 48.8179 109.864C48.6725 109.253 48.2415 108.688 47.6769 108.401C47.6432 108.383 47.608 108.366 47.5721 108.349C47.4289 108.282 47.2475 108.22 47.1075 108.193C46.9237 108.147 46.7532 108.135 46.5671 108.13H46.5663C46.5663 108.13 46.5663 108.13 46.5671 108.13C46.5569 108.13 46.5467 108.132 46.5373 108.131C46.5452 108.131 46.5538 108.13 46.5624 108.13C46.5428 108.13 46.5225 108.131 46.5021 108.131C46.4802 108.13 46.4583 108.132 46.4357 108.133C45.5136 108.233 44.6055 108.466 43.6897 108.62C43.6185 108.638 43.5505 108.682 43.5184 108.75C43.3917 109.556 43.3909 110.397 43.308 111.214C43.2939 111.439 43.2986 111.661 43.3377 111.887C43.4097 112.341 43.6263 112.804 43.9462 113.129Z" fill="url(#paint6_linear_2_2159)" stroke="#871C20" stroke-width="1.14295" stroke-miterlimit="10" stroke-linecap="round" stroke-linejoin="round"/>
<path d="M30.5274 63.7636C31.4636 70.0736 34.66 76.0348 39.5013 76.7997C44.3425 77.5646 48.4345 72.9611 48.641 66.5173C48.8475 60.0736 45.1231 54.0342 40.249 53.4656C33.0818 52.6295 29.5795 57.3722 30.5274 63.7636Z" fill="#FBD5BE"/>
<path d="M47.7977 60.8873C46.4431 56.9674 43.5845 54.1018 40.2512 53.4652C33.9138 52.256 29.0678 57.0104 30.7392 64.9863C32.0672 71.3238 34.6622 76.0344 39.5035 76.7993C42.154 77.2177 44.5801 76.0273 46.2671 73.8061" stroke="#871C20" stroke-width="1.14295" stroke-miterlimit="10" stroke-linecap="round" stroke-linejoin="round"/>
<path d="M118.964 75.3805C118.685 96.6874 106.015 111.015 74.7906 110.517C51.8624 110.152 35.654 95.3641 35.9332 74.0572C36.2125 52.7503 52.8744 32.9935 75.8027 33.3595C103.427 33.7998 119.243 54.0743 118.964 75.3805Z" fill="#FBD5BE"/>
<path d="M118.964 75.3805C118.685 96.6874 106.015 111.015 74.7906 110.517C51.8624 110.152 35.654 95.3641 35.9332 74.0572C36.2125 52.7503 52.8744 32.9935 75.8027 33.3595C103.427 33.7998 119.243 54.0743 118.964 75.3805Z" stroke="#871C20" stroke-width="1.14295" stroke-miterlimit="10" stroke-linecap="round" stroke-linejoin="round"/>
<path d="M57.7109 71.1597C58.0863 72.2233 58.8466 73.506 59.5661 74.3202C59.5739 74.328 59.5817 74.3358 59.5896 74.3358C61.0834 76.0251 63.2342 77.0732 65.6743 77.0575C67.5983 77.0419 69.4519 76.3458 70.9849 75.1883C72.291 74.2185 73.3624 72.928 74.0507 71.4576" stroke="#871C20" stroke-width="1.14295" stroke-miterlimit="10" stroke-linecap="round" stroke-linejoin="round"/>
<path d="M70.9846 75.1882C70.9533 76.3222 70.7108 77.425 70.3276 78.5591C69.9053 79.7244 69.3421 80.921 68.0204 81.578C66.769 82.2115 64.7199 82.102 62.8585 80.921C61.0596 79.8026 59.4329 77.6362 59.5189 75.0943C59.5189 74.8284 59.5345 74.5703 59.5658 74.3201C59.5736 74.3279 59.5815 74.3357 59.5893 74.3357C61.0831 76.025 63.2339 77.0731 65.6741 77.0574C67.598 77.0418 69.4516 76.3457 70.9846 75.1882Z" fill="white" stroke="#871C20" stroke-width="1.14295" stroke-miterlimit="10"/>
<path d="M88.4141 57.0982C96.9992 57.1311 108.085 60.721 113.596 56.2778" stroke="#871C20" stroke-width="4.57181" stroke-miterlimit="10" stroke-linecap="round" stroke-linejoin="round"/>
<path d="M77.6118 72.6958C77.0104 72.6919 76.4207 72.6418 75.8451 72.5488C74.9613 72.4072 74.1088 72.1647 73.2993 71.8347C71.1415 70.9548 69.2801 69.4454 67.9004 67.5237C67.3631 66.7753 66.8993 65.9642 66.5177 65.1023C66.2924 64.5916 66.0805 63.7814 65.2999 63.7681C64.6828 63.7579 64.309 64.5463 64.0673 65.0351C63.6864 65.8078 63.1046 66.9387 62.708 67.4721C60.8271 70.0014 58.1225 71.5672 55.1333 71.5516C54.2237 71.5461 53.3447 71.3951 52.5102 71.1175C51.7883 70.8766 51.1 70.5411 50.454 70.1219C49.7673 69.6769 49.1283 69.1388 48.5496 68.5201C47.6611 67.5746 46.9103 66.4405 46.337 65.1719C45.5635 63.4576 45.1138 61.4921 45.0872 59.3945C45.0786 58.7172 45.1146 58.0524 45.192 57.4033C45.3515 56.0659 46.4105 55.1399 47.6345 55.082C49.2933 55.003 87.7949 55.4558 87.9708 55.4965C89.1886 55.7788 90.1224 56.7964 90.2163 58.1189C90.235 58.3919 90.2467 58.6672 90.2514 58.9448C90.3648 66.586 84.6117 72.7443 77.6118 72.6958Z" fill="#871C20"/>
<path d="M48.6289 58.375L56.3663 58.4986" stroke="white" stroke-width="3.42885" stroke-miterlimit="10" stroke-linecap="round" stroke-linejoin="round"/>
<path d="M84.7188 58.8772L85.8732 58.896" stroke="white" stroke-width="3.42885" stroke-miterlimit="10" stroke-linecap="round" stroke-linejoin="round"/>
<path d="M72.0391 58.7483L80.1206 58.8773" stroke="white" stroke-width="3.42885" stroke-miterlimit="10" stroke-linecap="round" stroke-linejoin="round"/>
<path d="M93.196 14.2386C89.7485 13.085 85.8622 13.0685 81.6498 14.0587C79.9526 14.4576 78.5527 14.7188 77.2411 16.089C75.8254 17.3177 75.9568 32.3756 75.8497 40.5541C73.3509 40.8896 69.6234 40.5564 68.0779 40.3726C67.2293 40.2717 66.5786 39.8924 66.222 39.3825C63.9507 36.1235 60.6862 22.2778 60.1559 18.3595C60.0066 17.2544 60.0973 16.3901 60.5627 15.8802C62.4069 13.8632 67.8965 13.2109 71.728 13.0623C75.5971 12.9113 83.4025 13.2476 87.2833 13.2265V13.2273C89.3004 13.1882 91.3057 13.5535 93.196 14.2386Z" fill="#871C20" stroke="#871C20" stroke-width="1.14295" stroke-miterlimit="10" stroke-linecap="round" stroke-linejoin="round"/>
<path d="M100.028 20.8818C99.2655 23.5144 96.313 37.4359 96.0823 37.9356C96.0761 37.9552 96.0698 37.9677 96.0698 37.9677C89.0809 35.5659 84.4759 36.0461 77.878 39.9214C77.4486 40.2421 76.7252 40.4399 75.8477 40.5557C75.9564 32.3756 75.8218 17.3209 77.2437 16.0906C78.5506 14.7196 79.9537 14.4568 81.6509 14.0603C81.83 14.0157 82.0161 13.9774 82.1952 13.9383C82.1952 13.9383 84.1943 16.136 84.1943 20.5127C84.1943 20.5127 85.6349 15.1623 85.6474 13.4198C88.3379 13.2023 90.868 13.4643 93.1932 14.2394C95.3518 15.0207 97.3572 16.2189 99.0606 17.7174C99.0731 17.7237 99.0801 17.7299 99.0864 17.737C99.1059 17.7565 99.131 17.7753 99.1568 17.7949C99.2209 17.859 99.2913 17.9231 99.3492 17.9873C100.15 18.8257 100.291 19.8502 100.028 20.8818Z" fill="#F4736C" stroke="#871C20" stroke-width="1.14295" stroke-miterlimit="10" stroke-linecap="round" stroke-linejoin="round"/>
<path d="M99.3512 17.9871C99.2902 17.9229 99.2245 17.8596 99.1557 17.797C99.1549 17.797 99.1549 17.7963 99.1549 17.7963C99.1322 17.7759 99.1088 17.7556 99.0845 17.7352C99.0775 17.729 99.0712 17.7227 99.0642 17.7165C97.3553 16.2203 95.3492 15.0213 93.1953 14.24C91.3049 13.5541 89.2996 13.1889 87.2833 13.2288V13.228C83.4025 13.2491 75.5971 12.9135 71.728 13.0637C67.8973 13.2123 62.4069 13.8646 60.5627 15.8817C60.0973 16.3916 60.0066 17.2558 60.1559 18.3609C60.6862 22.2793 63.9515 36.1249 66.222 39.3839C66.5778 39.8939 67.2293 40.2732 68.0779 40.3741C69.6226 40.5579 73.3509 40.8903 75.8497 40.5555C76.7249 40.4382 77.4491 40.2388 77.8769 39.9236C84.4748 36.049 89.0798 35.5641 96.0711 37.966C96.0711 37.966 96.0765 37.9558 96.0851 37.9355C96.3143 37.4349 99.266 23.515 100.028 20.8848C100.294 19.8493 100.152 18.8294 99.3512 17.9871Z" stroke="#871C20" stroke-width="1.14295" stroke-miterlimit="10" stroke-linecap="round" stroke-linejoin="round"/>
<path d="M124.485 63.5841C123.348 69.8613 119.964 75.7177 115.101 76.3277C110.238 76.9385 106.295 72.2068 106.293 65.7599C106.291 59.313 110.206 53.3948 115.096 52.9819C122.286 52.3742 125.636 57.2263 124.485 63.5841Z" fill="#FBD5BE"/>
<path d="M107.32 60.1598C108.799 56.2845 111.747 53.5111 115.099 52.9816C121.472 51.9743 126.164 56.8812 124.24 64.7992C122.711 71.0913 119.967 75.7174 115.104 76.3275C112.441 76.6614 110.054 75.3944 108.439 73.1208" stroke="#871C20" stroke-width="1.14295" stroke-miterlimit="10" stroke-linecap="round" stroke-linejoin="round"/>
<path d="M116.999 57.2559C112.182 60.7636 110.436 65.3866 112.304 69.6913" stroke="#871C20" stroke-width="1.14295" stroke-miterlimit="10" stroke-linecap="round" stroke-linejoin="round"/>
<path d="M116.218 65.1161C116.026 67.0549 114.245 68.6433 112.037 69.0055C111.135 66.3713 111.554 63.6473 113.178 61.1562C115.11 61.7076 116.4 63.2859 116.218 65.1161Z" fill="#871C20" stroke="#871C20" stroke-width="1.14295" stroke-miterlimit="10" stroke-linecap="round" stroke-linejoin="round"/>
<path d="M63.936 71.211L60.2968 70.4078C57.9364 69.9447 56.319 67.9817 56.6843 66.0233C57.0495 64.0649 59.259 62.8526 61.6186 63.3156L66.1134 64.2471" fill="#FBD5BE"/>
<path d="M63.936 71.211L60.2968 70.4078C57.9364 69.9447 56.319 67.9817 56.6843 66.0233C57.0495 64.0649 59.259 62.8526 61.6186 63.3156L66.1134 64.2471" stroke="#871C20" stroke-width="1.14295" stroke-miterlimit="10" stroke-linecap="round" stroke-linejoin="round"/>
<path d="M82.1953 13.938C82.1953 13.938 84.5369 16.9655 84.1944 20.5124C84.1944 20.5124 85.4645 15.345 85.6475 13.4194L82.1953 13.938Z" fill="#871C20" stroke="#871C20" stroke-width="1.14295" stroke-miterlimit="10" stroke-linecap="round" stroke-linejoin="round"/>
<path d="M94.1133 14.6016C94.1133 14.6016 95.4218 16.079 95.0597 18.8758C95.0597 18.8758 96.5941 17.0316 96.7302 15.9749L94.1133 14.6016Z" fill="#871C20" stroke="#871C20" stroke-width="1.14295" stroke-miterlimit="10" stroke-linecap="round" stroke-linejoin="round"/>
<path d="M75.2578 51.1384H82.5948" stroke="#871C20" stroke-width="1.14295" stroke-miterlimit="10" stroke-linecap="round" stroke-linejoin="round"/>
<path d="M51.8867 51.1384H59.2237" stroke="#871C20" stroke-width="1.14295" stroke-miterlimit="10" stroke-linecap="round" stroke-linejoin="round"/>
</g>
<defs>
<linearGradient id="paint0_linear_2_2159" x1="138.264" y1="129.794" x2="20.9127" y2="200.454" gradientUnits="userSpaceOnUse">
<stop offset="0.4183" stop-color="#8D95B7"/>
<stop offset="0.7685" stop-color="#A6ACC5"/>
<stop offset="1" stop-color="#B2B6CC"/>
</linearGradient>
<linearGradient id="paint1_linear_2_2159" x1="117.255" y1="109.268" x2="126.132" y2="106.597" gradientUnits="userSpaceOnUse">
<stop offset="0.0598" stop-color="#898CAA"/>
<stop offset="0.2066" stop-color="#9497B2"/>
<stop offset="0.4634" stop-color="#B1B3C7"/>
<stop offset="0.7972" stop-color="#DFE0E8"/>
<stop offset="1" stop-color="white"/>
</linearGradient>
<linearGradient id="paint2_linear_2_2159" x1="41.0954" y1="105.658" x2="32.3032" y2="102.718" gradientUnits="userSpaceOnUse">
<stop offset="0.0598" stop-color="#898CAA"/>
<stop offset="0.2066" stop-color="#9497B2"/>
<stop offset="0.4634" stop-color="#B1B3C7"/>
<stop offset="0.7972" stop-color="#DFE0E8"/>
<stop offset="1" stop-color="white"/>
</linearGradient>
<radialGradient id="paint3_radial_2_2159" cx="0" cy="0" r="1" gradientUnits="userSpaceOnUse" gradientTransform="translate(96.4422 140.236) scale(3.89403 3.89404)">
<stop offset="0.0921" stop-color="white"/>
<stop offset="0.2182" stop-color="#F8F8FA"/>
<stop offset="0.3985" stop-color="#E5E6ED"/>
<stop offset="0.6115" stop-color="#C6C8D6"/>
<stop offset="0.8477" stop-color="#9C9EB8"/>
<stop offset="0.9402" stop-color="#898CAA"/>
</radialGradient>
<radialGradient id="paint4_radial_2_2159" cx="0" cy="0" r="1" gradientUnits="userSpaceOnUse" gradientTransform="translate(44.2744 127.887) rotate(-154.919) scale(3.58757 3.58757)">
<stop offset="0.0921" stop-color="white"/>
<stop offset="0.2182" stop-color="#F8F8FA"/>
<stop offset="0.3985" stop-color="#E5E6ED"/>
<stop offset="0.6115" stop-color="#C6C8D6"/>
<stop offset="0.8477" stop-color="#9C9EB8"/>
<stop offset="0.9402" stop-color="#898CAA"/>
</radialGradient>
<linearGradient id="paint5_linear_2_2159" x1="109.912" y1="115.05" x2="116.304" y2="113.126" gradientUnits="userSpaceOnUse">
<stop offset="0.0598" stop-color="#898CAA"/>
<stop offset="0.2066" stop-color="#9497B2"/>
<stop offset="0.4634" stop-color="#B1B3C7"/>
<stop offset="0.7972" stop-color="#DFE0E8"/>
<stop offset="1" stop-color="white"/>
</linearGradient>
<linearGradient id="paint6_linear_2_2159" x1="48.7448" y1="111.429" x2="42.8266" y2="110.427" gradientUnits="userSpaceOnUse">
<stop offset="0.0598" stop-color="#898CAA"/>
<stop offset="0.2066" stop-color="#9497B2"/>
<stop offset="0.4634" stop-color="#B1B3C7"/>
<stop offset="0.7972" stop-color="#DFE0E8"/>
<stop offset="1" stop-color="white"/>
</linearGradient>
<clipPath id="clip0_2_2159">
<rect width="150" height="150" rx="75" fill="white"/>
</clipPath>
</defs>
</svg>
