<svg width="150" height="150" viewBox="0 0 150 150" fill="none" xmlns="http://www.w3.org/2000/svg">
<g clip-path="url(#clip0_2_2028)">
<rect width="150" height="150" rx="75" fill="#617AFF"/>
<path d="M97.8569 100.389L107.793 100.371C109.234 100.37 110.66 100.084 111.99 99.5317C113.321 98.979 114.529 98.1696 115.546 97.1498C116.564 96.13 117.371 94.9198 117.92 93.5882C118.47 92.2566 118.752 90.8298 118.75 89.3892C118.744 86.4811 117.584 83.6943 115.524 81.6417C113.464 79.589 110.673 78.4386 107.765 78.4434L97.8281 78.4613" fill="#FFE8D9"/>
<path d="M109.129 96.4948L99.1923 96.5128L99.1599 78.4541H97.8164L97.8559 100.385L107.792 100.367C110.422 100.361 112.962 99.4094 114.948 97.6861C116.934 95.9629 118.235 93.583 118.612 90.9806C117.656 92.6524 116.276 94.0425 114.611 95.0106C112.946 95.9787 111.055 96.4907 109.129 96.4948Z" fill="#EABB9B"/>
<path d="M97.8569 100.389L107.793 100.371C109.234 100.37 110.66 100.084 111.99 99.5317C113.321 98.979 114.529 98.1696 115.546 97.1498C116.564 96.13 117.371 94.9198 117.92 93.5882C118.47 92.2566 118.752 90.8298 118.75 89.3892V89.3892C118.744 86.4811 117.584 83.6943 115.524 81.6417C113.464 79.589 110.673 78.4386 107.765 78.4434L97.8281 78.4613" stroke="#323854" stroke-width="2.2991" stroke-linecap="round" stroke-linejoin="round"/>
<path d="M108.061 89.3101C109.921 89.2958 111.699 88.5461 113.008 87.2248C114.316 85.9035 115.049 84.1179 115.045 82.2583L115.012 65.0762C114.973 44.2406 104.465 28.0212 75.0117 28.0751C48.1626 28.1254 35.1116 44.3771 35.1368 65.2234L35.1835 89.3999C35.1835 89.3999 88.5728 89.4609 108.061 89.3101Z" fill="#FF6161"/>
<path d="M75.0107 33.5032C104.468 33.4493 114.972 49.6687 115.011 70.5042L115.033 82.4667C115.033 82.3985 115.033 82.3338 115.033 82.262L115.001 65.0798C114.961 44.2443 104.454 28.0249 75 28.0787C48.1508 28.129 35.0999 44.3808 35.125 65.2271V69.6529C35.531 49.2879 48.5891 33.5535 75.0107 33.5032Z" fill="#FF8C80"/>
<path d="M108.061 89.3101C109.921 89.2958 111.699 88.5461 113.008 87.2248C114.316 85.9035 115.049 84.1179 115.045 82.2583L115.012 65.0762C114.973 44.2406 104.465 28.0212 75.0117 28.0751C48.1626 28.1254 35.1116 44.3771 35.1368 65.2234L35.1835 89.3999C35.1835 89.3999 88.5728 89.4609 108.061 89.3101Z" stroke="#323854" stroke-width="2.2991" stroke-linecap="round" stroke-linejoin="round"/>
<path d="M49.4747 100.482L38.5037 100.504C37.0622 100.508 35.634 100.228 34.3008 99.6801C32.9676 99.132 31.7556 98.3264 30.734 97.3094C29.7124 96.2925 28.9012 95.0841 28.347 93.7535C27.7928 92.4228 27.5063 90.9959 27.5039 89.5545C27.4992 86.6463 28.6496 83.8554 30.7022 81.7953C32.7549 79.7353 35.5417 78.5748 38.4498 78.5691L51.5223 78.5439" fill="#FFE8D9"/>
<path d="M29.3772 86.7273C29.3785 85.1559 29.7191 83.6033 30.3759 82.1758C28.9467 83.7479 28.0055 85.7018 27.6671 87.7993C27.3288 89.8969 27.6078 92.0476 28.4702 93.9894C29.3326 95.9312 30.7411 97.5803 32.5242 98.7357C34.3072 99.8911 36.3879 100.503 38.5125 100.497L49.4835 100.475L49.7494 97.6516H40.377C37.4701 97.6602 34.6787 96.5144 32.6162 94.466C30.5536 92.4176 29.3886 89.6341 29.3772 86.7273Z" fill="#EABB9B"/>
<path d="M49.4747 100.482L38.5037 100.504C37.0622 100.508 35.634 100.228 34.3008 99.6801C32.9676 99.1319 31.7556 98.3264 30.734 97.3094C29.7124 96.2925 28.9012 95.0841 28.347 93.7535C27.7928 92.4228 27.5063 90.9959 27.5039 89.5545V89.5545C27.4992 86.6463 28.6496 83.8554 30.7022 81.7953C32.7549 79.7353 35.5417 78.5748 38.4498 78.5691L51.5223 78.5439" stroke="#323854" stroke-width="2.2991" stroke-linecap="round" stroke-linejoin="round"/>
<path d="M32.3789 85.6709H32.4472C34.2358 85.668 35.9524 86.3756 37.2195 87.638C38.4866 88.9004 39.2005 90.6143 39.2043 92.403V92.9813" fill="#FFE8D9"/>
<path d="M32.3789 85.6709H32.4472C34.2358 85.668 35.9524 86.3756 37.2195 87.638C38.4866 88.9004 39.2005 90.6143 39.2043 92.403V92.9813" stroke="#323854" stroke-width="2.2991" stroke-linecap="round" stroke-linejoin="round"/>
<path d="M35.3633 138.963C36.441 159.44 53.386 171.575 74.1318 171.535C94.8775 171.496 111.787 159.321 112.775 138.816C106.384 132.328 91.4468 127.784 74.0492 127.827C56.6515 127.87 41.7289 132.451 35.3633 138.963Z" fill="white"/>
<path d="M74.121 166.427C54.9846 166.463 39.0813 156.142 35.8949 138.461C35.7117 138.633 35.5357 138.82 35.3633 138.978C36.441 159.454 53.386 171.589 74.1318 171.55C94.8775 171.51 111.787 159.336 112.775 138.831C112.606 138.658 112.415 138.471 112.243 138.317C109.121 156.009 93.243 166.391 74.121 166.427Z" fill="#EFEFEF"/>
<path d="M35.3633 138.309C36.5068 160.035 54.4861 172.911 76.4981 172.869C98.5101 172.827 116.451 159.91 117.5 138.153C110.719 131.269 94.87 126.448 76.4104 126.493C57.9508 126.539 42.1174 131.399 35.3633 138.309Z" stroke="#323854" stroke-width="2.43943" stroke-linecap="round" stroke-linejoin="round"/>
<path d="M75.2551 136.28L88.3097 143.755L84.8682 130.866C84.4528 129.318 83.5529 127.944 82.3001 126.945C81.0474 125.945 79.5076 125.373 77.9063 125.312C76.6346 125.264 75.3473 125.242 74.0445 125.244C73.071 125.244 72.0077 125.291 70.9623 125.352C69.2052 125.46 67.5422 126.183 66.2637 127.393C64.9853 128.603 64.1727 130.224 63.968 131.973L62.4844 144.592L75.2551 136.28Z" fill="white" stroke="#323854" stroke-width="2.2991" stroke-linecap="round" stroke-linejoin="round"/>
<path d="M74.1346 136.284H73.9981C72.1916 136.284 70.4588 135.567 69.1794 134.292C67.9 133.017 67.1783 131.286 67.1726 129.48L67.1367 109.916L80.9097 109.891L80.9457 129.454C80.9466 131.263 80.2299 132.998 78.9529 134.278C77.6759 135.558 75.9429 136.28 74.1346 136.284Z" fill="#FFE8D9"/>
<path d="M74.1346 136.284H73.9981C72.1916 136.284 70.4588 135.567 69.1794 134.292C67.9 133.017 67.1783 131.286 67.1726 129.48L67.1367 109.916L80.9097 109.891L80.9457 129.454C80.9466 131.263 80.2299 132.998 78.9529 134.278C77.6759 135.558 75.9429 136.28 74.1346 136.284Z" fill="#EABB9B"/>
<path d="M74.1346 136.284H73.9981C72.1916 136.284 70.4588 135.567 69.1794 134.292C67.9 133.017 67.1783 131.286 67.1726 129.48L67.1367 109.916L80.9097 109.891L80.9457 129.454C80.9466 131.263 80.2299 132.998 78.9529 134.278C77.6759 135.558 75.9429 136.28 74.1346 136.284V136.284Z" stroke="#323854" stroke-width="2.2991" stroke-linecap="round" stroke-linejoin="round"/>
<path d="M65.5841 51.72C57.038 51.72 49.5803 57.0259 47.4752 64.5805C46.7329 67.2411 46.3594 69.9909 46.3651 72.7531V78.7846L41.9609 86.9141V91.2249C41.9933 109.276 58.2809 124.292 78.0711 124.49C98.1882 124.691 111.943 109.869 111.907 91.5841L111.871 72.6202C111.867 69.6899 111.437 66.7759 110.593 63.9698C108.39 56.6451 100.929 51.6697 92.5877 51.6697L65.5841 51.72Z" fill="#FFE8D9"/>
<path d="M79.5044 119.877C59.4987 119.68 42.9381 104.911 42.004 86.8276L41.9609 86.9067V91.2175C41.9933 109.269 58.2809 124.285 78.0711 124.483C93.3637 124.633 104.978 116.094 109.655 103.952C103.746 113.626 93.0008 120.01 79.5044 119.877Z" fill="#EABB9B"/>
<path d="M46.5204 69.5054C46.4092 70.5543 46.3529 71.6083 46.3516 72.663L46.524 72.3433L46.5204 69.5054Z" fill="#EABB9B"/>
<path d="M46.3495 72.7565C46.3495 72.7242 46.3495 72.6918 46.3495 72.6631L41.9453 80.7925V85.2865C41.9453 85.8074 41.9669 86.3211 41.992 86.8349L46.3531 78.7844L46.3495 72.7565Z" fill="#EABB9B"/>
<path d="M65.5841 51.72C57.038 51.72 49.5803 57.0259 47.4752 64.5805C46.7329 67.2411 46.3594 69.9909 46.3651 72.7531V78.7846L41.9609 86.9141V91.2249C41.9933 109.276 58.2809 124.292 78.0711 124.49C98.1882 124.691 111.943 109.869 111.907 91.5841L111.871 72.6202C111.867 69.6899 111.437 66.7759 110.593 63.9698C108.39 56.6451 100.929 51.6697 92.5877 51.6697L65.5841 51.72Z" stroke="#323854" stroke-width="2.2991" stroke-linecap="round" stroke-linejoin="round"/>
<path d="M46.3814 72.1458L46.3993 81.7588C46.3993 88.1496 44.3194 89.953 42.0059 89.9602L41.8945 75.3789" fill="#FF6161"/>
<path d="M46.3814 72.1458L46.3993 81.7588C46.3993 88.1496 44.3194 89.953 42.0059 89.9602L41.8945 75.3789" stroke="#323854" stroke-width="2.2991" stroke-linecap="round" stroke-linejoin="round"/>
<path d="M65.4597 90.2909C66.8008 90.2909 67.8881 89.2037 67.8881 87.8625C67.8881 86.5213 66.8008 85.4341 65.4597 85.4341C64.1185 85.4341 63.0312 86.5213 63.0312 87.8625C63.0312 89.2037 64.1185 90.2909 65.4597 90.2909Z" fill="#444A54"/>
<path d="M99.6448 90.0328C100.986 90.0302 102.071 88.9409 102.069 87.5997C102.066 86.2586 100.977 85.1734 99.6354 85.176C98.2943 85.1786 97.2091 86.2679 97.2117 87.6091C97.2143 88.9502 98.3036 90.0354 99.6448 90.0328Z" fill="#444A54"/>
<path d="M57.9297 80.5843C60.8826 78.5294 65.0245 77.4733 70.5999 77.8361" stroke="#323854" stroke-width="2.2991" stroke-linecap="round" stroke-linejoin="round"/>
<path d="M105.685 80.4946C102.725 78.4505 98.5795 77.4087 93.0078 77.7931" stroke="#323854" stroke-width="2.2991" stroke-linecap="round" stroke-linejoin="round"/>
<path d="M70.6367 98.9555C71.3678 101.418 72.8757 103.577 74.9353 105.112C76.9948 106.646 79.4956 107.473 82.0639 107.469H82.5812C85.1496 107.463 87.6471 106.627 89.7009 105.085C91.7547 103.542 93.2544 101.377 93.9761 98.9124L70.6367 98.9555Z" fill="#444A54" stroke="#323854" stroke-width="2.2991" stroke-miterlimit="10"/>
<path d="M75.3813 136.352C75.2591 136.28 75.446 171.557 75.446 171.557L75.3813 136.352Z" fill="#FFD371"/>
<path d="M75.3813 136.352C75.2591 136.28 75.446 171.557 75.446 171.557" stroke="#323854" stroke-width="2.2991" stroke-linecap="round" stroke-linejoin="round"/>
<path d="M75.8288 51.7019L72.082 55.4667" stroke="#323854" stroke-width="2.2991" stroke-linecap="round" stroke-linejoin="round"/>
<path d="M71.9418 51.709L68.1914 55.4737" stroke="#323854" stroke-width="2.2991" stroke-linecap="round" stroke-linejoin="round"/>
<path d="M82.3115 101.603C80.9287 101.606 79.5687 101.955 78.3561 102.62C77.1436 103.285 76.1172 104.243 75.3711 105.407C77.343 106.753 79.6761 107.471 82.0636 107.466H82.5809C84.9686 107.462 87.2992 106.736 89.2663 105.382C88.5159 104.221 87.4859 103.266 86.2709 102.606C85.0558 101.945 83.6944 101.601 82.3115 101.603Z" fill="#FF6161"/>
<path d="M82.3115 101.603C80.9287 101.606 79.5687 101.955 78.3561 102.62C77.1436 103.285 76.1172 104.243 75.3711 105.407C77.343 106.753 79.6761 107.471 82.0636 107.466H82.5809C84.9686 107.462 87.2992 106.736 89.2663 105.382C88.5159 104.221 87.4859 103.266 86.2709 102.606C85.0558 101.945 83.6944 101.601 82.3115 101.603Z" stroke="#323854" stroke-width="2.2991" stroke-linecap="round" stroke-linejoin="round"/>
<path d="M55.9695 91.2749C54.7732 93.0998 64.0522 100.015 65.2377 97.31C66.4232 94.605 57.1657 89.45 55.9695 91.2749Z" fill="#FFF2EB"/>
<path d="M93.0054 57.5358C95.8793 54.9026 108.571 62.7914 107.375 69.5019C106.178 76.2124 87.9761 63.8835 93.0054 58.1321" fill="#FFF2EB"/>
</g>
<defs>
<clipPath id="clip0_2_2028">
<rect width="150" height="150" rx="75" fill="white"/>
</clipPath>
</defs>
</svg>
